<?xml version="1.0" standalone="no"?>
<!DOCTYPE svg PUBLIC "-//W3C//DTD SVG 1.1//EN" "http://www.w3.org/Graphics/SVG/1.1/DTD/svg11.dtd" >
<svg xmlns="http://www.w3.org/2000/svg" xmlns:xlink="http://www.w3.org/1999/xlink" version="1.1">
<metadata>
Created by FontForge 20201107 at Wed Aug 21 17:43:56 2019
 By Jimmy Wärting
Soviet
</metadata>
<defs>
<font id="Soviet" horiz-adv-x="500" >
  <font-face 
    font-family="Soviet"
    font-weight="400"
    font-stretch="normal"
    units-per-em="1000"
    panose-1="2 0 5 6 0 0 0 2 0 3"
    ascent="800"
    descent="-200"
    x-height="540"
    cap-height="714"
    bbox="-700 -396 978 791.029"
    underline-thickness="50"
    underline-position="-100"
    unicode-range="U+0020-25CC"
  />
<missing-glyph horiz-adv-x="610" 
 />
    <glyph glyph-name=".notdef" horiz-adv-x="610" 
 />
    <glyph glyph-name=".null" horiz-adv-x="1" 
 />
    <glyph glyph-name=".null" horiz-adv-x="1" 
 />
    <glyph glyph-name="nonmarkingreturn" horiz-adv-x="1" 
 />
    <glyph glyph-name="space" unicode=" " horiz-adv-x="263" 
 />
    <glyph glyph-name="exclam" unicode="!" horiz-adv-x="339" 
d="M279 504q1 -8 1.5 -16t0.5 -15q0 -73 -28 -213q-29 -140 -41 -155q-2 -1 -5.5 -2.5l-7 -3t-6 -2.5t-3.5 -3l-90 366q0 45 20 70.5t61 25.5q17 0 33 -3.5t29.5 -10t23 -16t12.5 -22.5zM259 -11q0 -30 -17.5 -50t-49.5 -20q-34 0 -52 20t-18 50q0 31 17 51t51 20t51.5 -20
t17.5 -51z" />
    <glyph glyph-name="parenleft" unicode="(" horiz-adv-x="236" 
d="M298 553h-45q-15 -4 -28.5 -18.5t-25 -37t-20.5 -52t-15.5 -62.5t-10.5 -69.5t-4 -73.5q0 -85 17 -152.5t53 -109.5q3 -3 8.5 -4.5t11.5 -2.5t10.5 -1.5t5.5 -0.5q15 0 22 1t13 3l-2 -40h-69q-55 0 -94.5 37.5t-64.5 109.5q-34 95 -34 210q0 61 9.5 112t27.5 89t44 61.5
t59 29.5q12 2 29.5 3t34.5 1h34.5h17.5t9 -1t7 -2v-30z" />
    <glyph glyph-name="parenright" unicode=")" horiz-adv-x="259" 
d="M-44 553v30q4 1 7 2t9 1h18h34q17 0 34.5 -1t29.5 -3q33 -6 59 -29.5t44 -61.5t27.5 -89t9.5 -112q0 -115 -33 -210q-25 -72 -65 -109.5t-95 -37.5h-69l-1 40q5 -2 12 -3t22 -1q1 0 6 0.5t11 1.5t11.5 2.5t7.5 4.5q37 42 53.5 109.5t16.5 152.5q0 37 -3.5 73.5t-10 69.5
t-16 62.5t-21 52t-25 37t-28.5 18.5h-45z" />
    <glyph glyph-name="comma" unicode="," horiz-adv-x="221" 
d="M120 -66q-34 0 -57 24q-24 25 -24 58q0 35 24 59t58 24q35 0 59 -24q44 -48 21 -123t-165 -76q59 23 71.5 34t12.5 24z" />
    <glyph glyph-name="hyphenminus" unicode="-" horiz-adv-x="277" 
d="M24 285v0h203q7 0 12.5 -7.5t5.5 -21.5q0 -12 -5.5 -20t-12.5 -8l-203 -21v78z" />
    <glyph glyph-name="period" unicode="." horiz-adv-x="275" 
d="M65 61q0 36 18.5 55t53.5 19q36 0 54.5 -20t18.5 -54q0 -35 -19 -55t-54 -20t-53.5 20t-18.5 55z" />
    <glyph glyph-name="slash" unicode="/" horiz-adv-x="378" 
d="M-48 -138l348 738h100l-348 -738h-100z" />
    <glyph glyph-name="colon" unicode=":" horiz-adv-x="332" 
d="M190 587q37 0 63 -27.5t26 -65.5q0 -39 -26 -66.5t-63 -27.5t-63.5 27.5t-26.5 66.5q0 38 26.5 65.5t63.5 27.5zM190 200q37 0 63 -27.5t26 -65.5q0 -39 -26 -66.5t-63 -27.5t-63.5 27.5t-26.5 66.5q0 38 26.5 65.5t63.5 27.5z" />
    <glyph glyph-name="semicolon" unicode=";" horiz-adv-x="328" 
d="M193 587q37 0 63 -27.5t26 -65.5q0 -39 -26 -66.5t-63 -27.5t-63.5 27.5t-26.5 66.5q0 38 26.5 65.5t63.5 27.5zM190 32q-34 0 -57 24q-24 25 -24 58q0 35 24 59t58 24t58 -24q45 -48 22 -123t-165 -76q59 23 71.5 34t12.5 24z" />
    <glyph glyph-name="question" unicode="?" horiz-adv-x="527" 
d="M225 333q-56 49 -56 96q0 20 8 38q30 65 112 65q90 0 128 -64q32 -54 32 -113q0 -22 -5 -41t-18 -38t-32 -37t-47 -37q-63 -41 -63 -87q0 -25 17 -49q-74 88 -74 151q0 55 59 91q102 60 102 97q0 9 -4.5 16.5t-11 12t-14.5 7.5t-15 3q-17 0 -34 -9t-33 -24.5t-29 -35.5
t-22 -42zM216 -23q0 18 7 33.5t18.5 27.5t27 19t32.5 7q16 0 30.5 -6.5t25 -17.5t17 -27t6.5 -35q0 -18 -6.5 -34t-18 -27.5t-26.5 -18.5t-32 -7q-16 0 -31 7t-26 18.5t-17.5 27.5t-6.5 33z" />
    <glyph glyph-name="bracketleft" unicode="[" horiz-adv-x="282" 
d="M340 641h-240v106h240v-106zM169 747v-945h-89v945h89zM340 -200h-240v106h240v-106z" />
    <glyph glyph-name="backslash" unicode="\" horiz-adv-x="400" 
d="M400 -138h-100l-348 738h100z" />
    <glyph glyph-name="bracketright" unicode="]" horiz-adv-x="253" 
d="M-80 641v106h240v-106h-240zM91 747h89v-945h-89v945zM-80 -200v106h240v-106h-240z" />
    <glyph glyph-name="multiply" unicode="&#xd7;" horiz-adv-x="571" 
d="M355 250l117 -117l-70 -71l-117 118l-118 -118l-70 71l117 117l-117 117l70 71l118 -117l117 117l70 -71z" />
    <glyph glyph-name="quoteleft" unicode="&#x2018;" horiz-adv-x="281" 
d="M116 579q34 -1 58 -25t24 -58t-24 -58t-59 -24q-34 0 -58 24q-45 47 -22 122.5t165 76.5q-59 -23 -71.5 -34t-12.5 -24z" />
    <glyph glyph-name="quoteright" unicode="&#x2019;" horiz-adv-x="281" 
d="M159 504q-34 0 -57 24q-24 24 -24 58t24 58t58 24q35 0 59 -24q44 -47 21 -122.5t-165 -75.5q59 22 71.5 33.5t12.5 24.5z" />
    <glyph glyph-name="quotesinglbase" unicode="&#x201a;" horiz-adv-x="272" 
d="M120 -66q-34 0 -57 24q-24 25 -24 58q0 35 24 59t58 24q35 0 59 -24q44 -48 21 -123t-165 -76q59 23 71.5 34t12.5 24z" />
    <glyph glyph-name="quotedblleft" unicode="&#x201c;" horiz-adv-x="521" 
d="M116 579q34 -1 58 -25t24 -58t-24 -58t-59 -24q-34 0 -58 24q-45 47 -22 122.5t165 76.5q-59 -23 -71.5 -34t-12.5 -24zM326 579q34 -1 58 -25t24 -58t-24 -58t-59 -24q-34 0 -58 24q-45 47 -22 122.5t165 76.5q-59 -23 -71.5 -34t-12.5 -24z" />
    <glyph glyph-name="quotedblright" unicode="&#x201d;" horiz-adv-x="530" 
d="M361 472q-34 0 -57 24q-24 25 -24 58q0 35 24 59t58 24q35 0 59 -24q44 -48 21 -123t-165 -76q59 23 71.5 34t12.5 24zM151 472q-34 0 -57 24q-24 25 -24 58q0 35 24 59t58 24q35 0 59 -24q44 -48 21 -123t-165 -76q59 23 71.5 34t12.5 24z" />
    <glyph glyph-name="signcandrabinducomb-beng" unicode="&#x981;" horiz-adv-x="0" 
d="M-221 678q4 -12 11.5 -22.5t18.5 -18t25 -12t32 -4.5q62 0 117 75q-15 -110 -90 -137q-45 -17 -83 -17q-24 0 -43 5.5t-33 14t-22.5 18t-10.5 18.5q-1 6 -1 13q0 24 20.5 40.5t58.5 26.5zM-184 672q0 9 4 16.5t11 13.5t15.5 10t18.5 4q9 0 17.5 -3.5t14.5 -9t10 -14
t4 -17.5t-4 -17t-10.5 -14t-15 -9.5t-18.5 -3.5t-18.5 3.5t-15 9.5t-10 14t-3.5 17z" />
    <glyph glyph-name="signanusvara-beng" unicode="&#x982;" horiz-adv-x="400" 
d="M245 375q13 9 24 19.5t19 20t12.5 18.5t4.5 16t-5.5 11.5t-14.5 4.5t-23 -5.5t-29.5 -14t-31 -20t-27.5 -23.5t-20 -24t-8 -23q0 -7 5 -10.5t14 -3.5q15 0 37 9.5t43 24.5zM91 399q0 29 11.5 55t31 45.5t45 31.5t53.5 12q27 0 51 -11t41.5 -30t27.5 -45t10 -56t-11 -56.5
t-29.5 -46t-43 -31t-52.5 -11.5q-27 0 -51.5 11.5t-43 31t-29.5 45.5t-11 55zM342 -44q16 39 24.5 70.5t8.5 56.5q0 47 -30 77q-30 31 -159 47q-117 15 -117 90q0 7 1 16q-28 -70 -28 -119q0 -104 129 -110q172 -8 172 -109v-9t-1 -10z" />
    <glyph glyph-name="signvisarga-beng" unicode="&#x983;" horiz-adv-x="300" 
d="M96 61q27 0 64 27q19 13 33 30.5t14 27.5q0 13 -15 13t-42 -15.5t-46 -34.5q-22 -22 -22 -38q1 -10 14 -10zM94 336q27 0 64 27q21 15 34 31.5t13 26.5q0 13 -15 13t-41.5 -15.5t-47.5 -35.5t-21 -36q0 -11 14 -11zM145 -7q-43 0 -75 34t-32 79q0 46 33.5 80t78.5 34
q43 0 73 -32t30 -80t-31.5 -81.5t-76.5 -33.5zM144 269q-44 0 -76 33.5t-32 79.5q0 45 34 79.5t77 34.5q44 0 74 -32.5t30 -80.5q0 -46 -31.5 -80t-75.5 -34z" />
    <glyph glyph-name="a-beng" unicode="&#x985;" horiz-adv-x="752" 
d="M-7 416h-1v95h770v-97h-85v-344q0 -46 40 -70h-122q-40 0 -40 41v49q-8 32 -50 32q-24 0 -58 -10q-9 -11 -19 -21q-58 -59 -142 -59q-38 0 -81 12q-139 38 -144 160t-62 160q18 2 35 2q137 0 137 -123v-44q0 -59 4.5 -84t14.5 -25q11 0 41 15q120 62 168 122q33 42 33 80
q0 20 -16 20t-50 -21q-61 -38 -61 -73q0 -11 6 -22q-77 58 -77 105q0 33 30.5 55.5t64.5 22.5q23 0 49 -8q87 -26 111 -117q5 -21 5 -40q0 -8 -1 -15h2q49 0 60 -68v268h-562v2z" />
    <glyph glyph-name="aa-beng" unicode="&#x986;" horiz-adv-x="963" 
d="M887 414v-340q0 -45 38 -69h-120q-39 0 -39 41v368h-89v-344q0 -46 40 -70h-122q-40 0 -40 41v49q-8 32 -50 32q-24 0 -58 -10q-66 -80 -161 -80q-38 0 -81 12q-139 38 -144 160t-62 160q18 2 35 2q137 0 137 -123v-44q0 -109 19 -109q11 0 41 15q201 104 201 202
q0 20 -16 20t-50 -21q-61 -38 -61 -73q0 -11 6 -22q-77 58 -77 105q0 33 30.5 55.5t64.5 22.5q23 0 49 -8q87 -26 111 -117q5 -21 5 -40q0 -8 -1 -15h2q49 0 60 -68v268h-562v2h-1v95h986v-97h-91z" />
    <glyph glyph-name="i-beng" unicode="&#x987;" horiz-adv-x="538" 
d="M336 -76q-113 0 -292 211q17 -1 35 -1q209 16 254 81.5t43 79.5q0 15 -40 15q-36 0 -96 -14.5t-60 -56.5q0 -21 10 -42q-22 -3 -39 -3q-75 0 -75 63q0 85 81 123q47 22 93 22q29 0 78 -7q120 -34 120 -158q0 -65 -50 -103q-54 -41 -159 -41q-52 0 -120 10
q101 -69 182 -69q15 0 28 3q89 17 103 57q22 -40 22 -72q0 -60 -78 -91q-19 -7 -40 -7zM426 511q7 12 7 25q0 21 -11 35q-15 17 -43 17q-36 0 -114 -28q-57 -21 -103 -21q-53 0 -83 24t-30 61q0 47 28.5 74.5t70.5 27.5q19 0 34 -9q-84 -15 -84 -56q0 -15 11.5 -23.5
t30.5 -8.5q13 0 26 4l121 38q42 13 75 13q55 0 87 -36q29 -31 29 -72q0 -38 -20 -65h99v-97h-564v2h-1v95h434z" />
    <glyph glyph-name="ii-beng" unicode="&#x988;" horiz-adv-x="593" 
d="M493 -7q-27 0 -59 24q-54 40 -54 129q0 36 8 80l-62 -123q-57 -104 -112 -104q-23 0 -47 19q-79 63 -100 188q31 -63 68 -63q26 0 55 29q51 51 51 101q0 20 -9 40q-27 30 -45 30q-11 0 -18.5 -10t-7.5 -24q0 -26 22 -64q-39 -21 -66 -21t-44.5 24.5t-17.5 63.5
q0 47 43 70q34 18 66 18q52 0 84.5 -32t38.5 -86q76 97 135 97q5 0 11 -1l117 -69q-92 -24 -115 -96q-7 -21 -7 -39q0 -39 41 -39q40 0 40 43v8q59 -50 59 -100q0 -19 -7.5 -36t-18 -29.5t-24 -20t-25.5 -7.5zM-7 416h-1v95h478q8 12 8 25q0 20 -13 35q-16 18 -47 18
q-40 0 -128 -29q-64 -21 -116 -21q-58 0 -93 25q-32 23 -32 59q0 48 33 76q30 26 78 26q21 0 38 -8q-51 -8 -74 -23q-21 -13 -21 -33q0 -15 14 -24t34 -9q8 0 20.5 2.5t31.5 8t46.5 13.5t65.5 19q46 13 83 13q33 0 58 -10t41 -26t23.5 -35t7.5 -37q0 -37 -22 -65h102v-97
h-615v2z" />
    <glyph glyph-name="u-beng" unicode="&#x989;" horiz-adv-x="541" 
d="M-7 415h-1v95h1v1h437q6 13 6 25q0 20 -12 35q-15 18 -43 18q-35 0 -114 -29q-58 -21 -104 -21q-53 0 -83 24t-30 61q0 48 30 76q28 27 69 27q20 0 35 -8q-45 -9 -66 -24q-19 -13 -19 -33q0 -15 12 -24t31 -9q12 0 26 5l122 38q41 13 74 13q55 0 88 -36q29 -31 29 -73
q0 -37 -20 -65h96v-97h-231l-1 -171q76 40 118 134q71 -21 87 -132q3 -18 3 -34q0 -75 -58 -128q-61 -56 -154 -56q-46 0 -101 14q-148 39 -153 160.5t-67 161.5q20 1 37 1q147 0 147 -122v-48q0 -101 16 -106q4 -2 10 -2q29 0 105 23q95 27 150 144q-43 -45 -165 -46
l-83 71v136h-224v1z" />
    <glyph glyph-name="uu-beng" unicode="&#x98a;" horiz-adv-x="552" 
d="M557 511v-97h-225v-175q76 40 119 136q73 -22 89 -134q3 -19 3 -35q0 -37 -15.5 -71t-43.5 -60t-68 -41.5t-88 -15.5t-103 15q-153 39 -165.5 170t-59.5 157l48 4q5 2 10 2q62 0 62 -158v-16q9 50 9 92q0 71 -32 89q8 1 15 1q90 0 90 -107q0 -11 -2 -32q-7 -64 -7 -104
q0 -33 5 -43q3 -9 15 -9q31 0 108 22q97 28 153 147q-44 -45 -168 -47l-86 74v139h-227v97h444q7 12 7 26q0 21 -11 36q-16 18 -44 18q-37 0 -117 -29q-59 -22 -106 -22q-54 0 -85 26q-30 23 -30 61q0 49 30 78q28 27 71 27q20 0 35 -9q-46 -8 -67 -23q-19 -14 -19 -35
q0 -15 12 -24t31 -9q13 0 27 5l124 39q42 13 76 13q30 0 52.5 -10.5t37.5 -26.5t22 -35.5t7 -38.5q0 -39 -20 -67h87z" />
    <glyph glyph-name="vocalicr-beng" unicode="&#x98b;" horiz-adv-x="697" 
d="M298 41v192q-24 -50 -97 -50q-15 0 -31 2q16 -84 128 -144zM634 414v-343q0 -46 40 -71h-121q-40 0 -41 42v40q-27 56 -61 56q-15 0 -31 -12v-55q0 -46 40 -71h-98q-287 0 -362 247q32 -2 61 -2q170 0 237 68v29q-41 52 -111 52q-14 -89 -94 -89q-71 0 -86 75
q-3 11 -3 23q0 61 72 96q9 -64 42 -64q23 0 36.5 15.5t13.5 39.5q0 8 -2 20q105 -10 132 -99v35q-2 8 -2 108q25 -43 51 -43h33q39 -2 39 -42v-202q79 -12 93 -117v404q23 -43 49 -43h146v-97h-73z" />
    <glyph glyph-name="e-beng" unicode="&#x98f;" horiz-adv-x="520" 
d="M374 84q-11 7 -26 7q-30 0 -73 -31q-67 -49 -118 -49q-16 0 -29 6q-46 16 -77 60t-31 95q0 52 24 81t68 29q61 0 76 -94h-9q-50 0 -77 -17q-23 -15 -23 -40q0 -7 2 -12t11 -5q28 0 118 54q35 21 65 21q58 0 99 -76v340q-91 -9 -120 -55q-23 -37 -23 -62q0 -24 20 -36
q-34 -8 -59 -8q-44 0 -67.5 21t-23.5 62q0 65 87 115q39 21 91 21q83 0 202 -55l11 -4v-385q0 -44 38 -67h-118q-38 0 -38 40v44z" />
    <glyph glyph-name="ai-beng" unicode="&#x990;" horiz-adv-x="630" 
d="M529 0h-117q-38 0 -38 40v43q-11 7 -26 7q-30 0 -73 -30q-66 -49 -117 -49q-16 0 -30 6q-45 16 -76 60t-31 95t23.5 80t67.5 29q61 0 76 -94q-58 0 -83.5 -16t-25.5 -40q0 -18 13 -18q28 0 118 55q35 21 65 21q59 0 99 -77v340q-90 -9 -120 -55q-23 -37 -23 -61t20 -37
q-34 -7 -59 -7q-91 0 -91 82q0 66 88 115q38 21 90 21q84 0 206 -56l7 -3v-78q22 5 32 22t10 30q0 25 -21 43q-28 23 -105 49q-65 21 -104.5 59t-39.5 81q0 32 32 64q27 27 58 27l12 -1q56 -10 70 -50q-42 22 -66 22q-17 0 -27 -10.5t-10 -23.5q0 -31 42 -47l115 -45
q111 -41 111 -134q0 -46 -34 -78q-30 -30 -69 -30h-6v-284q0 -44 37 -67z" />
    <glyph glyph-name="o-beng" unicode="&#x993;" horiz-adv-x="538" 
d="M311 0q-40 0 -87 10q-151 33 -156 139.5t-68 140.5q10 1 38 1q149 0 149 -106v-42q0 -52 4.5 -72.5t15.5 -20.5q26 0 129 52q62 32 98.5 68.5t36.5 70.5q0 17 -18 17t-54 -19q-67 -32 -67 -64q0 -10 7 -19q-83 50 -83 91q0 30 33 49.5t70 19.5h10q65 78 65 106
q0 24 -34 24q-36 0 -82 -24q-32 -17 -54 -39t-22 -45q0 -17 11 -33q-121 27 -121 98q0 54 42 81t122 27q37 0 70 -7q139 -32 139 -136q0 -62 -69 -66q74 -26 96 -96q5 -17 5 -34q0 -63 -71 -121q-63 -51 -155 -51z" />
    <glyph glyph-name="au-beng" unicode="&#x994;" horiz-adv-x="631" 
d="M311 0q-41 0 -87 10q-151 33 -156 139.5t-68 140.5q20 2 38 2q149 0 149 -107l-1 -42q0 -93 21 -93q26 0 128 53q135 69 135 138q0 17 -17 17q-18 0 -55 -18q-66 -33 -66 -64q0 -10 7 -20q-84 51 -84 92q0 29 33 48.5t71 19.5h10q65 78 65 106q0 25 -34 25q-36 0 -83 -25
q-32 -17 -52 -38q-24 -24 -24 -46q0 -16 12 -33q-122 28 -122 99q0 107 165 107q37 0 70 -7q139 -32 139 -136q0 -38 -26 -54l17 -1q18 0 35 13q22 16 22 42q0 24 -19.5 48t-77.5 63q-102 70 -102 153q0 47 39 75q31 21 57 21q30 0 56 -26q22 -23 24 -48q-42 41 -67 41
q-16 0 -25.5 -11.5t-9.5 -24.5q0 -10 2 -17.5t8 -15t15 -15t23 -18t33 -24t45 -33.5q40 -29 57.5 -59.5t17.5 -65.5q0 -54 -36 -90q-32 -33 -72 -33q-32 0 -56 20q-13 -4 -30 -5q75 -26 96 -96q6 -18 6 -35q0 -62 -71 -120q-63 -52 -155 -52z" />
    <glyph glyph-name="ka-beng" unicode="&#x995;" horiz-adv-x="680" 
d="M316 43v252q-28 -59 -102 -59q-9 0 -26 2q0 -119 128 -195zM438 414v-42q224 -22 224 -172q0 -108 -111 -108q-43 0 -99 15q82 35 82 116q0 57 -96 111v-264q0 -45 39 -70h-98q-287 0 -362 350q65 -6 125 -6q116 0 174 27v43h-323v97h697v-97h-252z" />
    <glyph glyph-name="kha-beng" unicode="&#x996;" 
d="M437 414v-343q0 -46 40 -71h-99q-287 0 -362 247l38 -1q184 0 213 127q-17 26 -52 30q-24 -99 -105 -101q-45 0 -71.5 25.5t-26.5 74.5q0 61 72 96q8 -64 41 -64q24 0 37.5 16t13.5 39q0 6 -2 20q85 -37 103 -145q6 -30 6 -55q0 -93 -82 -124l-1 -18q0 -84 115 -135v523
q22 -44 49 -44h145v-97h-72z" />
    <glyph glyph-name="ga-beng" unicode="&#x997;" horiz-adv-x="508" 
d="M445 414v-344q0 -46 39 -70h-122q-39 0 -39 41v318q-47 32 -85 32q-43 0 -72 -43q95 -26 95 -100q0 -49 -25.5 -83.5t-69.5 -53.5q-17 -6 -31 -6q-63 0 -103 120q56 7 85 23q31 17 31 41q0 13 -5 21q-7 12 -21 12q-31 0 -102 -41q-3 27 -3 51q0 169 151 169
q102 0 155 -108l-1 161q23 -43 49 -43h145v-97h-71z" />
    <glyph glyph-name="gha-beng" unicode="&#x998;" horiz-adv-x="522" 
d="M463 414v-343q0 -46 40 -71h-99q-287 0 -362 247q77 9 128 21q-117 34 -117 104q0 20 9 42h-69v97h541v-97h-71zM341 414h-109q-57 -31 -57 -75q0 -28 23 -62q62 20 73 49l41 -102q-30 -33 -85 -39q-1 -10 -1 -18q0 -84 116 -136q-1 5 -1 383z" />
    <glyph glyph-name="nga-beng" unicode="&#x999;" horiz-adv-x="548" 
d="M329 0q-46 0 -99 14q-147 38 -152 158t-66 159q24 2 37 2q145 0 145 -122q0 -12 -0.5 -24t-0.5 -22q0 -101 16 -106q4 -1 10 -1q29 0 104 22q94 27 147 143q-42 -45 -162 -46l-83 71v77q-143 28 -143 106q0 67 101 67q10 0 20 -1q-25 -16 -25 -52t46 -69v14q0 56 29 90
q27 31 69 31t73 -27q33 -28 33 -71q0 -32 -21 -53q-23 -22 -74 -32v-115q74 39 116 132q70 -21 86 -130q3 -17 3 -34q0 -35 -15 -68t-42.5 -58t-66 -40t-85.5 -15zM333 354q23 6 38 21t15 28q0 11 -8.5 21.5t-21.5 10.5t-18 -8q-7 -10 -7 -40q0 -14 2 -33z" />
    <glyph glyph-name="ca-beng" unicode="&#x99a;" horiz-adv-x="503" 
d="M192 35q109 60 109 187v17q-21 -5 -38 -5q-60 0 -79 64v-226q0 -21 8 -37zM184 414v-43q44 -38 129 -38q58 0 137 18q4 -35 4 -66q0 -285 -282 -285h-70q-40 3 -40 44v370h-69v97h516v-97h-325z" />
    <glyph glyph-name="cha-beng" unicode="&#x99b;" horiz-adv-x="632" 
d="M200 182q114 41 114 117v10q-17 -2 -31 -2q-78 0 -91 68v-168q0 -14 8 -25zM637 511v-97h-437q39 -36 107 -36q50 0 117 20l9 -22q167 -1 167 -123q0 -69 -77 -116q-68 -41 -208 -41q-68 0 -148 9q149 -54 220 -54q43 0 68.5 15.5t33.5 39.5q65 -58 65 -97q0 -23 -27 -42
q-30 -21 -79 -21q-127 0 -382 178h40q163 0 245 25q95 28 126 97l1 20q0 47 -34 76q6 -25 6 -46q0 -140 -266 -140q-34 0 -73 2h2q-48 0 -48 29v227h-72v97h644z" />
    <glyph glyph-name="ja-beng" unicode="&#x99c;" horiz-adv-x="734" 
d="M737 511v-97h-346q33 -61 98 -61q69 0 107 34l96 -84q-13 -23 -47 -35q-29 -43 -29 -74q0 -21 13 -36.5t29 -15.5q18 0 40 21q17 -46 17 -79q0 -53 -42 -76q-25 -12 -47 -12q-13 0 -28.5 6.5t-29 19.5t-22.5 31.5t-9 43.5q0 63 65 163q-22 -2 -34 -2q-154 0 -190 156h-3
q-38 -22 -58 -52q-21 -34 -21 -80q0 -52 32 -52h3q44 10 89 59q93 -48 94 -127q0 -28 -13 -56t-38 -51t-62 -37.5t-84 -14.5q-49 0 -105 15q-139 36 -144 167t-68 173q24 2 37 2q150 0 150 -131q0 -14 -0.5 -27t-0.5 -25q0 -109 17 -114q3 -1 10 -1q28 0 107 24
q97 29 146 113q-73 -24 -124 -24q-64 0 -101 38t-37 105q0 42 15 96h-226v97h744z" />
    <glyph glyph-name="jha-beng" unicode="&#x99d;" horiz-adv-x="727" 
d="M318 39v254q-28 -59 -102 -59q-9 0 -27 1v-4q0 -116 129 -192zM318 414h-325v97h407q40 0 41 -47v-199q80 -13 93 -122v411q26 -43 53 -43h150v-97h-80v-348q0 -46 39 -70h-122q-40 0 -40 42v41q-27 55 -61 55q-15 0 -32 -11v-57q0 -46 40 -70h-99q-29 0 -36 1
q-258 21 -329 352q66 -6 126 -6q117 0 175 26v45z" />
    <glyph glyph-name="nya-beng" unicode="&#x99e;" horiz-adv-x="706" 
d="M576 159q24 0 38 11q16 14 16 41v12q-16 -5 -29 -5q-49 0 -69 71q124 35 124 57q0 14 -24 14q-32 0 -78 -19q-39 -16 -71 -38v-108q55 -36 93 -36zM521 0h-117q-38 0 -38 40v43q-12 8 -26 8q-30 0 -73 -31q-68 -49 -118 -49q-16 0 -30 6q-45 16 -76 60t-31 95q0 52 24 81
t67 29q61 0 77 -94h-10q-50 0 -76 -17q-24 -15 -24 -40q0 -7 2 -12t11 -5q28 0 119 54q35 21 65 21q58 0 99 -76v340q-92 -9 -121 -55q-22 -37 -22 -62q0 -24 19 -37q-33 -7 -59 -7q-44 0 -67.5 21t-23.5 62q0 65 88 114q39 22 91 22q82 0 201 -56l11 -3v-117q12 41 35 64
q30 31 82 31q45 0 73 -34q26 -33 26 -82q0 -64 -58 -87q24 -2 40 -22q19 -22 19 -55q0 -11 -2 -23q-5 -26 -31 -46q-28 -22 -67 -22q-36 0 -70.5 22t-46.5 62v-76q0 -44 38 -67z" />
    <glyph glyph-name="tta-beng" unicode="&#x99f;" horiz-adv-x="518" 
d="M411 511q7 12 7 26q0 21 -11 36q-15 18 -44 18q-36 0 -117 -29q-59 -21 -106 -21q-54 0 -85 25q-30 24 -30 61q0 50 30 78q29 27 71 27q20 0 35 -9q-46 -8 -67 -23q-19 -13 -19 -35q0 -14 12 -23.5t31 -9.5q13 0 27 5l125 39q42 13 75 13q30 0 52.5 -10t37.5 -26
t22.5 -36t7.5 -38q0 -38 -21 -68h84v-97h-338v-311q0 -17 11 -30q157 59 229 216q1 4 1 7q0 11 -14 11q-13 0 -39 -10q-42 -16 -42 -48q0 -15 10 -34q-18 -2 -33 -2q-36 0 -56 17.5t-20 53.5q0 45 51 73q42 14 78 14q33 0 61 -17q33 -21 47 -52.5t14 -74.5q0 -176 -284 -176
h-98q-41 2 -41 31v332h-72v97h418z" />
    <glyph glyph-name="ttha-beng" unicode="&#x9a0;" horiz-adv-x="566" 
d="M224 23q54 0 124 84q49 57 49 117q0 24 -7 47q-26 86 -71 131q25 -69 25 -121q0 -120 -142 -122q-10 -49 -10 -81q0 -55 32 -55zM116 511q-28 56 -28 107q0 72 74 121q36 23 70 23q14 0 32 -6t33 -17.5t25.5 -28.5t10.5 -38q0 -56 -67 -142q-4 48 -29.5 85t-57.5 37
q-13 0 -22 -5q-11 -6 -11 -16q0 -21 34 -62q23 -27 54 -58h343v-97h-216q45 -30 90 -69q65 -56 65 -167q0 -100 -73 -146q-72 -45 -162 -45q-104 0 -153 39q-34 26 -51 58t-17 72q0 28 8 59q52 -25 89 -25q21 0 36.5 7t26.5 18.5t16.5 24.5t5.5 24q0 38 -13 73q-8 23 -48 77
h-188v97h123z" />
    <glyph glyph-name="dda-beng" unicode="&#x9a1;" horiz-adv-x="569" 
d="M329 414v-174q76 41 118 136q72 -22 89 -133q3 -19 3 -35q0 -37 -15.5 -70.5t-43.5 -59.5t-67.5 -41t-87.5 -15t-103 14q-150 39 -155 162t-68 163q25 2 38 2q149 0 149 -124q0 -13 -0.5 -25t-0.5 -23q0 -103 17 -108q3 -1 9 -1q30 0 107 22q96 27 152 146
q-44 -45 -167 -47l-85 73v138h-225v97h581v-97h-245z" />
    <glyph glyph-name="ddha-beng" unicode="&#x9a2;" horiz-adv-x="503" 
d="M183 414l1 -342q0 -27 14 -46q149 66 219 238q1 5 1 8q0 12 -14 12q-11 0 -38 -11q-40 -18 -40 -53q0 -16 9 -37q-18 -3 -31 -3q-36 0 -55 19.5t-19 59.5q0 50 49 81q41 16 73 16q36 0 62 -19q32 -23 45.5 -58t13.5 -84q0 -195 -276 -195h-94q-40 2 -40 43l-1 371h-69v97
h517v-97h-327z" />
    <glyph glyph-name="nna-beng" unicode="&#x9a3;" horiz-adv-x="522" 
d="M458 414v-344q0 -46 39 -70h-122q-39 0 -39 41v293q-63 58 -119 58q-23 0 -43 -9q-78 -29 -92 -85v-4q0 -10 15 -10q16 0 49 12q71 26 88 44q23 -37 23 -70q0 -38 -24 -62q-26 -25 -70 -25q-25 0 -56 7q-36 19 -60 61q-26 45 -26 94q0 38 18 74q48 92 143 92q57 0 96 -44
q36 -40 58 -122l1 209q22 -43 48 -43h145v-97h-72z" />
    <glyph glyph-name="ta-beng" unicode="&#x9a4;" horiz-adv-x="549" 
d="M311 22q-41 0 -87 12q-151 39 -156 163t-68 164l38 2q149 0 149 -125v-48q0 -109 20 -109q13 0 45 15q128 62 182 125q36 42 36 82q0 20 -18 20q-17 0 -54 -21q-67 -39 -67 -75q0 -11 7 -23q-83 59 -83 107q0 34 35 58q30 22 68 22q25 0 53 -8q95 -26 120 -120
q5 -20 5 -40q0 -72 -71 -141q-62 -60 -154 -60zM557 414h-564v97h564v-97z" />
    <glyph glyph-name="tha-beng" unicode="&#x9a5;" horiz-adv-x="518" 
d="M455 414v-343q0 -46 39 -71h-98q-287 0 -361 247q20 -1 39 -1q179 0 212 116q-28 41 -85 41q-86 0 -86 -53q0 -10 4 -24q-52 1 -80 21t-28 58q0 33 30 67q45 45 102 45q67 0 109 -51q26 -32 39 -82q11 -42 11 -76q0 -91 -82 -123q-2 -10 -2 -18q0 -84 116 -135
q-1 4 -1 10v512q23 -43 49 -43h145v-97h-72z" />
    <glyph glyph-name="da-beng" unicode="&#x9a6;" 
d="M152 414v-178q20 102 160 154q17 1 26 0q24 -3 45 -24l116 -134q-11 1 -22 1q-95 -1 -123 -86q-10 -58 -10 -91q0 -34 13 -34q20 0 46 63q13 32 13 54q0 24 -15 36q47 0 69.5 -19.5t22.5 -60.5q0 -59 -51 -88q-27 -16 -57 -16q-32 0 -66 19q-62 33 -73 103
q-3 70 26 110.5t70 44.5q-110 0 -187 -126q6 -27 27 -44h-94q-31 0 -31 42v274h-64v97h514v-97h-355z" />
    <glyph glyph-name="dha-beng" unicode="&#x9a7;" horiz-adv-x="512" 
d="M322 34v222q-28 -52 -102 -52q-13 0 -27 2v-4q0 -101 129 -168zM444 414v-346q0 -43 41 -68h-99q-289 -3 -364 304q68 -5 124 -5h22q-37 7 -65 29q-45 36 -45 91q0 39 33 77q36 41 86 41q53 0 87 -26.5t34 -64.5q0 -54 -111 -64q12 14 12 38q0 31 -11 51q-11 19 -23 20
q-18 0 -18 -33q0 -51 26 -85q28 -37 95 -65q31 5 54 14v232q23 -43 49 -43h147v-97h-74z" />
    <glyph glyph-name="na-beng" unicode="&#x9a8;" horiz-adv-x="524" 
d="M464 414v-344q0 -46 39 -70h-122q-40 0 -40 41v179q-54 56 -113 56q-28 0 -47 -12.5t-19 -35.5q0 -29 38 -51q-31 -20 -72 -20q-25 0 -49 11q-28 13 -45 34q-20 24 -20 54q0 53 35.5 82.5t111.5 37.5q113 0 180 -127v165h-348v97h546v-97h-75z" />
    <glyph glyph-name="pa-beng" unicode="&#x9aa;" horiz-adv-x="525" 
d="M208 311l124 59q-64 32 -116 32q-30 0 -55 -10q47 -28 47 -81zM461 414v-343q0 -46 40 -71h-124q-41 0 -41 42v204q-68 -33 -165 -87q-25 -14 -48 -14q-61 0 -102 103q68 7 98 26q25 16 25 41t-21 42q-33 -14 -63 -48l-45 122q61 72 153 83q6 1 13 1q83 0 154 -144l1 1
v181q23 -42 50 -42h148v-97h-73z" />
    <glyph glyph-name="pha-beng" unicode="&#x9ab;" horiz-adv-x="692" 
d="M700 511v-97h-472q-31 -20 -31 -34q0 -18 45 -25q79 -14 79 -159l1 -8q-47 -54 -109 -55q23 -56 135 -97v315h124q84 -11 131 -37q66 -37 66 -113q0 -93 -95 -93q-35 0 -84 13q70 30 70 99q0 50 -88 98v-245q0 -47 42 -73h-104q-289 1 -353 213h11q117 0 208 72
q-22 23 -51 23q-17 0 -37 -8q-44 -18 -73 -18t-44.5 19.5t-15.5 48.5q0 30 21 64h-83v97h707z" />
    <glyph glyph-name="ba-beng" unicode="&#x9ac;" horiz-adv-x="509" 
d="M318 42v253q-28 -59 -102 -59q-9 0 -27 2v-4q0 -116 129 -192zM441 414v-347q0 -46 40 -67h-99q-28 0 -36 2q-258 17 -328 347q65 -6 125 -6q117 0 175 26v45h-325v97h528v-97h-80z" />
    <glyph glyph-name="bha-beng" unicode="&#x9ad;" horiz-adv-x="555" 
d="M312 14q-42 0 -87 12q-151 42 -156.5 175.5t-68.5 176.5q26 3 48 3q136 0 136 -137q0 -88 6 -129q6 -38 18 -38q26 0 128 57q71 41 105 83q32 40 32 85q0 39 -31 60q-19 -160 -141 -168q-109 12 -109 121q0 87 88 92q-7 -22 -7 -37q0 -41 48 -41q59 0 98 69
q89 -24 114 -125q5 -22 5 -44q0 -77 -71 -150q-63 -65 -155 -65zM565 414h-572v97h572v-97z" />
    <glyph glyph-name="ma-beng" unicode="&#x9ae;" horiz-adv-x="502" 
d="M507 0h-122q-38 0 -38 41v81q-71 45 -116 45q-25 0 -42.5 -14.5t-17.5 -41.5q0 -31 43 -47q-36 -27 -80 -27q-37 0 -67 28q-33 31 -33 76q0 53 33 85t103 32q33 0 65 -18q-7 45 -59 45q-11 0 -25.5 -2t-25.5 -2q-41 0 -63.5 21t-22.5 55q0 28 17 57h-63v97h516v-97
l-41 -1v-343q0 -45 39 -70zM347 126v288h-143q-30 -19 -30 -39q0 -19 29 -37q43 -23 43 -63q0 -17 -7 -37q55 -31 108 -112z" />
    <glyph glyph-name="ya-beng" unicode="&#x9af;" horiz-adv-x="528" 
d="M466 414v-347q0 -46 40 -67h-102q-285 -4 -349 216h11q116 0 206 71q-22 24 -50 24q-17 0 -37 -9q-43 -18 -72 -18t-45 21q-15 18 -15 47t21 62h-81v97h546v-97h-73zM224 414q-30 -19 -30 -33q0 -18 44 -24q79 -14 79 -158q0 -4 1 -8q-47 -53 -108 -54q22 -56 134 -106
q-1 4 -1 383h-119z" />
    <glyph glyph-name="ra-beng" unicode="&#x9b0;" horiz-adv-x="508" 
d="M153 -44q-32 0 -57.5 24.5t-25.5 56.5q0 19 11 34q9 12 19 12q9 0 40 -27q17 -14 36 -26l17 -12q17 -13 17 -22q0 -16 -18.5 -28t-38.5 -12zM318 42v253q-28 -59 -102 -59q-9 0 -27 2v-4q0 -116 129 -192zM441 414v-347q0 -46 40 -67h-99q-28 0 -36 2q-258 17 -328 347
q65 -6 125 -6q117 0 175 26v45h-325v97h528v-97h-80z" />
    <glyph glyph-name="la-beng" unicode="&#x9b2;" horiz-adv-x="610" 
d="M-6 511h626v-97h-67v-344q0 -46 39 -70h-121q-40 0 -40 41v196q-27 24 -57 24q-19 0 -31 -10q-14 -11 -14 -30q0 -24 25 -41q-21 -17 -49 -17q-11 0 -24.5 5.5t-25.5 15.5t-20 25.5t-8 35.5q0 10 2 19h-7q-22 0 -36 -13q-16 -15 -16 -41q0 -33 30 -57q-24 -22 -56 -22
q-14 0 -30 7t-29.5 21.5t-23 36t-9.5 50.5q0 61 27 93q29 33 91 37q55 0 96 -53q23 15 62 19q62 0 103 -64v136h-437v97z" />
    <glyph glyph-name="sha-beng" unicode="&#x9b6;" horiz-adv-x="669" 
d="M608 414v-344q0 -46 39 -70h-122q-39 0 -39 42v290q-61 98 -142 98q-89 0 -89 -45q5 -49 33 -49q29 0 81 54q40 -59 40 -102q0 -20 -9 -36.5t-22.5 -28.5t-30 -18.5t-30.5 -6.5q-31 0 -62 28q-11 11 -20 24q-13 -24 -34 -44q-31 -29 -62 -29q-15 0 -32 8.5t-31 22t-24 31
t-10 36.5q0 43 52 91q51 -49 80 -49q23 0 31 30q-1 8 -1 17v10q-13 27 -88 27h-7q-110 0 -110 72q0 45 57 76q-3 -6 -3 -13q0 -29 75 -35q62 -7 93 -42q29 67 114 79h12q112 0 139 -131l-1 147q27 -43 82 -43h115v-97h-74z" />
    <glyph glyph-name="ssa-beng" unicode="&#x9b7;" horiz-adv-x="536" 
d="M351 36l-1 8v187q-23 30 -47 47l1 -96q-27 -51 -89 -53q22 -56 136 -93zM350 281v132h-120q-28 -18 -28 -33q0 -21 60 -35q53 -11 88 -64zM475 413v-340q0 -61 41 -72h-104q-290 -14 -355 210l11 -1q122 0 220 78q-26 14 -54 14q-18 0 -37 -6q-48 -17 -80 -17t-48 20
q-15 17 -15 46q0 30 19 63q1 2 3 5h-3v1h-84v97h555v-97z" />
    <glyph glyph-name="sa-beng" unicode="&#x9b8;" horiz-adv-x="574" 
d="M512 414v-343q0 -46 40 -71h-124q-40 0 -40 42v193h-4q-47 0 -58 -66q-9 -58 -37 -84q-27 -24 -73 -24q-34 0 -65 14q-34 14 -60 46q-27 34 -27 70q0 25 19 48q22 25 49 25q33 0 74 -37q-56 -42 -56 -78q0 -10 5 -21q6 -13 15 -13q20 0 57 117q9 27 22 43q-11 28 -53 28
q-10 0 -23.5 -1.5t-24.5 -1.5q-36 0 -58 17t-22 46q0 24 19 51h-98v97h595v-97h-72zM227 414q-33 -19 -33 -36q0 -16 28 -30q40 -20 40 -53q0 -4 -1 -8q15 11 33 11q39 0 94 -46v162h-161z" />
    <glyph glyph-name="ha-beng" unicode="&#x9b9;" horiz-adv-x="538" 
d="M336 -76q-113 0 -292 211q17 -1 35 -1q209 16 254 81.5t43 79.5q0 15 -40 15q-36 0 -96 -14.5t-60 -56.5q0 -21 10 -42q-22 -3 -39 -3q-75 0 -75 63q0 85 81 123q47 22 93 22q29 0 78 -7q120 -34 120 -158q0 -65 -50 -103q-54 -41 -159 -41q-52 0 -120 10
q101 -69 182 -69q15 0 28 3q89 17 103 57q22 -40 22 -72q0 -60 -78 -91q-19 -7 -40 -7zM-11 511h562v-97h-562v97z" />
    <glyph glyph-name="rra-beng" unicode="&#x9dc;" horiz-adv-x="523" 
d="M326 -95q-7 0 -28.5 3t-40.5 29q-10 15 -10 31q0 18 6.5 22.5t26.5 4.5q10 0 24 -1t29 -1h36q21 0 26.5 -7.5t5.5 -16.5q0 -8 -6 -23t-24.5 -28t-44.5 -13zM329 414v-174q76 41 118 136q72 -22 89 -133q3 -19 3 -35q0 -37 -15.5 -70.5t-43.5 -59.5t-67.5 -41t-87.5 -15
t-103 14q-150 39 -155 162t-68 163q25 2 38 2q149 0 149 -124q0 -13 -0.5 -25t-0.5 -23q0 -103 17 -108q3 -1 9 -1q30 0 107 22q96 27 152 146q-44 -45 -167 -47l-85 73v138h-225v97h581v-97h-245z" />
    <glyph glyph-name="rha-beng" unicode="&#x9dd;" horiz-adv-x="503" 
d="M178 -119q-7 0 -28 3t-40 29q-10 15 -10 31q0 18 8 24q5 3 23 3q10 0 25 -1t30 -1h36q21 0 26.5 -7.5t5.5 -16.5q0 -31 -29 -49q-21 -15 -47 -15zM183 414l1 -342q0 -27 14 -46q149 66 219 238q1 5 1 8q0 12 -14 12q-11 0 -38 -11q-40 -18 -40 -53q0 -16 9 -37
q-18 -3 -31 -3q-36 0 -55 19.5t-19 59.5q0 50 49 81q41 16 73 16q36 0 62 -19q32 -23 45.5 -58t13.5 -84q0 -195 -276 -195h-94q-40 2 -40 43l-1 371h-69v97h517v-97h-327z" />
    <glyph glyph-name="yya-beng" unicode="&#x9df;" horiz-adv-x="525" 
d="M190 -62q-30 0 -56.5 23.5t-26.5 54.5q0 13 7 25q8 15 19 15q4 0 10.5 -3t14.5 -7.5t17 -10t18 -9.5q14 -8 25.5 -13.5t22.5 -10.5q13 -5 13 -17q0 -19 -22 -34q-19 -13 -42 -13zM466 414v-347q0 -46 40 -67h-102q-285 -4 -349 216h11q116 0 206 71q-22 24 -50 24
q-17 0 -37 -9q-43 -18 -72 -18t-45 21q-15 18 -15 47t21 62h-81v97h546v-97h-73zM224 414q-30 -19 -30 -33q0 -18 44 -24q79 -14 79 -158q0 -4 1 -8q-47 -53 -108 -54q22 -56 134 -106q-1 4 -1 383h-119z" />
    <glyph glyph-name="ralowerdiagonal-beng" unicode="&#x9f1;" horiz-adv-x="510" 
d="M382 1q-29 0 -36 1q-258 17 -328 347q65 -6 125 -6q117 0 175 27v44h-271q-47 0 -47 50v91q25 -44 51 -44h418q40 0 40 -47v-89q-26 39 -52 39h-16v-346q0 -46 39 -68zM318 42v254q-28 -59 -102 -59q-9 0 -27 1v-4q0 -116 129 -192zM312 -50q-175 -38 -312 85l102 66
q58 -89 195 -117z" />
    <glyph glyph-name="ramiddlediagonal-beng" unicode="&#x9f0;" horiz-adv-x="508" 
d="M318 42v70q-58 7 -96 25q32 -57 96 -95zM318 148v147q-28 -59 -102 -59q-9 0 -27 2q0 -10 0 -9q58 -55 129 -81zM481 0h-99q-290 0 -364 349q65 -6 125 -6q117 0 175 26v45h-271q-47 0 -47 49v91q25 -43 51 -43h418q40 0 40 -48v-88q-26 39 -52 39h-16v-347q0 -46 40 -67
z" />
    <glyph glyph-name="signnuktacomb-beng" unicode="&#x9bc;" horiz-adv-x="0" 
d="M-322 -161q-7 0 -28 3t-40 29q-10 15 -10 31q0 18 8 24q5 3 23 3q10 0 25 -1t30 -1h36q21 0 26.5 -7.5t5.5 -16.5q0 -31 -29 -49q-21 -15 -47 -15z" />
    <glyph glyph-name="vowelsignaa-beng" unicode="&#x9be;" horiz-adv-x="280" 
d="M203 414v-344q0 -46 39 -70h-122q-39 0 -39 41v373h-87v97h296v-97h-87z" />
    <glyph glyph-name="vowelsigni-beng" unicode="&#x9bf;" horiz-adv-x="280" 
d="M112 511q-13 8 -23.5 20.5t-17 29.5t-6.5 37q0 65 61 99q23 12 52 12q37 0 87 -21q127 -58 148 -58q18 0 28.5 9t10.5 24q0 39 -78 60q12 6 27 6q22 0 50 -14q46 -24 46 -88q0 -38 -27.5 -61t-75.5 -23q-50 0 -118 32q-83 40 -117 40q-26 0 -41 -18q-11 -14 -11 -35
q0 -20 26 -51h157v-97h-90v-344q0 -46 39 -70h-121q-40 0 -40 41v373h-84v97h118z" />
    <glyph glyph-name="vowelsignii-beng" unicode="&#x9c0;" horiz-adv-x="280" 
d="M158 511h132v-97h-87v-344q0 -46 39 -70h-122q-39 0 -39 41v373h-87v97h108q-42 10 -74 54q-70 98 -112 98q-10 0 -19 -6q-29 -20 -29 -40q0 -18 26 -35.5t77 -32.5q-55 -60 -110 -60q-21 0 -39 7q-64 24 -64 72q0 22 9 42.5t25 38t37.5 32t46.5 24.5t51.5 15.5t52.5 5.5
q44 0 84.5 -23t81.5 -74q47 -60 97 -60q29 0 58 19q-81 -65 -143 -77z" />
    <glyph glyph-name="vowelsignucomb-beng" unicode="&#x9c1;" horiz-adv-x="0" 
d="M25 -123q-54 77 -94 77q-8 0 -15 -3q-36 -15 -36 -33q0 -15 24 -30q23 -15 121 -11zM25 -124q-54 -72 -155 -62q-29 5 -48.5 11.5t-33 16.5t-21 21.5t-7.5 20.5q0 18 9.5 33t25.5 28t37 23t45 17t49.5 11t48.5 4q29 0 54.5 -4.5t48 -16t43.5 -30t41 -46.5q43 -59 100 -59
q25 0 50 10q-101 -47 -168 -47q-74 0 -110 56q-4 7 -9 13z" />
    <glyph glyph-name="vowelsignuucomb-beng" unicode="&#x9c2;" horiz-adv-x="0" 
d="M-87 -7q-42 -37 -42 -62q0 -6 3 -12t7.5 -11t10.5 -7.5t12 -2.5q23 0 47 40q30 51 90 51q44 0 82.5 -22.5t69.5 -67.5q40 -55 95 -55q23 0 47 9q-95 -45 -159 -45q-70 0 -104 54q-36 55 -68 55q-28 0 -53 -39q-42 -64 -100 -64q-9 0 -19 1.5t-21 5.5q-70 23 -70 88
q0 46 24.5 68.5t77.5 22.5q16 0 33 -2t37 -5z" />
    <glyph glyph-name="vowelsignvocalicrcomb-beng" unicode="&#x9c3;" horiz-adv-x="0" 
d="M210 -252q-39 -26 -72 -38.5t-64 -12.5q-19 0 -36.5 4t-38 16.5t-45 35.5t-57.5 61q-61 71 -121 71q-17 0 -35 -6l-1 81h11.5h11.5q121 0 122 79h127q-37 -104 -166 -121q12 3 24 3q74 0 149 -96q65 -85 142 -85q24 0 49 8z" />
    <glyph glyph-name="vowelsigne-beng" unicode="&#x9c7;" horiz-adv-x="300" 
d="M297 414q-52 -37 -89 -74q-38 -38 -61 -76t-33.5 -77.5t-10.5 -81.5q0 -53 25 -53q7 0 16 4q53 25 53 140v11q48 -19 69.5 -44t21.5 -58q0 -19 -6 -38t-18.5 -33.5t-30.5 -24t-42 -9.5q-32 0 -76 18q-48 20 -75 71t-27 132q0 109 70 193h-99v97h331v-97h-18z" />
    <glyph glyph-name="bn_ekaar.init" horiz-adv-x="300" 
d="M297 414q-104 -74 -149 -148q-45 -75 -45 -161q0 -53 25 -53q7 0 16 4q53 25 53 151q91 -36 91 -102q0 -43 -24 -71q-29 -34 -73 -34q-32 0 -76 18q-102 43 -102 203q2 162 172 290h131v-97h-19z" />
    <glyph glyph-name="vowelsignai-beng" unicode="&#x9c8;" horiz-adv-x="286" 
d="M186 511q-32 0 -62 41q-52 71 -94 71q-25 0 -46 -25q28 57 52 84q15 16 34.5 28.5t37.5 12.5q35 0 88 -62q37 -43 67 -43q21 0 39 21q-60 -128 -116 -128zM297 414q-52 -37 -89 -74q-38 -38 -61 -76t-33.5 -77.5t-10.5 -81.5q0 -53 25 -53q7 0 16 4q53 25 53 140v11
q48 -19 69.5 -44t21.5 -58q0 -19 -6 -38t-18.5 -33.5t-30.5 -24t-42 -9.5q-32 0 -76 18q-48 20 -75 71t-27 132q0 109 70 193h-99v97h331v-97h-18z" />
    <glyph glyph-name="bn_aikaar.init" horiz-adv-x="290" 
d="M302 639q-60 -128 -116 -128q-32 0 -62 41q-52 71 -94 71q-25 0 -46 -25q14 28 27 49.5t25 34.5q6 7 14.5 14.5t18 13.5t19.5 9.5t20 3.5q35 0 88 -62q37 -43 67 -43q21 0 39 21zM297 414q-104 -74 -149 -148q-45 -75 -45 -161q0 -53 25 -53q7 0 16 4q53 25 53 151
q91 -36 91 -102q0 -43 -24 -71q-29 -34 -73 -34q-32 0 -76 18q-102 43 -102 203q2 162 172 290h131v-97h-19z" />
    <glyph glyph-name="vowelsigno-beng" unicode="&#x9cb;" horiz-adv-x="742" 
d="M47 415q-47 0 -47 48v91q25 -43 51 -43h209q40 0 40 -48v-48h-253zM298 415q-53 -38 -90.5 -75.5t-60.5 -75.5t-33.5 -77.5t-10.5 -81.5q0 -53 25 -53q7 0 16 4q53 25 53 140v11q48 -19 69.5 -44t21.5 -58q0 -19 -6 -38t-18.5 -33.5t-30.5 -24t-42 -9.5q-32 0 -76 18
q-48 20 -75 71t-27 132q0 110 71 194h214zM741 376q-26 39 -51 39h-183q-47 0 -47 49v90q25 -43 51 -43h190q40 0 40 -47v-88zM580 0q-39 0 -39 41v470h122v-441q0 -46 39 -70h-122z" />
    <glyph glyph-name="vowelsignau-beng" unicode="&#x9cc;" horiz-adv-x="539" 
d="M701 511q40 0 40 -47v-88q-26 39 -51 39h-27v-345q0 -46 39 -70h-122q-39 0 -39 41v374h-34q-47 0 -47 49v90q25 -43 51 -43h190zM186 511q-32 0 -62 41q-52 71 -94 71q-25 0 -46 -25q28 57 52 84q15 16 34.5 28.5t37.5 12.5q35 0 88 -62q37 -43 67 -43q21 0 39 21
q-60 -128 -116 -128zM84 415h-37q-47 0 -47 48v91q25 -43 51 -43h209q40 0 40 -48v-48h-2q-104 -73 -151 -151q-44 -73 -44 -159q0 -53 25 -53q7 0 16 4q53 25 53 151q91 -36 91 -102q0 -41 -25 -71q-28 -34 -72 -34q-32 0 -76 18q-48 20 -75 71t-27 132q0 110 71 194z" />
    <glyph glyph-name="signviramacomb-beng" unicode="&#x9cd;" horiz-adv-x="0" 
d="M122 -174l-58 -26l-164 106l95 40z" />
    <glyph glyph-name="khandata-beng" unicode="&#x9ce;" horiz-adv-x="350" 
d="M258 300q-20 49 -42 73.5t-45 24.5q-25 0 -50 -29q-6 -8 -6 -17q0 -42 125 -109q73 -37 73 -99q0 -69 -91 -166q21 27 21 53q0 50 -78 97q-34 20 -58 40t-39 40t-21.5 41.5t-6.5 45.5t6 49.5t18.5 49.5t29.5 44.5t38 35.5t45.5 24t52.5 9q56 0 87 -60q11 -20 11 -40
q0 -53 -70 -107z" />
    <glyph glyph-name="aulength-beng" unicode="&#x9d7;" horiz-adv-x="280" 
d="M157 511l7 10q9 14 9 29q0 21 -11 35q-15 18 -41 18q-34 0 -117 -40q-68 -32 -118 -32q-49 0 -76 23t-27 61q-6 97 71 157q27 19 49 19q64 1 85 -32q17 -26 6.5 -54t-47.5 -25q-117 38 -119 -29q0 -15 10.5 -24t28.5 -9q21 0 148 58q50 21 87 21q29 0 52 -12
q61 -34 61 -99q0 -20 -6.5 -37t-16.5 -29q-4 -5 -9 -9h107v-97h-87v-344q0 -46 39 -70h-122q-39 0 -39 41v373h-87v97h163z" />
    <glyph glyph-name="zero-beng" unicode="&#x9e6;" horiz-adv-x="424" 
d="M396 270q0 -49 -12 -88t-35 -66t-57 -41t-79 -14q-47 0 -83.5 14.5t-61 41t-37.5 63t-13 80.5q0 104 47 157t136 53q47 0 83 -13.5t61 -39.5t38 -63t13 -84zM293 273q0 36 -7 66.5t-20.5 53.5t-31.5 35.5t-40 12.5q-18 0 -32 -13.5t-23.5 -37t-14.5 -55.5t-5 -69
q0 -35 6.5 -65t18.5 -52.5t29 -37t38 -18.5h5q10 0 20 7t18.5 20t15.5 30t12 37t8 42t3 44z" />
    <glyph glyph-name="one-beng" unicode="&#x9e7;" horiz-adv-x="368" 
d="M99 195q23 -45 47.5 -68.5t50.5 -23.5q28 0 56 28q7 7 7 16q0 39 -141 102q-82 36 -82 94q0 65 104 157q-24 -26 -24 -51q0 -47 87 -90q39 -19 65.5 -38t43.5 -38.5t24.5 -39.5t7.5 -42q0 -23 -7 -47t-20.5 -46.5t-32.5 -42t-43 -34t-52 -23t-59 -8.5q-65 0 -99 57
q-12 18 -12 38q0 50 79 100z" />
    <glyph glyph-name="two-beng" unicode="&#x9e8;" horiz-adv-x="364" 
d="M38 262q39 -21 67.5 -36.5t48.5 -25.5t32.5 -15t19.5 -5q24 0 49 25q6 7 6 15q0 33 -123 89q-72 31 -72 82q0 57 91 137q-21 -23 -21 -45q0 -41 76 -79q116 -57 122 -121q1 -9 1 -18q0 -52 -33 -91q-39 -44 -69 -51q81 -61 155 -181l1 -53q-84 112 -167 158
q-82 45 -157 64q-46 11 -46 65q0 33 19 86z" />
    <glyph glyph-name="three-beng" unicode="&#x9e9;" horiz-adv-x="518" 
d="M15 452q18 2 34 2q135 0 135 -166q0 -18 -0.5 -34t-0.5 -30q0 -40 1 -67.5t3.5 -45t6 -25.5t8.5 -8q11 0 39.5 20t75.5 61q28 25 51 52t38.5 54t24 55t8.5 55q0 26 -16 26t-48 -28q-61 -52 -61 -100q0 -16 6 -30q-75 79 -75 143q0 25 13 49q30 58 81 58q21 0 47 -11
q85 -35 108 -161q5 -26 5 -54q0 -97 -64 -187q-56 -80 -139 -80q-37 0 -79 16q-136 52 -141 217q-2 84 -17 138t-44 81z" />
    <glyph glyph-name="four-beng" unicode="&#x9ea;" horiz-adv-x="413" 
d="M157 233q-6 -27 -6 -48q0 -63 53 -81q27 -10 48 -10q35 0 54 26q4 6 4 12q0 40 -161 101q-124 47 -124 113q0 33 32 72q18 20 37 34.5t39.5 23.5t42.5 13t46 4q25 0 46 -4t39 -12.5t32 -22.5t24 -34q5 -11 5 -21q0 -46 -90 -97q1 7 1.5 13t0.5 12q0 52 -23.5 77.5
t-66.5 25.5q-14 0 -25 -2t-19.5 -6.5t-13 -11.5t-4.5 -16q0 -31 123 -76q129 -48 137 -120q1 -12 1 -23q0 -33 -11 -64.5t-35 -56t-62.5 -39.5t-94.5 -15q-93 0 -144 77q-13 20 -13 41q0 61 128 115z" />
    <glyph glyph-name="five-beng" unicode="&#x9eb;" horiz-adv-x="431" 
d="M158 42q58 0 126 66q-88 48 -88 114q0 46 53 100q-11 -5 -23 -5q-21 0 -41 17q-87 -145 -87 -224q0 -41 25 -62q17 -6 35 -6zM235 0q-34 0 -68 7q-63 18 -105.5 71t-42.5 119q0 33 12 67q33 86 65 148q19 38 19 59q0 16 -13 22q133 -21 133 -70q0 -9 -4 -19q3 -48 39 -48
q8 0 19 3q35 34 35 63q0 26 -29 48q117 -70 117 -134q0 -34 -34 -66q-88 -83 -88 -108q1 -10 7.5 -15t14.5 -5q24 0 58 34q5 -26 5 -47q0 -129 -140 -129z" />
    <glyph glyph-name="six-beng" unicode="&#x9ec;" horiz-adv-x="572" 
d="M336 0q-72 0 -124.5 34.5t-80.5 104.5q-35 83 -53 157q-16 70 -63 85q79 37 126 37q61 0 68 -61l8 -63q26 -252 104 -252q86 15 119 133q-17 -2 -37 -2q-60 0 -93 28q-35 31 -35 92q0 34 10 80q7 27 7 50q0 67 -66 68q26 2 49 2q148 0 148 -94q0 -13 -3 -27
q-15 -77 -15 -114q0 -27 9 -36q5 -5 16 -5q29 0 42 70q79 -5 79 -99q0 -59 -32.5 -103t-101.5 -75q-43 -10 -81 -10z" />
    <glyph glyph-name="seven-beng" unicode="&#x9ed;" horiz-adv-x="388" 
d="M229 249q15 87 15 133q0 58 -22 58h-5q-50 -12 -62 -78q-1 -7 -1 -15q0 -53 75 -98zM228 241q-83 -40 -132 -40q-39 0 -59 29q-17 26 -17 72q0 61 46 113q68 78 144 78t123 -64q30 -40 30 -122q0 -53 -13 -125q-7 -44 -7 -78q0 -94 62 -94h9q-42 -10 -78 -10
q-122 0 -122 131q0 32 7 72q4 20 7 38z" />
    <glyph glyph-name="eight-beng" unicode="&#x9ee;" horiz-adv-x="585" 
d="M205 52l4 1q52 13 52 116q0 81 -54 81l-10 -1q-14 -93 -14 -137q0 -60 22 -60zM217 0q-75 0 -123 64q-30 39 -30 124q0 52 11 122q7 44 7 77q0 96 -63 96h-9q44 10 79 10q123 0 123 -132q0 -32 -8 -71l-4 -27q41 52 126 52q25 0 92 -9q15 -2 27 -2q83 0 88 55
q36 -62 36 -105q0 -32 -21.5 -57t-48.5 -25q-33 0 -69 38q-56 59 -80 59q-5 0 -7 -1q58 -41 58 -111q0 -68 -54 -112.5t-130 -44.5z" />
    <glyph glyph-name="nine-beng" unicode="&#x9ef;" horiz-adv-x="474" 
d="M291 95q50 9 76.5 25t26.5 40q0 46 -207 118q-102 36 -102 97q0 67 120 164q-29 -28 -29 -55q0 -51 102 -97q156 -71 165 -150q0 -7 0.5 -13t0.5 -12q0 -36 -11.5 -68.5t-32 -60.5t-48.5 -50t-62 -36q-9 116 -93 116q-60 0 -60 -45q0 -25 19 -64q-133 6 -133 108
q0 108 106 108q117 0 162 -125z" />
    <glyph glyph-name="rupeesign-beng" unicode="&#x9f3;" horiz-adv-x="514" 
d="M380 340q58 -25 88.5 -63.5t30.5 -89.5q0 -72 -51 -133q-45 -54 -81 -54h-280v337l-62 13v36l52 3l-16 16t-16 15q1 3 1.5 6t1.5 6q36 8 64.5 19t48.5 24t31 28.5t11 32.5q0 23 -18.5 37.5t-49.5 14.5q-17 0 -36 -6t-38 -18l-102 108q10 19 26 33.5t35 24.5t41 15t45 5
q38 0 69 -14.5t53.5 -38.5t35 -53.5t12.5 -61.5q0 -38 -20 -72.5t-60 -60.5l46 -66h65v-46l-65 -7l3 -283q0 -8 34 -8q28 0 50.5 5t38.5 13.5t24.5 20t8.5 24.5q0 26 -27.5 47.5t-76.5 35.5z" />
    <glyph glyph-name="devanagaridanda" unicode="&#x964;" horiz-adv-x="255" 
d="M247 496q-39 -26 -38 -52l12 -383q2 -46 -47 -48l-115 -3q42 26 41 52l-12 390q-1 40 61 41z" />
    <glyph glyph-name="devanagaridoubledanda" unicode="&#x965;" horiz-adv-x="463" 
d="M266 496q-39 -26 -38 -52l12 -383q2 -46 -47 -48l-115 -3q42 26 41 52l-12 390q-1 40 61 41zM442 500q-39 -26 -38 -52l12 -383q2 -46 -47 -48l-115 -3q42 26 41 52l-12 390q-1 40 61 41z" />
    <glyph glyph-name="bn_k_ka" horiz-adv-x="680" 
d="M318 -104q-1 5 -1 11v151q-27 -30 -87 -30l-25 1q0 -80 113 -133zM317 118v177q-28 -46 -102 -46l-27 1q0 -83 104 -138q14 3 25 6zM439 414v-43q224 -21 224 -171q0 -82 -111 -82q-43 0 -100 16q82 35 82 89q0 56 -95 111v-211q234 -15 234 -120q0 -76 -115 -76
q-45 0 -103 11q85 25 85 82q0 39 -101 78v-161q0 -48 39 -73h-122q-7 0 -13 1q-232 17 -297 242q46 -4 86 -5q-80 87 -114 248q65 -6 125 -6q115 0 174 26v44h-326v97h710v-97h-262z" />
    <glyph glyph-name="bn_k_tta" horiz-adv-x="791" 
d="M467 384v-132q76 22 76 70q0 31 -76 62zM344 40v263q-29 -61 -106 -61q-16 0 -28 2q0 -124 134 -204zM467 249v-183q0 -31 18 -52q149 50 218 178l1 7q0 9 -13 9q-12 0 -39 -9q-41 -13 -41 -40q0 -12 9 -28q-15 -2 -32 -2q-75 0 -75 59q0 31 33 52q-34 1 -79 9zM684 511
q8 14 8 26q0 21 -12 35q-14 18 -43 18q-35 0 -114 -29q-58 -21 -105 -21q-53 0 -83 24t-30 61q0 49 29 76t71 27q19 0 34 -8q-85 -16 -85 -57q0 -15 12 -24t31 -9q12 0 26 5l123 38q41 13 74 13q55 0 89 -36q29 -31 29 -72q0 -39 -21 -67h93v-97h-343v-1q79 -6 128 -22
q77 -27 77 -83q0 -30 -21 -47q28 -2 50 -14q60 -32 60 -106q0 -148 -281 -148q-37 0 -67 2h-29q-8 0 -14 2q-264 23 -338 365q72 -7 131 -7q121 0 181 28v31h-353v97h693z" />
    <glyph glyph-name="bn_k_tt_ra" horiz-adv-x="791" 
d="M467 384v-132q76 22 76 70q0 31 -76 62zM344 40v263q-29 -61 -106 -61q-16 0 -28 2q0 -124 134 -204zM467 249v-183q0 -31 18 -52q149 50 218 178l1 7q0 9 -13 9q-12 0 -39 -9q-41 -13 -41 -40q0 -12 9 -28q-15 -2 -32 -2q-75 0 -75 59q0 31 33 52q-34 1 -79 9zM684 511
q8 14 8 26q0 21 -12 35q-14 18 -43 18q-35 0 -114 -29q-58 -21 -105 -21q-53 0 -83 24t-30 61q0 49 29 76t71 27q19 0 34 -8q-85 -16 -85 -57q0 -15 12 -24t31 -9q12 0 26 5l123 38q41 13 74 13q55 0 89 -36q29 -31 29 -72q0 -39 -21 -67h93v-97h-343v-1q79 -6 128 -22
q77 -27 77 -83q0 -30 -21 -47q28 -2 50 -14q60 -32 60 -106q0 -75 -73 -112v-143q0 -37 39 -56h-122q-39 0 -39 33v43h-7q-40 0 -91 -52q-82 -85 -154 -85q-35 0 -69 15q-26 11 -45 30q-32 30 -32 73q0 58 74 83q14 5 28 5q44 0 75 -52l-9 -3q-92 -29 -92 -69q0 -4 1.5 -8.5
t4 -7t5.5 -2.5q25 0 118 83q50 44 99 44q47 0 94 -38v75q-39 -4 -86 -4q-37 0 -67 2h-29q-8 0 -14 2q-264 23 -338 365q72 -7 131 -7q23 0 44 1q88 4 137 27v31h-353v97h693z" />
    <glyph glyph-name="bn_k_ta" horiz-adv-x="624" 
d="M373 244q13 -5 24 -12q38 -25 51 -67q5 -14 5 -29q0 -51 -60 -99q-53 -43 -130 -43q-35 0 -74 8q-127 27 -131.5 116t-57.5 117q17 2 32 2q126 0 126 -89l-1 -35q0 -77 18 -77q20 0 102 47q89 51 111 99q5 10 5 17q0 10 -11 10q-14 0 -46 -16q-56 -27 -56 -53q0 -9 6 -16
q-70 42 -70 76q0 24 27.5 40.5t59.5 16.5h9q54 60 54 82q0 20 -28 20q-31 0 -71 -20q-26 -13 -44.5 -30.5t-18.5 -34.5q0 -14 10 -26q-103 21 -103 77q1 84 139 84q61 0 111 -23q64 -29 64 -89q0 -24 -15 -37q48 12 84 12q116 0 116 -119q0 -90 -80 -90q-35 0 -85 17
q56 22 56 75q0 36 -33 59q-31 20 -95 30zM-9 511h651v-97h-651v97z" />
    <glyph glyph-name="bn_k_t_ba" horiz-adv-x="625" 
d="M258 -134v113q-11 -32 -52 -38q6 -35 52 -75zM312 257q54 60 54 82q0 20 -28 20q-31 0 -71 -20q-26 -13 -44.5 -30.5t-18.5 -34.5q0 -14 10 -26q-103 21 -103 77q1 84 139 84q61 0 111 -23q64 -29 64 -89q0 -24 -15 -37q48 12 84 12q116 0 116 -119q0 -90 -80 -90
q-35 0 -85 17q56 22 56 75q0 36 -33 59q-31 20 -95 30q13 -5 24 -12q38 -25 51 -67q5 -14 5 -29q0 -51 -60 -99q-15 -13 -33 -21v-146q0 -15 33 -24h-102q-9 0 -15 1h-6q-122 0 -160 152q29 -2 54 -2q23 0 41 2q-8 1 -16 3q-127 27 -131.5 116t-57.5 117q17 2 32 2
q126 0 126 -89l-1 -35q0 -77 18 -77q20 0 102 47q89 51 111 99q5 10 5 17q0 10 -11 10q-14 0 -46 -16q-56 -27 -56 -53q0 -9 6 -16q-70 42 -70 76q0 24 27.5 40.5t59.5 16.5h9zM-9 511h647v-97h-647v97z" />
    <glyph glyph-name="bn_k_t_ra" horiz-adv-x="625" 
d="M312 257q54 60 54 82q0 20 -28 20q-31 0 -71 -20q-26 -13 -44.5 -30.5t-18.5 -34.5q0 -14 10 -26q-103 21 -103 77q1 84 139 84q61 0 111 -23q64 -29 64 -89q0 -24 -15 -37q48 12 84 12q116 0 116 -119q0 -90 -80 -90q-35 0 -85 17q56 22 56 75q0 36 -33 59
q-31 20 -95 30q13 -5 24 -12q38 -25 51 -67q5 -14 5 -29q0 -29 -19 -56v-137q0 -37 39 -56h-122q-39 0 -39 33v12q-31 -5 -68 -52q-67 -85 -125 -85q-29 0 -57 15q-21 11 -36 30q-26 31 -26 73q0 58 60 83q12 5 22 5q37 0 62 -52l-7 -3q-76 -29 -76 -70q0 -4 1.5 -8
t3.5 -6.5t5 -2.5q22 0 96 83q39 44 81 44q32 0 64 -27v40q-23 -5 -49 -5q-35 0 -74 8q-127 27 -131.5 116t-57.5 117q17 2 32 2q126 0 126 -89l-1 -35q0 -77 18 -77q20 0 102 47q89 51 111 99q5 10 5 17q0 10 -11 10q-14 0 -46 -16q-56 -27 -56 -53q0 -9 6 -16
q-70 42 -70 76q0 24 27.5 40.5t59.5 16.5h9zM-9 511h644v-97h-644v97z" />
    <glyph glyph-name="bn_k_na" horiz-adv-x="771" 
d="M406 96v237q-28 -69 -135 -69q-16 0 -33 2q0 -104 168 -170zM529 414v-60q226 -15 226 -117q0 -74 -112 -74q-44 0 -100 10q83 24 83 80q0 39 -97 76v-157q0 -46 40 -71h-40v-159q0 -29 36 -44h-123q-36 0 -36 26v35q-43 21 -73 21q-23 0 -39 -13t-16 -35q0 -28 39 -42
q-31 -24 -72 -24q-33 0 -62 26t-29 65q0 47 29 74q32 30 94 30q67 0 129 -73v78q-294 27 -378 295q85 -6 154 -6q152 0 224 26v33h-415v97h794v-97h-256z" />
    <glyph glyph-name="bn_k_ba" horiz-adv-x="681" 
d="M318 -104q-1 5 -1 11v151q-27 -30 -87 -30l-25 1q0 -80 113 -133zM317 118v177q-28 -46 -102 -46l-27 1q0 -83 104 -138q14 3 25 6zM439 414v-43q224 -21 224 -171q0 -82 -111 -82q-43 0 -100 16q82 35 82 89q0 56 -95 111v-397q0 -48 39 -73h-122q-7 0 -13 1
q-232 17 -297 242q46 -4 86 -5q-80 87 -114 248q65 -6 125 -6q115 0 174 26v44h-326v97h710v-97h-262z" />
    <glyph glyph-name="bn_k_ma" horiz-adv-x="869" 
d="M320 85v230q-28 -54 -103 -54l-27 1q0 -107 130 -177zM799 414v-451q0 -43 40 -66h-123q-40 0 -40 39v3q-107 44 -175 44q-38 0 -65.5 -15t-27.5 -41q0 -32 66 -49q-52 -27 -122 -27q-55 0 -102 29q-52 31 -52 77q0 54 49 85q15 9 33 16q-202 49 -263 307q71 -6 127 -6
q118 0 176 24v31h-329v97h890v-97h-82zM443 414v-31q87 -9 139 -34q78 -39 78 -121q0 -99 -113 -99q-42 0 -100 14q83 32 83 106q0 48 -87 95v-234q0 -21 11 -38q116 -18 222 -128v470h-233z" />
    <glyph glyph-name="bn_k_ra" horiz-adv-x="763" 
d="M334 414q57 -10 128 -38l18 -5v-135q48 129 129 129q62 0 93.5 -38t31.5 -102q0 -54 -31 -97t-71 -43q-70 0 -70 78q0 19 4 41q10 -23 39 -23q16 0 40 8q65 22 65 46q0 20 -77 20l-34 -1q-106 -5 -119 -124v-74q0 -37 36 -56h-112q-36 0 -36 33v35q-11 6 -24 6
q-29 0 -70 -25q-64 -40 -111 -40q-57 0 -101 54q-29 35 -29 78t22 66.5t64 23.5q58 0 73 -77q-104 0 -104 -46q0 -15 12 -15q27 0 113 45q33 17 62 17q54 0 93 -62v278q-86 -7 -114 -44q-21 -31 -21 -51q0 -19 18 -30q-33 -6 -56 -6q-86 0 -86 68q0 54 83 94q17 8 36 12
h-237v97h779v-97h-436z" />
    <glyph glyph-name="bn_k_la" horiz-adv-x="754" 
d="M392 333q-28 -69 -135 -69q-16 0 -33 2q0 -105 168 -170v237zM515 414v-60q226 -15 226 -117q0 -74 -112 -74q-44 0 -100 10q83 24 83 80q0 38 -97 76v-157q0 -46 40 -71h-40v-159q0 -29 36 -44h-123q-36 0 -36 26v25q-37 36 -53 36q-19 0 -32 -11t-13 -30q0 -24 26 -40
q-22 -18 -50 -18q-26 0 -52 22t-26 61q0 10 1 18h-7q-51 0 -51 -53q0 -34 30 -58q-25 -22 -58 -22q-32 0 -59 29q-33 35 -33 87q0 61 28.5 93.5t90.5 36.5q55 0 96 -53q25 15 64 19q35 0 98 -48v48q-294 27 -378 295q85 -6 154 -6q152 0 224 26v33h-401v97h769v-97h-245z
" />
    <glyph glyph-name="bn_k_ssa" horiz-adv-x="668" 
d="M465 414v-88q17 3 34 3q71 0 118 -59q33 -43 33 -90q0 -34 -17 -71q-22 -47 -68 -47q-39 0 -95 35q33 3 53 23t20 57q0 29 -19 69q-16 33 -59 44v-222q0 -45 40 -70h-122q-40 0 -40 42v40q-34 10 -60 10q-25 0 -43 -9.5t-18 -28.5q0 -22 43 -33q-34 -18 -80 -18
q-35 0 -68 19.5t-33 51.5q0 36 33 58q36 24 103 24q17 0 33 -3q6 17 6 31q0 25 -17.5 41t-39.5 16q-14 0 -31 -8q-22 -10 -22 -24q0 -13 39 -13q-26 -48 -73 -48q-26 0 -48.5 18.5t-22.5 44.5q0 16 9 33q26 43 105 43q42 0 74 -12q-5 47 -56 47q-7 0 -15.5 -1t-17.5 -2
t-17 -2t-15 -1q-35 0 -54 14t-19 37t20 49h-67v97h690v-97h-216zM276 414h-71q-28 -17 -28 -33q0 -17 36 -32q40 -18 40 -42q0 -17 -17 -36q65 -26 65 -78q0 -35 -28 -47q35 -10 70 -35v178q-44 1 -72.5 20t-28.5 57q0 30 34 48zM343 414h-31q-3 -16 -3 -31q0 -43 34 -57v88
z" />
    <glyph glyph-name="bn_k_ss_nna" horiz-adv-x="668" 
d="M465 414v-88q17 3 34 3q71 0 118 -59q33 -43 33 -90q0 -34 -17 -71q-22 -47 -68 -47q-39 0 -95 35q33 3 53 23t20 57q0 29 -19 69q-16 33 -59 44v-391q0 -29 36 -44h-122q-36 0 -36 26v26q-30 24 -57 24q-14 0 -25 -5q-45 -17 -54 -50q0 -8 9 -8t29 7q40 15 51 26
q13 -22 13 -41q0 -22 -14.5 -36t-39.5 -14q-15 0 -33 4q-21 11 -35.5 36t-14.5 54q0 22 10 42q28 54 83 54q51 0 78 -62v142q-34 10 -60 10q-25 0 -43 -9.5t-18 -28.5q0 -22 43 -33q-34 -18 -80 -18q-35 0 -68 19.5t-33 51.5q0 36 34.5 59t101.5 23q17 0 33 -3q6 17 6 31
q0 25 -17.5 41t-39.5 16q-14 0 -31 -8q-22 -10 -22 -24q0 -13 39 -13q-26 -48 -73 -48q-26 0 -48.5 18.5t-22.5 44.5q0 16 9 33q26 43 105 43q42 0 74 -12q-5 47 -56 47q-7 0 -15.5 -1t-17.5 -2t-17 -2t-15 -1q-35 0 -54 14t-19 37t20 49h-67v97h686v-97h-212zM276 414h-71
q-28 -17 -28 -33q0 -17 36 -32q40 -18 40 -42q0 -17 -17 -36q65 -26 65 -78q0 -35 -28 -47q35 -10 70 -35v178q-44 1 -72.5 20t-28.5 57q0 30 34 48zM343 414h-31q-3 -16 -3 -31q0 -43 34 -57v88z" />
    <glyph glyph-name="bn_k_ss_ba" horiz-adv-x="694" 
d="M344 -160q-1 3 -1 114q-19 -21 -61 -21l-18 1q0 -57 80 -94zM465 414v-88q17 3 34 3q71 0 118 -59q33 -43 33 -90q0 -34 -17 -71q-22 -47 -68 -47q-39 0 -95 35q33 3 53 23t20 57q0 29 -19 69q-16 33 -59 44v-421q0 -34 27 -52q-126 0 -130 1q-165 12 -211 171
q57 -5 106 -5q62 0 86 13v83q-34 10 -60 10q-25 0 -43 -9.5t-18 -28.5q0 -22 43 -33q-34 -18 -80 -18q-35 0 -68 19.5t-33 51.5q0 36 34.5 59t101.5 23q17 0 33 -3q6 17 6 31q0 25 -17.5 41t-39.5 16q-14 0 -31 -8q-22 -10 -22 -24q0 -13 39 -13q-26 -48 -73 -48
q-26 0 -48.5 18.5t-22.5 44.5q0 16 9 33q26 43 105 43q42 0 74 -12q-5 47 -56 47q-7 0 -15.5 -1t-17.5 -2t-17 -2t-15 -1q-35 0 -54 14t-19 37t20 49h-67v97h710v-97h-236zM276 414h-71q-28 -17 -28 -33q0 -17 36 -32q40 -18 40 -42q0 -17 -17 -36q65 -26 65 -78
q0 -35 -28 -47q35 -10 70 -35v178q-44 1 -72.5 20t-28.5 57q0 30 34 48zM343 414h-31q-3 -16 -3 -31q0 -43 34 -57v88z" />
    <glyph glyph-name="bn_k_ss_ma" horiz-adv-x="816" 
d="M789 414v-474q0 -46 39 -70h-122q-39 0 -39 41v37q-68 20 -111 20q-69 0 -93 -48q-2 -5 -2 -10q0 -26 45 -46q-36 -18 -83 -18q-49 0 -89 24q-49 28 -49 71q0 61 59 89q-1 5 -1 10v40q-34 10 -60 10q-25 0 -43 -9.5t-18 -28.5q0 -22 43 -33q-34 -18 -80 -18
q-35 0 -68 19.5t-33 51.5q0 36 33 58q36 24 103 24q17 0 33 -3q6 17 6 31q0 25 -17.5 41t-39.5 16q-14 0 -31 -8q-22 -10 -22 -24q0 -13 39 -13q-26 -48 -73 -48q-26 0 -48.5 18.5t-22.5 44.5q0 16 9 33q26 43 105 43q42 0 74 -12q-5 47 -56 47q-7 0 -15.5 -1t-17.5 -2
t-17 -2t-15 -1q-35 0 -54 14t-19 37t20 49h-67v97h835v-97h-37zM276 414h-71q-28 -17 -28 -33q0 -17 36 -32q40 -18 40 -42q0 -17 -17 -36q65 -26 65 -78q0 -35 -28 -47q35 -10 70 -35v178q-44 1 -72.5 20t-28.5 57q0 30 34 48zM343 414h-31q-3 -16 -3 -31q0 -43 34 -57v88z
M667 414h-202v-88q17 3 34 3q71 0 118 -59q33 -43 33 -90q0 -34 -17 -71q-22 -47 -68 -47q-39 0 -95 35q33 3 53 23t20 57q0 29 -19 69q-16 33 -59 44v-222q0 -10 2 -18q134 -10 200 -80v444z" />
    <glyph glyph-name="bn_k_ss_ra" horiz-adv-x="668" 
d="M465 414v-88q17 3 34 3q71 0 118 -59q33 -43 33 -90q0 -34 -17 -71q-22 -47 -68 -47q-39 0 -95 35q33 3 53 23t20 57q0 29 -19 69q-16 33 -59 44v-366q0 -37 39 -56h-121q-40 0 -40 33v12q-21 -12 -43 -35q-83 -83 -154 -83q-69 0 -114 46q-31 30 -31 72q0 59 74 83
q14 4 27 4q45 0 75 -52l-8 -3q-93 -29 -93 -68q0 -4 1 -8.5t4 -7.5t6 -3q26 0 119 82q46 43 98 43q19 0 39 -7v104q-34 10 -60 10q-25 0 -43 -9.5t-18 -28.5q0 -22 43 -33q-34 -18 -80 -18q-35 0 -68 19.5t-33 51.5q0 36 34.5 59t101.5 23q17 0 33 -3q6 17 6 31
q0 25 -17.5 41t-39.5 16q-14 0 -31 -8q-22 -10 -22 -24q0 -13 39 -13q-26 -48 -73 -48q-26 0 -48.5 18.5t-22.5 44.5q0 16 9 33q26 43 105 43q42 0 74 -12q-5 47 -56 47q-7 0 -15.5 -1t-17.5 -2t-17 -2t-15 -1q-35 0 -54 14t-19 37t20 49h-67v97h686v-97h-212zM276 414h-71
q-28 -17 -28 -33q0 -17 36 -32q40 -18 40 -42q0 -17 -17 -36q65 -26 65 -78q0 -35 -28 -47q35 -10 70 -35v178q-44 1 -72.5 20t-28.5 57q0 30 34 48zM343 414h-31q-3 -16 -3 -31q0 -43 34 -57v88z" />
    <glyph glyph-name="bn_k_sa" horiz-adv-x="790" 
d="M291 115v213q-25 -49 -93 -49l-25 1q0 -100 118 -165zM727 414v-407q0 -43 36 -67h-112q-37 0 -37 40v16q-40 28 -82 28q-54 0 -112 -46q-84 -68 -157 -68q-21 0 -41 6q-82 24 -129.5 66t-47.5 88q0 60 73 60q61 0 85 -76l-18 2q-36 0 -37 -22q0 -9 8 -21q10 -16 25 -16
q38 0 142 78q-13 1 -20 6q-224 24 -287 295q64 -6 117 -6q104 0 158 23v21h-300v97h811v-97h-75zM403 414v-21q79 -8 126 -32q71 -37 71 -113q0 -92 -103 -92q-39 0 -91 13q76 30 76 99q0 45 -79 89v-223q0 -8 1 -15q16 4 32 4q88 0 178 -119v410h-211z" />
    <glyph glyph-name="bn_kh_ba" 
d="M316 -135q-1 3 -1 114q-19 -21 -62 -21l-17 1q0 -57 80 -94zM437 414v-342l-1 -1h1v-177q0 -34 28 -52q-127 0 -132 1q-164 12 -210 171q57 -5 106 -5q22 0 39 2q-193 40 -252 236l38 -1q184 0 213 127q-17 26 -52 30q-24 -99 -105 -101q-45 0 -71.5 25.5t-26.5 74.5
q0 61 72 96q8 -64 41 -64q24 0 37.5 16t13.5 39q0 6 -2 20q85 -37 103 -145q6 -30 6 -55q0 -93 -82 -124l-1 -18q0 -84 115 -135v523q22 -44 49 -44h147v-97h-74z" />
    <glyph glyph-name="bn_kh_ra" 
d="M437 414v-485q0 -37 39 -56h-122q-39 0 -39 33v12q-21 -12 -43 -35q-83 -83 -154 -83q-70 0 -115 46q-31 31 -31 72q0 59 75 83q13 4 26 4q45 0 76 -52l-8 -3q-94 -29 -94 -68q0 -4 1.5 -8.5t4 -7.5t5.5 -3q26 0 120 82q46 44 98 44q19 0 39 -7v21q-233 25 -299 244
l38 -1q184 0 213 127q-17 26 -52 30q-24 -99 -105 -101q-45 0 -71.5 25.5t-26.5 74.5q0 61 72 96q8 -64 41 -64q24 0 37.5 16t13.5 39q0 6 -2 20q85 -37 103 -145q6 -30 6 -55q0 -93 -82 -124l-1 -18q0 -84 115 -135v523q22 -44 49 -44h147v-97h-74z" />
    <glyph glyph-name="bn_ga_ukaar" horiz-adv-x="560" 
d="M328 0q-40 0 -86 10q-150 29 -157.5 109.5t-64.5 88.5q26 2 48 2q137 0 137 -70v-29q0 -66 20 -66q26 0 127 48q61 27 97.5 60t36.5 65q0 16 -17 16t-54 -17q-66 -30 -66 -58q0 -9 7 -18q-83 46 -83 83q0 26 32.5 44.5t69.5 18.5q29 0 54 -5q48 90 48 124q0 14 -5.5 21.5
t-11.5 7.5q-5 0 -12 -6q-18 -12 -30 -34t-12 -48q0 -25 5 -45q-85 36 -85 95q0 5 1 9q-49 22 -86 22q-45 0 -76 -31q100 -20 100 -76q0 -71 -100 -101q-16 -5 -32 -5q-67 0 -108 89q122 13 122 48q0 10 -6.5 17.5t-21.5 7.5q-32 0 -106 -31q-4 21 -4 39q0 126 158 126
q108 0 164 -84q19 76 84 76q34 0 71 -30q46 -39 46 -130q0 -76 -49 -82l4 -2q22 -14 37 -32q28 -34 28 -71q0 -56 -71 -109q-62 -47 -153 -47z" />
    <glyph glyph-name="bn_g_ga" horiz-adv-x="517" 
d="M330 183v223q-48 21 -86 21q-43 0 -73 -28q97 -18 97 -67q0 -51 -60 -78q78 -11 122 -71zM453 414v-348q0 -47 40 -71h-123q-40 0 -40 42v124q-48 21 -86 21q-43 0 -73 -28q97 -18 97 -68q0 -65 -97 -91q-16 -4 -31 -4q-64 0 -104 80q118 11 118 43q0 8 -6.5 15t-20.5 7
q-32 0 -103 -28q-3 19 -3 35q0 80 76 103q-35 19 -61 70q118 11 118 43q0 9 -6.5 15.5t-20.5 6.5q-32 0 -103 -27q-3 18 -3 34q0 114 153 114q102 0 156 -74v127q23 -44 49 -44h152v-97h-78z" />
    <glyph glyph-name="bn_g_da" horiz-adv-x="839" 
d="M493 414v-178q20 102 160 154l16 1q31 0 55 -25l117 -134l-23 1q-94 -1 -123 -86q-9 -58 -9 -91q0 -34 12 -34q20 0 46 63q13 32 13 54q0 24 -15 36q93 0 93 -80q0 -59 -52 -88q-27 -16 -56 -16q-33 0 -67 19q-62 33 -73 103v13q0 61 27.5 99.5t68.5 42.5
q-110 0 -187 -126q6 -27 27 -44h-94q-31 0 -31 42l1 122q-86 112 -135 127q-12 4 -23 4q-33 0 -56 -31q99 -26 99 -98q0 -93 -99 -132q-17 -7 -32 -7q-65 0 -107 116q121 17 121 63q0 13 -5 21q-8 11 -23 11q-32 0 -105 -40q-3 27 -3 51q0 164 157 164q145 0 211 -224l1 267
q19 -43 61 -43h384v-97h-352z" />
    <glyph glyph-name="bn_g_dha" horiz-adv-x="720" 
d="M331 26q-1 5 -1 11v130q-33 -26 -105 -26h-31q0 -69 137 -115zM467 415h-14v-129q30 41 98 55q5 1 14 1q28 0 48 -18l101 -96l-22 1q-117 0 -117 -174q0 -29 13 -29q19 0 44 54q13 28 13 47q0 20 -14 31q91 0 91 -69q0 -36 -30.5 -62.5t-76.5 -26.5q-31 0 -65 16
q-60 28 -60 104q0 49 30.5 80t96.5 45q-119 0 -164 -42v-137q0 -47 40 -71h-123q-11 0 -19 3q-34 1 -37 1q-201 15 -258 210q73 -6 143 -6q72 0 130 31l1 172q-48 21 -86 21q-43 0 -73 -28q97 -18 97 -67q0 -65 -97 -91q-16 -5 -31 -5q-64 0 -104 80q118 11 118 43
q0 9 -6.5 15.5t-20.5 6.5q-32 0 -103 -27q-3 18 -3 34q0 114 153 114q102 0 156 -74v14q-3 9 -3 21v92q26 -44 52 -44h347v-97h-259v1z" />
    <glyph glyph-name="bn_g_dh_ba" horiz-adv-x="720" 
d="M332 -108q-1 3 -1 108q-25 -20 -81 -20l-24 1q0 -54 106 -89zM330 167q-33 -26 -105 -26h-31q0 -60 104 -103q17 6 32 14v115zM467 415h-14v-129q30 41 98 55q5 1 14 1q28 0 48 -18l101 -96l-22 1q-117 0 -117 -174q0 -29 13 -29q19 0 44 54q13 28 13 47q0 20 -14 31
q91 0 91 -69q0 -36 -30.5 -62.5t-76.5 -26.5q-31 0 -65 16q-60 28 -60 104q0 49 30.5 80t96.5 45q-119 0 -164 -42v-137q0 -5 -1 -9h1v-138q0 -32 26 -49q-156 0 -160 1q-156 11 -199 162q39 -4 77 -5q-103 50 -141 181q73 -6 143 -6q72 0 130 31l1 172q-48 21 -86 21
q-43 0 -73 -28q97 -18 97 -67q0 -65 -97 -91q-16 -5 -31 -5q-64 0 -104 80q118 11 118 43q0 9 -6.5 15.5t-20.5 6.5q-32 0 -103 -27q-3 18 -3 34q0 114 153 114q102 0 156 -74v14q-3 9 -3 21v92q26 -44 52 -44h348v-97h-260v1z" />
    <glyph glyph-name="bn_g_dh_ra" horiz-adv-x="730" 
d="M330 167q-33 -26 -105 -26h-31q0 -69 136 -115v141zM453 414v-128q30 41 98 55q5 1 14 1q28 0 48 -18l101 -96l-22 1q-117 0 -117 -174q0 -29 13 -29q19 0 44 54q13 28 13 47q0 20 -14 31q91 0 91 -69q0 -36 -30.5 -62.5t-76.5 -26.5q-31 0 -65 16q-60 28 -60 104
q0 49 30.5 80t96.5 45q-119 0 -164 -42v-264q0 -37 39 -56h-122q-40 0 -40 33v2q-21 -13 -43 -35q-82 -83 -153 -83q-70 0 -115 46q-31 30 -31 72q0 59 74 83q14 4 27 4q45 0 75 -52l-8 -3q-93 -29 -93 -68q0 -4 1 -8.5t4 -7.5t6 -3q26 0 119 82q47 43 98 43q19 0 39 -7v20
q-11 -2 -15 -2h-1q-201 15 -258 210q73 -6 143 -6q72 0 130 31l1 172q-48 21 -86 21q-43 0 -73 -28q97 -18 97 -67q0 -65 -97 -91q-16 -5 -31 -5q-64 0 -104 80q118 11 118 43q0 9 -6.5 15.5t-20.5 6.5q-32 0 -103 -27q-3 18 -3 34q0 114 153 114q102 0 156 -74v14
q-3 9 -3 21v92q26 -44 52 -44h360v-97h-286z" />
    <glyph glyph-name="bn_g_na" horiz-adv-x="568" 
d="M503 414v-348q0 -47 40 -71h-123q-40 0 -40 42v30q-47 25 -80 25q-23 0 -39 -13t-16 -36q0 -28 39 -42q-31 -24 -72 -24q-33 0 -62.5 26t-29.5 66q0 47 30 74q32 29 94 29q71 0 136 -81v295q-57 27 -101 27q-50 0 -84 -33q111 -22 111 -81q0 -77 -111 -109q-19 -5 -36 -5
q-73 0 -119 95q135 13 135 52q0 10 -7 18t-24 8q-36 0 -118 -33q-3 22 -3 42q0 135 176 135q120 0 181 -92v32q-3 9 -3 21v92q26 -44 52 -44h152v-97h-78z" />
    <glyph glyph-name="bn_g_ba" horiz-adv-x="576" 
d="M390 50v66q-17 -19 -55 -19l-15 1q0 -51 71 -84q-1 2 -1 36zM513 414v-398q1 -36 30 -57q-127 0 -132 1q-187 14 -240 196q65 -6 121 -6q70 0 98 15v221q-57 27 -101 27q-50 0 -84 -33q111 -22 111 -81q0 -77 -111 -109q-19 -5 -36 -5q-73 0 -119 95q135 13 135 52
q0 10 -7 18t-24 8q-36 0 -118 -33q-3 22 -3 42q0 135 176 135q120 0 181 -91v31q-3 9 -3 21v92q26 -44 52 -44h152v-97h-78z" />
    <glyph glyph-name="bn_g_ma" horiz-adv-x="714" 
d="M650 414v-402q0 -43 40 -66h-123q-40 0 -40 39v27q-60 20 -103 20q-36 0 -61.5 -15t-25.5 -41q0 -32 62 -49q-48 -27 -114 -27q-52 0 -96 29q-48 31 -48 77q0 54 46 85q51 34 149 34h4v244q-47 32 -85 32q-43 0 -72 -43q95 -26 95 -100q0 -96 -95 -137q-17 -6 -31 -6
q-63 0 -103 120q116 15 116 64q0 33 -26 33q-31 0 -102 -41q-3 27 -3 51q0 169 151 169q102 0 155 -108v39q-3 9 -3 21v92q26 -44 52 -44h333v-97h-72zM527 414h-64v-321q32 -17 64 -42v363z" />
    <glyph glyph-name="bn_g_ra" horiz-adv-x="509" 
d="M445 414v-454q0 -46 39 -70h-122q-6 -2 -12 -2q-27 0 -27 43v1q-27 -5 -60 -23q-75 -39 -130 -39q-59 0 -104.5 41.5t-45.5 88.5q0 42 26 65.5t75 23.5q66 0 83 -76q-120 0 -120 -45q0 -15 15 -15q30 0 130 44q39 18 84 18q25 0 47 -12v356q-47 32 -85 32q-43 0 -72 -43
q95 -26 95 -100q0 -96 -95 -137q-17 -6 -31 -6q-63 0 -103 120q116 15 116 64q0 33 -26 33q-31 0 -102 -41q-3 27 -3 51q0 169 151 169q102 0 155 -108l-1 161q23 -43 49 -43h149v-97h-75z" />
    <glyph glyph-name="bn_g_ra_ukaar" horiz-adv-x="720" 
d="M445 414v-119q21 -95 116 -99l17 -1q94 0 94 20q0 24 -66 46q-24 8 -40 8q-29 0 -38 -23q-4 22 -4 41q0 78 70 78q39 0 70 -42.5t31 -97.5q0 -63 -31.5 -101.5t-92.5 -38.5q-79 0 -126 120v-245q0 -46 39 -70h-122q-6 -2 -12 -2q-27 0 -27 43v1q-27 -5 -60 -23
q-75 -39 -130 -39q-59 0 -104.5 41.5t-45.5 88.5q0 42 26 65.5t75 23.5q66 0 83 -76q-120 0 -120 -45q0 -15 15 -15q30 0 130 44q39 18 84 18q25 0 47 -12v356q-47 32 -85 32q-43 0 -72 -43q95 -26 95 -100q0 -96 -95 -137q-17 -6 -31 -6q-63 0 -103 120q116 15 116 64
q0 33 -26 33q-31 0 -102 -41q-3 27 -3 51q0 169 151 169q102 0 155 -108l-1 161q23 -43 49 -43h355v-97h-281z" />
    <glyph glyph-name="bn_g_ra_uukaar" horiz-adv-x="759" 
d="M445 414v-149q30 63 122 82q6 1 17 1q31 0 54 -21l114 -108l-25 1q-132 0 -132 -196q0 -33 14 -33q22 0 51 62q14 30 14 53q0 22 -16 34q103 0 103 -77q0 -41 -34.5 -71.5t-86.5 -30.5q-35 0 -73 19q-69 32 -69 117q0 56 34.5 90.5t109.5 50.5q-153 0 -197 -60v-218
q0 -46 39 -70h-122q-6 -2 -12 -2q-27 0 -27 43v1q-27 -5 -60 -23q-75 -39 -130 -39q-59 0 -104.5 41.5t-45.5 88.5q0 42 26 65.5t75 23.5q66 0 83 -76q-120 0 -120 -45q0 -15 15 -15q30 0 130 44q39 18 84 18q25 0 47 -12v356q-47 32 -85 32q-43 0 -72 -43q95 -26 95 -100
q0 -96 -95 -137q-17 -6 -31 -6q-63 0 -103 120q116 15 116 64q0 33 -26 33q-31 0 -102 -41q-3 27 -3 51q0 169 151 169q102 0 155 -108l-1 161q23 -43 49 -43h398v-97h-324z" />
    <glyph glyph-name="bn_g_la" horiz-adv-x="527" 
d="M463 414v-348q0 -47 40 -71h-123q-40 0 -40 42v24q-4 1 -7 1q-41 0 -41 -37q0 -22 24 -37q-21 -15 -46 -15q-24 0 -47.5 20t-23.5 55q0 9 1 17h-7q-46 0 -46 -49q0 -31 27 -53q-23 -20 -53 -20t-54 26q-30 32 -30 80q0 56 26 85.5t83 33.5q50 0 88 -48q22 14 58 17
q20 0 48 -16v269q-49 27 -86 27q-44 0 -74 -35q97 -23 97 -85q0 -82 -97 -115q-16 -6 -31 -6q-64 0 -104 101q118 14 118 54q0 11 -6 19.5t-21 8.5q-32 0 -103 -35q-3 24 -3 44q0 143 153 143q104 0 157 -94v138q23 -44 49 -44h152v-97h-78z" />
    <glyph glyph-name="bn_gh_na" horiz-adv-x="693" 
d="M512 415h-49v-467q25 -14 49 -34v501zM341 31v384h-107q-59 -31 -59 -76q0 -28 23 -62q62 20 73 49l41 -102q-30 -33 -85 -39l-1 -18q0 -84 115 -136zM650 414q-4 1 -8 1h-6v-539q0 -43 39 -66h-123q-40 0 -40 39v27q-60 20 -103 20q-35 0 -61 -15t-26 -42q0 -32 62 -48
q-48 -27 -114 -27q-52 0 -96 28q-48 32 -48 77q0 55 46 85q51 34 150 34q10 0 19 -1v16q-233 25 -299 244q77 9 128 21q-117 34 -117 104q0 20 9 43l28 96h560v-97zM-11 511h714v-97h-714v97z" />
    <glyph glyph-name="bn_gh_ba" horiz-adv-x="524" 
d="M343 -118q-1 3 -1 102q-17 -19 -55 -19l-15 1q0 -51 71 -84zM463 414v-530q1 -37 30 -57q-125 0 -130 1q-188 14 -240 196q65 -6 121 -6h19q-166 49 -221 229q77 9 128 21q-117 34 -117 104q0 20 9 42h-68v97h537v-97h-68zM341 414h-109q-57 -31 -57 -75q0 -28 23 -62
q62 20 73 49l41 -102q-30 -33 -85 -39l-1 -18q0 -84 116 -136q-1 5 -1 383z" />
    <glyph glyph-name="bn_gh_ra" horiz-adv-x="522" 
d="M463 414v-329l1 -150q0 -37 39 -56h-122q-39 0 -39 33v13q-21 -13 -43 -35q-83 -83 -154 -83q-70 0 -115 45q-31 31 -31 72q0 60 75 84q14 4 26 4q45 0 76 -52l-8 -3q-94 -30 -94 -68q0 -4 1.5 -8.5t4 -7.5t5.5 -3q26 0 120 82q46 43 98 43q19 0 39 -7v15
q-233 25 -300 244q77 9 128 21q-117 34 -117 104q0 20 9 42h-71v97h545v-97h-73zM341 414h-109q-57 -31 -57 -75q0 -28 23 -62q62 20 73 49l41 -102q-30 -33 -85 -39l-1 -18q0 -84 116 -136q-1 5 -1 383z" />
    <glyph glyph-name="bn_ng_ka" horiz-adv-x="646" 
d="M343 209q-23 -60 -112 -60l-26 1q0 -91 139 -148q-1 5 -1 11v196zM376 -25q-5 0 -9 1q-263 13 -335 256q69 -4 125 -4q127 0 186 23v47q-51 33 -104 33q-26 0 -45 -8.5t-19 -24.5q0 -19 37 -33q-30 -13 -71 -13q-38 0 -71 17q-39 20 -39 49q0 70 144 79q107 0 171 -81
l99 -48v-2q176 -13 176 -148q0 -93 -76 -93q-29 0 -68 13q56 30 56 99q0 56 -88 109v-136q0 -113 33 -135h-102zM-10 414v97h375q47 -107 85 -107t68 107h153v-97h-138q-7 -107 -50 -107q-44 0 -125 107h-368z" />
    <glyph glyph-name="bn_ng_k_ra" horiz-adv-x="648" 
d="M343 209q-23 -60 -112 -60l-26 1q0 -91 139 -148q-1 5 -1 11v196zM343 298q-51 33 -104 33q-26 0 -45 -8.5t-19 -24.5q0 -19 37 -33q-30 -13 -71 -13q-38 0 -71 17q-39 20 -39 49q0 70 144 79q107 0 171 -81l99 -48v-2q176 -13 176 -148q0 -93 -76 -93q-29 0 -68 13
q56 30 56 99q0 49 -68 96v-319q0 -37 39 -56h-121q-40 0 -40 33v12q-21 -12 -43 -35q-83 -83 -154 -83q-69 0 -114 46q-31 30 -31 72q0 59 74 83q14 4 27 4q45 0 75 -52l-8 -3q-93 -29 -93 -68q0 -4 1 -8.5t4 -7.5t6 -3q26 0 119 82q46 43 98 43q19 0 39 -7v12
q-242 22 -311 254q69 -4 125 -4q125 0 186 23v47zM-10 414v97h375q47 -107 85 -107t68 107h153v-97h-138q-7 -107 -50 -107q-44 0 -125 107h-368z" />
    <glyph glyph-name="bn_ng_ga" horiz-adv-x="607" 
d="M521 177q61 -51 61 -102q0 -20 -7.5 -37.5t-18.5 -30t-25 -20t-26 -7.5q-27 0 -60 24q-56 41 -56 132q0 37 9 82l-65 -126q-57 -107 -114 -107q-24 0 -48 20q-81 64 -103 192q32 -65 70 -65q27 0 56 30q53 53 53 104q0 21 -9 41q-29 32 -47 32q-11 0 -18.5 -11t-7.5 -25
q0 -26 22 -65q-40 -22 -67 -22q-14 0 -26 6.5t-20 18t-13 28.5t-5 37q0 49 44 72q35 18 68 18q26 0 48 -8.5t38.5 -24.5t26.5 -38t13 -50q77 100 139 100q3 0 5.5 -0.5t5.5 -0.5l120 -70q-95 -25 -119 -100q-4 -11 -5.5 -21t-1.5 -18q0 -40 43 -40q41 0 41 44q0 2 -0.5 4
t-0.5 4zM-8 414v97h266q31 -71 73 -71q40 0 91 71h190v-97h-200q-51 -71 -91 -71t-71 71h-258z" />
    <glyph glyph-name="bn_ng_g_ra" horiz-adv-x="607" 
d="M439 9q-50 41 -50 127q0 37 9 82l-65 -126q-57 -107 -114 -107q-24 0 -48 20q-81 64 -103 192q32 -65 70 -65q27 0 56 30q53 53 53 104q0 21 -9 41q-29 32 -47 32q-11 0 -18.5 -11t-7.5 -25q0 -26 22 -65q-40 -22 -67 -22q-14 0 -26 6.5t-20 18t-13 28.5t-5 37
q0 49 44 72q35 18 68 18q26 0 48 -8.5t38.5 -24.5t26.5 -38t13 -50q77 100 139 100q3 0 5.5 -0.5t5.5 -0.5l120 -70q-95 -25 -119 -100q-4 -11 -5.5 -21t-1.5 -18q0 -40 43 -40q41 0 41 44q0 2 -0.5 4t-0.5 4q61 -51 61 -102q0 -20 -7 -37q-6 -14 -14 -24v-111q0 -37 39 -56
h-121q-40 0 -40 33v12q-21 -12 -43 -35q-83 -83 -154 -83q-69 0 -114 46q-31 30 -31 72q0 59 74 83q14 4 27 4q45 0 75 -52l-8 -3q-93 -29 -93 -68q0 -4 1 -8.5t4 -7.5t6 -3q26 0 119 82q46 43 98 43q19 0 39 -7v54zM-8 414v97h266q31 -71 73 -71q40 0 91 71h190v-97h-200
q-51 -71 -91 -71t-71 71h-258z" />
    <glyph glyph-name="bn_ng_ma" horiz-adv-x="738" 
d="M333 368q23 5 38 18.5t15 25.5q0 10 -8.5 20t-21.5 10t-19 -8.5t-6 -36.5q0 -13 2 -29zM428 415q-6 -55 -95 -71v-105q74 36 116 121q70 -20 86 -119q3 -16 3 -31q0 -68 -58 -117q-33 -28 -77 -40v-27q82 -10 159 -72v461h-134zM686 414v-488q0 -43 39 -66h-123
q-40 0 -40 39v17q-60 20 -103 20q-35 0 -61 -15t-26 -42q0 -32 62 -48q-48 -27 -114 -27q-52 0 -96 28q-48 32 -48 77q0 55 46 85q24 16 59 25v28q-25 4 -51 10q-147 34 -152 144t-66 146l37 1q145 0 145 -111l-1 -43q0 -91 16 -96l10 -1q175 0 251 151q-42 -41 -162 -42
l-83 65v70q-143 26 -143 97q0 61 101 61l20 -1q-25 -15 -25 -47q0 -33 46 -63v12q0 52 28 81.5t70 29.5q6 0 12 -1v1h418v-97h-66z" />
    <glyph glyph-name="bn_ng_ra" horiz-adv-x="561" 
d="M333 354q23 6 38 21t15 28q0 11 -8.5 21.5t-21.5 10.5t-18 -8q-7 -10 -7 -40q0 -14 2 -33zM392 8q-29 -8 -63 -8q-46 0 -99 14q-147 38 -152 158t-66 159q24 2 37 2q145 0 145 -122q0 -12 -0.5 -24t-0.5 -22q0 -101 16 -106q4 -1 10 -1q29 0 104 22q94 27 147 143
q-42 -45 -162 -46l-83 71v77q-143 28 -143 106q0 67 101 67q10 0 20 -1q-25 -16 -25 -52t46 -69v14q0 56 29 90q27 31 69 31t73 -27q33 -28 33 -71q0 -32 -21 -53q-23 -22 -74 -32v-115q74 39 116 132q70 -21 86 -130q3 -17 3 -34q0 -35 -15 -68q-4 -9 -9 -17v-180
q0 -37 39 -56h-121q-40 0 -40 33v12q-21 -12 -43 -35q-83 -83 -154 -83q-69 0 -114 46q-31 30 -31 72q0 59 74 83q14 4 27 4q45 0 75 -52l-8 -3q-93 -29 -93 -68q0 -4 1 -8.5t4 -7.5t6 -3q26 0 119 82q46 43 98 43q19 0 39 -7v40z" />
    <glyph glyph-name="bn_c_nya" horiz-adv-x="885" 
d="M157 130q89 49 89 128v14q-17 -5 -31 -5q-49 0 -65 52v-159q0 -17 7 -30zM655 186v-112q54 -36 91 -36q25 0 39 11q16 14 16 42q0 6 -1 13q-16 -6 -28 -6q-49 0 -69 73q123 36 123 58q0 14 -23 14q-32 0 -78 -19q-38 -16 -70 -38zM340 185q-9 -15 -22 -27h10q52 0 65 -86
h-8q-43 0 -65 -15q-21 -14 -21 -37q0 -6 2 -11t9 -5q24 0 102 50q30 19 56 19q50 0 59 -46v288q-52 -8 -77 -51q-20 -33 -20 -56q0 -22 17 -34q-29 -6 -51 -6q-35 0 -56 17zM150 414v-35q37 -30 106 -30q47 0 112 14q2 -15 2 -30q11 8 24 16q33 19 78 19q71 0 173 -51l10 -3
v-96q12 42 34 66q30 31 82 31q44 0 73 -35q27 -33 27 -83q0 -66 -59 -90q24 -2 40 -22q19 -22 19 -57q0 -11 -2 -22q-5 -28 -31 -48q-27 -22 -67 -22q-36 0 -70 22t-46 63v-59q0 -41 32 -62h-127q-33 0 -33 37v40q-19 8 -59 -22q-58 -45 -101 -45q-14 0 -26 5
q-39 15 -65.5 55.5t-26.5 86.5q0 40 14 65q-50 -21 -122 -21h-58q-32 3 -32 36v277h-56v97h898v-97h-743z" />
    <glyph glyph-name="bn_c_ra" 
d="M192 35q109 60 109 187v17q-21 -5 -38 -5q-60 0 -79 64v-226q0 -21 8 -37zM184 414v-43q44 -38 129 -38q58 0 137 18q4 -35 4 -66q0 -130 -59 -201v-155q0 -37 39 -56h-121q-40 0 -40 33v12q-21 -12 -43 -35q-83 -83 -154 -83q-69 0 -115 46q-31 30 -31 72q0 59 75 83
q14 4 26 4q45 0 76 -52l-8 -3q-93 -29 -93 -68q0 -4 1 -8.5t3.5 -7.5t6.5 -3q25 0 119 82q46 43 98 43q19 0 39 -7v30q-45 -11 -101 -11h-70q-40 3 -40 44v370h-75v97h525v-97h-328z" />
    <glyph glyph-name="bn_ch_ba" horiz-adv-x="631" 
d="M200 181q114 41 114 117v10q-17 -2 -31 -2q-78 0 -91 68v-168q0 -14 8 -25zM373 -145v99q-18 -17 -53 -17l-16 1q0 -50 69 -83zM200 413q39 -36 107 -36q50 0 117 20l9 -22q167 -1 167 -123q0 -69 -77 -116q-68 -41 -208 -41q-68 0 -148 9q149 -54 220 -54
q43 0 68.5 15.5t33.5 39.5q65 -58 65 -97q0 -23 -27 -42q-14 -9 -31 -15v-106q5 -29 29 -46q-125 0 -130 1q-187 14 -240 196q65 -6 121 -6h12q-95 45 -222 133h40q163 0 245 25q95 28 126 97l1 20q0 47 -34 76q6 -25 6 -46q0 -140 -266 -140q-34 0 -73 2h2q-48 0 -48 29
v227l-75 1v97h652v-97z" />
    <glyph glyph-name="bn_ch_ra" horiz-adv-x="629" 
d="M202 182q114 41 114 117v10q-17 -2 -31 -2q-78 0 -91 68v-168q0 -14 8 -25zM202 413q39 -36 107 -36q50 0 117 20l9 -22q167 -1 167 -123q0 -69 -77 -116q-68 -41 -208 -41q-68 0 -148 9q149 -54 220 -54q43 0 68.5 15.5t33.5 39.5q65 -58 65 -97q0 -23 -27 -42
q-10 -7 -21 -11v-71q0 -37 39 -56h-121q-40 0 -40 33v12q-21 -12 -43 -35q-83 -83 -154 -83q-69 0 -114 46q-31 31 -31 72q0 59 74 83q14 4 27 4q45 0 75 -52l-8 -3q-93 -29 -93 -68q0 -4 1 -8.5t4 -7.5t6 -3q26 0 119 82q47 43 98 43q19 0 39 -7v18q-121 31 -318 169h40
q163 0 245 25q95 28 126 97l1 20q0 47 -34 76q6 -25 6 -46q0 -140 -266 -140q-34 0 -73 2h2q-48 0 -48 29v227l-73 1v97h641v-97z" />
    <glyph glyph-name="bn_j_ja" horiz-adv-x="900" 
d="M335 414q-70 -29 -70 -87q0 -32 29 -32q33 0 82 38q81 -33 81 -89q0 -37 -46 -66q-50 -32 -126 -32q-22 0 -45.5 2.5t-49.5 7.5q-125 24 -129 109.5t-61 112.5l33 1q135 0 135 -86l-1 -33q0 -45 5 -60.5t18 -15.5q24 0 97 16q86 19 130 74q-65 -15 -111 -15q-58 0 -90 25
t-32 68q0 27 12 62h-203v97h919v-97h-520q32 -37 85 -37q63 0 98 26l90 -64q-12 -18 -43 -27q-8 -11 -16 -21q31 -26 76 -26q67 0 103 29l95 -72q-13 -20 -46 -30q-45 -56 -45 -108q0 -31 22 -31q17 0 51 22q9 -26 9 -47q0 -52 -53 -78q-24 -12 -47 -12q-44 0 -74 47
q-12 18 -12 39q0 64 106 160l-32 -1q-122 0 -170 86q-82 -108 -82 -133q0 -8 11 -8q30 0 117 64q28 -28 31 -49q16 -16 16 -56q-1 -44 -27.5 -78t-66.5 -55q-49 -24 -105 -24q-48 0 -104 15q-138 36 -142.5 91t-67.5 97q35 3 63 3q122 0 122 -60v-26q0 -36 5.5 -49t20.5 -13
q13 0 40 6q149 33 216 107q-1 0 -3 -1q-34 -15 -97 -15q-89 0 -89 63q0 90 122 157l-29 -1q-129 0 -165 110h-40z" />
    <glyph glyph-name="bn_j_j_ba" horiz-adv-x="900" 
d="M711 -229v100q-17 -18 -53 -18l-16 1q0 -50 69 -83zM335 414q-70 -29 -70 -87q0 -32 29 -32q33 0 82 38q81 -33 81 -89q0 -37 -46 -66q-50 -32 -126 -32q-22 0 -45.5 2.5t-49.5 7.5q-125 24 -129 109.5t-61 112.5l33 1q135 0 135 -86l-1 -33q0 -45 5 -60.5t18 -15.5
q24 0 97 16q86 19 130 74q-65 -15 -111 -15q-58 0 -90 25t-32 68q0 27 12 62h-204v97h914v-97h-514q32 -37 85 -37q63 0 98 26l90 -64q-12 -18 -43 -27q-8 -11 -16 -21q31 -26 76 -26q67 0 103 29l95 -72q-13 -20 -46 -30q-45 -56 -45 -108q0 -31 22 -31q17 0 51 22
q9 -26 9 -47q0 -43 -37 -69v-198q5 -28 29 -46q-125 0 -130 1q-187 14 -240 196q65 -6 121 -6q69 0 97 14v46q-7 9 -14 19q-12 18 -12 39q0 64 106 160l-32 -1q-122 0 -170 86q-82 -108 -82 -133q0 -8 11 -8q30 0 117 64q28 -28 31 -49q16 -16 16 -56q-1 -44 -27.5 -78
t-66.5 -55q-49 -24 -105 -24q-48 0 -104 15q-138 36 -142.5 91t-67.5 97q35 3 63 3q122 0 122 -60v-26q0 -36 5.5 -49t20.5 -13q13 0 40 6q149 33 216 107q-1 0 -3 -1q-34 -15 -97 -15q-89 0 -89 63q0 90 122 157l-29 -1q-129 0 -165 110h-40z" />
    <glyph glyph-name="bn_j_jha" horiz-adv-x="722" 
d="M345 93q-27 -41 -117 -41l-29 1q0 -67 146 -109v149zM396 414q34 -33 87 -33q67 0 104 25l95 -62q-13 -17 -46 -26q-29 -32 -29 -55q0 -16 13 -27.5t28 -11.5q19 0 40 15q17 -34 17 -59q0 -26 -21 -44v-181q0 -22 40 -33h-123q-40 0 -40 19v26q-26 30 -61 30
q-16 0 -32 -6v-31q0 -25 40 -39h-123q-6 0 -12 1q-282 10 -359 193q73 -3 134 -3q133 0 197 16v1q-15 -1 -32 -1q-45 0 -104 11q-137 27 -142 122.5t-67 126.5l37 1q148 0 148 -96l-1 -38q0 -79 17 -83q3 -1 8 -1q28 0 107 18q15 3 61 19t83 63q-71 -17 -123 -17
q-64 0 -99.5 27.5t-35.5 77.5q0 25 10 55h-220v97h738v-97h-334zM377 414h-31q-54 -30 -54 -82q0 -38 33 -38q45 7 89 43q92 -36 93 -93q0 -39 -39 -71v-104q79 -7 93 -65v129l-1 1q-31 23 -31 55q0 48 64 122l-31 -1q-144 0 -185 104z" />
    <glyph glyph-name="bn_j_nya" horiz-adv-x="771" 
d="M495 223q17 -28 17 -60q0 -16 -3 -31q55 -37 94 -37q26 0 42 13.5t16 42.5l-1 13q-1 -1 -3 -1q-15 -5 -27 -5q-52 0 -74 75q152 25 152 49q0 20 -41 20q-92 0 -172 -79zM390 414q37 -60 94 -60q37 0 86 20l28 9q12 3 23 3q48 0 82 -41q31 -39 31 -87q0 -66 -63 -90
q26 -2 44 -23q19 -24 19 -59q0 -12 -2 -24q-5 -28 -33.5 -50t-70.5 -22q-37 0 -74 24q-48 30 -54 93q-13 -27 -39 -51q-56 -52 -145 -52q-24 0 -50 3.5t-55 11.5q-138 36 -143 166t-68 173l37 1q150 0 150 -130l-1 -51q0 -109 17 -114q3 -1 9 -1q28 0 107 24q97 29 145 112
q-73 -24 -124 -24q-63 0 -99.5 38t-36.5 105q0 41 14 96h-224v97h783v-97h-387zM375 414q-80 -44 -80 -132q0 -52 35 -52q43 9 88 59q44 -22 67 -52q3 37 13 64q-91 22 -120 113h-3z" />
    <glyph glyph-name="bn_j_ba" horiz-adv-x="734" 
d="M563 -151v99q-17 -17 -53 -17l-16 1q0 -49 69 -83zM142 511v1h509v-1h101v-97h-361q33 -61 98 -61q69 0 107 34l96 -84q-13 -23 -47 -35q-29 -43 -29 -74q0 -21 13 -36.5t29 -15.5q18 0 40 21q17 -46 17 -79q0 -44 -29 -67v-178q5 -28 30 -46l-130 1q-188 14 -240 196
q65 -6 120 -6q69 0 97 14v29q-26 30 -26 70q0 63 65 163q-22 -2 -34 -2q-154 0 -190 156h-3q-79 -45 -79 -132q0 -52 35 -52q44 10 89 59q93 -48 94 -127q0 -61 -51 -107q-57 -52 -146 -52q-49 0 -105 15q-139 36 -144 167t-68 173q24 2 37 2q150 0 150 -131l-1 -52
q0 -109 17 -114l10 -1q28 0 107 24q97 29 146 113q-73 -24 -124 -24q-64 0 -101 38t-37 105q0 42 15 96h-228v97h151z" />
    <glyph glyph-name="bn_j_ra" horiz-adv-x="734" 
d="M137 511v1h463v-1h145v-97h-354q33 -61 98 -61q69 0 107 34l96 -84q-13 -23 -47 -35q-29 -43 -29 -74q0 -21 13 -36.5t29 -15.5q18 0 40 21q17 -46 17 -79q0 -47 -33 -70v-82q0 -37 39 -56h-122q-39 0 -39 33v9h-2q-41 0 -91 -51q-83 -83 -154 -83q-69 0 -115 46
q-31 31 -31 72q0 59 75 83q14 4 26 4q45 0 76 -52l-8 -3q-93 -29 -93 -68q0 -4 1 -8.5t3.5 -7.5t6.5 -3q25 0 119 82q46 43 98 43q44 0 89 -34v93q-23 28 -23 66q0 63 65 163q-22 -2 -34 -2q-154 0 -190 156h-3q-79 -45 -79 -132q0 -52 35 -52q44 10 89 59q93 -48 94 -127
q0 -61 -51 -107q-57 -52 -146 -52q-49 0 -105 15q-139 36 -144 167t-68 173q24 2 37 2q150 0 150 -131l-1 -52q0 -109 17 -114l10 -1q28 0 107 24q97 29 146 113q-73 -24 -124 -24q-64 0 -101 38t-37 105q0 42 15 96h-230v97h148z" />
    <glyph glyph-name="bn_jh_ra" horiz-adv-x="728" 
d="M318 39v254q-28 -59 -102 -59l-27 1q0 -120 129 -196zM742 511v-97h-85v-348q0 -46 39 -70h-122q-40 0 -40 42v41q-27 55 -61 55q-15 0 -32 -11v-174q0 -37 39 -56h-122q-35 0 -38 26q-22 -13 -45 -36q-83 -83 -154 -83q-70 0 -115 45q-31 31 -31 72q0 60 75 84
q14 4 26 4q45 0 76 -52l-8 -3q-94 -30 -94 -69q0 -4 1.5 -8t4 -7t5.5 -3q26 0 120 82q46 43 98 43q20 0 40 -7v20q-235 35 -302 348q66 -6 126 -6q117 0 175 26v45h-331v97h413q40 0 41 -47v-199q80 -13 93 -122v411q26 -43 53 -43h155z" />
    <glyph glyph-name="bn_ny_ca" horiz-adv-x="659" 
d="M522 129q36 0 46 25q3 9 3 33q-13 -5 -26 -5q-45 0 -62 64q111 32 111 51q0 13 -21 13q-58 0 -132 -50v-100q49 -31 81 -31zM318 33v223q-27 -53 -102 -53q-13 0 -27 2q0 -105 129 -172zM441 414v-122q25 81 104 81q40 0 64.5 -31t24.5 -74q0 -56 -53 -77q23 -3 37 -20
q16 -21 16 -51q0 -31 -20 -53q-25 -27 -69 -27q-32 0 -64 20q-29 17 -40 49v-43q0 -46 39 -66l-105 -1q-283 0 -358 304q69 -5 124 -5q118 0 177 24v37q-102 75 -165 75q-11 0 -20 -2q-57 -12 -57 -27q0 -17 30 -17q44 0 57 29q15 -30 15 -51q0 -23 -17 -37t-47 -14
q-33 0 -60.5 31t-27.5 66q0 19 9 40q28 57 103 57q57 0 109 -32q46 -30 71 -95v60q-3 9 -3 112q26 -43 52 -43h300v-97h-226z" />
    <glyph glyph-name="bn_ny_cha" horiz-adv-x="626" 
d="M315 391q-7 -22 -29 -47q94 -69 165 -69q35 0 65 19q28 18 29 42q-24 -15 -59 -27q-22 -7 -42 -7q-60 0 -71 78l50 -1q129 0 129 27q0 18 -43 18q-19 0 -45 -3q-81 -10 -149 -30zM275 332q-57 -67 -113 -164q-22 -37 -22 -53q0 -10 10 -10q18 0 62 27q84 45 100 142
q-21 24 -37 58zM350 239q30 -37 30 -73q0 -8 -2 -16q-44 -90 -165 -90q-29 0 -64 5q-71 26 -71 100q0 91 80 186q57 68 57 93q0 9 -8.5 14.5t-16.5 5.5q-23 0 -47.5 -36t-24.5 -74q0 -18 5 -37l-22 -1q-85 0 -85 77q0 115 166 118q57 -4 98 -30q30 -20 38 -47q14 24 37 42
q43 34 104 34q54 0 93 -32t39 -69q0 -27 -18 -48q3 -2 5 -3q30 -19 30 -52q0 -69 -68 -89q69 -33 69 -105q0 -64 -77 -112q-72 -43 -219 -43q-72 0 -156 9q155 -56 230 -56q90 0 109 58q68 -61 68 -102q0 -25 -28 -45q-31 -22 -83 -22q-135 0 -403 188l42 -1q172 0 259 26
q99 30 132 103l1 4q0 56 -92 101q-19 7 -36 17z" />
    <glyph glyph-name="bn_ny_ja" horiz-adv-x="779" 
d="M519 284q39 0 66 11q34 14 34 45l-1 11q-47 -18 -75 -18q-58 0 -69 64q14 -1 51 -1q134 0 134 28q0 18 -45 18q-12 0 -45 -3q-82 -10 -150 -30q0 -32 -32 -71q13 -11 24 -21q58 -33 108 -33zM359 171q36 0 91 52q-54 41 -68 109q-62 -70 -62 -117q0 -44 39 -44zM685 -88
q-29 0 -54 25q-30 29 -30 70q0 62 61 156q-88 4 -149 27q38 -37 39 -86q0 -28 -13.5 -55.5t-39 -50.5t-63.5 -37t-87 -14t-109 15q-144 36 -149 164.5t-69 170.5q20 2 38 2q155 0 155 -130l-1 -48q0 -109 18 -115q3 -1 9 -1q30 1 111 24q100 28 151 111q-76 -23 -129 -23
q-42 0 -71.5 15.5t-51.5 44.5q-24 31 -24 68q0 47 42 105q43 60 43 86q0 10 -9 16t-17 6q-24 0 -49.5 -37.5t-25.5 -75.5q0 -19 6 -39q-13 -1 -23 -1q-87 0 -87 80q0 118 170 122q57 -4 99 -30q25 -16 36 -38q17 28 45 45q43 27 108 27q59 0 101 -26q38 -23 38 -57
q0 -35 -57 -64q21 -5 37 -13q31 -14 31 -35q0 -20 -24.5 -36t-71.5 -25q25 4 46 11l81 -62q-12 -21 -43 -33q-28 -41 -28 -70q0 -20 12.5 -34.5t27.5 -14.5q16 0 37 18q17 -43 17 -74q0 -36 -24.5 -60t-59.5 -24z" />
    <glyph glyph-name="bn_ny_jha" horiz-adv-x="782" 
d="M506 384q32 19 74 33q47 16 80 16q24 0 24 -12q0 -19 -128 -50q20 -61 72 -61q12 0 26 4q2 0 3 1l1 -10q0 -42 -56 -42q-40 0 -96 30v91zM384 106v-194q-145 56 -145 142l29 -1q90 0 116 53zM598 -90q0 -26 39 -26h122q-39 15 -39 43v243l-66 15q23 4 41 14q28 16 33 38
q2 10 2 19q0 27 -20 45q-16 15 -41 17q61 21 61 75q0 42 -29 71t-74 29q-93 0 -121 -81v55l-20 5q-118 39 -201 39q-53 0 -93 -16q-91 -37 -91 -86q0 -61 94 -61q26 0 61 5q-20 10 -20 27q0 19 24 46q30 35 124 41v-250q-42 59 -102 59q-32 0 -68 -17q-93 -42 -122 -42
q-14 0 -14 14q0 43 114 43q-17 74 -80 74q-46 0 -70 -23t-24 -63q0 -39 31.5 -73t79.5 -47q14 -5 31 -5q50 0 122 38q44 24 75 24q15 0 27 -5v-43q-63 -21 -193 -21q-54 0 -135 5q76 -236 355 -250q5 -1 12 -1h122q-39 18 -39 50v40q17 8 31 8q34 0 61 -39v-33zM506 75v54
h39q-39 18 -39 50v72q12 -33 47 -50q23 -11 45 -15v-200q-12 80 -92 89z" />
    <glyph glyph-name="bn_ny_ra" horiz-adv-x="716" 
d="M576 159q54 0 54 52v12q-16 -5 -29 -5q-49 0 -69 71q124 35 124 57q0 14 -24 14q-32 0 -78 -19q-39 -16 -71 -38v-108q55 -36 93 -36zM366 -80q-22 -13 -46 -37q-83 -83 -153 -83t-115 45q-31 31 -31 72q0 60 74 84q14 4 27 4q45 0 75 -52l-8 -3q-93 -30 -93 -69
q0 -4 1 -8t4 -7t6 -3q26 0 119 82q47 43 98 43q21 0 42 -8v103q-12 8 -26 8q-30 0 -73 -31q-68 -49 -118 -49q-16 0 -30 6q-45 16 -76 60t-31 95q0 52 24 81t67 29q61 0 77 -94q-60 0 -85 -16t-25 -41q0 -17 13 -17q28 0 119 54q35 21 65 21q58 0 99 -76v340
q-92 -9 -121 -55q-22 -37 -22 -62q0 -24 19 -37q-33 -7 -59 -7q-91 0 -91 83q0 65 88 114q39 22 91 22q82 0 201 -56l11 -3v-117q28 95 117 95q45 0 72 -33.5t27 -82.5q0 -64 -58 -87q24 -2 41.5 -23t17.5 -54q0 -44 -33 -69q-28 -22 -67 -22q-36 0 -70.5 22t-46.5 62v-194
q0 -37 38 -56h-117q-34 0 -38 27z" />
    <glyph glyph-name="bn_tt_tta" horiz-adv-x="511" 
d="M405 511q7 12 7 25q0 21 -11 35q-15 18 -43 18q-36 0 -115 -28q-58 -21 -105 -21q-53 0 -83 24t-30 61q0 49 29 76t71 27q19 0 34 -8q-45 -9 -65 -22.5t-20 -34.5q0 -15 12 -24t31 -9q12 0 26 4l123 39q41 13 74 13q56 0 89 -36q29 -32 29 -73q0 -39 -20 -66h79v-97h-330
v-232q0 -20 13 -34q154 49 224 178l1 6q0 9 -14 9q-12 0 -39 -8q-41 -13 -41 -40q0 -12 10 -27q-16 -3 -33 -3q-74 0 -74 59q0 37 50 61q40 12 74 12q36 0 63 -14q60 -33 60 -106q0 -79 -82 -115q49 -34 49 -73q0 -45 -29 -74q-23 -23 -90 -23q-68 0 -130.5 22.5
t-126.5 72.5q-103 82 -129 169q100 -147 204 -165q60 -11 112 -11q60 0 91.5 12.5t31.5 42.5q0 8 -3 19q-67 -23 -178 -23q-27 0 -50 1h-47q-40 0 -40 31v253h-71v97h412z" />
    <glyph glyph-name="bn_tt_ba" horiz-adv-x="519" 
d="M300 -90v87q-15 -15 -46 -15l-14 1q0 -43 60 -73zM61 511v1h350q7 12 7 26q0 21 -11 36q-15 18 -44 18q-36 0 -117 -29q-59 -21 -106 -21q-54 0 -84.5 24.5t-30.5 61.5q0 50 29.5 77.5t71.5 27.5q20 0 35 -9q-86 -15 -86 -58q0 -14 12 -23.5t31 -9.5q13 0 27 5l125 39
q42 13 75 13q57 0 90 -36q30 -32 30 -74q0 -38 -21 -68h17v-1h69v-97h-340v-310q0 -17 11 -30q157 59 229 216l1 7q0 11 -14 11q-13 0 -39 -10q-42 -16 -42 -48q0 -15 10 -34q-18 -2 -33 -2q-76 0 -76 71q0 45 51 73q42 14 78 14q33 0 61 -17q61 -38 61 -127q0 -94 -81 -138
v-188q4 -25 26 -41q-110 0 -113 1q-164 12 -210 171q57 -5 105 -5q60 0 85 12v18q-43 -6 -96 -6h-98q-41 2 -41 31v331h-75v97h71z" />
    <glyph glyph-name="bn_tt_ra" horiz-adv-x="518" 
d="M529 414l1 -1l-340 1v-311q0 -17 11 -30q157 59 229 216l1 7q0 11 -14 11q-13 0 -39 -10q-42 -16 -42 -48q0 -15 10 -34q-18 -2 -33 -2q-76 0 -76 71q0 45 51 73q42 14 78 14q33 0 61 -17q61 -38 61 -127q0 -55 -28 -93v-164q0 -37 40 -56h-122q-40 0 -40 33v8
q-25 -12 -55 -40q-83 -80 -152 -80q-39 0 -73 16q-26 12 -44 31q-30 31 -30 71q0 61 77 84q13 4 25 4q46 0 76 -54l-8 -3q-95 -28 -95 -67q0 -3 1.5 -7.5t4 -7.5t6.5 -3q28 0 119 80q47 41 98 41q25 0 50 -11v55q-56 -13 -134 -13h-98q-41 2 -41 31v332h-75v97h421
q7 12 7 26q0 21 -11 36q-15 18 -44 18q-36 0 -117 -29q-59 -21 -106 -21q-54 0 -84.5 24.5t-30.5 61.5q0 50 29.5 77.5t71.5 27.5q20 0 35 -9q-86 -15 -86 -58q0 -14 12 -23.5t31 -9.5q13 0 27 5l125 39q42 13 75 13q57 0 90 -36q30 -32 30 -74q0 -38 -21 -68h86v-97h-1z
" />
    <glyph glyph-name="bn_tth_ra" horiz-adv-x="565" 
d="M223 24q54 0 125 84q48 57 48 117q0 24 -7 47q-25 86 -70 131q24 -69 24 -121q0 -120 -141 -122q-11 -48 -11 -81q0 -55 32 -55zM116 511q-29 57 -29 108q0 72 75 121q36 23 69 23q34 0 65 -24q36 -27 36 -66q0 -56 -66 -142q-5 48 -30.5 85t-57.5 37q-33 0 -33 -21
q0 -35 90 -121h342v-97h-215q44 -30 88 -68q66 -56 66 -167q0 -59 -26 -100v-166q0 -36 39 -56h-122q-39 0 -39 33v10q-26 -12 -56 -41q-82 -81 -155 -81q-35 0 -70 17q-26 12 -44 31q-30 31 -30 70q0 63 77 84q14 4 26 4q45 0 75 -53l-8 -3q-95 -28 -95 -67q0 -4 1.5 -8.5
t4 -7t6.5 -2.5q28 0 119 80q49 41 98 41q26 0 51 -11v47q-42 -12 -88 -12q-104 0 -153 39q-68 53 -68 130q0 28 8 59q53 -25 90 -25q38 0 63 25q22 23 22 50q0 37 -13 72q-9 23 -47 76h-192v97h126z" />
    <glyph glyph-name="bn_dd_dda" horiz-adv-x="959" 
d="M708 414v-178q78 43 122 142q74 -23 92 -140q3 -19 3 -36q0 -84 -69.5 -142.5t-174.5 -58.5q-38 0 -78 7q-148 26 -148 120v9q0 13 -1 24q-13 -20 -32 -38q-55 -52 -138 -52q-43 0 -88 12q-132 35 -136.5 144.5t-58.5 143.5q17 2 33 2q129 0 129 -109v-41q0 -93 15 -98
l7 -1q25 0 94 20q70 21 114 96l2 3q9 15 16 31q-37 -40 -145 -42l-74 64v118h-202v97h974v-97h-256zM594 414h-306v-149q66 35 104 119q76 -45 82 -136q93 -4 93 -65q0 -19 -2 -34.5t-2 -27.5q0 -31 5.5 -41t18.5 -10q31 0 110 23q99 30 156 153q-44 -47 -172 -48l-87 76
v140z" />
    <glyph glyph-name="bn_dd_ra" horiz-adv-x="569" 
d="M329 414v-174q76 41 118 136q72 -22 89 -133q3 -19 3 -35q0 -58 -35 -103v-148q0 -36 39 -56h-122q-39 0 -39 34v9q-26 -12 -56 -41q-82 -81 -155 -81q-34 0 -70 17q-26 12 -44 31q-29 32 -29 71q0 62 76 83q14 4 27 4q45 0 74 -53l-8 -3q-95 -27 -95 -67q0 -3 1.5 -8
t4 -7.5t6.5 -2.5q28 0 119 80q49 41 98 41q26 0 51 -11v31q-27 -6 -57 -6q-48 0 -103 14q-150 39 -155 162t-68 163q25 2 38 2q149 0 149 -124l-1 -48q0 -103 17 -108q3 -1 9 -1q180 0 259 168q-44 -45 -167 -47l-85 73v138h-228v97h589v-97h-250z" />
    <glyph glyph-name="bn_ddh_ra" horiz-adv-x="503" 
d="M183 414l1 -342q0 -27 14 -46q149 66 219 238l1 8q0 12 -14 12q-11 0 -38 -11q-40 -18 -40 -53q0 -16 9 -37q-18 -3 -31 -3q-74 0 -74 79q0 50 49 81q41 16 73 16q36 0 62 -19q59 -42 59 -142q0 -80 -46 -127v-142q0 -36 39 -56h-122q-39 0 -39 33v10q-26 -12 -56 -41
q-82 -81 -155 -81q-34 0 -70 17q-26 12 -44 31q-29 31 -29 71q0 62 76 83q14 4 27 4q45 0 74 -53l-8 -3q-95 -28 -95 -67q0 -4 1.5 -8.5t4 -7t6.5 -2.5q28 0 119 80q49 41 98 41q26 0 51 -11v43q-47 -9 -108 -9h-94q-40 2 -40 43l-1 371h-72v97h527v-97h-334z" />
    <glyph glyph-name="bn_nn_tta" horiz-adv-x="770" 
d="M663 511q8 13 8 25q0 21 -12 35q-14 18 -42 18q-36 0 -114 -28q-58 -22 -105 -22q-52 0 -82 24t-30 61q0 49 28.5 76t70.5 27q19 0 34 -9q-85 -15 -85 -56q0 -15 12 -24t31 -9q12 0 148 43q41 13 74 13q55 0 88 -36q29 -31 29 -72q0 -39 -20 -66h83v-97h-332v-346
q0 -27 14 -47q151 67 221 241l1 8q0 12 -13 12q-7 0 -16 -3q-64 -19 -64 -62q0 -16 10 -37q-18 -3 -32 -3q-75 0 -75 79q0 51 50 82q41 16 74 16q36 0 63 -19q59 -43 59 -143q0 -197 -278 -197q-30 0 -56 2h-40q-40 0 -40 42v300q-60 52 -112 52q-23 0 -44 -9
q-78 -29 -92 -85v-4q0 -11 15 -11q16 0 50 13q70 25 88 44q23 -37 23 -71q0 -37 -25 -62t-69 -25q-26 0 -57 7q-36 19 -61.5 62.5t-25.5 93.5q0 38 19 74q48 93 144 93q100 0 147 -143l-2 186q25 -43 51 -43h289z" />
    <glyph glyph-name="bn_nn_ttha" horiz-adv-x="638" 
d="M310 51q55 0 127 81q49 55 49 114q0 23 -7 45q-24 77 -65 121h-4q24 -69 24 -117q0 -110 -130 -113q-21 -61 -21 -94q0 -37 27 -37zM477 414q32 -23 65 -49q67 -55 67 -162q0 -96 -74.5 -140.5t-165.5 -44.5q-108 0 -157 38q-55 42 -55 105q0 48 44 95q28 -37 59 -37
q13 0 26 7q43 22 43 60l-1 24q-74 105 -177 105q-19 0 -38 -3q-51 -24 -60 -62q3 -20 18 -20q24 0 81 45q20 14 22 17q17 -33 17 -60q0 -64 -80 -69q-48 2 -74.5 31.5t-26.5 79.5q0 60 41 100q37 36 81 36q53 0 104 -38q-64 84 -64 157q0 69 75 116q37 23 71 23q35 0 67 -23
q37 -26 37 -64q0 -54 -68 -137q-5 47 -30.5 82t-59.5 35q-33 0 -33 -20q0 -19 35 -60q29 -34 71 -69l310 -1v-97h-170z" />
    <glyph glyph-name="bn_nn_dda" horiz-adv-x="648" 
d="M544 251q6 -3 11 -6q52 -28 70 -76q7 -18 7 -33q0 -59 -84 -115q-74 -50 -183 -50q-47 0 -101 10q-178 31 -187.5 116.5t-76.5 94.5q30 1 56 1q164 0 164 -75q0 -8 -0.5 -15.5t-0.5 -14.5q0 -69 25 -69q30 0 151 50q76 32 116 65q42 35 42 67q0 17 -20 17q-22 0 -64 -17
q-78 -32 -78 -62q0 -9 8 -18q-98 48 -98 88q0 27 40 47q37 19 82 19q13 0 26 -1q66 91 66 126q0 16 -8 23.5t-16 7.5t-18 -6q-26 -14 -42 -34q-18 -25 -18 -54q0 -21 8 -46q-123 38 -123 101v1q-35 19 -67 19q-21 0 -40 -8q-73 -24 -86 -70v-4q0 -8 13 -8q37 0 102 32
q20 9 27 15q21 -32 21 -59q0 -31 -23 -51.5t-64 -20.5q-27 0 -53 6q-33 15 -56 50q-25 37 -25 79q0 33 17 61q46 77 134 77q53 0 90 -36q13 -14 25 -33q12 22 31 36q32 25 83 25q49 0 101 -31q67 -42 67 -139q0 -44 -20 -65q-12 -12 -31 -17z" />
    <glyph glyph-name="bn_nn_dd_ra" horiz-adv-x="645" 
d="M455 -19q-42 -10 -90 -10q-47 0 -101 10q-178 31 -187.5 116.5t-76.5 94.5l56 1q164 0 164 -75l-1 -30q0 -69 25 -69q30 0 151 50q158 67 158 132q0 17 -20 17q-22 0 -64 -17q-78 -32 -78 -62q0 -9 8 -18q-98 48 -98 88q0 27 38.5 46.5t83.5 19.5l26 -1q66 91 66 126
q0 16 -8 23.5t-16 7.5t-18 -6q-60 -32 -60 -88q0 -21 8 -46q-123 38 -123 101q-35 20 -67 20q-21 0 -40 -8q-80 -26 -86 -74q0 -8 13 -8q37 0 102 32q20 9 27 15q21 -32 21 -59q0 -31 -23 -51.5t-64 -20.5q-27 0 -53 6q-33 15 -57 51t-24 78q0 33 17 61q46 77 134 77
q74 0 115 -69q32 61 114 61q49 0 101 -31q67 -42 67 -139q0 -68 -51 -82q61 -29 81 -82q7 -18 7 -33q0 -48 -55 -94v-145q0 -37 39 -56h-122q-39 0 -39 33v9q-26 -12 -56 -40q-82 -81 -155 -81q-35 0 -70 17q-26 12 -44 31q-30 31 -30 70q0 62 77 84q14 4 26 4q45 0 75 -53
l-8 -3q-95 -28 -95 -68q0 -3 1.5 -7.5t4 -7.5t6.5 -3q28 0 119 81q49 41 98 41q26 0 51 -11v44z" />
    <glyph glyph-name="bn_nn_ddha" horiz-adv-x="770" 
d="M447 414v-346q0 -27 14 -47q151 67 221 241l1 8q0 12 -13 12q-7 0 -16 -3q-64 -19 -64 -62q0 -16 10 -37q-18 -3 -32 -3q-75 0 -75 79q0 51 50 82q41 16 74 16q36 0 63 -19q59 -43 59 -143q0 -197 -278 -197q-30 0 -56 2h-40q-40 0 -40 42v300q-60 52 -112 52
q-23 0 -44 -9q-78 -29 -92 -85v-4q0 -11 15 -11q16 0 50 13q70 25 88 44q23 -37 23 -71q0 -37 -25 -62t-69 -25q-26 0 -57 7q-36 19 -61.5 62.5t-25.5 93.5q0 38 19 74q48 93 144 93q100 0 147 -143l-2 186q25 -43 51 -43h407v-97h-334z" />
    <glyph glyph-name="bn_nn_nna" horiz-adv-x="521" 
d="M458 414v-398q0 -46 39 -70h-122q-39 0 -39 41v83q-27 14 -52 14q-20 0 -38 -8q-68 -25 -81 -74v-4q0 -9 13 -9q14 0 43 10q62 23 78 39q20 -32 20 -61q0 -33 -22 -55t-60 -22q-23 0 -50 7q-32 16 -54 54t-22 82q0 33 16 64q42 82 126 82q49 0 83 -38v183q-63 58 -119 58
q-23 0 -43 -9q-78 -29 -92 -85v-4q0 -10 15 -10q16 0 49 12q71 26 88 44q23 -37 23 -70q0 -38 -25 -62.5t-69 -24.5q-25 0 -56 7q-36 19 -61 62.5t-25 92.5q0 38 18 74q48 92 143 92q109 0 154 -166l1 209q22 -43 48 -43h152v-97h-79z" />
    <glyph glyph-name="bn_nn_ba" horiz-adv-x="521" 
d="M336 113q-17 -17 -53 -17l-16 1q0 -49 69 -83v99zM458 414v-183l1 -226q5 -29 30 -47q-126 0 -130 1q-188 14 -240 196q65 -6 120 -6q69 0 97 14v171q-63 58 -119 58q-23 0 -43 -9q-78 -29 -92 -85q0 -14 15 -14q16 0 49 12q71 26 88 44q23 -37 23 -70q0 -38 -25 -62.5
t-69 -24.5q-25 0 -56 7q-36 19 -61 62.5t-25 92.5q0 38 18 74q48 92 143 92q109 0 154 -166l1 209q22 -43 48 -43h150v-97h-77z" />
    <glyph glyph-name="bn_nn_ma" horiz-adv-x="717" 
d="M650 414v-402q0 -43 40 -66h-123q-40 0 -40 39v27q-60 20 -103 20q-36 0 -61.5 -15t-25.5 -41q0 -32 62 -49q-48 -27 -114 -27q-52 0 -96 29q-48 31 -48 77q0 54 46 85q51 34 149 34v209q-63 58 -119 58q-23 0 -43 -9q-78 -29 -92 -85q0 -14 15 -14q16 0 49 12
q71 26 88 44q23 -37 23 -70q0 -38 -25 -62.5t-69 -24.5q-25 0 -56 7q-36 19 -61 62.5t-25 92.5q0 38 18 74q48 92 143 92q109 0 154 -166l1 210q26 -44 52 -44h338v-97h-77zM527 414h-69v-319q35 -17 69 -44v363z" />
    <glyph glyph-name="bn_nn_ra" horiz-adv-x="521" 
d="M458 414v-396q0 -37 39 -56h-121q-40 0 -40 33v19q-13 7 -30 7q-33 0 -80 -25q-75 -40 -130 -40q-58 0 -104 41.5t-46 89.5q0 42 26 65t75 23q66 0 83 -76q-119 0 -119 -45q0 -14 14 -14q32 0 130 44q37 17 71 17q65 0 110 -64v297q-63 58 -119 58q-23 0 -43 -9
q-78 -29 -92 -85q0 -14 15 -14q16 0 49 12q71 26 88 44q23 -37 23 -70q0 -38 -25 -62.5t-69 -24.5q-25 0 -56 7q-36 19 -61 62.5t-25 92.5q0 38 18 74q48 92 143 92q109 0 154 -166l1 209q22 -43 48 -43h142v-97h-69z" />
    <glyph glyph-name="bn_t_ta" horiz-adv-x="542" 
d="M418 245q17 -6 32 -15q42 -24 57 -66q5 -15 5 -29q0 -52 -67 -100q-61 -44 -148 -44q-39 0 -83 9q-144 27 -149 116.5t-65 117.5q20 2 37 2q142 0 142 -90q0 -9 -0.5 -18t-0.5 -17q0 -77 20 -77q22 0 114 51q57 32 94.5 64.5t37.5 51.5q0 8 -10 8q-16 0 -54 -17
q-63 -28 -63 -54q0 -8 6 -16q-79 43 -79 77q0 24 33 41q29 16 66 16h10q61 60 61 83q0 9 -9 14t-23 5q-12 0 -27 -3q-25 -4 -52 -17q-30 -13 -50 -30q-22 -18 -22 -35q0 -14 11 -26q-116 21 -116 77q0 42 41 64q40 20 116 20q69 0 126 -22q73 -29 73 -90q0 -26 -19 -39
q-15 -11 -45 -12zM-10 511h565v-97h-565v97z" />
    <glyph glyph-name="bn_t_t_ba" horiz-adv-x="543" 
d="M285 -156v99q-17 -17 -53 -17l-16 1q0 -50 69 -83zM281 -9q-32 2 -67 9q-144 27 -149 116.5t-65 117.5l37 2q142 0 142 -90l-1 -35q0 -77 20 -77q22 0 114 51q57 32 94.5 64.5t37.5 51.5q0 8 -10 8q-16 0 -54 -17q-63 -28 -63 -54q0 -8 6 -16q-79 43 -79 77q0 24 31 40.5
t68 16.5h10q61 60 61 83q0 19 -32 19q-35 0 -79 -20q-72 -31 -72 -65q0 -14 11 -26q-116 21 -116 77q0 84 157 84q69 0 126 -22q73 -29 73 -90q0 -48 -64 -51q69 -23 89 -81q5 -15 5 -29q0 -52 -67 -100q-17 -13 -37 -22v-179q5 -29 30 -46q-126 0 -131 1q-187 14 -239 196
q65 -6 120 -6q65 0 93 12zM-10 511h571v-97h-571v97z" />
    <glyph glyph-name="bn_t_tha" horiz-adv-x="526" 
d="M462 414v-343q0 -47 40 -71h-73l-27 -1h-20q-275 0 -348 243q21 -2 40 -2q184 0 217 120q-26 47 -65 47q-31 0 -48 -44q-27 13 -42 13q-21 0 -21 -24q0 -12 5 -30q-52 0 -81 22.5t-29 65.5q0 28 22 52t53 24q46 0 90 -66q7 75 51 75q58 0 74 -134q6 -31 6 -57
q0 -93 -84 -125l-1 -19q0 -85 119 -133q-2 7 -2 15l-2 512q25 -43 51 -43h150v-97h-75z" />
    <glyph glyph-name="bn_t_na" horiz-adv-x="550" 
d="M305 22q-38 1 -81 12q-151 39 -156 163t-68 164l38 2q149 0 149 -125v-48q0 -109 20 -109q13 0 45 15q218 105 218 207q0 20 -18 20q-17 0 -54 -21q-67 -39 -67 -75q0 -11 7 -23q-83 59 -83 107q0 34 35 58q30 22 68 22q25 0 53 -8q95 -26 120 -120q5 -20 5 -40
q0 -72 -71 -141q-23 -22 -49 -36v-143q0 -29 36 -44h-111q-36 0 -36 26v44q-14 3 -26 3q-23 0 -39 -13t-16 -36q0 -28 39 -42q-31 -24 -72 -24q-33 0 -62 26t-29 66q0 47 29 74q32 29 94 29q42 0 82 -29v39zM-10 511h576v-97h-576v97z" />
    <glyph glyph-name="bn_t_ba" horiz-adv-x="550" 
d="M318 -117v91q-15 -16 -48 -16l-15 1q0 -45 63 -76zM318 22h-7q-41 0 -87 12q-151 39 -156 163t-68 164l38 2q149 0 149 -125v-48q0 -109 20 -109q13 0 45 15q218 105 218 207q0 20 -18 20q-17 0 -54 -21q-67 -39 -67 -75q0 -11 7 -23q-83 59 -83 107q0 34 35 58
q30 22 68 22q25 0 53 -8q95 -26 120 -120q5 -20 5 -40q0 -72 -71 -141q-16 -15 -34 -27v-181q4 -26 27 -42q-115 0 -119 1q-171 13 -219 179q59 -6 110 -6q62 0 88 13v3zM-10 511h576v-97h-576v97z" />
    <glyph glyph-name="bn_t_ma" horiz-adv-x="749" 
d="M690 414v-462q0 -43 40 -66h-123q-40 0 -40 39v7q-60 20 -103 20q-36 0 -61.5 -15t-25.5 -41q0 -32 62 -49q-48 -27 -114 -27q-52 0 -96 29q-48 31 -48 77q0 54 46 85q14 9 31 16q-17 3 -34 7q-151 39 -156 163t-68 164l38 2q149 0 149 -125v-48q0 -109 20 -109
q13 0 45 15q218 105 218 207q0 20 -18 20q-17 0 -54 -21q-67 -39 -67 -75q0 -11 7 -23q-83 59 -83 107q0 34 35 58q30 22 68 22q25 0 53 -8q95 -26 120 -120q5 -20 5 -40q0 -72 -71 -141q-25 -25 -56 -39q81 -11 158 -72v443h-577v97h770v-97h-70z" />
    <glyph glyph-name="bn_t_ra" horiz-adv-x="553" 
d="M334 414q57 -10 128 -38l18 -5v-315q0 -37 36 -56h-112q-36 0 -36 33v35q-11 6 -24 6q-29 0 -70 -25q-64 -40 -111 -40q-16 0 -29 4q-42 14 -71.5 49.5t-29.5 78.5t22 66.5t64 23.5q58 0 73 -77q-55 0 -81 -14q-23 -12 -23 -32q0 -15 12 -15q27 0 113 45q33 17 62 17
q54 0 93 -62v278q-86 -7 -114 -44q-21 -31 -21 -51q0 -19 18 -30q-33 -6 -56 -6q-86 0 -86 68q0 54 83 94q17 8 36 12h-238v97h571v-97h-227z" />
    <glyph glyph-name="bn_t_ra_ukaar" horiz-adv-x="764" 
d="M334 414q57 -10 128 -38l18 -5v-51q13 -119 119 -123l18 -1q93 0 93 19q0 24 -65 46q-24 8 -40 8q-29 0 -39 -23q-4 22 -4 41q0 78 70 78q40 0 71 -42.5t31 -96.5q0 -64 -31.5 -102.5t-93.5 -38.5q-81 0 -129 130v-159q0 -37 36 -56h-112q-36 0 -36 33v35q-11 6 -24 6
q-29 0 -70 -25q-64 -40 -111 -40q-57 0 -101 54q-29 35 -29 78t22 66.5t64 23.5q58 0 73 -77q-104 0 -104 -46q0 -15 12 -15q27 0 113 45q33 17 62 17q54 0 93 -62v278q-86 -7 -114 -44q-21 -31 -21 -51q0 -19 18 -30q-33 -6 -56 -6q-86 0 -86 68q0 54 83 94q17 8 36 12
h-238v97h784v-97h-440z" />
    <glyph glyph-name="bn_t_ra_uukaar" horiz-adv-x="800" 
d="M334 414q57 -10 128 -38l18 -5v-52q34 43 107 58q6 1 17 1q31 0 54 -21l114 -108l-25 1q-132 0 -132 -196q0 -33 14 -33q22 0 51 62q14 30 14 53q0 22 -16 34q103 0 103 -77q0 -41 -34.5 -71.5t-86.5 -30.5q-35 0 -73 19q-69 32 -69 117q0 56 34.5 90.5t109.5 50.5
q-131 0 -182 -44v-168q0 -37 36 -56h-112q-36 0 -36 33v35q-11 6 -24 6q-29 0 -70 -25q-64 -40 -111 -40q-57 0 -101 54q-29 35 -29 78t22 66.5t64 23.5q58 0 73 -77q-104 0 -104 -46q0 -15 12 -15q27 0 113 45q33 17 62 17q54 0 93 -62v278q-86 -7 -114 -44
q-21 -31 -21 -51q0 -19 18 -30q-33 -6 -56 -6q-86 0 -86 68q0 54 83 94q17 8 36 12h-238v97h820v-97h-476z" />
    <glyph glyph-name="bn_th_ba" horiz-adv-x="518" 
d="M333 -116v99q-17 -17 -53 -17l-16 1q0 -50 69 -83zM455 414v-540q5 -29 30 -46q-125 0 -129 1q-188 14 -240 196q65 -6 120 -6h16q-164 50 -217 228l39 -1q179 0 212 116q-28 41 -85 41q-86 0 -86 -53q0 -10 4 -24q-52 1 -80 21t-28 58q0 33 30 67q45 45 102 45
q67 0 109 -51q26 -32 39 -82q11 -42 11 -76q0 -91 -82 -123q-2 -10 -2 -18q0 -83 114 -134h1v521q23 -43 49 -43h145v-97h-72z" />
    <glyph glyph-name="bn_th_ra" horiz-adv-x="517" 
d="M455 414v-488q0 -37 39 -56h-121q-40 0 -40 33v25q-5 1 -10 1q-33 0 -80 -25q-75 -39 -130 -39q-58 0 -104 41t-46 89q0 42 26 65.5t75 23.5q66 0 83 -77q-119 0 -119 -44q0 -15 14 -15q32 0 130 44q37 17 71 17q51 0 90 -40v34q-232 25 -298 244l39 -1q179 0 212 116
q-28 41 -85 41q-86 0 -86 -53q0 -10 4 -24q-108 2 -108 79q0 33 30 67q45 45 102 45q67 0 109 -51q26 -32 39 -82q11 -42 11 -76q0 -91 -82 -123q-2 -10 -2 -18q0 -84 115 -135v41h1q-1 105 -1 481q23 -43 49 -43h145v-97h-72z" />
    <glyph glyph-name="bn_th_ra_ukaar" horiz-adv-x="739" 
d="M455 414v-109q18 -105 118 -109l17 -1q93 0 93 20q0 24 -65 46q-24 8 -40 8q-29 0 -39 -23q-4 22 -4 41q0 78 70 78q40 0 71 -42.5t31 -97.5q0 -63 -31.5 -101.5t-93.5 -38.5q-79 0 -127 125v-284q0 -37 39 -56h-121q-40 0 -40 33v25q-5 1 -10 1q-33 0 -80 -25
q-75 -39 -130 -39q-58 0 -104 41t-46 89q0 42 26 65.5t75 23.5q66 0 83 -77q-119 0 -119 -44q0 -15 14 -15q32 0 130 44q37 17 71 17q51 0 90 -40v34q-232 25 -298 244l39 -1q179 0 212 116q-28 41 -85 41q-86 0 -86 -53q0 -10 4 -24q-108 2 -108 79q0 33 30 67
q45 45 102 45q67 0 109 -51q26 -32 39 -82q11 -42 11 -76q0 -91 -82 -123q-2 -10 -2 -18q0 -84 115 -135v522q23 -43 49 -43h372v-97h-299z" />
    <glyph glyph-name="bn_th_ra_uukaar" horiz-adv-x="788" 
d="M455 414v-119q30 63 122 82q6 1 17 1q31 0 54 -21l114 -108l-25 1q-132 0 -132 -196q0 -33 14 -33q22 0 51 62q14 30 14 53q0 22 -16 34q103 0 103 -77q0 -41 -34.5 -71.5t-86.5 -30.5q-35 0 -73 19q-69 32 -69 117q0 56 34.5 90.5t109.5 50.5q-153 0 -197 -60v-282
q0 -37 39 -56h-121q-40 0 -40 33v25q-5 1 -10 1q-33 0 -80 -25q-75 -39 -130 -39q-58 0 -104 41t-46 89q0 42 26 65.5t75 23.5q66 0 83 -77q-119 0 -119 -44q0 -15 14 -15q32 0 130 44q37 17 71 17q51 0 90 -40v34q-232 25 -298 244l39 -1q179 0 212 116q-28 41 -85 41
q-86 0 -86 -53q0 -10 4 -24q-108 2 -108 79q0 33 30 67q45 45 102 45q67 0 109 -51q26 -32 39 -82q11 -42 11 -76q0 -91 -82 -123q-2 -10 -2 -18q0 -84 115 -135v41h1q-1 105 -1 481q23 -43 49 -43h416v-97h-343z" />
    <glyph glyph-name="bn_th_la" horiz-adv-x="518" 
d="M275 13q24 -7 58 -32v22q-31 3 -58 10zM455 414v-526q0 -29 36 -44h-122q-36 0 -36 26v51q-25 22 -36 22q-41 0 -41 -36q0 -22 23 -36q-19 -16 -44 -16q-23 0 -46.5 19.5t-23.5 54.5l1 16h-6q-46 0 -46 -48q0 -30 27 -51q-22 -20 -52 -20q-29 0 -53 26q-29 31 -29 78
q0 109 106 116q50 0 86 -47q22 13 57 17q5 0 11 -1q-176 46 -232 232l39 -1q179 0 212 116q-28 41 -85 41q-86 0 -86 -53q0 -10 4 -24q-52 1 -80 21t-28 58q0 33 30 67q45 45 102 45q67 0 109 -51q26 -32 39 -82q11 -42 11 -76q0 -91 -82 -123q-2 -10 -2 -18q0 -84 115 -135
v522q23 -43 49 -43h145v-97h-72z" />
    <glyph glyph-name="bn_d_da" horiz-adv-x="728" 
d="M200 414v-171q24 106 170 145q7 1 15 1q28 0 50 -18l103 -96q-116 -4 -132 -93l-8 -49q22 77 122 115h9q30 0 69 -25l91 -78l-19 1q-105 0 -105 -142q0 -24 10 -24q19 0 41 45q11 22 11 38t-13 25q82 0 82 -56q0 -29 -27 -51.5t-69 -22.5q-14 0 -29 4q-84 20 -84 96
q0 79 115 101q-136 0 -204 -93q0 -4 -2 -5t-3 -2l-1 2h-2q-11 0 -37 11q-47 22 -47 94q0 51 31.5 82t101.5 45q-161 0 -239 -116q0 -51 39 -76h-123q-40 0 -40 42v271h-87v97h747v-97h-536z" />
    <glyph glyph-name="bn_d_d_ba" horiz-adv-x="726" 
d="M517 -153v99q-17 -17 -53 -17l-16 1q0 -49 69 -83zM200 414v-171q24 106 170 145q7 1 15 1q28 0 50 -18l103 -96q-116 -4 -132 -93l-8 -49q22 77 122 115h9q30 0 69 -25l91 -78l-19 1q-105 0 -105 -142q0 -24 10 -24q19 0 41 45q11 22 11 38t-13 25q82 0 82 -56
q0 -29 -27 -51q-13 -11 -29 -17v-126q5 -29 30 -47q-126 0 -130 1q-188 14 -240 196q65 -6 120 -6q62 0 91 11q-24 25 -24 65q0 79 115 101q-136 0 -204 -93q0 -4 -2 -5t-3 -2l-1 2h-2q-11 0 -37 11q-47 22 -47 94q0 51 31.5 82t101.5 45q-161 0 -239 -116q0 -51 39 -76
h-123q-40 0 -40 42v271h-87v97h747v-97h-536z" />
    <glyph glyph-name="bn_d_dha" horiz-adv-x="959" 
d="M508 163q-23 -88 -154 -115q8 -77 159 -129q-5 10 -5 24v220zM68 511v1q7 -1 15 -1h889v-97h-773v-205q19 139 221 189q10 2 20 2q36 0 63 -21l127 -105l6 -5l-6 1v-87q33 42 123 48q30 0 52 -18l110 -92l-23 1q-128 0 -128 -167q0 -28 13 -28q22 0 49 52q14 28 14 45
q0 20 -16 30q100 0 100 -67q0 -35 -33 -60.5t-83 -25.5q-35 0 -72 15q-66 28 -66 102q0 93 139 119q-142 0 -178 -46v-119q0 -46 40 -70h-101q2 -1 4 -1h-27q-290 0 -365 217q228 10 326 122v49q-201 0 -300 -128q10 -15 31 -25h-123q-40 0 -40 31v247h-87v97h79z" />
    <glyph glyph-name="bn_d_dh_ba" horiz-adv-x="957" 
d="M507 -217v99q-17 -17 -53 -17l-16 1q0 -49 69 -83zM513 -81q-5 10 -5 24v220q-23 -88 -154 -115q8 -77 159 -129zM967 511v-97h-768v-205q19 139 221 189q10 2 20 2q36 0 63 -21l127 -105l6 -5l-6 1v-87q33 42 123 48q30 0 52 -18l110 -92l-23 1q-128 0 -128 -167
q0 -28 13 -28q22 0 49 52q14 28 14 45q0 20 -16 30q100 0 100 -67q0 -35 -33 -60.5t-83 -25.5q-35 0 -72 15q-66 28 -66 102q0 93 139 119q-143 0 -179 -46v-317q5 -29 30 -47q-126 0 -130 1q-188 14 -240 196q60 -6 111 -6q-165 44 -219 200q228 10 326 122v49
q-201 0 -300 -128q10 -15 31 -25h-123q-40 0 -40 31v247h-87v97h80v1q7 -1 14 -1h884z" />
    <glyph glyph-name="bn_d_na" horiz-adv-x="499" 
d="M152 414v-178q20 102 160 154l15 1q32 0 56 -25l116 -134l-22 1q-95 -1 -123 -86q-10 -58 -10 -91q0 -34 13 -34q20 0 46 63q13 32 13 54q0 24 -15 36q92 0 92 -80q0 -59 -51 -88q-4 -3 -9 -5v-62q0 -47 40 -71h-123q-40 0 -40 42v30q-47 25 -80 25q-22 0 -38.5 -13
t-16.5 -36q0 -28 39 -42q-30 -24 -72 -24q-33 0 -62 26t-29 66q0 47 29 74q32 29 94 29q71 0 136 -81v50q-54 33 -64 98v13q0 61 27.5 99.5t68.5 42.5q-110 0 -187 -126q6 -27 27 -44h-94q-31 0 -31 42v274h-63v97h518v-97h-360z" />
    <glyph glyph-name="bn_d_ba" horiz-adv-x="652" 
d="M405 4v148q-30 -35 -112 -35q-15 0 -30 2q0 -71 142 -115zM265 414v-1h-67v-118q29 73 220 100l19 1q38 0 64 -13l134 -63l-29 1q-156 0 -156 -115q0 -19 16 -19q27 0 60 35q17 18 17 31q0 14 -19 21q121 0 121 -45q0 -24 -40 -42q-27 -12 -65 -16v-157q0 -23 44 -35
h-135q-10 0 -17 1q-281 13 -358 205q76 -4 138 -4q105 0 168 11q-44 20 -44 57q0 64 170 82q-199 0 -300 -73q9 -14 31 -23h-123q-40 0 -40 28v150h-6v1h-75v97h673v-97h-401z" />
    <glyph glyph-name="bn_d_bha" horiz-adv-x="653" 
d="M66 511v1q6 -1 13 -1h580v-97h-461v-165q26 91 220 124q5 1 19 1q38 0 64 -15l134 -76l-29 1q-155 0 -155 -139q0 -23 16 -23h3q6 7 11 15q8 -2 15 -4q15 11 31 32q17 22 17 37q0 17 -19 25q121 0 121 -54q0 -29 -40 -50q-25 -14 -60 -19q26 -25 38 -64q5 -17 5 -34
q0 -60 -65 -117q-58 -50 -140 -50q-37 0 -80 10q-138 32 -142.5 135.5t-61.5 137.5q20 3 43 3q124 0 124 -108q0 -130 22 -130q24 0 116 45q124 62 124 131q0 23 -16 38h-13q-20 -116 -127 -122q-99 9 -99 95q0 67 79 71q-6 -18 -6 -29q0 -32 44 -32q35 0 62 21
q-117 20 -117 92q0 77 170 99q-199 0 -300 -89q10 -16 32 -26h-123q-40 0 -40 33v200h-81v97h72z" />
    <glyph glyph-name="bn_d_bh_ra" horiz-adv-x="653" 
d="M198 414v-165q26 91 220 124q5 1 19 1q38 0 64 -15l134 -76l-29 1q-155 0 -155 -139q0 -23 16 -23v11l22 -5q18 10 38 37q17 22 17 37q0 17 -19 25q121 0 121 -54q0 -29 -40 -50q-15 -8 -32 -13l17 -4v-248q0 -29 39 -44h-123q-40 0 -40 26v28q-12 5 -27 5q-33 0 -77 -20
q-72 -32 -123 -32q-56 0 -100.5 33t-44.5 70q0 34 25 53t72 19q63 0 80 -61q-115 0 -115 -36q0 -12 13 -12q30 0 125 36q37 13 68 13q61 0 104 -49v175q-15 -42 -66 -59q-45 -14 -85 -14q-63 0 -101.5 24t-38.5 59q0 61 98 61q20 0 43 -2q-30 -12 -30 -36q0 -38 68 -38
q73 0 104 47q-123 19 -123 93q0 77 170 99q-199 0 -300 -89q10 -16 32 -26h-123q-40 0 -40 33v200h-81v97h674v-97h-470z" />
    <glyph glyph-name="bn_d_ma" horiz-adv-x="855" 
d="M653 -22v435h-450v-178q27 109 198 150q9 2 19 2q33 0 56 -19l121 -97l-27 1q-140 0 -140 -174q0 -29 15 -29q23 0 54 54q15 28 15 47q0 21 -17 31q109 0 109 -69q0 -17 -9.5 -33.5t-25.5 -29t-38 -19.5q62 -12 120 -72zM73 511v1h723v-1h71v-97h-71v-1h-16v-459
q0 -47 41 -72h-127q-41 0 -41 43v26q-51 23 -87 23q-25 0 -44 -13t-19 -36q0 -28 45 -41q-35 -24 -82 -24q-39 0 -70 24q-35 28 -35 67q0 73 79 95q-112 22 -112 118q0 97 153 125q-186 0 -277 -118q6 -28 40 -46h-127q-41 0 -41 34v254h-3v1h-79v97h79z" />
    <glyph glyph-name="bn_d_ra" horiz-adv-x="502" 
d="M152 414v-178q20 102 160 154l15 1q32 0 56 -25l116 -134l-22 1q-95 -1 -123 -86q-10 -58 -10 -91q0 -34 13 -34q20 0 46 63q13 32 13 54q0 24 -15 36q92 0 92 -80q0 -34 -17 -58v-106q0 -36 40 -56h-122q-40 0 -40 33v20q-13 6 -30 6q-33 0 -79 -25q-76 -39 -130 -39
q-59 0 -104.5 41t-45.5 89q0 42 25.5 65.5t74.5 23.5q66 0 84 -76q-120 0 -120 -45q0 -15 14 -15q32 0 130 44q38 17 72 17q64 0 109 -64v45q-17 5 -35 15q-62 33 -73 103v13q0 61 27.5 99.5t68.5 42.5q-110 0 -187 -126q6 -27 27 -44h-94q-31 0 -31 42v274h-63v97h518v-97
h-360z" />
    <glyph glyph-name="bn_d_ra_ukaar" horiz-adv-x="700" 
d="M53 511v1q4 -1 9 -1h648v-97h-558v-178q20 102 160 154l15 1q31 0 60 -25l112 -134l-22 1q-19 0 -35 -4q27 -68 108 -71l17 -1q94 0 94 20q0 24 -65 46q-25 7 -40 7q-30 0 -39 -23q-4 22 -4 41q0 78 70 78q39 0 70 -42.5t31 -96.5q0 -64 -31.5 -102t-92.5 -38
q-78 0 -148 172q-41 -21 -58 -72q-10 -58 -10 -91q0 -34 13 -34q20 0 46 30q10 11 10 33l-1 15q57 -2 67 -25q4 -9 4 -19q0 -15 -7 -26v-99q0 -36 40 -56h-122q-40 0 -40 33v20q-13 6 -30 6q-33 0 -79 -25q-76 -39 -130 -39q-59 0 -104.5 41t-45.5 89q0 42 25.5 65.5
t74.5 23.5q66 0 84 -76q-120 0 -120 -45q0 -15 14 -15q32 0 130 44q38 17 72 17q64 0 109 -64v45q-17 5 -35 15q-62 33 -73 103v13q0 61 27.5 99.5t68.5 42.5q-110 0 -187 -126q6 -27 27 -44h-94q-31 0 -31 42v274h-63v97h59z" />
    <glyph glyph-name="bn_d_ra_uukaar" horiz-adv-x="718" 
d="M152 414v-178q20 102 160 154l15 1q31 0 60 -25l112 -134l-22 1q-95 -1 -123 -86q0 -2 -1 -5q99 83 202 88l6 1q30 0 47 -19l85 -101q-10 2 -19 2q-99 0 -99 -182q0 -31 11 -31q17 0 38 57q11 29 11 49q0 21 -12 33q77 0 77 -72q0 -39 -25.5 -66.5t-64.5 -27.5
q-27 0 -56 16q-51 30 -51 109q0 52 26 84t82 48q-43 9 -83 9q-103 0 -183 -61q-1 -12 -1 -22q0 -34 13 -34q20 0 46 30q10 11 10 33l-1 15q57 -2 67 -25q4 -9 4 -19q0 -15 -7 -26v-99q0 -36 40 -56h-122q-40 0 -40 33v20q-13 6 -30 6q-33 0 -79 -25q-76 -39 -130 -39
q-59 0 -104.5 41t-45.5 89q0 42 25.5 65.5t74.5 23.5q66 0 84 -76q-120 0 -120 -45q0 -15 14 -15q32 0 130 44q38 17 72 17q64 0 109 -64v45q-17 5 -35 15q-62 33 -73 103v13q0 61 27.5 99.5t68.5 42.5q-110 0 -187 -126q6 -27 27 -44h-94q-31 0 -31 42v274h-63v97h739v-97
h-581z" />
    <glyph glyph-name="bn_dh_na" horiz-adv-x="512" 
d="M322 256q-28 -52 -102 -52q-13 0 -27 2q0 -105 129 -172v222zM444 414v-516q0 -29 36 -44h-121q-37 0 -37 26v35q-43 22 -73 22q-22 0 -38.5 -13.5t-16.5 -35.5q0 -28 39 -42q-30 -24 -71 -24q-33 0 -62.5 26t-29.5 66q0 47 29 73q33 30 94 30q68 0 129 -72v58
q-234 29 -300 301q68 -5 146 -5q-37 7 -65 29q-45 36 -45 91q0 39 33 77q36 41 86 41q53 0 87 -26.5t34 -64.5q0 -54 -111 -64q12 14 12 38q0 31 -11 50.5t-23 20.5q-18 0 -18 -33q0 -51 27 -86q27 -36 94 -64q31 5 54 14v232q23 -43 49 -43h151v-97h-78z" />
    <glyph glyph-name="bn_dh_ba" horiz-adv-x="789" 
d="M322 34v222q-28 -52 -102 -52q-13 0 -27 2q0 -105 129 -172zM598 42v253q-28 -59 -102 -59q-9 0 -27 2q0 -120 129 -196zM721 414v-347q0 -46 40 -67h-99q-132 0 -218 70v-2q0 -43 41 -68h-105q-284 0 -358 304q68 -5 146 -5q-37 7 -65 29q-45 36 -45 91q0 39 33 77
q36 41 86 41q53 0 87 -26.5t34 -64.5q0 -54 -111 -64q12 14 12 38q0 31 -11 50.5t-23 20.5q-18 0 -18 -33q0 -51 27 -86q27 -36 94 -64q31 5 54 14v232q23 -43 49 -43h431v-97h-81zM598 414h-154v-71q101 2 154 26v45z" />
    <glyph glyph-name="bn_dh_ra" horiz-adv-x="512" 
d="M322 34v222q-28 -52 -102 -52q-13 0 -27 2q0 -105 129 -172zM444 414v-478q0 -37 40 -56h-122q-40 0 -40 33v19q-13 6 -30 6q-33 0 -80 -24q-75 -40 -129 -40q-59 0 -104.5 41.5t-45.5 88.5q0 43 25.5 66t74.5 23q66 0 83 -76q-119 0 -119 -45q0 -14 14 -14q32 0 130 43
q38 17 71 17q65 0 110 -63v48q-234 29 -300 301q68 -5 146 -5q-37 7 -65 29q-45 36 -45 91q0 39 33 77q36 41 86 41q53 0 87 -26.5t34 -64.5q0 -54 -111 -64q12 14 12 38q0 31 -11 50.5t-23 20.5q-18 0 -18 -33q0 -51 27 -86.5t94 -63.5q31 5 54 14v232q23 -43 49 -43h151
v-97h-78z" />
    <glyph glyph-name="bn_dh_ra_ukaar" horiz-adv-x="709" 
d="M322 34v222q-28 -52 -102 -52q-13 0 -27 2q0 -105 129 -172zM444 414v-119q21 -95 115 -98l18 -1q93 0 93 19q0 24 -65 46q-24 8 -40 8q-29 0 -39 -23q-4 22 -4 41q0 78 70 78q40 0 71 -42.5t31 -96.5q0 -64 -31.5 -102.5t-93.5 -38.5q-78 0 -125 120v-269q0 -37 40 -56
h-122q-40 0 -40 33v19q-13 6 -30 6q-33 0 -80 -24q-75 -40 -129 -40q-59 0 -104.5 41.5t-45.5 88.5q0 43 25.5 66t74.5 23q66 0 83 -76q-119 0 -119 -45q0 -14 14 -14q32 0 130 43q38 17 71 17q65 0 110 -63v48q-234 29 -300 301q68 -5 146 -5q-37 7 -65 29q-45 36 -45 91
q0 39 33 77q36 41 86 41q53 0 87 -26.5t34 -64.5q0 -54 -111 -64q12 14 12 38q0 31 -11 50.5t-23 20.5q-18 0 -18 -33q0 -51 27 -86.5t94 -63.5q31 5 54 14v232q23 -43 49 -43h351v-97h-278z" />
    <glyph glyph-name="bn_dh_ra_uukaar" horiz-adv-x="774" 
d="M322 34v222q-28 -52 -102 -52q-13 0 -27 2q0 -105 129 -172zM444 414v-151q30 64 123 84q6 1 17 1q31 0 54 -21l114 -108l-25 1q-132 0 -132 -196q0 -33 14 -33q22 0 51 62q14 30 14 53q0 22 -16 34q103 0 103 -77q0 -41 -34.5 -71.5t-86.5 -30.5q-35 0 -73 19
q-69 32 -69 117q0 56 34.5 90.5t109.5 50.5q-155 0 -198 -61v-241q0 -37 40 -56h-122q-40 0 -40 33v19q-13 6 -30 6q-33 0 -80 -24q-75 -40 -129 -40q-59 0 -104.5 41.5t-45.5 88.5q0 43 25.5 66t74.5 23q66 0 83 -76q-119 0 -119 -45q0 -14 14 -14q32 0 130 43q38 17 71 17
q65 0 110 -63v48q-234 29 -300 301q68 -5 146 -5q-37 7 -65 29q-45 36 -45 91q0 39 33 77q36 41 86 41q53 0 87 -26.5t34 -64.5q0 -54 -111 -64q12 14 12 38q0 31 -11 50.5t-23 20.5q-18 0 -18 -33q0 -51 27 -86.5t94 -63.5q31 5 54 14v232q23 -43 49 -43h411v-97h-338z" />
    <glyph glyph-name="bn_n_jha" horiz-adv-x="804" 
d="M447 414q-82 -44 -82 -133q0 -52 35 -52q44 10 89 59q81 -40 81 -94q0 -88 -75 -154q-61 -54 -151 -54q-37 0 -76 9q-140 31 -147 117t-42 101q27 3 48 3q99 0 99 -58q0 -15 -2 -28t-2 -24q0 -31 6 -44t22 -13q28 0 97 28q73 30 123 103q-33 -6 -59 -6q-64 0 -101 38
q-26 26 -34 67q-42 34 -87 34q-23 0 -39 -8.5t-16 -25.5q0 -21 31 -36q-25 -15 -59 -15q-31 0 -62.5 20t-31.5 52q0 75 122 84q86 0 139 -75q0 50 15 105h-294v97h819v-97h-354q33 -62 99 -62q69 0 107 34l96 -84q-13 -23 -47 -35q-29 -43 -29 -74q0 -21 13 -36.5t29 -15.5
q18 0 40 21q17 -46 17 -79q0 -53 -42 -76q-25 -12 -47 -12q-30 0 -57 26q-32 30 -32 75q0 63 65 163q-22 -2 -34 -2q-154 0 -190 157z" />
    <glyph glyph-name="bn_n_ttha" horiz-adv-x="640" 
d="M482 414q32 -22 64 -48q66 -54 66 -159q0 -95 -73 -139t-163 -44q-105 0 -155 38q-54 41 -54 104q0 47 44 93q28 -36 57 -36q14 0 27 7q23 12 33 28q-87 45 -143 45q-45 0 -85 -33q-22 -18 -22 -37q0 -5 5 -5q15 0 59 41q23 -32 23 -57q0 -23 -16.5 -38.5t-35.5 -15.5
l-13 1q-76 19 -76 104q0 61 46.5 96.5t117.5 35.5q106 0 148 -115l1 9q0 39 -13 70q-8 17 -36 55h-294v97h224q-37 60 -37 115q0 69 75 115q36 22 70 22t66 -23q36 -25 36 -62q0 -53 -67 -135q-5 46 -30 80.5t-58 34.5q-34 0 -34 -20q0 -19 36 -59q29 -34 69 -68h301v-97
h-163zM417 414q23 -67 23 -114q0 -109 -128 -112q-20 -60 -20 -92q0 -37 27 -37q53 0 124 80q48 54 48 112q0 22 -6 45q-24 75 -65 118h-3z" />
    <glyph glyph-name="bn_n_dda" horiz-adv-x="657" 
d="M418 414v-172q76 40 118 135q72 -22 88 -133q3 -18 3 -35q0 -87 -73 -152q-62 -54 -152 -54q-37 0 -76 9q-140 31 -147 117t-42 101q27 3 48 3q99 0 99 -58q0 -15 -2 -28t-2 -24q0 -31 6 -44t22 -13q28 0 97 28q98 40 153 158q-43 -45 -166 -46l-84 72v2q-46 40 -94 40
q-23 0 -39 -8.5t-16 -25.5q0 -21 31 -36q-25 -15 -59 -15q-31 0 -61 19q-33 21 -33 53q0 75 122 84q94 0 149 -90v113h-314v97h668v-97h-244z" />
    <glyph glyph-name="bn_n_dd_ra" horiz-adv-x="657" 
d="M418 414v-172q76 40 118 135q72 -22 88 -133q3 -18 3 -35q0 -56 -30 -103v-171q0 -36 39 -56h-122q-39 0 -39 34v9q-26 -12 -56 -41q-82 -81 -155 -81q-34 0 -70 17q-26 12 -44 31q-29 32 -29 71q0 62 76 83q14 4 27 4q45 0 74 -53l-8 -3q-95 -27 -95 -67q0 -3 1.5 -8
t4 -7.5t6.5 -2.5q28 0 119 80q49 41 98 41q26 0 51 -11v38q-34 -10 -73 -10q-37 0 -76 9q-140 31 -147 117t-42 101q27 3 48 3q99 0 99 -58q0 -15 -2 -28t-2 -24q0 -31 6 -44t22 -13q28 0 97 28q98 40 153 158q-43 -45 -166 -46l-84 72v2q-46 40 -94 40q-23 0 -39 -8.5
t-16 -25.5q0 -21 31 -36q-25 -15 -59 -15q-31 0 -61 19q-33 21 -33 53q0 75 122 84q94 0 149 -90v113h-314v97h671v-97h-247z" />
    <glyph glyph-name="bn_n_ta" horiz-adv-x="582" 
d="M463 414v-182q21 -6 39 -17q43 -27 58 -71q5 -13 5 -31q0 -55 -68 -107q-60 -46 -149 -46q-39 0 -83 9q-145 30 -152 109t-62 87l46 2q133 0 133 -70l-1 -28q0 -64 20 -64q24 0 123 46q61 29 94.5 61t34.5 63q0 15 -17 15q-8 0 -21 -4t-31 -12q-64 -30 -64 -58
q0 -8 7 -17q-79 45 -79 82q0 25 31 43q7 4 14 7q-2 4 -2 10v35q-63 36 -105 36q-25 0 -43 -14.5t-18 -39.5q0 -32 43 -47q-34 -27 -80 -27q-37 0 -69.5 29t-32.5 73q0 53 32 83q36 33 106 33q88 0 167 -111v123h-345v97h598v-97h-129z" />
    <glyph glyph-name="bn_n_t_ba" horiz-adv-x="582" 
d="M330 -174v100q-17 -17 -53 -17l-16 1q0 -51 69 -84zM463 414v-182q21 -6 39 -17q43 -27 58 -71q5 -13 5 -31q0 -55 -68 -107q-20 -16 -44 -26v-163q4 -29 29 -46q-125 0 -130 1q-187 14 -240 196q65 -6 121 -6q31 0 54 3l-22 4q-145 30 -152 109t-62 87l46 2
q133 0 133 -70l-1 -28q0 -64 20 -64q24 0 123 46q61 29 94.5 61t34.5 63q0 15 -17 15q-8 0 -21 -4t-31 -12q-64 -30 -64 -58q0 -8 7 -17q-79 45 -79 82q0 25 31 43q7 4 14 7q-2 4 -2 10v35q-63 36 -105 36q-25 0 -43 -14.5t-18 -39.5q0 -32 43 -47q-34 -27 -80 -27
q-37 0 -69.5 29t-32.5 73q0 53 32 83q36 33 106 33q54 0 105 -42q32 -26 62 -69v123h-345v97h596v-97h-127z" />
    <glyph glyph-name="bn_n_t_ra" horiz-adv-x="600" 
d="M463 414v-148q52 -12 116 -40v-245q0 -28 41 -44h-127q-41 0 -41 26v16q-27 0 -65 -21q-62 -34 -106 -34q-48 0 -86 35t-38 74q0 36 21 55.5t61 19.5q55 0 69 -63h-7q-91 0 -91 -38q0 -13 12 -13q25 0 107 37q31 15 58 15q36 0 65 -25v196h-24q-34 -11 -49 -34
q-20 -30 -20 -49t17 -29q-29 -6 -51 -6q-77 0 -77 66q0 52 75 91q8 4 16 7v13q-63 36 -105 36q-25 0 -43 -14.5t-18 -39.5q0 -32 43 -47q-34 -27 -80 -27q-37 0 -69.5 29t-32.5 73q0 53 32 83q36 33 106 33q88 0 167 -111v123h-345v97h614v-97h-145z" />
    <glyph glyph-name="bn_n_tha" horiz-adv-x="663" 
d="M463 414v-157q7 -2 14 -3q166 -27 166 -133q0 -57 -61 -90t-186 -33q-31 0 -65 2t-37 2q83 -46 173 -46q15 0 31 2q98 13 117 63q35 -45 35 -73q0 -54 -95 -80q-23 -6 -48 -6q-133 0 -357 186q42 -3 63 -3q250 0 335 113q1 3 1 7q0 16 -41 16q-32 0 -86 -10
q-98 -19 -98 -48q0 -12 33 -40q-50 -5 -62 -5q-93 0 -93 61q0 73 98 104q19 6 39 11v22q-63 36 -105 36q-25 0 -43 -14.5t-18 -39.5q0 -32 43 -47q-34 -27 -80 -27q-37 0 -69.5 29t-32.5 73q0 53 32 83q36 33 106 33q40 0 78 -23q46 -27 89 -88v123h-345v97h674v-97h-205z
" />
    <glyph glyph-name="bn_n_dha" horiz-adv-x="719" 
d="M317 251q-12 -91 -99 -91q-21 0 -43 5q7 -95 145 -158q-3 9 -3 20v224zM431 413v-83q38 32 97 52q7 1 15 1q27 0 48 -21l101 -112l-22 1q-118 0 -118 -202q0 -35 13 -35q20 0 45 64q13 32 13 55q0 24 -14 36q91 0 91 -81q0 -43 -30.5 -73.5t-76.5 -30.5q-32 0 -66 18
q-61 34 -61 123q0 113 129 145q-98 0 -164 -54v-159q0 -48 36 -73h-114q-267 0 -337 266q80 -7 139 -7q135 0 162 37v24q-62 30 -103 30q-23 0 -39.5 -8t-16.5 -23q0 -17 27 -31q-27 -12 -65 -12t-70 16q-39 19 -39 49q0 34 32.5 53t106.5 24q91 0 167 -62v73l-323 1v97h733
v-97z" />
    <glyph glyph-name="bn_n_dh_ba" horiz-adv-x="719" 
d="M317 -144v99q-17 -17 -53 -17l-16 1q0 -49 69 -83zM317 251q-12 -91 -99 -91q-21 0 -43 5q7 -94 142 -157v243zM431 413v-83q38 32 97 52q7 1 15 1q27 0 48 -21l101 -112l-22 1q-118 0 -118 -202q0 -35 13 -35q20 0 45 64q13 32 13 55q0 24 -14 36q91 0 91 -81
q0 -43 -30.5 -73.5t-76.5 -30.5q-32 0 -66 18q-61 34 -61 123q0 113 129 145q-98 0 -164 -54v-370q5 -28 30 -46q-117 0 -121 1q-188 14 -240 196q65 -6 120 -6q24 0 43 2q-190 39 -247 257q80 -7 139 -7q135 0 162 37v24q-62 30 -103 30q-23 0 -39.5 -8t-16.5 -23
q0 -17 27 -31q-27 -12 -65 -12t-70 16q-39 19 -39 49q0 34 32.5 53t106.5 24q91 0 167 -62v73l-323 1v97h741v-97z" />
    <glyph glyph-name="bn_n_dh_ra" horiz-adv-x="719" 
d="M317 251q-12 -91 -99 -91q-23 0 -43 5q7 -94 142 -157v243zM431 413v-83q38 32 97 52q7 1 15 1q27 0 48 -21l101 -112l-22 1q-118 0 -118 -202q0 -35 13 -35q20 0 45 64q13 32 13 55q0 24 -14 36q91 0 91 -81q0 -43 -30.5 -73.5t-76.5 -30.5q-32 0 -66 18q-61 34 -61 123
q0 113 129 145q-98 0 -164 -54v-285q0 -36 39 -56l-113 1q-40 0 -40 33v9q-25 -12 -55 -40q-82 -81 -155 -81q-35 0 -71 17q-25 12 -43 31q-30 31 -30 71q0 62 77 83q13 4 26 4q45 0 75 -53l-8 -3q-95 -28 -95 -67q0 -4 1.5 -8.5t3.5 -7t6 -2.5q28 0 120 80q48 41 97 41
q26 0 51 -11v13q-236 17 -301 265q70 -7 139 -7q135 0 162 37v24q-62 30 -103 30q-23 0 -39.5 -8t-16.5 -23q0 -17 27 -31q-27 -12 -65 -12t-70 16q-39 19 -39 49q0 34 32.5 53t106.5 24q91 0 167 -62v73l-323 1v97h733v-97z" />
    <glyph glyph-name="bn_n_na" horiz-adv-x="522" 
d="M464 414v-344q0 -46 39 -70h-122q-40 0 -40 41v19q-38 19 -65 19q-21 0 -36 -12.5t-15 -32.5q0 -26 37 -39q-29 -22 -67 -22q-30 0 -57 24t-27 60q0 44 28 70t86 26q60 0 116 -64v131q-54 56 -113 56q-28 0 -47 -12.5t-19 -35.5q0 -29 38 -51q-31 -20 -72 -20
q-25 0 -49 11q-28 13 -45 34q-20 24 -20 54q0 105 147 120q113 0 180 -127v165h-347v97h532v-97h-62z" />
    <glyph glyph-name="bn_n_ba" horiz-adv-x="524" 
d="M341 91q-17 -17 -53 -17l-16 1q0 -49 69 -83v99zM464 414v-432q5 -28 30 -46q-126 0 -130 1q-188 14 -240 196q65 -6 120 -6q69 0 97 14v79q-54 56 -113 56q-28 0 -47 -12.5t-19 -35.5q0 -29 38 -51q-31 -20 -72 -20q-25 0 -49 11q-28 13 -45 34q-20 24 -20 54
q0 105 147 120q113 0 180 -127v165h-347v97h540v-97h-70z" />
    <glyph glyph-name="bn_n_ma" horiz-adv-x="717" 
d="M650 414v-362q0 -43 40 -66h-123q-40 0 -40 39v27q-60 20 -103 20q-36 0 -61.5 -15t-25.5 -41q0 -32 62 -49q-48 -27 -114 -27q-52 0 -96 29q-48 31 -48 77q0 54 46 85q51 34 149 34h5v55q-54 56 -113 56q-28 0 -47 -12.5t-19 -35.5q0 -29 38 -51q-31 -20 -72 -20
q-25 0 -49 11q-28 13 -45 34q-20 24 -20 54q0 105 147 120q113 0 180 -127v165h-347v97h734v-97h-78zM527 414h-63v-282q32 -16 63 -41v323z" />
    <glyph glyph-name="bn_n_ra" horiz-adv-x="524" 
d="M530 414h-66v-417q0 -36 39 -56h-122q-39 0 -39 33v14q-5 1 -11 1q-34 0 -80 -24q-76 -40 -130 -40q-58 0 -104 41.5t-46 88.5q0 43 25.5 66t74.5 23q66 0 84 -76q-120 0 -120 -45q0 -15 14 -15q32 0 130 44q38 17 72 17q51 0 90 -40v191q-54 56 -113 56q-28 0 -47 -12.5
t-19 -35.5q0 -29 38 -51q-31 -20 -72 -20q-25 0 -49 11q-28 13 -45 34q-20 24 -20 54q0 105 147 120q113 0 180 -127v165l-347 1v96h536v-97z" />
    <glyph glyph-name="bn_n_sa" horiz-adv-x="717" 
d="M657 414v-349q0 -46 39 -71h-123q-40 0 -40 42v202h-3q-47 0 -58 -66q-9 -58 -36.5 -82.5t-72.5 -24.5q-34 0 -66 14t-58.5 46.5t-26.5 68.5q0 25 20 48.5t48 23.5q33 0 73 -37q-56 -41 -56 -77q0 -10 5.5 -22t14.5 -12q20 0 57 116q9 27 21 43q-11 28 -52 28
q-10 0 -23.5 -1.5t-23.5 -1.5q-17 0 -30 4q0 -2 1 -3q-51 24 -83 24q-31 0 -47 -20q-13 -16 -13 -42q0 -21 19 -38q-21 -15 -46 -15q-26 0 -49 20q-26 24 -26 60q0 61 52 83q27 11 50 11q54 0 92 -25v3q0 24 18 50h-240v97h734l-1 -97h-70zM533 414h-163q-29 -18 -29 -35
q0 -16 28 -29q39 -20 39 -53q0 -4 -1 -8q15 11 33 11q38 0 93 -45v159z" />
    <glyph glyph-name="bn_p_tta" horiz-adv-x="787" 
d="M339 405v4q-59 15 -106 15q-40 0 -67 -10q46 -22 46 -65zM680 511q8 13 8 25q0 21 -12 35q-14 18 -43 18q-35 0 -114 -28q-59 -22 -106 -22q-53 0 -83 24.5t-30 61.5q0 49 29 76t71 27q19 0 34 -8q-85 -16 -85 -57q0 -15 12 -24t31 -9q12 0 149 43q42 13 75 13
q55 0 89 -36q29 -32 29 -73q0 -39 -21 -66h93v-97h-343v-350q0 -27 14 -47q151 67 222 243l1 8q0 12 -13 12q-7 0 -16 -3q-64 -19 -64 -62q0 -16 9 -38q-18 -3 -32 -3q-75 0 -75 80q0 51 50 83q41 16 75 16q36 0 63 -19q60 -44 60 -144q0 -199 -281 -199q-36 0 -67 3h-29
q-41 0 -41 41v273q-166 -95 -210 -95q-61 0 -101 84q122 10 122 55q0 21 -21 34q-33 -11 -64 -39l-44 99q65 63 182 69q81 0 136 -80v10l-2 109q26 -43 52 -43h291z" />
    <glyph glyph-name="bn_p_ta" horiz-adv-x="595" 
d="M335 406q-64 24 -116 24q-28 0 -53 -8q46 -19 46 -57zM463 414v-129q79 -24 101 -95q5 -17 5 -34q0 -60 -68 -116q-60 -50 -148 -50q-39 0 -83 10q-146 32 -153 118t-62 94l47 2q132 0 132 -75v-31q0 -70 19 -70q24 0 123 51q129 66 129 133q0 17 -16 17q-17 0 -53 -17
q-63 -32 -63 -62q0 -11 6 -20q-79 49 -79 89q0 28 32 47q3 2 7 4v38q-56 -20 -163 -62q-25 -10 -48 -10q-60 0 -101 73q122 9 122 49q0 17 -21 29q-32 -10 -63 -34l-44 87q71 61 164 61q83 0 154 -104l1 147q25 -43 52 -43h213v-97h-142z" />
    <glyph glyph-name="bn_p_t_ra" horiz-adv-x="613" 
d="M335 406q-64 24 -116 24q-28 0 -53 -8q46 -19 46 -57zM463 414v-136q0 -7 3 -13q51 -12 113 -39v-245q0 -28 41 -44h-127q-41 0 -41 26v16q-27 0 -65 -21q-62 -34 -106 -34q-48 0 -86 35t-38 74q0 36 21 55.5t61 19.5q55 0 69 -63q-98 0 -98 -38q0 -13 12 -13
q25 0 107 37q31 15 58 15q36 0 65 -25v202q-54 -10 -73 -40q-20 -30 -20 -49t17 -29q-29 -6 -51 -6q-77 0 -77 66q0 52 75 91q8 4 16 7v55q-56 -20 -163 -62q-25 -10 -48 -10q-60 0 -101 73q122 9 122 49q0 17 -21 29q-32 -10 -63 -34l-44 87q71 61 164 61q83 0 154 -104
l1 147q25 -43 52 -43h230v-97h-159z" />
    <glyph glyph-name="bn_p_na" horiz-adv-x="525" 
d="M208 311l124 59q-64 32 -116 32q-30 0 -55 -10q47 -28 47 -81zM461 414v-343q0 -46 40 -71h-124q-41 0 -41 42v1q-38 18 -65 18q-23 0 -39 -13t-16 -36q0 -28 39 -42q-30 -24 -72 -24q-33 0 -62 26t-29 66q0 47 29 74q32 29 94 29q63 0 121 -64v169q-68 -33 -165 -87
q-25 -14 -48 -14q-61 0 -102 103q123 13 123 67q0 25 -21 42q-33 -14 -63 -48l-45 122q61 72 153 83q6 1 13 1q83 0 154 -144l1 1v181q23 -42 50 -42h146v-97h-71z" />
    <glyph glyph-name="bn_p_pa" horiz-adv-x="535" 
d="M218 312l124 58q-64 32 -116 32q-30 0 -55 -10q47 -28 47 -80zM346 61v1q-56 20 -101 20q-25 0 -48 -7q42 -17 42 -51zM471 414v-392q0 -47 40 -72h-124q-35 0 -40 32q-50 -18 -140 -54q-22 -9 -43 -9q-53 0 -89 65q108 8 108 43q0 16 -19 26q-29 -9 -55 -30l-40 77
q63 54 146 54q70 0 131 -85v178q-68 -34 -164 -87q-26 -14 -49 -14q-61 0 -102 102q124 13 124 68q0 25 -22 41q-33 -14 -63 -48l-45 122q61 72 153 84h13q83 0 155 -143v182q24 -43 50 -43h152v-97h-77z" />
    <glyph glyph-name="bn_p_ra" horiz-adv-x="522" 
d="M208 311l124 59q-64 32 -116 32q-30 0 -55 -10q47 -28 47 -81zM481 414v-1q-4 1 -7 1h-13v-403q0 -46 40 -71h-124q-40 0 -41 40q-28 -5 -63 -23q-75 -40 -130 -40q-58 0 -104 41.5t-46 88.5q0 43 26 66t75 23q66 0 83 -76q-120 0 -120 -45q0 -15 15 -15q32 0 129 44
q38 17 72 17t63 -18v203q-68 -33 -165 -87q-25 -14 -48 -14q-61 0 -102 103q123 13 123 67q0 25 -21 42q-33 -14 -63 -48l-45 122q61 72 153 83q6 1 13 1q83 0 154 -144l1 1v181q23 -42 50 -42h146v-97h-51z" />
    <glyph glyph-name="bn_p_ra_ukaar" horiz-adv-x="735" 
d="M208 311l124 59q-64 32 -116 32q-30 0 -55 -10q47 -28 47 -81zM461 414v-102q16 -111 118 -115l18 -1q93 0 93 19q0 24 -65 46q-24 8 -40 8q-29 0 -39 -23q-4 22 -4 41q0 78 70 78q40 0 71 -42.5t31 -96.5q0 -64 -31.5 -102.5t-93.5 -38.5q-80 0 -128 127v-201
q0 -46 40 -71h-124q-40 0 -41 40q-28 -5 -63 -23q-75 -40 -130 -40q-58 0 -104 41.5t-46 88.5q0 43 26 66t75 23q66 0 83 -76q-120 0 -120 -45q0 -15 15 -15q32 0 129 44q38 17 72 17t63 -18v203q-68 -33 -165 -87q-25 -14 -48 -14q-61 0 -102 103q123 13 123 67
q0 25 -21 42q-33 -14 -63 -48l-45 122q61 72 153 83q6 1 13 1q83 0 154 -144l1 1v181q23 -42 50 -42h356v-97h-281z" />
    <glyph glyph-name="bn_p_ra_uukaar" horiz-adv-x="783" 
d="M208 311l124 59q-64 32 -116 32q-30 0 -55 -10q47 -28 47 -81zM461 414v-138q33 53 116 71q6 1 17 1q27 0 48 -16q3 -2 6 -5l114 -108l-25 1q-132 0 -132 -196q0 -33 14 -33q22 0 51 62q14 30 14 53q0 22 -16 34q103 0 103 -77q0 -41 -34.5 -71.5t-86.5 -30.5
q-35 0 -73 19q-69 32 -69 117q0 56 34.5 90.5t109.5 50.5q-143 0 -191 -52v-175q0 -46 40 -71h-124q-40 0 -41 40q-28 -5 -63 -23q-75 -40 -130 -40q-58 0 -104 41.5t-46 88.5q0 43 26 66t75 23q66 0 83 -76q-120 0 -120 -45q0 -15 15 -15q32 0 129 44q38 17 72 17t63 -18
v203q-68 -33 -165 -87q-25 -14 -48 -14q-61 0 -102 103q123 13 123 67q0 25 -21 42q-33 -14 -63 -48l-45 122q61 72 153 83q6 1 13 1q83 0 154 -144l1 1v181q23 -42 50 -42h406v-97h-331z" />
    <glyph glyph-name="bn_p_la" horiz-adv-x="536" 
d="M218 312l124 58q-64 32 -116 32q-30 0 -55 -10q47 -28 47 -80zM471 414v-392q0 -47 40 -72h-124q-41 0 -41 43v26q-17 14 -26 14q-37 0 -37 -33q0 -19 21 -32q-17 -14 -40 -14q-21 0 -42 17.5t-21 48.5l1 15h-6q-41 0 -41 -43q0 -27 24 -47q-20 -18 -46 -18q-27 0 -48 24
q-27 28 -27 70q0 99 97 105q44 0 77 -43q20 13 51 16q24 0 63 -27v175q-68 -34 -164 -87q-26 -14 -49 -14q-61 0 -102 102q124 13 124 68q0 25 -22 41q-33 -14 -63 -48l-45 122q61 72 153 84h13q83 0 155 -143v182q24 -43 50 -43h151v-97h-76z" />
    <glyph glyph-name="bn_p_sa" horiz-adv-x="825" 
d="M337 405q1 1 1 2q-65 16 -113 16q-34 0 -60 -9q46 -21 46 -65zM764 414v-349q0 -46 40 -71h-123q-40 0 -40 42v201h-4q-47 0 -57 -65q-10 -58 -37 -82.5t-73 -24.5q-33 0 -65 14t-58.5 46.5t-26.5 68.5q0 25 20 48.5t48 23.5q32 0 73 -37q-56 -41 -56 -77q0 -10 5.5 -22
t14.5 -12q20 0 57 116q8 27 21 43q-10 28 -52 28q-11 0 -24 -1.5t-23 -1.5q-19 0 -34 5q-106 -40 -195 -81q-25 -12 -47 -12q-61 0 -101 84q121 9 121 55q0 20 -21 33q-32 -11 -63 -39l-44 99q60 59 167 68l14 1q66 0 124 -55v94q25 -43 80 -43h427v-97h-46v-1q-2 1 -4 1
h-18zM641 414h-161q-31 -18 -31 -35q0 -16 27 -30q40 -20 40 -52q0 -4 -1 -8q15 10 33 10q38 0 93 -45v160z" />
    <glyph glyph-name="bn_ph_tta" horiz-adv-x="789" 
d="M550 292q0 30 -88 59v-305q0 -16 25 -32q153 44 224 162l1 5q0 8 -13 8q-12 0 -39 -8q-41 -12 -41 -35q0 -11 10 -25q-16 -3 -32 -3q-75 0 -75 54q0 32 46 53h-4q-35 0 -84 7q70 18 70 60zM610 511q11 15 11 28q0 20 -11 34q-15 17 -43 17q-36 0 -115 -28
q-58 -20 -105 -20q-52 0 -82.5 23t-30.5 58q0 46 29 71.5t71 25.5q19 0 34 -8q-85 -15 -85 -53q0 -15 12 -23.5t31 -8.5q12 0 149 41q41 12 75 12q55 0 88 -34q29 -29 29 -68q0 -40 -23 -67h151v-97h-588q-20 -12 -20 -21q0 -13 45 -19q79 -9 79 -121l1 -5q-47 -41 -109 -43
q23 -43 133 -73v235h2v5l124 -1v-1q74 -1 131 -20q66 -23 66 -69q0 -31 -28 -44h14q37 0 64 -12q60 -29 60 -96q0 -132 -281 -132q-26 0 -49 1h-40q-63 0 -63 44v65q-232 17 -289 159h11q117 0 208 55q-22 18 -51 18q-17 0 -37 -6q-44 -15 -73 -15t-44.5 15.5t-15.5 36.5
q0 20 17 44h-68v97h616z" />
    <glyph glyph-name="bn_ph_ra" horiz-adv-x="691" 
d="M700 511v-97h-472q-31 -20 -31 -34q0 -18 45 -25q79 -14 79 -159l1 -8q-47 -54 -109 -55q23 -56 135 -97v315h124q84 -11 131 -37q66 -37 66 -113q0 -93 -95 -93q-35 0 -84 13q70 30 70 99q0 50 -88 98v-375q0 -37 40 -56h-124q-40 0 -40 33v2q-20 -12 -43 -35
q-83 -82 -154 -82q-69 0 -114 45q-31 31 -31 72q0 60 74 83q14 5 27 5q45 0 75 -53l-8 -3q-93 -29 -93 -68q0 -4 1 -8.5t4 -7.5t6 -3q26 0 119 82q47 44 98 44q19 0 39 -7v17q-234 22 -291 210h11q117 0 208 72q-22 23 -51 23q-17 0 -37 -8q-44 -18 -73 -18t-44.5 19.5
t-15.5 48.5q0 30 21 64h-82v97h706z" />
    <glyph glyph-name="bn_ph_la" horiz-adv-x="691" 
d="M228 414q-31 -20 -31 -34q0 -18 45 -25q79 -14 79 -159l1 -8q-47 -54 -109 -55q23 -56 135 -97v315h124q84 -11 131 -37q66 -37 66 -113q0 -93 -95 -93q-35 0 -84 13q70 30 70 99q0 50 -88 98v-395q0 -37 40 -56h-124q-40 0 -40 33v3q-40 43 -56 43q-36 0 -36 -32
q0 -20 21 -33q-18 -14 -41 -14q-21 0 -42 17.5t-21 49.5l1 14h-5q-41 0 -41 -43q0 -27 24 -47q-21 -17 -47 -17t-48 23q-26 28 -26 71q0 98 96 104q44 0 77 -42q20 12 52 15q32 0 92 -50v41q-234 22 -291 210h11q117 0 208 72q-22 23 -51 23q-17 0 -37 -8q-44 -18 -73 -18
t-44.5 19.5t-15.5 48.5q0 30 21 64h-82v97h707v-97h-473z" />
    <glyph glyph-name="bn_b_ja" horiz-adv-x="900" 
d="M410 212q-2 2 -3 4q-37 38 -37 103q0 11 1 22q-17 -21 -46 -21q-7 0 -14 2q0 -66 99 -110zM538 414q-77 -44 -77 -130q0 -51 34 -51q43 9 88 57q93 -48 93 -124q0 -77 -119 -139q-72 -37 -162 -37q-30 0 -62 4t-67 13q-170 42 -178 176t-71 176q19 2 36 2q150 0 150 -138
v-15q0 -146 68 -152h19q67 0 171 29q120 35 168 116q-73 -23 -123 -23q-25 0 -46 6q-232 5 -293 202q34 -2 62 -2q105 0 151 30h-386v97h912v-97h-351q34 -60 97 -60q67 0 104 33l96 -83q-13 -22 -47 -34q-29 -42 -29 -73q0 -21 13.5 -36t28.5 -15q18 0 40 20q17 -45 17 -78
q0 -52 -43 -74q-24 -13 -45 -13q-31 0 -58 26q-30 30 -30 74q0 63 63 161q-17 -2 -32 -2q-153 0 -188 154h-4z" />
    <glyph glyph-name="bn_b_da" horiz-adv-x="857" 
d="M330 127q-2 6 -2 15v238q-17 -90 -119 -90l-25 1q0 -102 146 -164zM452 414v-198q26 124 187 171l17 1q31 0 54 -21l114 -110l-24 1q-133 0 -133 -199q0 -35 14 -35q22 0 51 63q14 32 14 54q0 24 -16 36q103 0 103 -79q0 -42 -34 -73t-87 -31q-35 0 -74 19
q-68 33 -68 120q0 112 144 144q-172 0 -258 -132q8 -27 36 -45h-124q-9 0 -17 2q-262 9 -334 279q68 -5 124 -5q127 0 187 26v12h-334v97h871v-97h-413z" />
    <glyph glyph-name="bn_b_dha" horiz-adv-x="768" 
d="M324 18q-1 6 -1 13v134q-46 3 -85 13q-12 -19 -48 -37q8 -66 134 -123zM323 375q-22 -62 -116 -62l-26 1q0 -80 142 -129v190zM771 511v-97h-323v-134q25 71 107 103q7 2 16 2q30 0 53 -21l111 -112q-12 2 -24 2q-129 0 -129 -201q0 -34 13 -34q22 0 50 63q14 32 14 54
q0 24 -16 36q101 0 101 -80q0 -42 -33.5 -73t-83.5 -31q-35 0 -73 19q-67 33 -67 122q0 112 141 143q-16 5 -32 5q-76 0 -148 -105v-111q0 -47 40 -72h-89l-34 -1q-266 0 -323 191q71 9 116 29q-104 55 -144 178q67 -4 122 -4q126 0 187 20v12h-329v97h777z" />
    <glyph glyph-name="bn_b_ba" horiz-adv-x="750" 
d="M318 42v253q-28 -59 -102 -59q-9 0 -27 2q0 -120 129 -196zM441 237v-62q26 -78 119 -133v253q-28 -59 -102 -59q-6 0 -17 1zM683 414v-347q0 -46 39 -67h-98q-104 0 -180 44q8 -29 37 -44q-128 1 -135 2q-258 17 -328 347q65 -6 125 -6q117 0 175 26v45h-324v97h762v-97
h-73zM560 414h-119v-69q75 5 119 24v45z" />
    <glyph glyph-name="bn_b_bha" horiz-adv-x="652" 
d="M330 127q-2 6 -2 15v238q-17 -90 -119 -90l-25 1q0 -102 146 -164zM452 414v-243q0 -46 40 -71h-106v-2q0 -33 44 -33q55 0 90 54q80 -19 103 -97q5 -18 5 -34q0 -60 -65 -117q-57 -51 -140 -51q-37 0 -80 10q-137 33 -141.5 136.5t-62.5 137.5q20 3 43 3q124 0 124 -108
q0 -130 22 -130q24 0 117 45q124 62 124 130q0 30 -29 47q-16 -124 -128 -130q-98 9 -98 95q0 30 16 48q-244 18 -313 277q68 -5 124 -5q127 0 187 26v12h-334v97h663v-97h-205z" />
    <glyph glyph-name="bn_b_ra" horiz-adv-x="508" 
d="M318 42v253q-28 -59 -102 -59q-9 0 -27 2q0 -120 129 -196zM441 414v-472q0 -36 39 -56h-122q-40 0 -40 33v19q-13 7 -30 7q-33 0 -80 -25q-75 -39 -129 -39q-59 0 -105 41t-46 89q0 42 26 65.5t75 23.5q66 0 83 -76q-119 0 -119 -45q0 -15 14 -15q32 0 130 44
q38 17 71 17q65 0 110 -64v44q-235 35 -300 344q65 -6 125 -6q117 0 175 26v45h-324v97h518v-97h-71z" />
    <glyph glyph-name="bn_b_ra_ukaar" horiz-adv-x="700" 
d="M318 42v253q-28 -59 -102 -59q-9 0 -27 2q0 -120 129 -196zM441 414v-131q24 -83 112 -86l17 -1q94 0 94 19q0 24 -65 46q-24 8 -40 8q-30 0 -39 -23q-4 22 -4 41q0 78 70 78q39 0 70 -42.5t31 -96.5q0 -64 -31.5 -102.5t-92.5 -38.5q-75 0 -122 112v-255q0 -36 39 -56
h-122q-40 0 -40 33v19q-13 7 -30 7q-33 0 -80 -25q-75 -39 -129 -39q-59 0 -105 41t-46 89q0 42 26 65.5t75 23.5q66 0 83 -76q-119 0 -119 -45q0 -15 14 -15q32 0 130 44q38 17 71 17q65 0 110 -64v44q-235 35 -300 344q65 -6 125 -6q117 0 175 26v45h-324v97h712v-97h-265
z" />
    <glyph glyph-name="bn_b_ra_uukaar" horiz-adv-x="752" 
d="M318 42v253q-28 -59 -102 -59q-9 0 -27 2q0 -120 129 -196zM441 414v-138q33 53 116 71q6 1 17 1q31 0 54 -21l114 -108l-25 1q-132 0 -132 -196q0 -33 14 -33q22 0 51 62q14 30 14 53q0 22 -16 34q103 0 103 -77q0 -41 -34.5 -71.5t-86.5 -30.5q-35 0 -73 19
q-69 32 -69 117q0 56 34.5 90.5t109.5 50.5q-143 0 -191 -53v-243q0 -36 39 -56h-122q-40 0 -40 33v19q-13 7 -30 7q-33 0 -80 -25q-75 -39 -129 -39q-59 0 -105 41t-46 89q0 42 26 65.5t75 23.5q66 0 83 -76q-119 0 -119 -45q0 -15 14 -15q32 0 130 44q38 17 71 17
q65 0 110 -64v44q-235 35 -300 344q65 -6 125 -6q117 0 175 26v45h-324v97h765v-97h-318z" />
    <glyph glyph-name="bn_b_la" 
d="M318 42v253q-28 -59 -102 -59q-9 0 -27 2q0 -120 129 -196zM441 414v-482q0 -36 39 -56h-122q-40 0 -40 33v23q-17 14 -26 14q-36 0 -36 -32q0 -20 21 -33q-18 -14 -41 -14q-21 0 -42 17.5t-21 49.5l1 14q-46 0 -46 -43q0 -27 24 -47q-21 -17 -47 -17t-48 23
q-26 28 -26 71q0 98 96 104q44 0 77 -42q20 12 52 15q24 0 62 -27v20q-235 35 -300 344q65 -6 125 -6q117 0 175 26v45h-324v97h518v-97h-71z" />
    <glyph glyph-name="bn_bh_ra" horiz-adv-x="581" 
d="M397 60q-12 6 -27 6q-31 0 -77 -25q-72 -39 -123 -39q-17 0 -32 4q-48 14 -80 48.5t-32 76.5q0 41 24.5 64t71.5 23q64 0 80 -75q-61 0 -88 -12.5t-27 -32.5q0 -14 14 -14q30 0 124 44q37 17 68 17q61 0 104 -61v219q-14 -55 -66 -76q-44 -17 -85 -17q-39 0 -74 15
q-65 27 -65 87q0 77 97 77q24 0 44 -3q-31 -16 -31 -45q0 -47 68 -47q83 0 112 79v15l124 -33v-308q0 -34 39 -54h-123q-40 0 -40 32v35zM-6 511h597v-97h-597v97z" />
    <glyph glyph-name="bn_bh_ra_ukaar" horiz-adv-x="782" 
d="M397 60q-12 6 -27 6q-31 0 -77 -25q-72 -39 -123 -39q-17 0 -32 4q-48 14 -80 48.5t-32 76.5q0 41 24.5 64t71.5 23q64 0 80 -75q-61 0 -88 -12.5t-27 -32.5q0 -14 14 -14q30 0 124 44q37 17 68 17q61 0 104 -61v219q-14 -55 -66 -76q-44 -17 -85 -17q-39 0 -74 15
q-65 27 -65 87q0 77 97 77q24 0 44 -3q-31 -16 -31 -45q0 -47 68 -47q83 0 112 79v15l124 -33v-54q19 -100 116 -104h17q94 0 94 19q0 24 -65 46q-24 8 -40 8q-30 0 -39 -23q-4 22 -4 41q0 78 70 78q39 0 70 -42.5t31 -96.5q0 -64 -31.5 -102.5t-92.5 -38.5q-78 0 -126 122
v-161q0 -34 39 -54h-123q-40 0 -40 32v35zM-6 511h806v-97h-806v97z" />
    <glyph glyph-name="bn_bh_ra_uukaar" horiz-adv-x="852" 
d="M397 60q-12 6 -27 6q-31 0 -77 -25q-72 -39 -123 -39q-17 0 -32 4q-48 14 -80 48.5t-32 76.5q0 41 24.5 64t71.5 23q64 0 80 -75q-61 0 -88 -12.5t-27 -32.5q0 -14 14 -14q30 0 124 44q37 17 68 17q61 0 104 -61v219q-14 -55 -66 -76q-44 -17 -85 -17q-39 0 -74 15
q-65 27 -65 87q0 77 97 77q24 0 44 -3q-31 -16 -31 -45q0 -47 68 -47q83 0 112 79v15l124 -33v-99q28 70 126 91q6 1 17 1q31 0 54 -21l114 -108l-25 1q-132 0 -132 -196q0 -33 14 -33q22 0 51 62q14 30 14 53q0 22 -16 34q103 0 103 -77q0 -41 -34.5 -71.5t-86.5 -30.5
q-35 0 -73 19q-69 32 -69 117q0 56 34.5 90.5t109.5 50.5q-160 0 -201 -66v-125q0 -34 39 -54h-123q-40 0 -40 32v35zM-6 511h868v-97h-868v97z" />
    <glyph glyph-name="bn_bh_la" horiz-adv-x="552" 
d="M363 82q-24 -5 -51 -5q-42 0 -87 11q-151 34 -156.5 146.5t-68.5 148.5q26 3 48 3q136 0 136 -116q0 -140 24 -140q26 0 128 48q137 65 137 141q0 33 -31 50q-19 -134 -141 -141q-109 10 -109 102q0 73 88 77q-7 -18 -7 -31q0 -34 48 -34q59 0 98 57q89 -20 114 -105
q5 -18 5 -36q0 -55 -51 -108v-189q0 -46 40 -71h-124q-40 0 -40 42v19q-47 50 -64 50q-16 0 -27 -9t-11 -25q0 -20 22 -35q-18 -14 -42 -14q-21 0 -43 18.5t-22 50.5l1 16q-49 0 -49 -45q0 -28 25 -48q-21 -19 -48 -19t-50 24q-27 29 -27 73q0 103 99 109q47 0 81 -44
q20 12 53 16q35 0 102 -56v69zM-6 511h563v-97h-563v97z" />
    <glyph glyph-name="bn_m_na" horiz-adv-x="542" 
d="M476 414v-418q0 -28 36 -43h-111q-36 0 -36 25v44q-14 3 -26 3q-23 0 -39 -13t-16 -35q0 -28 39 -42q-31 -24 -72 -24q-33 0 -62 26t-29 65q0 47 29 74q32 30 94 30q42 0 82 -29v115q-61 24 -102 24q-29 0 -50 -12t-21 -34q0 -27 50 -40q-39 -23 -92 -23q-43 0 -78 24
q-38 27 -38 63q0 44 37 69q40 28 120 28q20 0 39 -4q-14 19 -52 19q-12 0 -26 -1.5t-26 -1.5q-41 0 -64 17t-23 45q0 24 18 49h-63v97h558v-97h-76zM365 414h-158q-32 -17 -32 -34q0 -15 31 -30q44 -20 44 -52q0 -7 -2 -15q60 -16 117 -69v200z" />
    <glyph glyph-name="bn_m_pha" horiz-adv-x="863" 
d="M463 414v-178q0 -28 40 -44h-3q-33 -73 -115 -79q22 -56 135 -106q-1 4 -1 10v336h123v-5q84 -7 131 -33q65 -36 65 -113q0 -92 -94 -92q-35 0 -84 13q70 30 70 99q0 50 -88 97v-272q0 -49 40 -75h-128q-265 6 -330 174q58 0 87 15q25 12 28 39q-64 27 -105 27
q-25 0 -43 -11t-18 -30q0 -24 44 -36q-35 -20 -81 -20q-36 0 -69 22t-33 56q0 40 34 64t104 24q34 0 67 -13q-7 33 -60 33q-11 0 -25.5 -1.5t-26.5 -1.5q-41 0 -64.5 16t-23.5 41q0 21 19 44h-64v97h878v-97h-409zM340 414h-133q-31 -15 -31 -30t31 -27q44 -18 44 -48
q0 -12 -8 -27q50 -21 98 -72q-1 4 -1 8v196z" />
    <glyph glyph-name="bn_m_ba" horiz-adv-x="542" 
d="M365 39q-17 -17 -53 -17l-16 1q0 -49 69 -83v99zM207 414q-32 -17 -32 -34q0 -15 31 -30q44 -20 44 -52q0 -7 -2 -15q60 -16 117 -69v200h-158zM488 414v-484q5 -28 30 -46q-126 0 -130 1q-188 14 -240 196q65 -6 120 -6q69 0 97 14v103q-61 24 -102 24q-29 0 -50 -12
t-21 -34q0 -27 50 -40q-39 -23 -92 -23q-43 0 -78 24q-38 27 -38 63q0 44 37 69q40 28 120 28q20 0 39 -4q-14 19 -52 19q-12 0 -26 -1.5t-26 -1.5q-41 0 -64 17t-23 45q0 20 13 41q3 4 5 8h-63v97h557v-97h-48v-1q-2 1 -4 1h-11z" />
    <glyph glyph-name="bn_m_b_ra" horiz-adv-x="542" 
d="M365 39q-17 -17 -53 -17l-16 1q0 -49 68 -83v35h1v64zM488 414v-484q5 -28 30 -46h-30v-56q0 -37 39 -56h-123q-40 0 -40 33v3q-21 -13 -43 -35q-83 -83 -154 -83q-69 0 -115 45q-30 31 -30 72q0 60 74 84q14 4 27 4q45 0 75 -52l-8 -3q-93 -30 -93 -69q0 -4 1 -8t3.5 -7
t6.5 -3q26 0 119 82q46 43 98 43q19 0 39 -7v17q-167 23 -216 193q65 -6 120 -6q69 0 97 14v103q-61 24 -102 24q-29 0 -50 -12t-21 -34q0 -27 50 -40q-39 -23 -92 -23q-43 0 -78 24q-38 27 -38 63q0 44 37 69q40 28 120 28q20 0 39 -4q-14 19 -52 19q-12 0 -26 -1.5
t-26 -1.5q-41 0 -64 17t-23 45q0 24 18 49h-63v97h556v-97h-62zM365 414h-158q-32 -17 -32 -34q0 -15 31 -30q44 -20 44 -52q0 -7 -2 -15q60 -16 117 -69v200z" />
    <glyph glyph-name="bn_m_bha" horiz-adv-x="563" 
d="M488 414v-314q41 -26 57 -78q4 -18 5 -34q0 -60 -65 -117q-58 -51 -141 -51q-36 0 -79 10q-138 33 -142.5 136.5t-62.5 137.5q20 3 43 3q125 0 125 -108q0 -130 22 -130q24 0 116 45q124 62 124 130q0 30 -28 47q-17 -124 -128 -130q-99 9 -99 95q0 67 79 70
q-6 -17 -6 -28q0 -33 44 -33q7 0 13 1v126q-61 24 -102 24q-29 0 -50 -12t-21 -34q0 -27 50 -40q-39 -23 -92 -23q-43 0 -78 24q-38 27 -38 63q0 44 37 69q40 28 120 28q20 0 39 -4q-14 19 -52 19q-12 0 -26 -1.5t-26 -1.5q-41 0 -64 17t-23 45q0 24 18 49h-63v97h580v-97
h-86zM365 414h-158q-32 -17 -32 -34q0 -15 31 -30q44 -20 44 -52q0 -7 -2 -15q60 -16 117 -69v200z" />
    <glyph glyph-name="bn_m_bh_ra" horiz-adv-x="660" 
d="M488 414v-326q6 8 10 18v13l124 -27v-248q0 -29 40 -44h-124q-40 0 -40 26v28q-12 5 -26 5q-33 0 -78 -20q-71 -32 -123 -32q-56 0 -100 33t-44 70q0 34 24.5 53t71.5 19q64 0 80 -61q-115 0 -115 -36q0 -12 13 -12q31 0 125 36q37 13 68 13q61 0 104 -49v175
q-15 -42 -66 -59q-45 -14 -85 -14q-63 0 -101.5 24t-38.5 59q0 61 98 61q20 0 43 -2q-30 -12 -30 -36q0 -32 47 -37v148q-61 24 -102 24q-29 0 -50 -12t-21 -34q0 -27 50 -40q-39 -23 -92 -23q-43 0 -78 24q-38 27 -38 63q0 44 37 69q40 28 120 28q20 0 39 -4q-14 19 -52 19
q-12 0 -26 -1.5t-26 -1.5q-41 0 -64 17t-23 45q0 24 18 49h-63v97h673v-97h-179zM365 414h-158q-32 -17 -32 -34q0 -15 31 -30q44 -20 44 -52q0 -7 -2 -15q60 -16 117 -69v200z" />
    <glyph glyph-name="bn_m_ma" horiz-adv-x="713" 
d="M718 414h-58v-412q0 -43 40 -66h-123q-40 0 -40 39v23q-66 24 -113 24q-36 0 -61.5 -15t-25.5 -41q0 -32 62 -49q-48 -27 -114 -27q-52 0 -96 29q-48 31 -48 77q0 54 46 85q51 34 149 34q15 0 29 -2v79q-61 24 -102 24q-29 0 -50 -12t-21 -34q0 -27 50 -40
q-39 -23 -92 -23q-43 0 -78 24q-38 27 -38 63q0 44 37 69q40 28 120 28q20 0 39 -4q-14 19 -52 19q-12 0 -26 -1.5t-26 -1.5q-41 0 -64 17t-23 45q0 24 18 49h-63v97h724v-97zM365 414h-158q-32 -17 -32 -34q0 -15 31 -30q44 -20 44 -52q0 -7 -2 -15q60 -16 117 -69v200z
M537 414h-49v-345q25 -16 49 -36v381z" />
    <glyph glyph-name="bn_m_ra" horiz-adv-x="551" 
d="M488 414v-402q0 -37 39 -56h-122q-40 0 -40 33v12q-20 -12 -43 -35q-83 -83 -154 -83q-69 0 -114 46q-31 31 -31 72q0 59 74 83q14 4 27 4q45 0 75 -52l-8 -3q-93 -29 -93 -68q0 -4 1 -8.5t4 -7.5t6 -3q26 0 119 82q47 44 98 44q19 0 39 -7v127q-61 24 -102 24
q-29 0 -50 -12t-21 -34q0 -27 50 -40q-39 -23 -92 -23q-43 0 -78 24q-38 27 -38 63q0 44 37 69q40 28 120 28q20 0 39 -4q-14 19 -52 19q-12 0 -26 -1.5t-26 -1.5q-41 0 -64 17t-23 45q0 24 18 49h-63v97h569v-97h-75zM365 414h-158q-32 -17 -32 -34q0 -15 31 -30
q44 -20 44 -52q0 -7 -2 -15q60 -16 117 -69v200z" />
    <glyph glyph-name="bn_m_la" horiz-adv-x="547" 
d="M488 414v-462q1 -41 39 -56h-122q-40 0 -40 33v53q-7 3 -11 3q-41 0 -41 -36q0 -22 23 -37q-20 -16 -45 -16q-23 0 -47 20t-24 55l1 17h-6q-46 0 -46 -49q0 -30 27 -52q-23 -20 -52 -20q-30 0 -54 26q-30 32 -30 79q0 55 25.5 85t82.5 33q50 0 87 -48q22 14 58 17
q21 0 52 -18v151q-61 24 -102 24q-29 0 -50 -12t-21 -34q0 -27 50 -40q-39 -23 -92 -23q-43 0 -78 24q-38 27 -38 63q0 44 37 69q40 28 120 28q20 0 39 -4q-14 19 -52 19q-12 0 -26 -1.5t-26 -1.5q-41 0 -64 17t-23 45q0 24 18 49h-63v97h559v-97h-65zM365 414h-158
q-32 -17 -32 -34q0 -15 31 -30q44 -20 44 -52q0 -7 -2 -15q60 -16 117 -69v200z" />
    <glyph glyph-name="bn_y_ra" horiz-adv-x="526" 
d="M466 414v-490q0 -37 39 -56h-121q-40 0 -40 33v12q-21 -12 -44 -35q-83 -83 -154 -83q-70 0 -115 45q-31 31 -31 72q0 60 75 84q14 4 26 4q45 0 76 -52l-8 -3q-94 -30 -94 -69q0 -4 1.5 -8t4 -7t5.5 -3q26 0 120 82q46 43 98 43q20 0 40 -7v26q-232 18 -289 214
q127 0 217 71q-22 24 -50 24q-17 0 -37 -9q-43 -18 -72 -18t-44.5 19.5t-15.5 48.5t21 62h-80v97h540v-97h-68zM224 414q-30 -19 -30 -33q0 -18 44 -24q79 -14 79 -158l1 -8q-47 -53 -108 -54q22 -56 134 -106q-1 4 -1 383h-119z" />
    <glyph glyph-name="bn_ra_ukaar" horiz-adv-x="715" 
d="M317 39v254q-27 -59 -102 -59q-9 0 -27 2q0 -120 129 -197zM145 -57q-32 0 -57.5 24.5t-25.5 56.5q0 19 10 32.5t20 13.5q9 0 40 -27q17 -14 36 -26q34 -25 34 -34q0 -16 -18.5 -28t-38.5 -12zM440 414v-101q16 -111 118 -116l18 -1q93 0 93 20q0 24 -65 46q-24 8 -40 8
q-29 0 -39 -23q-4 21 -4 41q0 78 70 78q40 0 71 -43t31 -97q0 -64 -31.5 -102t-93.5 -38q-80 0 -128 126v-145q0 -46 40 -67h-99q-28 0 -35 1q-259 17 -329 348q65 -6 125 -6q117 0 175 26v45h-323v97h729v-97h-283z" />
    <glyph glyph-name="bn_ra_uukaar" horiz-adv-x="773" 
d="M317 39v254q-27 -59 -102 -59q-9 0 -27 2q0 -120 129 -197zM145 -57q-32 0 -57.5 24.5t-25.5 56.5q0 19 10 32.5t20 13.5q9 0 40 -27q17 -14 36 -26q34 -25 34 -34q0 -16 -18.5 -28t-38.5 -12zM440 414v-169q24 81 130 103q7 1 17 1q31 0 54 -21l114 -108l-25 1
q-132 0 -132 -196q0 -33 14 -33q22 0 51 62q14 30 14 53q0 22 -16 34q103 0 103 -77q0 -41 -34.5 -71.5t-86.5 -30.5q-35 0 -73 19q-68 32 -68 117q0 56 34 90.5t109 50.5q-169 0 -205 -73v-99q0 -46 40 -67h-99q-28 0 -35 1q-259 17 -329 348q65 -6 125 -6q117 0 175 26v45
h-323v97h788v-97h-342z" />
    <glyph glyph-name="bn_l_ka" horiz-adv-x="835" 
d="M458 244q-12 -92 -157 -92l-35 1q0 -92 193 -149q-1 6 -1 13v227zM581 414v-146q212 -13 212 -147q0 -92 -93 -92q-34 0 -82 13q68 30 68 98q0 55 -105 108v-135q0 -111 39 -134h-130q-355 11 -451 255q91 -4 164 -4q179 0 255 26v56q-33 17 -67 17q-21 0 -34.5 -6.5
t-13.5 -17.5q0 -15 28 -26q-23 -10 -54 -10q-28 0 -54 12q-31 15 -31 38q0 6 1 12h-7q-23 0 -39.5 -8.5t-16.5 -24.5q0 -20 32 -36q-26 -14 -62 -14q-34 0 -64 18q-36 21 -36 55q0 77 129 81q60 0 105 -34q26 10 68 12q70 0 116 -44v78h-463v97h848v-97h-262z" />
    <glyph glyph-name="bn_l_ga" horiz-adv-x="664" 
d="M591 414v-1h-7v-309q0 -114 40 -137h-126q-41 0 -41 38v122q-60 22 -105 22q-54 0 -90 -29q118 -19 118 -70q0 -50 -69 -79q-48 -20 -87 -20q-78 0 -128 83q144 11 144 44q0 9 -7 16t-25 7q-38 0 -126 -29q-4 21 -4 37q0 116 187 116q126 0 192 -75v143q-33 20 -67 20
q-21 0 -35.5 -8t-14.5 -22q0 -17 29 -31q-25 -12 -56 -12q-30 0 -56 16q-31 18 -31 45q0 8 2 15h-7q-24 0 -41.5 -11t-17.5 -30q0 -23 34 -43q-27 -17 -64 -17q-35 0 -66 22q-36 26 -36 65q0 46 31.5 70.5t100.5 27.5q61 0 107 -40q27 11 70 14q71 0 118 -51v90h-140v1h-328
v97h685v-97h-83z" />
    <glyph glyph-name="bn_l_dda" horiz-adv-x="656" 
d="M418 414l-1 -173q76 40 119 135q71 -22 88 -133q3 -18 3 -35q0 -75 -60 -130t-154 -55q-47 0 -101 14q-146 38 -146 119l1 24q0 68 -31 81q24 4 48 4q91 0 91 -74l-1 -33q0 -45 6 -60t20 -15q30 0 107 22q96 27 151 146q-43 -46 -166 -47l-85 73v53q-12 4 -24 4
q-16 0 -26.5 -7t-11.5 -20q0 -16 22 -29q-17 -11 -41 -11q-22 0 -43 15.5t-21 40.5v1h-5q-17 0 -29.5 -10t-12.5 -27q0 -23 25 -40q-21 -15 -47 -15t-49 20q-26 23 -26 59q0 42 22.5 64.5t73.5 25.5q43 0 72 -28q21 14 59 17q35 0 62 -22v46h-318v97h678v-97h-249z" />
    <glyph glyph-name="bn_l_pa" horiz-adv-x="648" 
d="M440 117q-80 24 -143 24q-36 0 -66 -7q57 -21 57 -60zM444 118l2 1v174q-32 24 -66 24q-21 0 -35 -9t-14 -25q0 -21 28 -37q-22 -14 -54 -14q-28 0 -54 18q-31 21 -31 53v1h-5q-24 0 -40.5 -12.5t-16.5 -35.5q0 -21 20 -40q29 6 61 9l16 1q101 0 189 -108zM569 414v-301
q0 -112 40 -134h-123q-40 0 -40 37v9q-83 -24 -203 -64q-31 -11 -58 -11q-75 0 -125 77q151 8 151 49q-1 19 -26 32q-41 -11 -79 -36l-54 90q23 17 50 29q-20 6 -38 21q-35 30 -35 76q0 54 31 82.5t97 30.5q56 0 95 -36q28 19 79 24q69 0 115 -62v87h-457v97h670v-97h-90z
" />
    <glyph glyph-name="bn_l_pha" horiz-adv-x="868" 
d="M467 414v-180q0 -29 40 -45h-4q-33 -73 -116 -80q23 -56 136 -106q-1 5 -1 10v338h125v-4q84 -7 132 -34q65 -37 65 -113q0 -93 -95 -93q-35 0 -84 13q70 30 70 99q0 50 -88 99v-274q0 -50 40 -76h-73l-37 -1q-283 0 -352 176q59 0 88.5 14.5t29.5 49.5q-1 4 -1 9v48
q-26 24 -53 24q-16 0 -27.5 -8.5t-11.5 -23.5q0 -20 22 -35q-18 -13 -41 -13t-43 17q-24 20 -24 50v1h-5q-18 0 -31 -12t-13 -33q0 -27 26 -47q-21 -18 -50 -18q-26 0 -50 24q-27 28 -27 70q0 102 101 108q44 0 74 -34q22 17 61 22q55 0 92 -61v119h-353v97h891v-97h-413z
" />
    <glyph glyph-name="bn_l_ba" horiz-adv-x="687" 
d="M479 4q-1 6 -1 13v227q-12 -92 -157 -92l-35 1q0 -92 193 -149zM601 414v-301q0 -111 39 -134h-130q-355 11 -451 255q91 -4 164 -4q179 0 255 26v56q-33 17 -67 17q-21 0 -34.5 -6.5t-13.5 -17.5q0 -15 28 -26q-23 -10 -54 -10q-28 0 -54 12q-31 15 -31 38q0 6 1 12h-7
q-23 0 -39.5 -8.5t-16.5 -24.5q0 -20 32 -36q-26 -14 -62 -14q-34 0 -64 18q-36 21 -36 55q0 77 129 81q60 0 105 -34q26 10 68 12q70 0 116 -44v78h-489v97h712v-97h-100z" />
    <glyph glyph-name="bn_l_ma" horiz-adv-x="814" 
d="M730 414v-372q0 -43 40 -66h-123q-40 0 -40 39v27q-60 20 -103 20q-36 0 -61.5 -15t-25.5 -41q0 -32 62 -49q-48 -27 -114 -27q-52 0 -96 29q-48 31 -48 77q0 54 46 85q51 34 149 34h5v82q-27 24 -57 24q-19 0 -32 -10.5t-13 -29.5q0 -24 25 -41q-21 -17 -49 -17
q-25 0 -51.5 22t-26.5 60q0 10 2 19q-29 0 -44 -14t-15 -40q0 -33 30 -57q-24 -22 -56 -22q-33 0 -59 29q-33 34 -33 86q0 61 28 93.5t90 36.5q55 0 96 -53q23 15 62 19q62 0 103 -64v136h-432v97h838v-97h-97zM607 414h-64v-291q32 -17 64 -42v333z" />
    <glyph glyph-name="bn_l_ra" horiz-adv-x="636" 
d="M563 414v-434q0 -37 39 -56l-121 1q-40 0 -40 33v38q-27 -12 -57 -43q-83 -82 -154 -82q-70 0 -115 45q-31 31 -31 72q0 60 75 83q13 5 26 5q45 0 76 -53l-8 -3q-94 -29 -94 -68q0 -4 1.5 -8.5t4 -7.5t5.5 -3q26 0 120 82q46 44 98 44q26 0 53 -12v190q-27 24 -57 24
q-19 0 -32 -10.5t-13 -29.5q0 -24 25 -41q-21 -17 -49 -17q-25 0 -51.5 22t-26.5 60q0 10 2 19q-29 0 -44 -14t-15 -40q0 -33 30 -57q-24 -22 -56 -22q-33 0 -59 29q-33 34 -33 86q0 61 28 93.5t90 36.5q55 0 96 -53q23 15 62 19q62 0 103 -64v136h-452v97h657v-97h-83z" />
    <glyph glyph-name="bn_l_la" horiz-adv-x="637" 
d="M563 414v-434q0 -37 39 -56l-121 1q-40 0 -40 33v54q-6 3 -11 3q-41 0 -41 -37q0 -22 24 -37q-20 -15 -46 -15q-23 0 -46.5 19.5t-23.5 55.5l1 16h-7q-46 0 -46 -49q0 -30 27 -52q-22 -20 -52 -20t-54 26q-30 32 -30 80q0 55 26 84.5t82 32.5q50 0 88 -48q21 14 57 18
q26 0 52 -29v177q-27 24 -57 24q-19 0 -32 -10.5t-13 -29.5q0 -24 25 -41q-21 -17 -49 -17q-25 0 -51.5 22t-26.5 60q0 10 2 19q-29 0 -44 -14t-15 -40q0 -33 30 -57q-24 -22 -56 -22q-33 0 -59 29q-33 34 -33 86q0 61 28 93.5t90 36.5q55 0 96 -53q23 15 62 19
q62 0 103 -64v136h-452v97h661v-97h-87z" />
    <glyph glyph-name="bn_l_sa" horiz-adv-x="845" 
d="M782 414v-343q0 -47 40 -72h-124q-40 0 -40 43v193q-51 0 -86 -128q-17 -109 -110 -109q-34 0 -66.5 14.5t-59 47.5t-27.5 53q0 25 18 39.5t45 14.5q41 -2 43 -47q-19 -13 -19 -32q0 -12 5.5 -24t14.5 -12q13 0 43 74q-93 108 -121 108q-20 0 -33.5 -11t-13.5 -30
q0 -25 27 -43q-23 -18 -52 -18q-26 0 -53.5 22.5t-27.5 63.5l1 20q-60 0 -60 -57q0 -34 31 -59q-26 -23 -60 -23t-62 29q-34 37 -34 91q0 128 124 136q57 0 100 -56q25 16 66 20q59 0 191 -130q7 20 15 43q9 27 22 43q-11 28 -53 28q-10 0 -23.5 -1.5t-24.5 -1.5
q-36 0 -58 17t-22 46q0 23 19 51h-368v97h861v-97h-51v-1q-4 1 -7 1h-10zM658 414h-163q-31 -18 -31 -35t28 -30q40 -20 40 -53l-1 -8q15 10 33 10q39 0 94 -45v161z" />
    <glyph glyph-name="bn_sha_ukaar" horiz-adv-x="600" 
d="M515 261q24 -13 40 -32q29 -36 29 -73q0 -56 -70 -109q-63 -47 -154 -47q-40 0 -86 10q-151 29 -158.5 110t-64.5 89l48 1q138 0 138 -70l-1 -29q0 -66 21 -66q25 0 127 48q63 29 98.5 61.5t35.5 63.5q0 16 -17 16t-54 -16q-66 -31 -66 -58q0 -9 7 -18q-83 46 -83 83
q0 26 32.5 44t69.5 18q29 0 54 -5q48 90 48 124q0 14 -5.5 21.5t-11.5 7.5q-5 0 -12 -5q-17 -12 -29.5 -33.5t-12.5 -49.5q0 -23 5 -45q-85 37 -85 96q0 6 1 12q-30 19 -66 19q-71 0 -72 -41q5 -39 27 -39q23 0 65 43q33 -48 33 -82q0 -30 -25 -51t-49 -21q-37 0 -64 39
l-2 4q-11 -21 -29 -37q-25 -23 -50 -23q-24 0 -51 25t-27 53q0 35 42 74q41 -40 65 -40q19 0 25 27v18q-10 23 -72 23q-46 0 -70 13.5t-24 44.5q0 37 46 61q-3 -6 -3 -10q0 -24 61 -28q47 -6 73 -32q20 58 80 61q69 -3 97 -64q22 56 78 56q34 0 71 -30q46 -39 46 -129
q0 -75 -49 -83z" />
    <glyph glyph-name="bn_sh_ca" horiz-adv-x="895" 
d="M582 27q110 61 110 190v18q-20 -5 -38 -5q-61 0 -81 66v-231q0 -21 9 -38zM573 414v-46q45 -38 132 -38h17q53 3 122 19q4 -36 4 -67q0 -290 -286 -290q-31 0 -64 3h-8q-40 0 -40 42v352q-41 27 -90 27q-88 0 -89 -46q6 -46 33 -46q29 0 81 50q41 -55 41 -95
q0 -33 -32 -58q-28 -24 -60 -24q-46 0 -79 45l-4 4q-13 -23 -34 -41q-31 -27 -63 -27q-30 0 -63 28.5t-33 60.5q0 40 52 85q51 -46 80 -46q24 0 32 30q-1 8 -1 16v7q-14 24 -92 24q-114 0 -114 68q0 41 57 69q-3 -6 -3 -11q0 -27 75 -32q58 -7 90 -38q26 68 101 71
q80 -3 115 -65v5q-1 6 -1 13v92q25 -44 51 -44h404v-97h-331z" />
    <glyph glyph-name="bn_sh_cha" horiz-adv-x="965" 
d="M568 182q105 41 105 117v10q-16 -2 -29 -2q-70 0 -83 68v-168q0 -14 7 -25zM568 414q36 -36 98 -36q47 0 108 20l8 -22q152 -1 152 -123q0 -69 -70 -116q-62 -41 -190 -41q-62 0 -135 9q136 -54 201 -54q39 0 62.5 15.5t30.5 39.5q60 -58 60 -97q0 -23 -26 -43t-71 -20
q-117 0 -350 178h37q148 0 224 25q87 28 115 97l1 20q0 47 -31 76q6 -25 6 -46q0 -140 -244 -140q-31 0 -67 2h2q-44 0 -44 29v205q-39 24 -85 24q-88 0 -89 -46q6 -46 33 -46q29 0 81 50q41 -55 41 -95q0 -33 -32 -58q-28 -24 -60 -24q-46 0 -79 45l-4 4q-13 -23 -34 -41
q-31 -27 -63 -27q-30 0 -63 28.5t-33 60.5q0 40 52 85q51 -46 80 -46q24 0 32 30q-1 8 -1 16v7q-14 24 -92 24q-114 0 -114 68q0 41 57 69q-3 -6 -3 -11q0 -27 75 -32q58 -7 90 -38q26 68 101 71q74 -3 110 -57v104q23 -45 48 -45l481 -1v-97h-406z" />
    <glyph glyph-name="bn_sh_tta" horiz-adv-x="910" 
d="M581 414v-310q0 -17 11 -31q157 60 229 216l1 8q0 11 -14 11q-13 0 -39 -10q-42 -16 -42 -48q0 -15 10 -34q-18 -3 -33 -3q-76 0 -76 72q0 45 51 73q42 14 78 14q33 0 61 -17q61 -38 61 -127q0 -177 -284 -177h-98q-41 2 -41 32l-1 303q-43 30 -95 30q-88 0 -89 -46
q6 -46 33 -46q29 0 81 50q41 -55 41 -95q0 -33 -32 -58q-28 -24 -60 -24q-46 0 -79 45l-4 4q-13 -23 -34 -41q-31 -27 -63 -27q-30 0 -63 28.5t-33 60.5q0 40 52 85q51 -46 80 -46q24 0 32 30q-1 8 -1 16v7q-14 24 -92 24q-114 0 -114 68q0 41 57 69q-3 -6 -3 -11
q0 -27 75 -32q58 -7 90 -38q26 68 101 71q86 -4 120 -75v121q26 -44 53 -44h294q7 12 7 26q0 21 -11 35q-15 19 -44 19q-36 0 -117 -29q-59 -22 -106 -22q-54 0 -84.5 24.5t-30.5 62.5q0 49 29.5 77t71.5 28q20 0 35 -9q-86 -16 -86 -58q0 -15 12 -24t31 -9q13 0 27 5
l125 39q42 13 75 13q57 0 90 -37q30 -32 30 -74q0 -37 -21 -67h13v-1h76v-97h-343z" />
    <glyph glyph-name="bn_sh_na" horiz-adv-x="669" 
d="M608 414v-364q0 -46 39 -70h-122q-37 0 -39 39q-54 56 -113 56q-28 0 -47 -12.5t-19 -35.5q0 -29 38 -51q-31 -20 -72 -20q-25 0 -49 11q-28 13 -45 34q-20 24 -20 54q0 104 147 120q113 0 180 -127v284q-61 98 -142 98q-89 0 -89 -45q5 -49 33 -49q29 0 81 54
q40 -59 40 -102q0 -37 -32 -65q-28 -25 -60 -25q-46 0 -82 52q-13 -24 -34 -44q-31 -29 -62 -29t-64 31.5t-33 66.5q0 43 52 91q51 -49 80 -49q23 0 31 30l-1 27q-13 27 -88 27q-117 0 -117 72q0 45 57 76q-3 -6 -3 -13q0 -29 75 -35q62 -7 93 -42q29 67 114 79h12
q112 0 139 -131l-1 147q27 -43 82 -43h117v-97h-76z" />
    <glyph glyph-name="bn_sh_ba" horiz-adv-x="668" 
d="M486 122q-19 -19 -59 -19l-18 1q0 -56 77 -93v111zM608 414v-414q5 -32 34 -52q-126 0 -130 1q-211 16 -269 220q73 -7 134 -7q77 0 109 16v154q-61 98 -142 98q-89 0 -89 -45q5 -49 33 -49q29 0 81 54q40 -59 40 -102q0 -37 -31 -65q-29 -25 -61 -25q-46 0 -82 52
q-13 -24 -34 -44q-31 -29 -62 -29t-64 31.5t-33 66.5q0 43 52 91q51 -49 80 -49q23 0 31 30q-1 8 -1 27q-13 27 -88 27q-117 0 -117 72q0 45 57 76q-3 -6 -3 -13q0 -29 75 -35q62 -7 93 -42q29 67 114 79h12q112 0 139 -131l-1 147q27 -43 82 -43h107v-97h-66z" />
    <glyph glyph-name="bn_sh_ma" horiz-adv-x="827" 
d="M773 414v-412q0 -43 40 -66h-124q-40 0 -40 39v67q-60 20 -103 20q-35 0 -61 -15t-26 -41q0 -32 62 -49q-48 -27 -113 -27q-52 0 -96 29q-49 31 -49 76q0 55 47 86q48 32 140 34v192q-56 90 -130 90q-82 0 -82 -41q6 -44 30 -44q27 0 75 49q36 -55 36 -93
q0 -36 -27.5 -59t-56.5 -23q-40 0 -75 47q-11 -22 -31 -41q-27 -26 -56 -26q-30 0 -59.5 28.5t-29.5 60.5q0 40 48 83q46 -44 73 -44q21 0 29 27q-1 8 -1 25q-12 25 -82 25q-106 0 -106 66q0 40 52 69q-2 -5 -2 -12q0 -26 68 -32q57 -6 85 -38q26 61 104 71h11
q102 0 127 -119l-1 134q24 -39 75 -39h316v-97h-67zM649 414h-88v-280q45 -18 88 -53v333z" />
    <glyph glyph-name="bn_sh_ra" horiz-adv-x="668" 
d="M608 414v-344q0 -46 39 -70h-122q-29 0 -37 24q-37 -13 -100 -48q-86 -49 -149 -49q-43 0 -85 25q-39 23 -64 59.5t-25 68.5q0 36 23 57t55 22q52 0 66 -102q-33 9 -56 9q-18 0 -29.5 -6.5t-11.5 -16.5q0 -9 10 -20.5t29 -11.5q46 0 159 57q62 32 110 32q37 0 66 -19v251
q-61 98 -142 98q-89 0 -89 -45q5 -49 33 -49q29 0 81 54q40 -59 40 -102q0 -37 -32 -65q-28 -25 -60 -25q-46 0 -82 52q-13 -24 -34 -44q-31 -29 -62 -29t-64 31.5t-33 66.5q0 43 52 91q51 -49 80 -49q23 0 31 30l-1 27q-13 27 -88 27q-117 0 -117 72q0 45 57 76
q-3 -6 -3 -13q0 -29 75 -35q62 -7 93 -42q29 67 114 79h12q112 0 139 -131l-1 147q27 -43 82 -43h115v-97h-74z" />
    <glyph glyph-name="bn_sh_ra_ukaar" horiz-adv-x="871" 
d="M608 414v-102q16 -111 118 -115l17 -1q94 0 94 19q0 25 -65 46q-24 8 -40 8q-30 0 -39 -23q-4 22 -4 41q0 78 70 78q39 0 70 -42.5t31 -96.5q0 -64 -31.5 -102t-92.5 -38q-80 0 -128 126v-142q0 -46 39 -70h-122q-29 0 -37 24q-37 -13 -100 -48q-86 -49 -149 -49
q-43 0 -85 25q-39 23 -64 59.5t-25 68.5q0 36 23 57t55 22q52 0 66 -102q-33 9 -56 9q-18 0 -29.5 -6.5t-11.5 -16.5q0 -9 10 -20.5t29 -11.5q46 0 159 57q62 32 110 32q37 0 66 -19v251q-61 98 -142 98q-89 0 -89 -45q5 -49 33 -49q29 0 81 54q40 -59 40 -102
q0 -37 -32 -65q-28 -25 -60 -25q-46 0 -82 52q-13 -24 -34 -44q-31 -29 -62 -29t-64 31.5t-33 66.5q0 43 52 91q51 -49 80 -49q23 0 31 30l-1 27q-13 27 -88 27q-117 0 -117 72q0 45 57 76q-3 -6 -3 -13q0 -29 75 -35q62 -7 93 -42q29 67 114 79h12q112 0 139 -131l-1 147
q27 -43 82 -43h317v-97h-276z" />
    <glyph glyph-name="bn_sh_ra_uukaar" horiz-adv-x="929" 
d="M608 414v-143q32 58 119 76q6 1 17 1q31 0 54 -21l114 -108l-25 1q-132 0 -132 -196q0 -33 14 -33q22 0 51 62q14 30 14 53q0 22 -16 34q103 0 103 -77q0 -41 -34.5 -71.5t-86.5 -30.5q-35 0 -73 19q-69 32 -69 117q0 56 34.5 90.5t109.5 50.5q-148 0 -194 -56v-112
q0 -46 39 -70h-122q-29 0 -37 24q-37 -13 -100 -48q-86 -49 -149 -49q-43 0 -85 25q-39 23 -64 59.5t-25 68.5q0 36 23 57t55 22q52 0 66 -102q-33 9 -56 9q-18 0 -29.5 -6.5t-11.5 -16.5q0 -9 10 -20.5t29 -11.5q46 0 159 57q62 32 110 32q37 0 66 -19v251q-61 98 -142 98
q-89 0 -89 -45q5 -49 33 -49q29 0 81 54q40 -59 40 -102q0 -37 -32 -65q-28 -25 -60 -25q-46 0 -82 52q-13 -24 -34 -44q-31 -29 -62 -29t-64 31.5t-33 66.5q0 43 52 91q51 -49 80 -49q23 0 31 30l-1 27q-13 27 -88 27q-117 0 -117 72q0 45 57 76q-3 -6 -3 -13q0 -29 75 -35
q62 -7 93 -42q29 67 114 79h12q112 0 139 -131l-1 147q27 -43 82 -43h380v-97h-339z" />
    <glyph glyph-name="bn_sh_la" horiz-adv-x="669" 
d="M608 414v-384q0 -46 39 -70h-122q-39 0 -39 42v41q-32 21 -66 21q-21 0 -35.5 -8.5t-14.5 -23.5q0 -20 29 -34q-25 -13 -56 -13q-30 0 -56 17q-31 20 -31 49q0 9 2 17h-7q-24 0 -41.5 -12t-17.5 -33q0 -26 34 -47q-27 -19 -64 -19q-35 0 -66 25q-36 28 -36 71
q0 50 31.5 76.5t100.5 30.5q61 0 107 -44q27 13 70 16q70 0 117 -55v255q-61 98 -142 98q-89 0 -89 -45q5 -49 33 -49q29 0 81 54q40 -59 40 -102q0 -37 -32 -65q-28 -25 -60 -25q-46 0 -82 52q-13 -24 -34 -44q-31 -29 -62 -29t-64 31.5t-33 66.5q0 43 52 91q51 -49 80 -49
q23 0 31 30l-1 27q-13 27 -88 27q-117 0 -117 72q0 45 57 76q-3 -6 -3 -13q0 -29 75 -35q62 -7 93 -42q29 67 114 79h12q112 0 139 -131l-1 147q27 -43 82 -43h112v-97h-71z" />
    <glyph glyph-name="bn_ss_ka" horiz-adv-x="657" 
d="M303 205q3 1 5 1v107q-15 4 -30 7q-6 -50 -106 -50h-12q0 -23 143 -65zM308 141q-29 -29 -89 -29l-25 1q0 -83 114 -137v165zM431 414v-186q212 -13 212 -147q0 -92 -92 -92q-35 0 -83 13q68 30 68 98q0 55 -105 108v-135q0 -111 40 -133h-64l-27 -1q-18 0 -35 1h-4
q-246 17 -314 255q67 -5 121 -5q41 0 75 3q-174 14 -174 108v8q44 -6 76 -6q56 0 56 22v1q-108 5 -120 29q-6 11 -6 23q0 18 10 36h-76v97h679v-97h-237zM308 414h-147q-3 -7 -3 -14q0 -31 59 -31l16 1q44 5 57 5q5 0 18 -1v40z" />
    <glyph glyph-name="bn_ss_k_ra" horiz-adv-x="773" 
d="M253 221q5 2 10 5q20 11 45 15v72q-14 5 -30 7q-6 -50 -106 -50h-12q0 -19 93 -49zM431 414v-185q41 -12 88 -33v-58q43 78 106 78q62 0 93.5 -38t31.5 -102q0 -54 -31 -97t-71 -43q-70 0 -70 78q0 19 4 41q10 -23 39 -23q16 0 40 8q65 22 65 46q0 20 -77 20l-34 -1
q-66 -3 -96 -50v-104q0 -28 41 -44h-127q-41 0 -41 26v16q-27 0 -65 -21q-62 -34 -106 -34q-48 0 -86 35t-38 74q0 36 21 55.5t61 19.5q55 0 69 -63q-98 0 -98 -38q0 -13 12 -13q25 0 107 37q31 15 58 15q36 0 65 -25v201l-9 -1q-46 -11 -64 -38q-20 -30 -20 -49t17 -29
q-29 -6 -51 -6q-77 0 -77 66q0 32 28 58q-167 16 -167 108v8q44 -6 76 -6q56 0 56 22v1q-108 5 -120 29q-6 11 -6 23q0 18 10 36h-76v97h791v-97h-349zM308 414h-147q-3 -7 -3 -14q0 -31 59 -31l16 1q44 5 57 5q10 0 18 -1v40z" />
    <glyph glyph-name="bn_ss_tta" horiz-adv-x="797" 
d="M353 14q-4 9 -4 22v154q-37 62 -76 90l2 -92q-28 -52 -89 -53q25 -64 167 -121zM473 414v-349q0 -27 14 -47q151 67 222 242l1 9q0 12 -13 12q-7 0 -16 -3q-64 -19 -64 -62q0 -16 9 -38q-18 -3 -32 -3q-75 0 -75 80q0 51 50 83q41 16 75 16q36 0 63 -20q60 -43 60 -144
q0 -198 -281 -198q-36 0 -67 2h-11l3 -1l-29 -1q-288 0 -351 224h10q118 0 214 75q-24 13 -49 13q-19 0 -37 -7q-49 -17 -80 -17q-32 0 -47 19t-15 48q0 31 21 67h-54v97h697q7 13 7 26q0 21 -12 35q-14 18 -43 18q-35 0 -115 -28q-58 -22 -105 -22q-53 0 -83 24.5t-30 61.5
q0 48 29 75.5t71 27.5q19 0 34 -8q-45 -9 -65 -22.5t-20 -35.5q0 -14 12 -23t31 -9q13 0 27 4l122 39q42 13 75 13q55 0 89 -36q29 -32 29 -73q0 -39 -21 -67h87v-97h-337zM349 414h-150q-25 -18 -25 -32q0 -22 58 -35q78 -17 117 -123v190z" />
    <glyph glyph-name="bn_ss_tt_ra" horiz-adv-x="797" 
d="M353 14q-4 9 -4 22v154q-37 62 -76 90l2 -92q-28 -52 -89 -53q25 -64 167 -121zM473 414v-349q0 -27 14 -47q151 67 222 242l1 9q0 12 -13 12q-7 0 -16 -3q-64 -19 -64 -62q0 -16 9 -38q-18 -3 -32 -3q-75 0 -75 80q0 51 50 83q41 16 75 16q36 0 63 -20q60 -43 60 -144
q0 -139 -138 -180v-92q0 -37 40 -56h-124q-40 0 -40 33v2q-20 -12 -43 -35q-83 -82 -154 -82q-69 0 -114 45q-31 31 -31 72q0 60 74 83q14 5 27 5q45 0 75 -53l-8 -3q-93 -29 -93 -68q0 -4 1 -8.5t4 -7.5t6 -3q26 0 119 82q47 44 98 44q19 0 39 -7v31h-19q-36 0 -67 2h-11
l3 -1l-29 -1q-288 0 -351 224h10q118 0 214 75q-24 13 -49 13q-19 0 -37 -7q-49 -17 -80 -17q-32 0 -47 19t-15 48q0 31 21 67h-59v97h702q7 13 7 26q0 21 -12 35q-14 18 -43 18q-35 0 -115 -28q-58 -22 -105 -22q-53 0 -83 24.5t-30 61.5q0 48 29 75.5t71 27.5q19 0 34 -8
q-45 -9 -65 -22.5t-20 -35.5q0 -14 12 -23t31 -9q13 0 27 4l122 39q42 13 75 13q55 0 89 -36q29 -32 29 -73q0 -39 -21 -67h87v-97h-337zM349 414h-150q-25 -18 -25 -32q0 -22 58 -35q78 -17 117 -123v190z" />
    <glyph glyph-name="bn_ss_ttha" horiz-adv-x="659" 
d="M259 173q56 1 73 34q8 14 13 27q-17 46 -85 60q-7 -62 -107 -62h-12q14 -47 118 -59zM503 414q32 -22 64 -48q64 -53 64 -159q0 -95 -74.5 -140t-144.5 -45q-130 0 -182 63q-24 28 -26 58q-23 -7 -44 -7q-94 0 -130 145q46 -8 76 -8q57 0 57 27v1q-109 6 -122 37
q-6 13 -6 29q0 23 12 47h-58v97h250q-38 61 -38 116q0 68 74 115q36 22 70 22t66 -23q36 -26 36 -63q0 -53 -67 -135q-5 46 -30 80.5t-58 34.5t-33 -19t35 -60q29 -33 70 -68h307v-97h-168zM314 414h-172q-3 -10 -3 -20q0 -38 60 -38l16 1q46 6 57 6q78 0 83 -93q1 9 1 17
q0 39 -8 69q-5 19 -34 58zM439 414h-4q23 -63 23 -111q0 -121 -143 -146q7 -86 66 -86q53 0 100 70q32 48 32 99q0 28 -9 56q-24 75 -65 118z" />
    <glyph glyph-name="bn_ss_nna" horiz-adv-x="720" 
d="M345 30v205q-23 29 -47 46l1 -94q-27 -51 -88 -52q22 -55 134 -105zM468 357v-126q55 -41 94 -41q57 0 57 63v6l-3 -1q-15 -5 -28 -5q-51 0 -72 85q130 42 130 69q0 16 -25 16q-33 0 -81 -22q-41 -19 -72 -44zM468 511v-110q30 106 120 106q46 0 75 -40t29 -99
q0 -70 -51 -99q19 -6 32 -23q19 -27 19 -67q0 -53 -35 -84q-28 -25 -70 -25q-37 0 -74 27q-32 23 -45 64v-96q0 -46 40 -70h-72l-30 -1q-286 0 -350 221l10 -1q120 0 217 77q-26 14 -53 14q-18 0 -37 -6q-47 -17 -78 -17q-62 0 -62 65q0 33 20 67h-84v97h479zM345 414h-120
q-26 -17 -26 -32q0 -21 58 -34q53 -12 88 -64v130z" />
    <glyph glyph-name="bn_ss_pha" horiz-adv-x="865" 
d="M249 148q90 0 90 52q0 77 -89 95q-7 -63 -108 -63l-12 1q6 -85 119 -85zM465 414v-179q0 -29 40 -44h-3q-33 -73 -116 -80q22 -56 136 -106q-1 5 -1 347h124q84 -8 132 -34q65 -37 65 -113q0 -93 -95 -93q-35 0 -84 13q70 30 70 99q0 50 -88 98v-276q0 -50 40 -76h-129
q-237 5 -314 140q-17 -4 -37 -4q-169 0 -186 175q46 -8 76 -8q57 0 57 29q-109 6 -122 37q-6 13 -6 29q0 21 12 46h-47v97h889v-97h-413zM341 414h-210q-3 -10 -3 -20q0 -36 57 -36l17 1q47 7 60 7q68 0 79 -75v123z" />
    <glyph glyph-name="bn_ss_ba" horiz-adv-x="489" 
d="M308 141q-29 -29 -89 -29l-25 1q0 -83 114 -137v165zM303 205q4 1 7 2q-2 5 -2 11v95q-14 4 -30 7q-6 -50 -106 -50h-12q0 -23 143 -65zM431 414v-341q0 -111 40 -133h-64l-27 -1q-18 0 -35 1h-4q-246 17 -314 255q67 -5 121 -5q41 0 75 3q-174 14 -174 108v8
q44 -6 76 -6q56 0 56 22v1q-108 5 -120 29q-6 11 -6 23q0 18 10 36h-76v97h508v-97h-66zM308 414h-147q-3 -7 -3 -14q0 -31 59 -31l16 1q44 5 57 5q10 0 18 -1v40z" />
    <glyph glyph-name="bn_ss_ma" horiz-adv-x="678" 
d="M278 312q-6 -54 -106 -54l-12 1q0 -26 148 -72v118q-14 4 -30 7zM623 414v-412q0 -43 40 -66h-124q-40 0 -40 39v67q-60 20 -103 20q-35 0 -61 -15t-26 -41q0 -32 62 -49q-48 -27 -113 -27q-52 0 -96 29q-49 31 -49 76q0 55 47 86q50 34 148 34v17h-16q-243 0 -243 119
v10q44 -7 76 -7q56 0 56 23v1q-108 5 -120 32q-6 12 -6 25q0 19 10 39h-76v97h700v-97h-66zM308 414h-147q-3 -8 -3 -16q0 -33 59 -33l16 1q44 5 57 5q10 0 18 -1v44zM499 414h-68v-289q34 -17 68 -44v333z" />
    <glyph glyph-name="bn_ss_ra" horiz-adv-x="536" 
d="M349 281v132h-120q-28 -18 -28 -33q0 -21 60 -35q53 -11 88 -64zM349 36v195q-23 30 -47 47l1 -96q-27 -51 -89 -53q22 -56 135 -93zM474 413v-487q0 -37 39 -57h-124q-40 0 -40 34v11q-19 -11 -42 -30q-82 -72 -151 -72q-41 0 -78 21q-25 13 -42 33q-25 30 -25 69
q0 64 81 83q11 3 22 3q48 0 76 -58q-107 -27 -107 -64q0 -19 11 -19q27 0 124 73q45 35 93 35q19 0 38 -6v19q-235 11 -293 210l11 -1q122 0 220 78q-26 14 -54 14q-18 0 -37 -6q-48 -17 -80 -17t-47.5 18.5t-15.5 47.5q0 32 22 68l-86 1v97h556v-97z" />
    <glyph glyph-name="bn_s_ka" horiz-adv-x="658" 
d="M308 -41v141q-26 -20 -74 -20l-24 1q0 -73 98 -122zM431 414v-186q212 -13 212 -147q0 -92 -92 -92q-35 0 -83 13q68 30 68 98q0 55 -105 108v-155q0 -111 40 -133h-123q-13 0 -22 4q-209 24 -269 232q61 -4 111 -4q89 0 140 13v124q-18 -11 -24 -36q-17 -72 -110 -72
q-32 0 -65 9.5t-59 31.5t-26 46q0 16 20 32t47 16q33 0 74 -25q-56 -27 -56 -52q0 -6 5.5 -14t13.5 -8q21 0 58 78q8 18 21 28q-10 19 -52 19l-48 -2q-37 0 -58 11.5t-21 30.5q0 14 18 32h-57v97h685v-97h-243zM181 414q-28 -12 -28 -22q0 -11 27 -20q40 -13 40 -36l-1 -5
q15 7 33 7q25 0 56 -12v88h-127z" />
    <glyph glyph-name="bn_s_k_ba" horiz-adv-x="658" 
d="M326 -144v85q-14 -15 -45 -15l-14 1q0 -43 59 -71zM309 -42q0 34 -1 143q-26 -21 -74 -21l-24 1q0 -74 99 -123zM431 414v-186q212 -13 212 -147q0 -92 -92 -92q-35 0 -83 13q68 30 68 98q0 55 -105 108v-360q4 -25 25 -40q-107 0 -111 1q-160 12 -205 168l42 -4
q-89 59 -125 183q61 -4 111 -4q89 0 140 13v124q-18 -11 -24 -36q-17 -72 -110 -72q-32 0 -65 9.5t-59 31.5t-26 46q0 16 20 32t47 16q33 0 74 -25q-56 -27 -56 -52q0 -6 5.5 -14t13.5 -8q21 0 58 78q8 18 21 28q-10 19 -52 19l-48 -2q-37 0 -58 11.5t-21 30.5q0 14 18 32
h-57v97h680v-97h-238zM181 414q-28 -12 -28 -22q0 -11 27 -20q40 -13 40 -36q0 -2 -1 -5q15 7 33 7q25 0 56 -12v88h-127z" />
    <glyph glyph-name="bn_s_k_ra" horiz-adv-x="772" 
d="M431 414v-215q41 -12 88 -33v-58q43 78 106 78q62 0 93.5 -38t31.5 -102q0 -54 -31 -97t-71 -43q-70 0 -70 78q0 19 4 41q10 -23 39 -23q16 0 40 8q65 22 65 46q0 20 -77 20l-34 -1q-66 -3 -96 -50v-104q0 -28 41 -44h-127q-41 0 -41 26v16q-27 0 -65 -21
q-62 -34 -106 -34q-48 0 -86 35t-38 74q0 36 21 55.5t61 19.5q55 0 69 -63q-98 0 -98 -38q0 -13 12 -13q25 0 107 37q31 15 58 15q36 0 65 -25v202q-54 -10 -73 -40q-20 -30 -20 -49t17 -29q-29 -6 -51 -6q-77 0 -77 66q0 52 75 91q21 11 46 15q-1 3 -1 7v71
q-18 -11 -24 -36q-17 -72 -110 -72q-32 0 -65 9.5t-59 31.5t-26 46q0 16 20 32t47 16q33 0 74 -25q-56 -27 -56 -52q0 -6 5.5 -14t13.5 -8q21 0 58 78q8 18 21 28q-10 19 -52 19l-48 -2q-37 0 -58 11.5t-21 30.5q0 14 18 32h-57v97h793v-97h-351zM181 414q-28 -12 -28 -22
q0 -11 27 -20q40 -13 40 -36q0 -2 -1 -5q15 7 33 7q25 0 56 -12v88h-127z" />
    <glyph glyph-name="bn_s_kha" horiz-adv-x="643" 
d="M451 554q26 -43 52 -43h95v-98q-4 1 -7 1h-13v-420q0 -53 40 -81h-73l-13 -1h-14q-293 0 -369 161q211 14 254 84q-17 15 -51 18q-26 -66 -107 -66q-46 0 -73.5 16.5t-27.5 48.5q0 40 74 63q8 -43 42 -43q26 0 39 11q12 10 13 22q-5 4 -5 10v98q-39 -1 -48 -37
q-16 -60 -99 -60q-45 0 -88 20q-47 22 -47 53q0 13 18 26.5t43 13.5q29 0 66 -20q-51 -24 -51 -44q1 -5 5.5 -12t12.5 -7q18 0 52 65q6 12 15 21q-12 8 -43 8l-43 -2q-34 0 -52.5 8t-18.5 21q0 10 18 25q-10 0 -17 2l82 95h265q40 0 40 -49l1 -214q0 -16 31 -26v-1h-86
q47 -31 55 -88q-1 2 -1 3q4 -18 4 -34q0 -66 -74 -79q34 -37 107 -72q-1 5 -1 10zM169 414q-28 -11 -28 -18t25 -14q28 -7 34 -18q13 6 30 6q32 0 77 -22v65zM-11 511h329v-97h-329v97zM485 511h173v-97h-173v97z" />
    <glyph glyph-name="bn_s_tta" horiz-adv-x="855" 
d="M373 412h-166q-34 -19 -34 -37q0 -16 28 -30q40 -20 40 -53q0 -5 -1 -10q15 12 34 12q40 0 99 -49v167zM498 412v-357q0 -28 14 -48q155 69 228 247l1 9q0 12 -14 12q-7 0 -16 -3q-66 -20 -66 -64q0 -16 10 -37q-18 -4 -32 -4q-77 0 -77 81q0 52 51 85q42 17 76 17
q37 0 64 -20q61 -45 61 -147q0 -202 -286 -202q-31 0 -57 2h-41q-41 0 -41 42v205q-4 1 -8 1q-48 0 -58 -67q-10 -59 -38 -84t-74 -25q-34 0 -67 14t-60 47.5t-27 70.5q0 24 21 49t48 25q34 0 75 -38q-57 -43 -57 -80q0 -9 6 -21.5t14 -12.5q21 0 59 118q9 28 22 44
q-11 29 -54 29q-11 0 -24 -1.5t-25 -1.5q-36 0 -58 17t-22 46q0 24 20 52l-77 2v97h733q6 12 6 25q0 22 -12 36q-15 18 -43 18q-37 0 -118 -29q-59 -21 -107 -21q-54 0 -85 24.5t-31 62.5q0 49 29.5 77t73.5 28q19 0 35 -9q-47 -8 -67 -22t-20 -36q0 -15 12 -24t31 -9
q12 0 153 43q42 13 76 13q56 0 90 -36q29 -32 29 -75q0 -37 -20 -66h112v-97z" />
    <glyph glyph-name="bn_s_tt_ra" horiz-adv-x="853" 
d="M373 412h-166q-34 -19 -34 -37q0 -16 28 -30q40 -20 40 -53q0 -5 -1 -10q15 12 34 12q40 0 99 -49v167zM665 1v-85q0 -36 40 -56h-122q-40 0 -40 34v2q-20 -13 -43 -35q-82 -83 -153 -83q-70 0 -115 45q-31 31 -31 73q0 59 74 83q14 4 27 4q45 0 75 -52l-8 -3
q-93 -29 -93 -68q0 -4 1 -8.5t4 -7.5t6 -3q26 0 119 82q47 43 98 43q19 0 39 -7v23q-15 -1 -31 -1q-31 0 -57 2h-41q-41 0 -41 42v205q-4 1 -8 1q-48 0 -58 -67q-10 -59 -38 -84t-74 -25q-34 0 -67 14t-60 47.5t-27 70.5q0 24 21 49t48 25q34 0 75 -38q-57 -43 -57 -80
q0 -9 6 -21.5t14 -12.5q21 0 59 118q9 28 22 44q-11 29 -54 29q-11 0 -24 -1.5t-25 -1.5q-36 0 -58 17t-22 46q0 24 20 52l-77 2v97h733q6 12 6 25q0 22 -12 36q-15 18 -43 18q-37 0 -118 -29q-59 -21 -107 -21q-54 0 -85 24.5t-31 62.5q0 49 29.5 77t73.5 28q19 0 35 -9
q-47 -8 -67 -22t-20 -36q0 -15 12 -24t31 -9q12 0 153 43q42 13 76 13q56 0 90 -36q29 -32 29 -75q0 -37 -20 -66h112v-97l-368 -2v-357q0 -28 14 -48q155 69 228 247l1 9q0 12 -14 12q-7 0 -16 -3q-66 -20 -66 -64q0 -16 10 -37q-18 -4 -32 -4q-77 0 -77 81q0 52 51 85
q42 17 76 17q37 0 64 -20q61 -45 61 -147q0 -138 -133 -182z" />
    <glyph glyph-name="bn_s_ta" horiz-adv-x="551" 
d="M431 414v-197q73 -24 94 -87q5 -13 5 -31q0 -55 -68 -107q-61 -46 -149 -46q-39 0 -83 9q-145 30 -152 109t-63 87l47 2q133 0 133 -70l-1 -28q0 -64 20 -64q24 0 123 46q127 61 129 124q0 15 -17 15q-18 0 -52 -16q-64 -30 -64 -58q0 -8 7 -17q-80 45 -80 82q0 32 48 51
v71q-18 -11 -24 -36q-17 -72 -110 -72q-32 0 -65 9.5t-59 31.5t-26 46q0 16 20 32t47 16q33 0 74 -25q-56 -27 -56 -52q0 -6 5.5 -14t13.5 -8q21 0 58 78q8 18 21 28q-10 19 -52 19l-48 -2q-37 0 -58 11.5t-21 30.5q0 14 18 32h-53v97h568v-97h-130zM181 414
q-28 -12 -28 -22q0 -11 27 -20q40 -13 40 -36l-1 -5q15 7 33 7q25 0 56 -12v88h-127z" />
    <glyph glyph-name="bn_s_t_ba" horiz-adv-x="551" 
d="M300 -157v64q-12 -4 -28 -4l-13 1q0 -36 41 -61zM431 414v-196q70 -22 94 -88q5 -17 5 -31q0 -55 -68 -107q-19 -14 -40 -24v-143q4 -25 25 -40q-107 0 -111 1q-160 12 -205 168q56 -6 103 -6q16 0 30 1q-17 2 -34 6q-145 30 -152 109t-63 87q13 0 24.5 1t22.5 1
q133 0 133 -70l-1 -28q0 -64 20 -64q24 0 123 46q58 27 93.5 60.5t35.5 63.5q0 15 -17 15q-18 0 -52 -16q-64 -30 -64 -58q0 -8 7 -17q-80 45 -80 82q0 33 48 51v71q-18 -11 -24 -36q-17 -72 -110 -72q-32 0 -65 9.5t-59 31.5t-26 46q0 16 20 32t47 16q33 0 74 -25
q-56 -27 -56 -52q0 -6 5.5 -14t13.5 -8q21 0 58 78q8 18 21 28q-10 19 -52 19l-48 -2q-37 0 -58 11.5t-21 30.5q0 15 18 32h-53v97h568v-97h-130zM308 414h-127q-28 -11 -28 -22t27 -20q40 -13 40 -36l-1 -5q15 7 33 7q25 0 56 -12v88z" />
    <glyph glyph-name="bn_s_t_ra" horiz-adv-x="549" 
d="M431 414v-215q41 -12 88 -33v-245q0 -28 41 -44h-127q-41 0 -41 26v16q-27 0 -65 -21q-62 -34 -106 -34q-48 0 -86 35t-38 74q0 75 82 75q55 0 69 -63q-98 0 -98 -38q0 -13 12 -13q25 0 107 37q31 15 58 15q36 0 65 -25v202q-54 -10 -73.5 -40t-19.5 -49t17 -29
q-29 -6 -51 -6q-77 0 -77 66q0 52 75 91q21 11 46 15q-1 3 -1 78q-18 -11 -24 -36q-17 -72 -110 -72q-32 0 -65 9.5t-59 31.5t-26 46q0 16 20 32t47 16q33 0 74 -25q-56 -27 -56 -52q0 -6 5.5 -14t13.5 -8q21 0 58 78q8 18 21 28q-10 19 -52 19l-48 -2q-37 0 -58 11.5
t-21 30.5q0 15 18 32h-53v97h568v-97h-130zM308 414h-127q-28 -11 -28 -22t27 -20q40 -13 40 -36l-1 -5q14 7 33 7q25 0 56 -12v88z" />
    <glyph glyph-name="bn_s_tha" horiz-adv-x="700" 
d="M469 414q0 -164 2 -174q23 -1 46 -6q166 -27 166 -133q0 -57 -61 -90t-186 -33q-31 0 -65 2t-37 2q83 -46 173 -46q15 0 31 2q98 13 117 63q35 -45 35 -73q0 -54 -95 -80q-23 -6 -48 -6q-133 0 -357 186q42 -3 63 -3q250 0 335 113q1 3 1 7q0 16 -41 16q-32 0 -86 -10
q-98 -19 -98 -48q0 -12 33 -40q-50 -5 -62 -5q-93 0 -93 61q0 73 98 104l5 2v64q-51 0 -61 -52q-16 -84 -110 -84q-32 0 -65 11.5t-59 37t-26 53.5q0 19 20 37.5t47 18.5q33 0 74 -29q-56 -32 -56 -61q0 -7 5.5 -16.5t13.5 -9.5q21 0 58 91q8 21 21 33q-10 22 -52 22l-48 -2
q-37 0 -58 13.5t-21 35.5q0 13 9 26h-44v97h714v-97h-238zM345 414h-183q-9 -8 -9 -15q0 -12 27 -23q40 -15 40 -41l-1 -6q15 8 33 8q38 0 93 -35v112z" />
    <glyph glyph-name="bn_s_na" horiz-adv-x="529" 
d="M469 414v-349q0 -46 39 -71h-123q-40 0 -40 42v15q-45 26 -92 26q-28 0 -47 -9.5t-19 -25.5q0 -21 38 -38q-32 -14 -72 -14t-75 18q-41 22 -41 55q0 77 149 87q96 0 159 -66v202h-4q-47 0 -57 -48q-17 -79 -110 -79q-32 0 -65 10.5t-59 34.5t-26 50q0 18 20 35.5t47 17.5
q33 0 74 -27q-56 -31 -56 -57q0 -7 5.5 -15.5t13.5 -8.5q21 0 58 84q8 20 21 31q-10 21 -52 21l-48 -2q-37 0 -58 12.5t-21 32.5q0 18 18 36h-53v97h542v-97h-66zM345 414h-163q-29 -12 -29 -25q0 -11 27 -21q40 -15 40 -39q0 -3 -1 -6q15 8 33 8q38 0 93 -33v116z" />
    <glyph glyph-name="bn_s_pha" horiz-adv-x="829" 
d="M432 414v-177q0 -29 40 -44h-3q-33 -73 -115 -79q22 -56 134 -105q-1 4 -1 343h123q195 -17 195 -146q0 -91 -93 -91q-36 0 -84 13q69 29 69 97q0 50 -87 98v-274q0 -49 40 -75l-109 -1q-279 0 -347 174q59 0 87.5 14.5t28.5 48.5h1q-1 4 -1 92q-38 -3 -47 -52
q-16 -86 -97 -86q-28 0 -59.5 13.5t-51.5 35.5q-22 25 -22 55q0 20 17.5 39t41.5 19q30 0 65 -30q-49 -33 -49 -62q0 -7 5 -17t12 -10q18 0 51 93q6 17 14 29q-11 11 -40 11l-43 -2q-33 0 -52 11t-19 31q0 15 18 34h-61v97h847v-97h-408zM174 414q-27 -14 -27 -25
q0 -10 26 -20t32 -26q13 9 30 9q31 0 75 -30v92h-136z" />
    <glyph glyph-name="bn_s_ba" horiz-adv-x="529" 
d="M345 88q-15 -16 -48 -16l-15 1q0 -45 63 -76v91zM469 414v-426q4 -26 27 -42q-126 0 -130 1q-171 13 -219 179q59 -6 110 -6q62 0 88 13v153h-4q-47 0 -57 -48q-17 -79 -110 -79q-32 0 -65 10.5t-59 34.5t-26 50q0 18 20 35.5t47 17.5q33 0 74 -27q-56 -31 -56 -57
q0 -7 5.5 -15.5t13.5 -8.5q21 0 58 84q8 20 21 31q-10 21 -52 21l-48 -2q-37 0 -58 12.5t-21 32.5q0 18 18 36h-53v97h548v-97h-72zM345 414h-163q-29 -12 -29 -25q0 -11 27 -21q40 -15 40 -39q0 -3 -1 -6q15 8 33 8q38 0 93 -33v116z" />
    <glyph glyph-name="asa_s_wa" horiz-adv-x="528" 
d="M345 -3q-63 31 -63 76l15 -1q32 0 48 16v-91zM28 378q0 -20 21 -32.5t58 -12.5q11 0 24 1t24 1q42 0 52 -21q-13 -11 -21 -31q-38 -84 -58 -84q-8 0 -14 9q-5 8 -5 15q0 26 56 57q-41 27 -74 27q-28 0 -48 -18q-20 -17 -20 -35q0 -26 27 -51q25 -23 60 -34q31 -10 64 -10
q44 0 72 18t38 61q10 48 57 48h4v-153q-26 -13 -89 -13q-50 0 -109 6q47 -166 219 -179q4 -1 130 -1q-23 16 -28 42v71h1v356h8q26 0 52 -39v87q0 48 -40 48h-409q-55 0 -80 44v-92q0 -48 46 -48q-18 -19 -18 -37zM321 -93l-11 24q-96 20 -138 83l-72 -47q97 -88 221 -60z
M345 298q-55 33 -93 33q-19 0 -34 -8q1 3 1 6q0 24 -39 39q-28 10 -28 21q0 13 32 26h161v-117z" />
    <glyph glyph-name="bn_s_ma" horiz-adv-x="719" 
d="M663 414v-412q0 -43 40 -66h-124q-40 0 -40 39v67q-60 20 -103 20q-35 0 -61 -15t-26 -41q0 -32 62 -49q-48 -27 -113 -27q-52 0 -96 29q-49 31 -49 76q0 55 47 86q49 33 145 34v131h-4q-47 0 -57 -48q-17 -79 -110 -79q-32 0 -65 10.5t-59 34.5t-26 50q0 18 20 35.5
t47 17.5q33 0 74 -27q-56 -31 -56 -57q0 -7 5.5 -15.5t13.5 -8.5q21 0 58 84q8 20 21 31q-10 21 -52 21l-48 -2q-37 0 -58 12.5t-21 32.5q0 18 18 36h-53v97h744v-97h-74zM345 414h-163q-29 -12 -29 -25q0 -11 27 -21q40 -15 40 -39q0 -3 -1 -6q15 8 33 8q38 0 93 -33v116z
M539 414h-70v-288q35 -17 70 -45v333z" />
    <glyph glyph-name="bn_s_ra" horiz-adv-x="529" 
d="M469 414v-377q0 -37 38 -56h-122q-35 0 -39 26q-33 -1 -77 -24q-76 -40 -130 -40q-58 0 -104 41t-46 89q0 42 25.5 65.5t74.5 23.5q66 0 84 -76q-120 0 -120 -45q0 -15 14 -15q32 0 130 44q38 17 72 17q42 0 76 -27v224h-3q-48 0 -58 -46q-9 -41 -37 -57t-73 -16
q-50 0 -98 24q-52 27 -52 64q0 18 19.5 34t47.5 16q34 0 74 -25q-56 -29 -56 -54q0 -7 5.5 -15t13.5 -8q21 0 58 80q7 15 16 24q-13 16 -46 16l-48 -2q-37 0 -58.5 15t-21.5 39q0 20 17 41h-52v97h543v-97h-67zM344 414h-162q-29 -14 -29 -28q0 -13 27 -25q37 -17 40 -42
q14 7 32 7q38 0 93 -31z" />
    <glyph glyph-name="bn_s_ra_ukaar" horiz-adv-x="726" 
d="M469 414v-138q25 -76 110 -79l18 -1q93 0 93 19q0 24 -65 46q-24 8 -40 8q-29 0 -39 -23q-4 22 -4 41q0 78 70 78q40 0 71 -42.5t31 -96.5q0 -64 -31.5 -102.5t-93.5 -38.5q-74 0 -120 107v-155q0 -37 38 -56h-122q-35 0 -39 26q-33 -1 -77 -24q-76 -40 -130 -40
q-58 0 -104 41t-46 89q0 42 25.5 65.5t74.5 23.5q66 0 84 -76q-120 0 -120 -45q0 -15 14 -15q32 0 130 44q38 17 72 17q42 0 76 -27v224h-3q-48 0 -58 -46q-9 -41 -37 -57t-73 -16q-50 0 -98 24q-52 27 -52 64q0 18 19.5 34t47.5 16q34 0 74 -25q-56 -29 -56 -54
q0 -7 5.5 -15t13.5 -8q21 0 58 80q7 15 16 24q-13 16 -46 16l-48 -2q-37 0 -58.5 15t-21.5 39q0 20 17 41h-52v97h744v-97h-268zM344 414h-162q-29 -14 -29 -28q0 -13 27 -25q37 -17 40 -42q14 7 32 7q38 0 93 -31z" />
    <glyph glyph-name="bn_s_ra_uukaar" horiz-adv-x="772" 
d="M469 414v-115q34 34 98 48q6 1 17 1q31 0 54 -21l114 -108l-25 1q-132 0 -132 -196q0 -33 14 -33q22 0 51 62q14 30 14 53q0 22 -16 34q103 0 103 -77q0 -41 -34.5 -71.5t-86.5 -30.5q-35 0 -73 19q-69 32 -69 117q0 56 34.5 90.5t109.5 50.5q-120 0 -173 -37v-164
q0 -37 38 -56h-122q-35 0 -39 26q-33 -1 -77 -24q-76 -40 -130 -40q-58 0 -104 41t-46 89q0 42 25.5 65.5t74.5 23.5q66 0 84 -76q-120 0 -120 -45q0 -15 14 -15q32 0 130 44q38 17 72 17q42 0 76 -27v224h-3q-48 0 -58 -46q-9 -41 -37 -57t-73 -16q-50 0 -98 24
q-52 27 -52 64q0 18 19.5 34t47.5 16q34 0 74 -25q-56 -29 -56 -54q0 -7 5.5 -15t13.5 -8q21 0 58 80q7 15 16 24q-13 16 -46 16l-48 -2q-37 0 -58.5 15t-21.5 39q0 20 17 41h-52v97h785v-97h-309zM344 414h-162q-29 -14 -29 -28q0 -13 27 -25q37 -17 40 -42q14 7 32 7
q38 0 93 -31z" />
    <glyph glyph-name="bn_s_la" horiz-adv-x="575" 
d="M502 414l-1 -497q0 -24 30 -37h-122q-31 0 -31 22v43q-20 19 -30 19q-35 0 -35 -31q0 -18 20 -30q-17 -14 -38 -14q-19 0 -39 16.5t-20 46.5l1 14q-44 0 -44 -41q0 -25 23 -43q-19 -17 -44 -17t-45 22q-25 26 -25 66q0 92 90 98q42 0 73 -40q25 15 53 15q26 0 60 -30v239
h-4q-47 0 -58 -66q-9 -58 -36.5 -83t-73.5 -25q-34 0 -66.5 14t-59 47t-26.5 69q0 25 20.5 49t47.5 24q33 0 74 -37q-56 -42 -56 -78q0 -10 5.5 -22t14.5 -12q20 0 57 117q9 27 22 43q-11 28 -53 28q-10 0 -23.5 -1.5t-24.5 -1.5q-36 0 -58 17t-22 46q0 24 19 51h-84v97h590
v-97h-81zM217 414q-33 -19 -33 -36q0 -16 28 -30q40 -20 40 -53l-1 -8q15 11 33 11q39 0 94 -46v162h-161z" />
    <glyph glyph-name="bn_ha_ukaar" horiz-adv-x="544" 
d="M421 91q31 -52 31 -92q0 -58 -71 -86q-19 -8 -39 -8q-114 0 -298 221q9 -1 18 -1.5t18 -0.5q35 0 72 6t76 17q50 15 88 46t65 78q10 28 10 42q0 16 -12 16q-3 0 -7 -1q-62 -32 -105 -113q-38 100 -80 145q-26 -53 -26 -95q0 -44 30 -77q-21 -3 -39 -3q-46 0 -66.5 21.5
t-20.5 64.5q0 71 54 100q42 22 65 22q11 0 19 -5l42 -53q28 42 74 68q67 -27 102 -70t35 -103q0 -67 -58 -119q-42 -38 -128 -38q-32 0 -69 5t-81 15q54 -35 101 -52.5t87 -17.5q7 0 13.5 0.5t12.5 1.5q46 7 66.5 23.5t20.5 42.5zM-7 511h559v-97h-559v97z" />
    <glyph glyph-name="bn_ha_rikaar" horiz-adv-x="739" 
d="M444 197q-9 -42 -46 -70q-54 -41 -159 -41q-52 0 -120 10q101 -69 182 -69q15 0 28 3q89 17 103 57q22 -40 22 -72q0 -60 -78 -91q-19 -7 -40 -7q-113 0 -292 211q17 -1 35 -1q209 16 254 82q43 62 43 78t-40 16q-36 0 -96 -14.5t-60 -56.5q0 -21 10 -42q-22 -3 -39 -3
q-75 0 -75 63q0 85 81 123q47 22 93 22q29 0 78 -7q97 -28 116 -114q27 53 107 70q5 1 14 1q28 0 48 -18l101 -96l-22 1q-117 0 -117 -174q0 -29 13 -29q19 0 44 54q13 28 13 47q0 20 -14 31q91 0 91 -69q0 -36 -30.5 -62.5t-76.5 -26.5q-31 0 -65 16q-60 28 -60 104
q0 49 30.5 80t96.5 45q-132 0 -173 -51zM-7 511h754v-97h-754v97z" />
    <glyph glyph-name="bn_h_nna" horiz-adv-x="534" 
d="M275 -68q-97 40 -231 198q17 -1 35 -1q209 16 254 82q43 62 43 78t-40 16q-36 0 -96 -14.5t-60 -56.5q0 -21 10 -42q-22 -3 -39 -3q-75 0 -75 63q0 85 81 123q47 22 93 22q29 0 78 -7q120 -34 120 -158q0 -65 -50 -103q-54 -41 -159 -41q-52 0 -120 10q101 -69 182 -69
q15 0 28 3q89 17 103 57q22 -40 22 -72q0 -51 -56 -81v-94q0 -29 36 -44h-122q-37 0 -37 26v35q-43 22 -73 22q-22 0 -38.5 -13.5t-16.5 -35.5q0 -28 39 -42q-30 -24 -72 -24q-32 0 -61.5 26t-29.5 66q0 47 29 74q33 29 94 29q68 0 129 -72v43zM-7 511h551v-97h-551v97z" />
    <glyph glyph-name="bn_h_na" horiz-adv-x="700" 
d="M447 214q-5 -54 -49 -87q-54 -41 -159 -41q-52 0 -120 10q101 -69 182 -69q15 0 28 3q89 17 103 57q22 -40 22 -72q0 -60 -78 -91q-19 -7 -40 -7q-113 0 -292 211q17 -1 35 -1q209 16 254 82q43 62 43 78t-40 16q-36 0 -96 -14.5t-60 -56.5q0 -21 10 -42q-22 -3 -39 -3
q-75 0 -75 63q0 85 81 123q47 22 93 22q29 0 78 -7q91 -26 113 -104q25 81 122 83q61 0 92.5 -38t31.5 -102q0 -54 -31 -96.5t-70 -42.5q-70 0 -70 78q0 19 4 41q9 -23 38 -23q16 0 41 7q65 22 65 46q0 20 -94 20q-72 0 -123 -43zM-7 511h716v-97h-716v97z" />
    <glyph glyph-name="bn_h_ba" horiz-adv-x="538" 
d="M206 -28q-73 53 -162 158q17 -1 35 -1q209 16 254 82q43 62 43 78t-40 16q-36 0 -96 -14.5t-60 -56.5q0 -21 10 -42q-22 -3 -39 -3q-75 0 -75 63q0 85 81 123q47 22 93 22q29 0 78 -7q120 -34 120 -158q0 -65 -50 -103q-54 -41 -159 -41q-52 0 -120 10q101 -69 182 -69
q15 0 28 3q89 17 103 57q22 -40 22 -72q0 -43 -40 -71v-89q0 -34 28 -52q-127 0 -132 1q-164 12 -210 171q57 -5 106 -5zM292 -74q-7 2 -14 5q-18 -10 -48 -10l-17 1q0 -57 80 -94q-1 3 -1 98zM-7 511h557v-97h-557v97z" />
    <glyph glyph-name="bn_h_ma" horiz-adv-x="671" 
d="M475 414v-107h4q25 2 52 2q102 0 102 -75v-150q0 -41 29 -50h-118q-24 2 -24 31v161q0 30 -45 40v-205q0 -47 40 -72h-125q-40 0 -40 43v41q-35 10 -62 10q-25 0 -43.5 -10.5t-18.5 -28.5q0 -22 45 -33q-37 -19 -82 -19q-37 0 -70 20.5t-33 52.5q0 36 33 58q36 25 105 25
q17 0 34 -3q6 17 6 31q0 24 -17 41.5t-40 17.5q-16 0 -33 -8q-22 -10 -22 -25q0 -13 29 -13q8 0 11 1q-27 -49 -75 -49q-26 0 -49 18.5t-23 44.5q0 16 10 34q25 44 106 44q43 0 76 -12q-6 47 -57 47q-11 0 -34 -3t-33 -3q-35 0 -54.5 14.5t-19.5 38.5q0 23 20 50h-66v97h688
v-97h-206zM317 414h-107q-29 -17 -29 -34t36 -33q41 -18 41 -43q0 -17 -17 -36q13 -5 25 -12q41 -27 41 -68q0 -24 -14 -38q-6 -6 -15 -10q36 -11 72 -36v168q-40 4 -66 20q-37 21 -37 62q0 43 70 60zM321 414q-6 -22 -6 -42q0 -38 25 -52q4 -3 10 -5v99h-29z" />
    <glyph glyph-name="bn_h_ra" horiz-adv-x="536" 
d="M324 -80q-110 10 -280 210q17 -1 35 -1q209 16 254 82q43 62 43 78t-40 16q-36 0 -96 -14.5t-60 -56.5q0 -21 10 -42q-22 -3 -39 -3q-75 0 -75 63q0 85 81 123q47 22 93 22q29 0 78 -7q120 -34 120 -158q0 -65 -50 -103q-54 -41 -159 -41q-52 0 -120 10q101 -69 182 -69
q15 0 28 3q89 17 103 57q22 -40 22 -72q0 -20 -9 -37h1v-113q0 -37 39 -56h-122q-39 0 -39 33v2q-21 -12 -43 -35q-83 -82 -154 -82q-70 0 -115 45q-31 31 -31 72q0 60 75 83q14 5 26 5q45 0 76 -53l-8 -3q-94 -29 -94 -68q0 -4 1.5 -8.5t4 -7.5t5.5 -3q26 0 120 82
q46 44 98 44q19 0 39 -7v10zM-7 511h551v-97h-551v97z" />
    <glyph glyph-name="bn_h_la" horiz-adv-x="538" 
d="M312 -79q-107 20 -268 209q17 -1 35 -1q209 16 254 82q43 62 43 78t-40 16q-36 0 -96 -14.5t-60 -56.5q0 -21 10 -42q-22 -3 -39 -3q-75 0 -75 63q0 85 81 123q47 22 93 22q29 0 78 -7q120 -34 120 -158q0 -65 -50 -103q-54 -41 -159 -41q-52 0 -120 10q101 -69 182 -69
q15 0 28 3q89 17 103 57q22 -40 22 -72q0 -30 -19 -52v-138q0 -29 36 -44h-123q-36 0 -36 26v29q-16 13 -24 13q-38 0 -38 -33q0 -20 22 -33q-18 -14 -41 -14q-22 0 -43 18t-21 50v15h-5q-42 0 -42 -45q0 -27 25 -47q-21 -18 -48 -18t-49 23q-27 29 -27 72q0 101 98 107
q45 0 79 -43q20 12 52 15q24 0 62 -26v29zM-7 511h558v-97h-558v97z" />
    <glyph glyph-name="asa_ra_ukaar" horiz-adv-x="710" 
d="M318 42v70q-58 7 -96 25q32 -57 96 -95zM318 148v147q-28 -59 -102 -59q-9 0 -27 2q0 -10 1 -9q58 -55 128 -81zM441 204v-137q0 -46 40 -67h-99q-290 0 -364 349q65 -6 125 -6q117 0 175 26v45h-271q-47 0 -47 49v91q25 -43 51 -43h618q40 0 40 -48v-88q-26 39 -52 39
h-216v-120q21 -94 116 -98l17 -1q93 0 93 20q0 24 -65 46q-24 7 -40 7q-29 0 -39 -23q-4 22 -4 41q0 78 70 78q40 0 71 -42.5t31 -96.5q0 -64 -31.5 -102t-93.5 -38q-78 0 -125 119z" />
    <glyph glyph-name="asa_ra_uukaar" horiz-adv-x="778" 
d="M318 42v70q-58 7 -96 25q32 -57 96 -95zM318 148v147q-28 -59 -102 -59q-9 0 -27 2q0 -10 1 -9q58 -55 128 -81zM441 212v-145q0 -46 40 -67h-99q-290 0 -364 349q65 -6 125 -6q117 0 175 26v45h-271q-47 0 -47 49v91q25 -43 51 -43h687q40 0 40 -48v-88q-26 39 -52 39
h-285v-118q28 70 126 91q6 1 17 1q31 0 54 -21l114 -108l-25 1q-132 0 -132 -196q0 -33 14 -33q22 0 51 62q14 30 14 53q0 22 -16 34q103 0 103 -77q0 -41 -34.5 -71.5t-86.5 -30.5q-35 0 -73 19q-69 32 -69 117q0 56 34.5 90.5t109.5 50.5q-160 0 -201 -66z" />
    <glyph glyph-name="asa_m_r" 
d="M347 126v289h-141q-32 -19 -32 -40q0 -19 29 -37q43 -23 43 -63q0 -17 -7 -37q55 -31 108 -112zM507 0h-122q-38 0 -38 41v81q-71 45 -116 45q-25 0 -42.5 -14.5t-17.5 -41.5q0 -31 43 -47q-36 -27 -80 -27q-37 0 -67 28q-33 31 -33 76q0 53 33 85t103 32q33 0 65 -18
q-7 45 -59 45q-11 0 -25.5 -2t-25.5 -2q-41 0 -63.5 21t-22.5 55q0 28 18 58h-12q-47 0 -45 49v90q26 -43 80 -43h380q39 0 39 -47v-86q-15 24 -31 33v-341q0 -45 39 -70zM715 644q-28 24 -59 24q-54 0 -119 -66q-45 -44 -88 -44q-62 0 -124 86q23 -19 49 -19q19 0 40.5 10
t44.5 30q24 20 42.5 33.5t34 22t28 12t22.5 3.5q17 0 33 -5t32 -16.5t31.5 -29t32.5 -41.5z" />
    <glyph glyph-name="asa_wa_ukaar" horiz-adv-x="709" 
d="M318 42v253q-28 -59 -102 -59q-9 0 -27 2q0 -120 129 -196zM230 -59q-126 0 -230 93l102 66q58 -88 195 -116l15 -34q-42 -9 -82 -9zM441 204v-137q0 -46 40 -67q-128 1 -135 2q-258 17 -328 347q65 -6 125 -6q117 0 175 26v45h-271q-47 0 -47 49v91q25 -43 51 -43h617
q40 0 40 -48v-88q-26 39 -52 39h-215v-120q21 -94 115 -98l18 -1q93 0 93 20q0 24 -65 46q-24 7 -40 7q-29 0 -39 -23q-4 22 -4 41q0 78 70 78q40 0 71 -42.5t31 -96.5q0 -64 -31.5 -102t-93.5 -38q-78 0 -125 119z" />
    <glyph glyph-name="asa_wa_uukaar" horiz-adv-x="785" 
d="M318 42v253q-28 -59 -102 -59q-9 0 -27 2q0 -120 129 -196zM230 -59q-126 0 -230 93l101 66q59 -88 195 -116l16 -34q-42 -9 -82 -9zM441 212v-145q0 -46 39 -67q-128 1 -134 2q-258 17 -329 347q66 -6 126 -6q117 0 175 26v45h-271q-47 0 -47 49v91q25 -43 51 -43h693
q39 0 39 -48v-88q-25 39 -51 39h-291v-118q28 70 126 91q6 1 17 1q31 0 54 -21l113 -108l-24 1q-132 0 -132 -196q0 -33 14 -33q22 0 50 62q15 30 15 53q0 22 -16 34q102 0 102 -77q0 -41 -34 -71.5t-86 -30.5q-36 0 -74 19q-68 32 -68 117q0 56 34.5 90.5t109.5 50.5
q-160 0 -201 -66z" />
    <glyph glyph-name="bn_dr_u" horiz-adv-x="563" 
d="M206 -101q-7 0 -28.5 3t-40.5 29q-10 15 -10 31q0 18 6.5 22.5t26.5 4.5q10 0 24 -1t29 -1h36q21 0 26.5 -7.5t5.5 -16.5q0 -8 -6 -23t-24.5 -28t-44.5 -13zM329 414v-174q76 41 118 136q72 -22 89 -133q3 -19 3 -35q0 -37 -15.5 -70.5t-43.5 -59.5t-67.5 -41t-87.5 -15
t-103 14q-150 39 -155 162t-68 163q25 2 38 2q149 0 149 -124q0 -13 -0.5 -25t-0.5 -23q0 -103 17 -108q3 -1 9 -1q30 0 107 22q96 27 152 146q-44 -45 -167 -47l-85 73v138h-225v97h581v-97h-245zM543 -103q-54 77 -94 77q-8 0 -15 -3q-36 -15 -36 -33q0 -15 24 -30
q23 -15 121 -11zM543 -104q-54 -72 -155 -62q-29 5 -48.5 11.5t-33 16.5t-21 21.5t-7.5 20.5q0 18 9.5 33t25.5 28t37 23t45 17t49.5 11t48.5 4q29 0 54.5 -4.5t48 -16t43.5 -30t41 -46.5q43 -59 100 -59q25 0 50 10q-101 -47 -168 -47q-74 0 -110 56q-4 7 -9 13z" />
    <glyph glyph-name="bn_dr_uu" horiz-adv-x="566" 
d="M325 22q-48 0 -103 14q-150 39 -155 162t-68 163q25 2 38 2q149 0 149 -124l-1 -48q0 -103 17 -108q3 -1 9 -1q180 0 259 168q-44 -45 -167 -47l-85 73v138h-170q-48 0 -48 49v92q25 -44 52 -44h477q40 0 40 -48v-89q-26 40 -52 40h-188v-174q76 41 118 136
q72 -22 89 -133q3 -19 3 -35q0 -76 -60.5 -131t-153.5 -55zM686 -192q-70 0 -105 54.5t-67 54.5q-28 0 -53 -39q-42 -64 -100 -64q-20 0 -40 7q-70 23 -70 88q0 91 102 91q28 0 70 -7q-42 -37 -42 -62q0 -12 10.5 -22.5t22.5 -10.5q23 0 47 40q30 51 90 51q88 0 152 -90
q40 -55 95 -55q23 0 47 9q-95 -45 -159 -45zM163 -100q-7 0 -28.5 3t-40.5 29q-10 15 -10 31q0 18 6.5 22.5t26.5 4.5q10 0 24 -1t29 -1h36q21 0 26.5 -7.5t5.5 -16.5q0 -8 -6 -23t-24.5 -28t-44.5 -13z" />
    <glyph glyph-name="bn_dr_r" horiz-adv-x="566" 
d="M325 22q-48 0 -103 14q-150 39 -155 162t-68 163q25 2 38 2q149 0 149 -124l-1 -48q0 -103 17 -108q3 -1 9 -1q180 0 259 168q-44 -45 -167 -47l-85 73v138h-170q-48 0 -48 49v92q25 -44 52 -44h477q40 0 40 -48v-89q-26 40 -52 40h-188v-174q76 41 118 136
q72 -22 89 -133q3 -19 3 -35q0 -76 -60.5 -131t-153.5 -55zM225 -90q-7 0 -28.5 3t-40.5 29q-10 15 -10 31q0 18 6.5 22.5t26.5 4.5q10 0 24 -1t29 -1h36q21 0 26.5 -7.5t5.5 -16.5q0 -8 -6 -23t-24.5 -28t-44.5 -13zM533 -374q-41 0 -74 20q-42 26 -102.5 97t-121.5 71
q-16 0 -35 -6v82l22 -1q122 0 123 79h126q-36 -104 -165 -121q12 3 24 3q74 0 148 -96q66 -85 142 -85q24 0 50 8q-77 -51 -137 -51zM345 -35v73l125 34l1 -104z" />
    <glyph glyph-name="bn_dhr_u" horiz-adv-x="503" 
d="M138 -119q-7 0 -28 3t-40 29q-10 15 -10 31q0 18 8 24q5 3 23 3q10 0 25 -1t30 -1h36q21 0 26.5 -7.5t5.5 -16.5q0 -31 -29 -49q-21 -15 -47 -15zM183 414l1 -342q0 -27 14 -46q149 66 219 238q1 5 1 8q0 12 -14 12q-11 0 -38 -11q-40 -18 -40 -53q0 -16 9 -37
q-18 -3 -31 -3q-36 0 -55 19.5t-19 59.5q0 50 49 81q41 16 73 16q36 0 62 -19q32 -23 45.5 -58t13.5 -84q0 -195 -276 -195h-94q-40 2 -40 43l-1 371h-69v97h517v-97h-327zM495 -123q-54 77 -94 77q-8 0 -15 -3q-36 -15 -36 -33q0 -15 24 -30q23 -15 121 -11zM495 -124
q-54 -72 -155 -62q-29 5 -48.5 11.5t-33 16.5t-21 21.5t-7.5 20.5q0 18 9.5 33t25.5 28t37 23t45 17t49.5 11t48.5 4q29 0 54.5 -4.5t48 -16t43.5 -30t41 -46.5q43 -59 100 -59q25 0 50 10q-101 -47 -168 -47q-74 0 -110 56q-4 7 -9 13z" />
    <glyph glyph-name="bn_dhr_uu" 
d="M148 -119q-7 0 -28 3t-40 29q-10 15 -10 31q0 18 8 24q5 3 23 3q10 0 25 -1t30 -1h36q21 0 26.5 -7.5t5.5 -16.5q0 -31 -29 -49q-21 -15 -47 -15zM413 -7q-42 -37 -42 -62q0 -6 3 -12t7.5 -11t10.5 -7.5t12 -2.5q23 0 47 40q30 51 90 51q44 0 82.5 -22.5t69.5 -67.5
q40 -55 95 -55q23 0 47 9q-95 -45 -159 -45q-70 0 -104 54q-36 55 -68 55q-28 0 -53 -39q-42 -64 -100 -64q-9 0 -19 1.5t-21 5.5q-70 23 -70 88q0 46 24.5 68.5t77.5 22.5q16 0 33 -2t37 -5zM197 0h-94q-40 2 -40 43l-1 371h-16q-47 0 -46 50v90q25 -43 51 -43h413
q39 0 39 -47v-87q-26 37 -52 37h-268l1 -342q0 -27 14 -46q149 66 219 238q1 5 1 8q0 12 -14 12q-11 0 -38 -11q-40 -18 -40 -53q0 -16 9 -37q-18 -3 -31 -3q-36 0 -55 19.5t-19 59.5q0 50 49 81q41 16 73 16q36 0 62 -19q32 -23 45.5 -58t13.5 -84q0 -195 -276 -195z" />
    <glyph glyph-name="bn_dhr_r" 
d="M148 -119q-7 0 -28 3t-40 29q-10 15 -10 31q0 18 8 24q5 3 23 3q10 0 25 -1t30 -1h36q21 0 26.5 -7.5t5.5 -16.5q0 -31 -29 -49q-21 -15 -47 -15zM197 0h-94q-40 2 -40 43l-1 371h-16q-47 0 -46 50v90q25 -43 51 -43h413q39 0 39 -47v-87q-26 37 -52 37h-268l1 -342
q0 -27 14 -46q149 66 219 238q1 5 1 8q0 12 -14 12q-11 0 -38 -11q-40 -18 -40 -53q0 -16 9 -37q-18 -3 -31 -3q-36 0 -55 19.5t-19 59.5q0 50 49 81q41 16 73 16q36 0 62 -19q32 -23 45.5 -58t13.5 -84q0 -195 -276 -195zM447 -396q-41 0 -75 20q-41 25 -102 96t-121 71
q-17 0 -35 -5l-1 81l22 -1q122 0 123 80h127q-37 -105 -166 -121q12 2 24 2q74 0 149 -96q65 -85 142 -85q23 0 49 9q-77 -51 -136 -51zM259 -57v72l125 34l1 -103z" />
    <glyph glyph-name="bn_y_u" horiz-adv-x="525" 
d="M190 -62q-30 0 -56.5 23.5t-26.5 54.5q0 13 7 25q8 15 19 15q4 0 10.5 -3t14.5 -7.5t17 -10t18 -9.5q14 -8 25.5 -13.5t22.5 -10.5q13 -5 13 -17q0 -19 -22 -34q-19 -13 -42 -13zM466 414v-347q0 -46 40 -67h-102q-285 -4 -349 216h11q116 0 206 71q-22 24 -50 24
q-17 0 -37 -9q-43 -18 -72 -18t-45 21q-15 18 -15 47t21 62h-81v97h546v-97h-73zM224 414q-30 -19 -30 -33q0 -18 44 -24q79 -14 79 -158q0 -4 1 -8q-47 -53 -108 -54q22 -56 134 -106q-1 4 -1 383h-119zM495 -123q-54 77 -94 77q-8 0 -15 -3q-36 -15 -36 -33q0 -15 24 -30
q23 -15 121 -11zM495 -124q-54 -72 -155 -62q-29 5 -48.5 11.5t-33 16.5t-21 21.5t-7.5 20.5q0 18 9.5 33t25.5 28t37 23t45 17t49.5 11t48.5 4q29 0 54.5 -4.5t48 -16t43.5 -30t41 -46.5q43 -59 100 -59q25 0 50 10q-101 -47 -168 -47q-74 0 -110 56q-4 7 -9 13z" />
    <glyph glyph-name="bn_y_uu" horiz-adv-x="525" 
d="M425 -25q-43 -36 -43 -61q0 -7 3 -12.5t8 -10.5t11 -7.5t12 -2.5q23 0 46 40q31 51 91 51q44 0 82 -22.5t70 -67.5q40 -56 94 -56q23 0 47 10q-95 -45 -159 -45q-70 0 -104 53q-35 56 -68 56q-27 0 -52 -39q-43 -64 -100 -64q-10 0 -20 1.5t-20 5.5q-71 23 -71 88
q0 46 25 68.5t78 22.5q15 0 32.5 -2t37.5 -6zM190 -62q-30 0 -56.5 23.5t-26.5 54.5q0 13 7 25q8 15 19 15q4 0 10.5 -3t14.5 -7.5t17 -10t18 -9.5q14 -8 25.5 -13.5t22.5 -10.5q13 -5 13 -17q0 -19 -22 -34q-19 -13 -42 -13zM466 414v-347q0 -46 40 -67h-102
q-285 -4 -349 216h11q116 0 206 71q-22 24 -50 24q-17 0 -37 -9q-43 -18 -72 -18t-45 21q-15 18 -15 47t21 62h-81v97h546v-97h-73zM224 414q-30 -19 -30 -33q0 -18 44 -24q79 -14 79 -158q0 -4 1 -8q-47 -53 -108 -54q22 -56 134 -106q-1 4 -1 383h-119z" />
    <glyph glyph-name="bn_y_r" horiz-adv-x="528" 
d="M404 0q-285 -4 -349 216h11q116 0 206 71q-22 24 -50 24q-17 0 -37 -9q-43 -18 -72 -18t-45 21q-15 18 -15 47t21 64h-27q-47 0 -47 47v91q25 -43 80 -43h407q39 0 39 -48v-87q-25 40 -51 40h-9v-349q0 -46 40 -67h-102zM193 -77q-30 0 -56.5 23.5t-26.5 54.5q0 13 7 25
q8 15 19 15q4 0 10.5 -3t14.5 -7.5t17 -10t18 -9.5q14 -8 25.5 -13.5t22.5 -10.5q13 -5 13 -17q0 -19 -22 -34q-19 -13 -42 -13zM344 31q-1 4 -1 385h-119q-30 -21 -30 -35q0 -18 44 -24q79 -14 79 -158q0 -4 1 -8q-47 -53 -108 -54q22 -56 134 -106zM530 -372q-41 0 -74 20
q-42 25 -102.5 96t-121.5 71q-17 0 -35 -6v82l22 -1q122 0 122 80l127 -1q-36 -104 -165 -120q11 2 23 2q74 0 149 -96q65 -85 142 -85q24 0 50 9q-78 -51 -137 -51zM342 -33v72l125 34l1 -104z" />
    <glyph glyph-name="bn_reph" horiz-adv-x="0" 
d="M-153 625q-28 24 -60 24q-54 0 -119 -66q-44 -44 -88 -44q-61 0 -123 86q22 -19 49 -19q19 0 40.5 10t44.5 30t42 33.5t34.5 22t27.5 12t23 3.5q17 0 33 -5t31.5 -16.5t31.5 -29t33 -41.5z" />
    <glyph glyph-name="bn_ba_phala" horiz-adv-x="1" 
d="M-330 -273q-126 0 -130 1q-188 14 -240 196q65 -6 120 -6q69 0 97 14v68h123v-227q5 -28 30 -46zM-483 -217v99q-17 -17 -53 -17l-16 1q0 -49 69 -83z" />
    <glyph glyph-name="bn_ya_phala" horiz-adv-x="272" 
d="M119 414q-4 -12 -4 -25q0 -47 60 -91q51 -38 74 -76t23 -79q0 -25 -5.5 -49.5t-15.5 -48t-24.5 -43.5t-32 -35t-38 -23.5t-42.5 -8.5q-48 0 -72 60q-7 17 -7 36q0 52 60 103q15 -47 32.5 -71.5t35.5 -24.5q20 0 40 27q6 8 6 18q0 39 -98 105q-57 38 -57 94t57 132h-117
v97h290v-97h-165z" />
    <glyph glyph-name="bn_ra_phala" horiz-adv-x="0" 
d="M-146 -148q-40 0 -40 33v170l122 -34v-113q0 -36 40 -56h-122zM-400 -10q-57 0 -84 -13t-27 -32q0 -6 2 -10.5t12 -4.5q16 0 48 11t82 33q38 17 72 17q85 0 136 -112q-19 32 -57 32q-33 0 -79 -25q-76 -39 -130 -39q-30 0 -57 11.5t-48 30t-33 42t-12 46.5
q0 42 25.5 65.5t74.5 23.5q66 0 84 -76h-9z" />
    <glyph glyph-name="dottedcircle" unicode="&#x25cc;" horiz-adv-x="498" 
d="M317 363l17 24q16 21 31 29.5t33 8.5q9 0 20 -6t20.5 -15.5t16 -21.5t6.5 -23v-5q0 -16 -10 -29t-29 -21.5t-46 -13.5q-9 -2 -18 -3q-4 39 -33 68zM358 265q9 -1 17 -3q26 -5 45 -15t29.5 -24t10.5 -31q0 -13 -5.5 -25t-14 -22t-19.5 -16t-22 -6q-9 0 -17.5 2t-17.5 7.5
t-19.5 16.5t-23.5 30q-3 4 -5 8l9 9q30 28 33 69zM285 170l3 -8q5 -11 8.5 -18.5t5.5 -14t3 -12.5t1 -14q0 -16 -5.5 -27.5t-14 -20t-20 -12.5t-24.5 -4q-14 0 -25.5 5t-20 13.5t-12.5 20.5t-4 26q0 16 8 37q5 14 13 31q20 -9 44 -9q21 0 40 7zM178 185l-22 -31
q-14 -17 -28.5 -25.5t-34.5 -8.5q-13 0 -24.5 5.5t-20 15.5t-13.5 22t-5 25q0 17 7 29t23 20t41 13q15 3 34 6q5 -35 31 -60q6 -6 12 -11zM133 282q-43 3 -69 20q-32 21 -32 58q0 13 5 24.5t13 21t19 15t24 5.5q19 0 33.5 -9t28.5 -26q10 -14 19 -26q1 -1 1 -2q-4 -4 -9 -8
q-30 -31 -33 -73zM201 379l-6 11l-9 20q-5 9 -7 18t-2 16q0 16 5 28.5t13.5 21t20.5 13t26 4.5q12 0 23.5 -4.5t20.5 -13t14.5 -21.5t5.5 -28q0 -9 -2 -18t-5.5 -17t-6 -14t-4.5 -9l-2 -5q-19 7 -41 7q-24 0 -44 -9z" />
    <glyph glyph-name="zwnj" unicode="&#x200c;" horiz-adv-x="0" 
 />
    <glyph glyph-name="zwj" unicode="&#x200d;" horiz-adv-x="0" 
 />
    <glyph glyph-name="indianrupeesign" unicode="&#x20b9;" horiz-adv-x="555" 
d="M336 -20q-113 0 -292 230q17 -1 35 -1q209 18 254 89.5t43 86.5q0 17 -38 24.5t-98 12.5t-92 9.5t9 46.5q47 24 93 24q29 0 78 -8q120 -37 120 -172q0 -71 -50 -113q-54 -44 -159 -44q-52 0 -120 10q101 -75 182 -75q15 0 28 3q89 19 103 63q22 -44 22 -79q0 -66 -78 -99
q-19 -8 -40 -8zM520 367q-25 39 -51 39h-382q-47 0 -47 48v90q25 -42 51 -42h389q40 0 40 -48v-87zM520 217q-25 40 -51 40h-382q-47 0 -47 48v90q25 -43 51 -43h390q39 0 39 -47v-88z" />
    <glyph glyph-name="bn_ka.half" horiz-adv-x="680" 
d="M477 0h-98q-287 0 -362 350q65 -6 125 -6q116 0 174 27v44h-270q-46 0 -46 49v90q25 -43 51 -43h589q40 0 40 -47v-88q-26 39 -51 39h-191v-43q224 -22 224 -172q0 -108 -111 -108q-43 0 -99 15q82 35 82 116q0 57 -96 111v-264q0 -45 39 -70zM316 43v252
q-28 -59 -102 -59q-9 0 -26 2q0 -119 128 -195zM589 -174l-58 -26l-164 106l96 40z" />
    <glyph glyph-name="bn_kha.half" 
d="M553 -174l-58 -26l-164 106l96 40zM477 0h-99q-287 0 -362 247l38 -1q184 0 213 127q-17 26 -52 30q-24 -99 -105 -101q-45 0 -71.5 25.5t-26.5 74.5q0 61 72 96q8 -64 41 -64q24 0 37.5 16t13.5 39q0 6 -2 20q85 -37 103 -145q6 -30 6 -55q0 -93 -82 -124l-1 -18
q0 -84 115 -135v523q22 -44 49 -44h96q40 0 40 -47v-87q-25 38 -51 38h-12v-344q0 -46 40 -71z" />
    <glyph glyph-name="bn_ga.half" horiz-adv-x="508" 
d="M579 -174l-58 -26l-164 106l96 40zM484 0h-122q-39 0 -39 41v318q-47 32 -85 32q-43 0 -72 -43q95 -26 95 -100q0 -49 -25.5 -83.5t-69.5 -53.5q-17 -6 -31 -6q-63 0 -103 120q56 7 85 23q31 17 31 41q0 13 -5 21q-7 12 -21 12q-31 0 -102 -41q-3 27 -3 51q0 169 151 169
q102 0 155 -108l-1 161q23 -43 49 -43h98q39 0 39 -47v-88q-25 39 -51 39h-12v-345q0 -46 39 -70z" />
    <glyph glyph-name="bn_gha.half" horiz-adv-x="523" 
d="M589 -174l-58 -26l-164 106l96 40zM342 31q-1 5 -1 384h-107q-59 -31 -59 -76q0 -28 23 -62q62 20 73 49l41 -102q-30 -33 -85 -39q-1 -10 -1 -18q0 -84 116 -136zM503 0h-99q-287 0 -362 247q77 9 128 21q-117 34 -117 104q0 20 9 43h-16q-47 0 -46 49v90q25 -43 79 -43
h404q40 0 40 -47v-88q-26 39 -51 39h-9v-344q0 -46 40 -71z" />
    <glyph glyph-name="bn_nga.half" horiz-adv-x="365" 
d="M-1 346q8 1 16.5 1.5t16.5 0.5q133 0 133 -112v-19.5v-18.5q0 -97 15 -101q2 -1 8 -1q24 0 96 20q86 24 135 131q-38 -41 -149 -42l-75 65v70q-132 26 -132 98q0 61 92 61h9.5t9.5 -1q-11 -7 -17.5 -18.5t-6.5 -28.5t10.5 -32.5t32.5 -31.5v6.5v6.5q0 27 7 47.5t19.5 35
t29 21.5t34.5 7t35.5 -6t31.5 -18t22.5 -29t8.5 -37q0 -14 -4.5 -26t-15 -22t-27.5 -17.5t-40 -11.5l-1 -106q69 36 107 121q64 -20 79 -119l2 -16t1 -16q0 -32 -14 -62.5t-39.5 -53t-61 -36.5t-78.5 -14q-42 0 -91 13q-135 34 -139 145t-60 146zM293 367q11 3 20.5 8.5
t15.5 11.5t9.5 13t3.5 12t-2 10.5t-6 9.5t-9 7t-11 3q-5 0 -9.5 -1.5t-7.5 -6.5t-4.5 -13.5t-1.5 -23.5q0 -6 0.5 -13.5t1.5 -16.5z" />
    <glyph glyph-name="bn_ca.half" horiz-adv-x="257" 
d="M157 130q89 49 89 128v14q-17 -5 -31 -5q-49 0 -65 52v-159q0 -17 7 -30zM150 414v-35q37 -30 106 -30q47 0 112 14q3 -28 3 -53q0 -209 -230 -209h-58q-32 3 -32 36v277h-63v97h386v-97h-224z" />
    <glyph glyph-name="bn_cha.half" horiz-adv-x="633" 
d="M600 -207l-58 -25l-164 105l96 40zM200 182q114 41 114 117v10q-17 -2 -31 -2q-78 0 -91 68v-168q0 -14 8 -25zM448 -54q-127 0 -382 178h40q163 0 245 25q95 28 126 97q1 10 1 20q0 47 -34 76q6 -25 6 -46q0 -140 -266 -140q-34 0 -73 2h2h-7q-41 0 -41 29v227h-17
q-48 0 -48 49v94q26 -45 53 -45h538q41 0 41 -49v-90q-26 41 -53 41h-379q39 -36 107 -36q50 0 117 20q5 -11 9 -22q167 -1 167 -123q0 -69 -77 -116q-68 -41 -208 -41q-68 0 -148 9q149 -54 220 -54q43 0 68.5 15.5t33.5 39.5q65 -58 65 -97q0 -23 -27 -42q-30 -21 -79 -21
z" />
    <glyph glyph-name="bn_ja.half" horiz-adv-x="734" 
d="M565 -174l-58 -26l-164 106l96 40zM626 -4q-13 0 -28.5 6.5t-29 19.5t-22.5 31.5t-9 43.5q0 63 65 163q-22 -2 -34 -2q-154 0 -190 157h-1q-40 -22 -60 -53q-21 -34 -21 -80q0 -52 32 -52h3q44 10 89 59q93 -48 94 -127q0 -28 -13 -56t-38 -51t-62 -37.5t-84 -14.5
q-49 0 -105 15q-139 36 -144 167t-68 173q24 2 37 2q150 0 150 -131q0 -14 -0.5 -27t-0.5 -25q0 -109 17 -114q3 -1 10 -1q28 0 107 24q97 29 146 113q-73 -24 -124 -24q-64 0 -101 38t-37 105q0 42 15 97h-171q-48 0 -48 48v93q26 -44 53 -44h640q41 0 41 -49v-89
q-26 41 -53 41h-291q33 -62 99 -62q69 0 107 34l96 -84q-13 -23 -47 -35q-29 -43 -29 -74q0 -21 13 -36.5t29 -15.5q18 0 40 21q17 -46 17 -79q0 -53 -42 -76q-25 -12 -47 -12z" />
    <glyph glyph-name="bn_jha.half" horiz-adv-x="728" 
d="M589 -174l-58 -26l-164 106l96 40zM382 -4q-29 0 -36 1q-258 21 -329 352q66 -6 126 -6q117 0 175 26v46h-271q-47 0 -47 48v91q25 -43 51 -43h349q40 0 41 -47v-199q80 -13 93 -122v411q26 -43 53 -43h101q40 0 40 -48v-87q-26 39 -52 39h-19v-349q0 -46 39 -70h-122
q-40 0 -40 42v41q-27 55 -61 55q-15 0 -32 -11v-57q0 -46 40 -70h-99zM318 39v254q-28 -59 -102 -59q-9 0 -27 1v-4q0 -116 129 -192z" />
    <glyph glyph-name="bn_nya.half" horiz-adv-x="716" 
d="M589 -174l-58 -26l-164 106l96 40zM576 159q24 0 38 11q16 14 16 41v12q-16 -5 -29 -5q-49 0 -69 71q124 35 124 57q0 14 -24 14q-32 0 -78 -19q-39 -16 -71 -38v-108q55 -36 93 -36zM521 0h-117q-38 0 -38 40v43q-12 8 -26 8q-30 0 -73 -31q-68 -49 -118 -49
q-16 0 -30 6q-45 16 -76 60t-31 95q0 52 24 81t67 29q61 0 77 -94h-10q-50 0 -76 -17q-24 -15 -24 -40q0 -7 2 -12t11 -5q28 0 119 54q35 21 65 21q58 0 99 -76v340q-92 -9 -121 -55q-22 -37 -22 -62q0 -24 19 -37q-33 -7 -59 -7q-44 0 -67.5 21t-23.5 62q0 65 88 114
q39 22 91 22q82 0 201 -56l11 -3v-117q12 41 35 64q30 31 82 31q45 0 73 -34q26 -33 26 -82q0 -64 -58 -87q24 -2 40 -22q19 -22 19 -55q0 -11 -2 -23q-5 -26 -31 -46q-28 -22 -67 -22q-36 0 -70.5 22t-46.5 62v-76q0 -44 38 -67z" />
    <glyph glyph-name="bn_tta.half" horiz-adv-x="520" 
d="M377 -120l-58 -26l-164 106l96 40zM204 52h-98q-41 2 -41 31v332h-17q-48 0 -48 49v92q26 -44 53 -44h358q7 12 7 26q0 21 -11 36q-15 18 -44 18q-36 0 -117 -29q-59 -21 -106 -21q-54 0 -85 25q-30 24 -30 61q0 50 30 78q29 27 71 27q20 0 35 -9q-46 -8 -67 -23
q-19 -13 -19 -35q0 -14 12 -23.5t31 -9.5q13 0 27 5l125 39q42 13 75 13q30 0 52.5 -10t37.5 -26t22.5 -36t7.5 -38q0 -38 -21 -68h34q41 0 41 -48v-89q-26 40 -52 40h-277v-311q0 -17 11 -30q157 59 229 216q1 4 1 7q0 11 -14 11q-13 0 -39 -10q-42 -16 -42 -48
q0 -15 10 -34q-18 -2 -33 -2q-36 0 -56 17.5t-20 53.5q0 45 51 73q42 14 78 14q33 0 61 -17q33 -21 47 -52.5t14 -74.5q0 -176 -284 -176z" />
    <glyph glyph-name="bn_ttha.half" horiz-adv-x="566" 
d="M478 -174l-58 -26l-164 106l96 40zM224 23q54 0 124 84q49 57 49 117q0 24 -7 47q-26 86 -71 131q25 -69 25 -121q0 -120 -142 -122q-10 -49 -10 -81q0 -55 32 -55zM281 -13q-104 0 -153 39q-34 26 -51 58t-17 72q0 28 8 59q52 -25 89 -25q21 0 36.5 7t26.5 18.5
t16.5 24.5t5.5 24q0 38 -13 73q-8 23 -48 77h-134q-47 0 -47 48v92q25 -44 52 -44h65q-29 57 -29 108q0 72 74 121q36 23 70 23q14 0 32 -6t33 -17.5t25.5 -28.5t10.5 -38q0 -56 -67 -142q-4 48 -29.5 85t-57.5 37q-13 0 -22 -5q-11 -6 -11 -16q0 -21 34 -62q23 -27 55 -59
h290q41 0 41 -48v-87q-26 39 -52 39h-153q45 -30 90 -69q65 -56 65 -167q0 -100 -73 -146q-72 -45 -162 -45z" />
    <glyph glyph-name="bn_dda.half" horiz-adv-x="570" 
d="M522 -174l-58 -26l-164 106l96 40zM325 22q-48 0 -103 14q-150 39 -155 162t-68 163q25 2 38 2q149 0 149 -124q0 -13 -0.5 -25t-0.5 -23q0 -103 17 -108q3 -1 9 -1q30 0 107 22q96 27 152 146q-44 -45 -167 -47l-85 73v138h-170q-48 0 -48 49v92q25 -44 52 -44h477
q40 0 40 -48v-89q-26 40 -52 40h-188v-174q76 41 118 136q72 -22 89 -133q3 -19 3 -35q0 -37 -15.5 -70.5t-43.5 -59.5t-67.5 -41t-87.5 -15z" />
    <glyph glyph-name="bn_ddha.half" 
d="M442 -174l-57 -26l-165 106l96 40zM197 0h-94q-40 2 -40 43l-1 371h-16q-47 0 -46 50v90q25 -43 51 -43h413q39 0 39 -47v-87q-26 37 -52 37h-268l1 -342q0 -27 14 -46q149 66 219 238q1 5 1 8q0 12 -14 12q-11 0 -38 -11q-40 -18 -40 -53q0 -16 9 -37q-18 -3 -31 -3
q-36 0 -55 19.5t-19 59.5q0 50 49 81q41 16 73 16q36 0 62 -19q32 -23 45.5 -58t13.5 -84q0 -195 -276 -195z" />
    <glyph glyph-name="bn_nna.half" horiz-adv-x="264" 
d="M332 351q-56 50 -106 50q-21 0 -40 -8q-72 -27 -85 -79v-3q0 -9 14 -9q15 0 45 11q66 24 82 40q21 -34 21 -64q0 -35 -22 -58q-24 -23 -65 -23q-23 0 -52 7q-33 17 -55 56q-24 42 -24 87q0 35 17 68q44 85 132 85q52 0 88 -41q30 -33 50 -99v-20z" />
    <glyph glyph-name="bn_ta.half" horiz-adv-x="550" 
d="M500 -174l-58 -26l-164 106l96 40zM550 374q-26 40 -52 40h-449q-48 0 -48 48v92q26 -43 52 -43h456q41 0 41 -49v-88zM311 22q-41 0 -87 12q-151 39 -156 163t-68 164l38 2q149 0 149 -125v-48q0 -109 20 -109q13 0 45 15q128 62 182 125q36 42 36 82q0 20 -18 20
q-17 0 -54 -21q-67 -39 -67 -75q0 -11 7 -23q-83 59 -83 107q0 34 35 58q30 22 68 22q25 0 53 -8q95 -26 120 -120q5 -20 5 -40q0 -72 -71 -141q-62 -60 -154 -60z" />
    <glyph glyph-name="bn_tha.half" horiz-adv-x="518" 
d="M573 -174l-58 -26l-164 106l96 40zM396 0q-287 0 -361 247q20 -1 39 -1q179 0 212 116q-28 41 -85 41q-86 0 -86 -53q0 -10 4 -24q-52 1 -80 21t-28 58q0 33 30 67q45 45 102 45q67 0 109 -51q26 -32 39 -82q11 -42 11 -76q0 -91 -82 -123q-2 -10 -2 -18q0 -84 116 -135
q-1 4 -1 10v512q23 -43 49 -43h97q39 0 39 -47v-89q-25 39 -51 39h-12v-343q0 -46 39 -71h-98z" />
    <glyph glyph-name="bn_da.half" horiz-adv-x="300" 
d="M300 415h-160v-88q-9 30 97 70q13 1 20 0q18 -2 34 -18l88 -102q-9 1 -17 1q-72 -1 -93 -66q-7 -44 -7 -69q0 -26 9 -26q15 0 35 48q10 24 10 41q0 18 -12 28q36 0 53.5 -15t17.5 -46q0 -44 -40 -67q-20 -12 -42 -12q-25 0 -51 14q-47 25 -55 78q-2 54 19.5 84.5
t53.5 33.5q-84 0 -143 -95q5 -21 21 -34h-71q-24 0 -24 32v208h-15q-28 0 -28 37v92q15 -33 47 -33h253v-96z" />
    <glyph glyph-name="bn_dha.half" horiz-adv-x="512" 
d="M569 -174l-58 -26l-164 106l96 40zM322 34v222q-28 -52 -102 -52q-13 0 -27 2v-4q0 -101 129 -168zM386 0q-289 -3 -364 304q68 -5 124 -5h22q-37 7 -65 29q-45 36 -45 91q0 39 33 77q36 41 86 41q53 0 87 -26.5t34 -64.5q0 -54 -111 -64q12 14 12 38q0 31 -11 51
q-11 19 -23 20q-18 0 -18 -33q0 -51 26 -85q28 -37 97 -66l-12 -1q37 6 64 16v232q23 -43 49 -43h101q40 0 40 -48v-88q-26 39 -51 39h-17v-346q0 -43 41 -68h-99z" />
    <glyph glyph-name="bn_na.half" horiz-adv-x="242" 
d="M338 239q-47 47 -99 47q-25 0 -42 -11t-17 -32q0 -26 34 -46q-28 -18 -65 -18q-22 0 -44 10q-25 12 -40 31q-18 21 -18 48q0 48 32 74.5t100 33.5q99 0 159 -109v-28zM-18 511h321v-97h-321v97z" />
    <glyph glyph-name="bn_pa.half" horiz-adv-x="524" 
d="M589 -174l-58 -26l-164 106l96 40zM208 311l124 59q-64 32 -116 32q-30 0 -55 -10q47 -28 47 -81zM501 0h-124q-41 0 -41 42v204q-68 -33 -165 -87q-25 -14 -48 -14q-61 0 -102 103q68 7 98 26q25 16 25 41t-21 42q-33 -14 -63 -48l-45 122q61 72 153 83q6 1 13 1
q83 0 154 -144l1 1v181q23 -42 50 -42h99q41 0 41 -49v-88q-26 40 -52 40h-13v-343q0 -46 40 -71z" />
    <glyph glyph-name="bn_pha.half" horiz-adv-x="692" 
d="M589 -174l-58 -26l-164 106l96 40zM514 0h-104q-289 1 -353 213h11q117 0 208 72q-22 23 -51 23q-17 0 -37 -8q-44 -18 -73 -18t-44.5 19.5t-15.5 48.5q0 30 21 64h-27q-48 0 -48 49v91q26 -43 81 -43h570q40 0 40 -48v-89q-25 40 -51 40h-413q-31 -20 -31 -34
q0 -18 45 -25q79 -14 79 -159l1 -8q-47 -54 -109 -55q23 -56 135 -97v315h124q84 -11 131 -37q66 -37 66 -113q0 -93 -95 -93q-35 0 -84 13q70 30 70 99q0 50 -88 98v-245q0 -47 42 -73z" />
    <glyph glyph-name="bn_ba.half" horiz-adv-x="509" 
d="M555 -174l-58 -26l-164 106l96 40zM382 0q-28 0 -36 2q-258 17 -328 347q65 -6 125 -6q117 0 175 26v46h-271q-47 0 -47 48v91q25 -43 51 -43h418q40 0 40 -48v-87q-26 39 -52 39h-16v-348q0 -46 40 -67h-99zM318 42v253q-28 -59 -102 -59q-9 0 -27 2v-4q0 -116 129 -192
z" />
    <glyph glyph-name="bn_bha.half" horiz-adv-x="552" 
d="M500 -174l-58 -26l-164 106l96 40zM552 375q-26 40 -52 40h-451q-48 0 -48 49v92q26 -44 53 -44h457q41 0 41 -48v-89zM312 14q-42 0 -87 12q-151 42 -156.5 175.5t-68.5 176.5q26 3 48 3q136 0 136 -137q0 -88 6 -129q6 -38 18 -38q26 0 128 57q71 41 105 83
q32 40 32 85q0 39 -31 60q-19 -160 -141 -168q-109 12 -109 121q0 87 88 92q-7 -22 -7 -37q0 -41 48 -41q59 0 98 69q89 -24 114 -125q5 -22 5 -44q0 -77 -71 -150q-63 -65 -155 -65z" />
    </font>
</defs>
</svg>
