<svg id="Layer_1" data-name="Layer 1" xmlns="http://www.w3.org/2000/svg" width="197.51" height="35.57" viewBox="0 0 197.51 35.57"><defs><style>.cls-1{fill:#fff;}</style></defs><title>Prime-logo</title><path class="cls-1" d="M5.89,23.89a34.58,34.58,0,0,1,8,5.88,8.13,8.13,0,0,1,2.36,5.51,10.53,10.53,0,0,1-.29,2.31q-2.78-5.23-9.86-9.95l-1.48-1A11.71,11.71,0,0,1,2.3,24.87a8,8,0,0,1-1-2.32,49.85,49.85,0,0,0,10.33-5.93A40.19,40.19,0,0,0,19.72,9q-.17,5-2.11,7A48.87,48.87,0,0,1,5.89,23.89Z" transform="translate(-1.25 -7.9)"/><path class="cls-1" d="M25.5,11.85h6.22a11.07,11.07,0,0,1,2.84.33,7.13,7.13,0,0,1,2.13.93,5.68,5.68,0,0,1,1.5,1.44,7.59,7.59,0,0,1,1,1.84,10.23,10.23,0,0,1,.51,2.14,18.37,18.37,0,0,1,.15,2.36A15,15,0,0,1,39.66,23a9.78,9.78,0,0,1-.48,2,7.49,7.49,0,0,1-.89,1.74,5.92,5.92,0,0,1-1.37,1.4A6.31,6.31,0,0,1,35,29a8.83,8.83,0,0,1-2.56.34h-.51l-.6,0-.71-.08v9.12H25.5Zm5.11,13.3h1.17a2.68,2.68,0,0,0,1.38-.33,2.55,2.55,0,0,0,.9-.89,4,4,0,0,0,.49-1.33A8.7,8.7,0,0,0,34.7,21a10.35,10.35,0,0,0-.22-2.32,4.19,4.19,0,0,0-.61-1.47,2.18,2.18,0,0,0-.93-.78,3,3,0,0,0-1.16-.22H30.61Z" transform="translate(-1.25 -7.9)"/><path class="cls-1" d="M42.45,18.12h4.68q0,.49,0,1.08t0,1.24V23a16.74,16.74,0,0,1,.59-1.88,9.15,9.15,0,0,1,.86-1.73,5.11,5.11,0,0,1,1.13-1.26,2.24,2.24,0,0,1,1.42-.5l.32,0a2.2,2.2,0,0,1,.35.08,1.89,1.89,0,0,1,.32.14,1,1,0,0,1,.26.2l-.4,7.72a4.17,4.17,0,0,0-1.08-.48,3.77,3.77,0,0,0-1-.16,2.14,2.14,0,0,0-1,.23,2.45,2.45,0,0,0-.75.61,3,3,0,0,0-.48.82,4.2,4.2,0,0,0-.25.88V38.33H42.45Z" transform="translate(-1.25 -7.9)"/><path class="cls-1" d="M57,14a3.29,3.29,0,0,1-1.22-.23,3,3,0,0,1-1-.62,2.88,2.88,0,0,1-.66-1,3.06,3.06,0,0,1-.25-1.24,3.4,3.4,0,0,1,.24-1.32,2.58,2.58,0,0,1,.66-.95,2.79,2.79,0,0,1,1-.56A3.93,3.93,0,0,1,57,7.92a4,4,0,0,1,1.24.19,2.78,2.78,0,0,1,1,.56,2.58,2.58,0,0,1,.66.95,3.4,3.4,0,0,1,.24,1.32,3.06,3.06,0,0,1-.25,1.24,2.84,2.84,0,0,1-.67,1,3.09,3.09,0,0,1-1,.62A3.37,3.37,0,0,1,57,14Zm-2.47,4.16h4.92V38.33H54.48Z" transform="translate(-1.25 -7.9)"/><path class="cls-1" d="M63.07,18.12h5q-.1.54-.17,1t-.1.91q0,.45-.05.91t0,1a8.75,8.75,0,0,1,.8-1.63,7.2,7.2,0,0,1,1.1-1.38A5.49,5.49,0,0,1,70.9,18a3,3,0,0,1,1.4-.36,2.5,2.5,0,0,1,1.1.26,3.55,3.55,0,0,1,1,.79,6.09,6.09,0,0,1,.9,1.29,9.27,9.27,0,0,1,.71,1.8,7.27,7.27,0,0,1,2.17-3,5.68,5.68,0,0,1,1.45-.86,4.09,4.09,0,0,1,1.53-.31,3.65,3.65,0,0,1,2.09.58,4.16,4.16,0,0,1,1.39,1.65,8.93,8.93,0,0,1,.77,2.57,21.09,21.09,0,0,1,.24,3.31v12.6H80.75V26.91a12,12,0,0,0-.07-1.25,6.48,6.48,0,0,0-.28-1.33,3.17,3.17,0,0,0-.56-1.06,1.17,1.17,0,0,0-.94-.43,1.11,1.11,0,0,0-.75.32,3,3,0,0,0-.63.84,5.11,5.11,0,0,0-.43,1.2,6,6,0,0,0-.16,1.39V38.33H72V26.91a12.85,12.85,0,0,0-.09-1.5,5.89,5.89,0,0,0-.29-1.3,2.4,2.4,0,0,0-.56-.92,1.22,1.22,0,0,0-.89-.35,1.5,1.5,0,0,0-.77.23,2.55,2.55,0,0,0-.71.64,3.42,3.42,0,0,0-.51,1,3.61,3.61,0,0,0-.2,1.22V38.33H63.07Z" transform="translate(-1.25 -7.9)"/><path class="cls-1" d="M100.53,37.52a12.69,12.69,0,0,1-2.31,1,8.71,8.71,0,0,1-2.59.38,6.27,6.27,0,0,1-5.15-2.62,10.47,10.47,0,0,1-1.61-3.42,17.91,17.91,0,0,1-.6-4.94,14,14,0,0,1,.31-3,12.34,12.34,0,0,1,.84-2.54,9.68,9.68,0,0,1,1.24-2,8.3,8.3,0,0,1,1.53-1.48,6.56,6.56,0,0,1,1.68-.91,5,5,0,0,1,1.7-.31,5.32,5.32,0,0,1,2.31.48,4.84,4.84,0,0,1,1.67,1.28,5.56,5.56,0,0,1,1,1.87,7.39,7.39,0,0,1,.34,2.27,8.94,8.94,0,0,1-.3,2.49,5.64,5.64,0,0,1-.81,1.73,4,4,0,0,1-1.17,1.11,5.9,5.9,0,0,1-1.41.62,7.34,7.34,0,0,1-1.51.27q-.77.06-1.46.06h-.9a7,7,0,0,0,.36,1.8,3.71,3.71,0,0,0,.67,1.19,2.31,2.31,0,0,0,.93.66,3.24,3.24,0,0,0,1.13.2,4.59,4.59,0,0,0,1-.11,7.65,7.65,0,0,0,1-.31q.53-.2,1.06-.45t1-.53ZM93.22,26.89l.7-.06a8.52,8.52,0,0,0,.91-.13,6.84,6.84,0,0,0,1-.26,3.79,3.79,0,0,0,.87-.43,2.1,2.1,0,0,0,.63-.65,1.8,1.8,0,0,0,.24-1,2.36,2.36,0,0,0-.46-1.53,1.56,1.56,0,0,0-1.28-.57,2.15,2.15,0,0,0-.81.18,2,2,0,0,0-.81.68,4.45,4.45,0,0,0-.64,1.4A9.31,9.31,0,0,0,93.22,26.89Z" transform="translate(-1.25 -7.9)"/><path class="cls-1" d="M107.32,38.87a2.16,2.16,0,0,1-1.27-.36,3,3,0,0,1-.86-.95,4.9,4.9,0,0,1-.54-1.35,6.42,6.42,0,0,1-.19-1.55,6,6,0,0,1,.19-1.5,5,5,0,0,1,.56-1.35,3.38,3.38,0,0,1,.87-1,2,2,0,0,1,1.25-.37,2.21,2.21,0,0,1,1.3.37,3.41,3.41,0,0,1,.92,1,4.94,4.94,0,0,1,.59,1.34,5.55,5.55,0,0,1,.21,1.49,6.13,6.13,0,0,1-.2,1.56,4.84,4.84,0,0,1-.57,1.35,3.05,3.05,0,0,1-.91.95A2.39,2.39,0,0,1,107.32,38.87Z" transform="translate(-1.25 -7.9)"/><path class="cls-1" d="M124.78,23.35l-1.65,15h-6.74l-2.92-26.48h5.77l1.61,21.24,2-21.24h4.86l2,21.27,1.69-21.27h4l-2.55,26.48h-6.2Z" transform="translate(-1.25 -7.9)"/><path class="cls-1" d="M148.5,37.52a12.67,12.67,0,0,1-2.31,1,8.71,8.71,0,0,1-2.59.38,6.27,6.27,0,0,1-5.15-2.62,10.48,10.48,0,0,1-1.61-3.42,17.93,17.93,0,0,1-.6-4.94,14,14,0,0,1,.31-3,12.31,12.31,0,0,1,.84-2.54,9.59,9.59,0,0,1,1.24-2,8.27,8.27,0,0,1,1.53-1.48,6.56,6.56,0,0,1,1.68-.91,5,5,0,0,1,1.7-.31,5.32,5.32,0,0,1,2.31.48,4.83,4.83,0,0,1,1.67,1.28,5.58,5.58,0,0,1,1,1.87,7.4,7.4,0,0,1,.34,2.27,8.94,8.94,0,0,1-.3,2.49,5.67,5.67,0,0,1-.81,1.73,4,4,0,0,1-1.17,1.11,5.89,5.89,0,0,1-1.41.62,7.33,7.33,0,0,1-1.51.27q-.77.06-1.46.06h-.9a7,7,0,0,0,.36,1.8,3.69,3.69,0,0,0,.67,1.19,2.3,2.3,0,0,0,.93.66,3.23,3.23,0,0,0,1.13.2,4.6,4.6,0,0,0,1-.11,7.6,7.6,0,0,0,1-.31q.53-.2,1.06-.45t1-.53Zm-7.31-10.64.7-.06a8.52,8.52,0,0,0,.91-.13,6.8,6.8,0,0,0,1-.26,3.76,3.76,0,0,0,.87-.43,2.09,2.09,0,0,0,.63-.65,1.8,1.8,0,0,0,.24-1,2.36,2.36,0,0,0-.46-1.53,1.56,1.56,0,0,0-1.28-.57,2.15,2.15,0,0,0-.81.18,2,2,0,0,0-.81.68,4.48,4.48,0,0,0-.64,1.4A9.33,9.33,0,0,0,141.19,26.89Z" transform="translate(-1.25 -7.9)"/><path class="cls-1" d="M160.91,38.87a3,3,0,0,1-1.22-.26,4.16,4.16,0,0,1-1.15-.76,5.67,5.67,0,0,1-1-1.22,7.86,7.86,0,0,1-.75-1.64v3.33h-4.92V9.56h4.92V20.89a5,5,0,0,1,.72-1.31,5.55,5.55,0,0,1,1-1,4.68,4.68,0,0,1,1.22-.68,3.68,3.68,0,0,1,1.3-.24,3.93,3.93,0,0,1,2,.56A5,5,0,0,1,164.79,20,11.46,11.46,0,0,1,166,23.3a22.75,22.75,0,0,1,.46,5A22,22,0,0,1,166,33a11.66,11.66,0,0,1-1.21,3.31A5.31,5.31,0,0,1,163,38.25,4,4,0,0,1,160.91,38.87Zm.63-10.6a13.6,13.6,0,0,0-.21-2.58,6,6,0,0,0-.55-1.68,2.37,2.37,0,0,0-.77-.91,1.61,1.61,0,0,0-.87-.27,1.55,1.55,0,0,0-.86.27,2.34,2.34,0,0,0-.75.91A6.26,6.26,0,0,0,157,25.7a13.77,13.77,0,0,0-.2,2.56,13.9,13.9,0,0,0,.2,2.58,6.11,6.11,0,0,0,.53,1.67,2.32,2.32,0,0,0,.75.9,1.58,1.58,0,0,0,.87.27,1.61,1.61,0,0,0,.87-.27,2.33,2.33,0,0,0,.76-.9,6,6,0,0,0,.54-1.66A13.44,13.44,0,0,0,161.54,28.27Z" transform="translate(-1.25 -7.9)"/><path class="cls-1" d="M170.71,43.47A2.83,2.83,0,0,1,169,41q0-2.62,3.8-15l1-3.3a123.51,123.51,0,0,1,4.22-12.3q1.2-2.53,2.81-2.53a2.15,2.15,0,0,1,.76.16q-3.17,4.31-7.43,18.76l-.46,1.56q-3.1,10.54-3.1,14.29Q170.67,43,170.71,43.47Z" transform="translate(-1.25 -7.9)"/><path class="cls-1" d="M193.94,23.47a52.16,52.16,0,0,1-6.16-4.94,11.8,11.8,0,0,1-2.67-3.15,7.52,7.52,0,0,1-.69-3.4,23.48,23.48,0,0,1,.15-2.65,26.59,26.59,0,0,0,5.76,7.23,37.46,37.46,0,0,0,8.42,6,8.46,8.46,0,0,1-3.68,3.92l-1.63,1-2.36,1.49a43.12,43.12,0,0,0-10.49,8.73q.24-4.76,2.23-6.91T193.94,23.47Z" transform="translate(-1.25 -7.9)"/></svg>