<?xml version="1.0" standalone="no"?>
<!DOCTYPE svg PUBLIC "-//W3C//DTD SVG 1.1//EN" "http://www.w3.org/Graphics/SVG/1.1/DTD/svg11.dtd" >
<svg xmlns="http://www.w3.org/2000/svg" xmlns:xlink="http://www.w3.org/1999/xlink" version="1.1">
<metadata>
Created by FontForge 20201107 at Mon Mar 11 09:39:59 2019
 By Jimmy Wärting
</metadata>
<defs>
<font id="GumelaRegular" horiz-adv-x="488" >
  <font-face 
    font-family="Gumela"
    font-weight="400"
    font-stretch="normal"
    units-per-em="1000"
    panose-1="0 0 0 0 0 0 0 0 0 0"
    ascent="800"
    descent="-200"
    x-height="531"
    cap-height="709"
    bbox="9.66667 -215.65 898.049 946"
    underline-thickness="50"
    underline-position="-150"
    unicode-range="U+000A-FB03"
  />
<missing-glyph horiz-adv-x="480" 
 />
    <glyph glyph-name="ffj.liga" unicode="ffj" horiz-adv-x="810" 
d="M770 455v-498q0 -25 -6 -49t-16.5 -43.5t-24 -34t-28.5 -22.5t-30 -8q-16 0 -32 2t-26.5 4t-26.5 8t-21.5 8.5t-23.5 10.5t-21 9q-7 4 -12 9t-5.5 9.5t2.5 8.5t10.5 4t17.5 -3q39 -12 67 -11t47 14t28.5 34.5t9.5 49.5l-2 498h-184l1 -376q0 -20 -9.5 -35t-23 -22.5
t-26.5 -12t-23 -5.5l-9 -1l-2 452h-201l2 -376q0 -20 -9.5 -35t-23 -22.5t-27 -12t-22.5 -5.5l-10 -1l-1 452h-23q-13 0 -23.5 4.5t-17 11.5t-11.5 15t-7.5 16.5t-4 15.5t-2.5 11v5l89 -1v65q0 63 33.5 110.5t71.5 47.5q14 0 27 -1.5t25 -4t21.5 -5t21.5 -7.5t18.5 -7.5
t19.5 -9t18 -8.5q13 -5 16.5 -14.5t-4 -13.5t-25.5 1q-74 23 -113 -2.5t-39 -85.5v-65h201v65q0 63 33.5 110.5t71.5 47.5q17 0 33 -2t26 -4.5t26.5 -8t22 -8t23 -10.5t20.5 -10q8 -3 12.5 -8t5 -10t-2.5 -8.5t-10 -4t-18 3.5q-73 23 -112.5 -2.5t-39.5 -85.5l1 -65h212
q25 0 41.5 -19.5t20.5 -38.5z" />
    <glyph glyph-name="fj.liga" unicode="fj" horiz-adv-x="515" 
d="M475 454v-497q0 -62 -33.5 -109.5t-72.5 -47.5q-14 0 -26.5 1t-25 4t-21.5 5.5t-21.5 7.5t-18.5 7.5t-19.5 8.5t-18.5 8q-12 6 -16 15.5t4 13.5t26 -1q73 -23 112 2.5t39 84.5l-1 497h-182l2 -376q0 -20 -9.5 -35.5t-23 -22.5t-27 -12t-22.5 -6l-10 -1l-1 453h-23
q-13 0 -23.5 4.5t-17 11t-11.5 15t-7.5 17t-4 15.5t-2.5 11v4h89v65q0 63 33.5 110.5t71.5 47.5q16 0 32 -2.5t26.5 -4.5t26.5 -8t21.5 -8t23.5 -10.5t21 -9.5q13 -6 16.5 -15t-4 -13t-25.5 0q-74 24 -113 -1.5t-39 -85.5v-65h209q12 0 22.5 -4.5t17 -11t11.5 -15t8 -17
t4.5 -15t1.5 -11.5z" />
    <glyph glyph-name="ff.liga" unicode="ff" horiz-adv-x="695" 
d="M657 713q21 -9 17 -22q-5 -13 -30 -5q-73 23 -112.5 -2.5t-39.5 -85.5l1 -65h95q17 0 30 -8t19.5 -19.5t10.5 -23t5 -19.5l1 -8h-161l1 -376q0 -20 -9.5 -35t-23 -22.5t-26.5 -12t-23 -5.5l-9 -1l-2 452h-201l2 -376q0 -20 -9.5 -35t-23 -22.5t-27 -12t-22.5 -5.5l-10 -1
l-1 452h-23q-13 0 -23.5 4.5t-17 11.5t-11.5 15t-7.5 16.5t-4 15.5t-2.5 11v5l89 -1v65q0 63 33.5 110.5t71.5 47.5q14 0 27 -1.5t25 -4t21.5 -5t21.5 -7.5t18.5 -7.5t19.5 -9t18 -8.5q13 -5 16.5 -14.5t-4 -13.5t-25.5 1q-74 23 -113 -2.5t-39 -85.5v-65h201v65
q0 63 33.5 110.5t71.5 47.5q17 0 33 -2t26 -4.5t26.5 -8t22 -8t23 -10.5t20.5 -10z" />
    <glyph glyph-name="fi.liga" unicode="fi" horiz-adv-x="514" 
d="M474 455v-378q0 -20 -9.5 -35.5t-23 -23t-27 -12t-22.5 -5.5l-10 -1v455h-182l2 -376q0 -20 -9.5 -35t-23 -22.5t-27 -12t-22.5 -5.5l-10 -1l-1 452h-23q-13 0 -23.5 4.5t-17 11.5t-11.5 15t-7.5 16.5t-4 15.5t-2.5 11v5l89 -1v65q0 63 33.5 110.5t71.5 47.5q16 0 32 -2
t26.5 -4.5t26.5 -8t21.5 -8t23.5 -10.5t21 -10q13 -5 16.5 -14.5t-4 -13.5t-25.5 1q-39 11 -67.5 10t-47 -13.5t-28 -34t-9.5 -50.5v-65h208q18 1 31.5 -7t20 -19.5t10 -23t3.5 -20.5z" />
    <glyph glyph-name="fl.liga" unicode="fl" horiz-adv-x="534" 
d="M403 3l1 680q-37 9 -70 9.5t-62 -8.5t-48 -33.5t-22 -62.5v-54l94 2q12 0 22.5 -4.5t17 -11.5t11.5 -15t7.5 -16.5t4.5 -15.5t2 -11v-5l-161 1l2 -376q0 -20 -9.5 -35.5t-23 -23t-27 -12t-22.5 -5.5l-10 -1l-1 453h-23q-13 0 -23.5 4t-17 11t-11.5 15.5t-7.5 16.5t-4 15
t-2.5 12v4h89l1 54q0 60 33.5 103.5t79.5 61.5q37 14 79.5 17.5t80.5 -3t64 -13.5t47 -15v-662q0 -20 -9.5 -35t-22.5 -22.5t-26.5 -12t-23.5 -5.5z" />
    <glyph glyph-name="ffi.liga" unicode="ffi" horiz-adv-x="803" 
d="M763 460v-39v-95v-112v-95.5v-39.5q0 -14 -5 -26.5t-13 -20t-17.5 -13.5t-19.5 -9t-18 -5t-13 -2h-5v452h-179l1 -376q0 -20 -9.5 -35t-23 -22.5t-26.5 -12t-23 -5.5l-9 -1l-2 452h-201l2 -376q0 -20 -9.5 -35t-23 -22.5t-27 -12t-22.5 -5.5l-10 -1l-1 452h-23
q-13 0 -23.5 4.5t-17 11.5t-11.5 15t-7.5 16.5t-4 15.5t-2.5 11v5l89 -1v65q0 63 33.5 110.5t71.5 47.5q16 0 32 -2t26.5 -4.5t26.5 -8t21.5 -8t23.5 -10.5t21 -10q13 -5 16.5 -14.5t-4 -13.5t-25.5 1q-74 23 -113 -2.5t-39 -85.5v-65h201v65q0 63 33.5 110.5t71.5 47.5
q17 0 33 -2t26 -4.5t26.5 -8t22 -8t23 -10.5t20.5 -10q8 -3 12.5 -8t5 -10t-2.5 -8.5t-10 -4t-18 3.5q-73 23 -112.5 -2.5t-39.5 -85.5l1 -65h205q34 0 49.5 -23.5t15.5 -49.5z" />
    <glyph glyph-name=".notdef" horiz-adv-x="480" 
 />
    <glyph glyph-name=".notdef" horiz-adv-x="480" 
 />
    <glyph glyph-name=".null" horiz-adv-x="0" 
 />
    <glyph glyph-name="nonmarkingreturn" horiz-adv-x="333" 
 />
    <glyph glyph-name="controlLF" unicode="&#xa;" horiz-adv-x="80" 
 />
    <glyph glyph-name="controlCR" unicode="&#xd;" horiz-adv-x="80" 
 />
    <glyph glyph-name="space" unicode=" " horiz-adv-x="240" 
 />
    <glyph glyph-name="exclam" unicode="!" horiz-adv-x="190" 
d="M48 632q2 20 13 35.5t25.5 23t28.5 12t23 5.5l10 1l-9 -429q0 -15 -4 -27t-10.5 -20t-14.5 -14t-16.5 -9t-15 -4.5t-10.5 -2.5h-4zM94.5 110q22.5 0 39 -16t16.5 -38.5t-16.5 -38.5t-39 -16t-38.5 16t-16 38.5t16 38.5t38.5 16z" />
    <glyph glyph-name="quotedbl" unicode="&#x22;" horiz-adv-x="398" 
d="M134 513h-94q53 192 94 232q8 8 17 13t16.5 7t14 2.5t9.5 -0.5l4 -1q-34 -91 -61 -253zM297 513h-92q54 192 94 232q13 13 27.5 18t23.5 4l8 -1q-34 -91 -61 -253z" />
    <glyph glyph-name="numbersign" unicode="#" horiz-adv-x="784" 
d="M571 392l-22 -108l177 1q-1 -4 -2 -9.5t-7 -19.5t-16 -24.5t-31 -19.5t-49 -9h-87l-26 -126q-6 -24 -19 -40.5t-28 -23t-29.5 -10t-23.5 -3.5h-10l44 204h-148l-33 -201q-3 0 -9 0.5t-21 6.5t-25.5 15.5t-17.5 30t-3 47.5l15 100h-160q0 2 0.5 4.5t2.5 11t5.5 16t10.5 17
t16 16.5t23.5 11.5t32.5 5.5h82l16 107h-79q-24 1 -42.5 9t-27 19.5t-14 22.5t-6.5 19l-1 8h182l30 194h5t12.5 -1.5t17 -5t18 -11t15 -19.5t9 -30.5t-0.5 -43.5l-15 -83h161l19 101q6 26 20 45t30 27t31 12.5t25 4.5l10 -1l-44 -188h59q27 0 47.5 -8.5t30.5 -20t15.5 -23
t6.5 -19.5l1 -8h-173zM305 282h149l22 110h-154z" />
    <glyph glyph-name="dollar" unicode="$" horiz-adv-x="440" 
d="M420 254q0 -54 -41 -97.5t-110 -60.5v-15q0 -15 -4.5 -27t-12 -20.5t-16.5 -14.5t-18 -9.5t-16.5 -6t-12.5 -2.5l-4 -1v87q-28 1 -68 10t-62 21v2t0.5 5t1.5 7.5t3 8l4 9t6 9.5t8 8.5t10 7t12 4.5q14 3 50.5 -3.5t55.5 -5.5q16 0 34 3.5t40 12.5t36 28.5t14 45.5
q0 43 -24 70.5t-76 46.5q-34 12 -55 21t-49.5 26t-45 35.5t-28.5 48t-12 64.5q0 38 19 71t51.5 56t74.5 32v28q0 20 8.5 36t21 24t25 13t20.5 7l9 1v-106q21 -4 45.5 -10t39 -10.5t14.5 -5.5q3 -9 -11 -29.5t-35 -27.5q-15 -5 -49.5 1.5t-43.5 6.5q-34 0 -66.5 -23
t-32.5 -68q0 -16 10.5 -31.5t23.5 -26.5t37 -24t38.5 -20t40.5 -18l15 -6q67 -29 96.5 -72t28.5 -116z" />
    <glyph glyph-name="percent" unicode="%" horiz-adv-x="832" 
d="M199 769q61 0 109.5 -71t48.5 -164t-48.5 -163.5t-109.5 -70.5q-62 0 -110.5 72.5t-48.5 165.5t48 162t111 69zM198.5 378q33.5 0 57 46t23.5 108q0 40 -10.5 76.5t-29 59.5t-40.5 23q-34 0 -57.5 -48.5t-23.5 -110.5t23.5 -108t57 -46zM653 470q62 0 110.5 -71
t48.5 -164q0 -46 -13.5 -89t-35 -75t-51 -51.5t-59.5 -19.5q-61 0 -109.5 73t-48.5 166q0 92 48 161.5t110 69.5zM653.5 78q33.5 0 57 46.5t23.5 107.5q0 41 -9.5 77.5t-27.5 59.5t-40 23t-41.5 -23t-31 -60t-11.5 -77q0 -61 23.5 -107.5t57 -46.5zM545 690q13 21 33 34
t39 17.5t36 6t28 -0.5l10 -1l-410 -676q-16 -22 -37 -36t-39 -18t-34 -4.5t-26 1.5l-9 2z" />
    <glyph glyph-name="ampersand" unicode="&#x26;" horiz-adv-x="688" 
d="M514 36l-29 29q-87 -65 -206 -65q-40 0 -75 7.5t-61 21t-46 31.5t-32 40t-18.5 45t-6.5 48q0 38 12.5 72t36 60.5t44 43.5t49.5 37q-28 35 -43.5 82.5t-11.5 86.5q7 71 50 117t118 46q59 0 99.5 -23t57.5 -59.5t17 -83.5q0 -33 -14.5 -62t-41.5 -52t-50 -38t-54 -31
l172 -189q40 62 52 113.5t4 85.5q-2 12 7 12q11 0 24 -19q4 -6 15.5 -21.5t14.5 -20.5t9.5 -18.5t7 -22t1 -23t-4 -30t-12.5 -35.5q-21 -52 -52 -94l121 -110q-3 -2 -9 -4.5t-23.5 -7t-35 -4.5t-41.5 8t-45 27zM299 660q-39 0 -63 -23t-22 -67q0 -47 47 -117q24 13 41 24
t37 27t30.5 35.5t10.5 40.5q0 23 -8.5 40.5t-27 28.5t-45.5 11zM424 129l-195 217q-94 -59 -94 -141q0 -52 38 -88.5t106 -36.5q88 0 145 49z" />
    <glyph glyph-name="quotesingle" unicode="'" horiz-adv-x="243" 
d="M142 513h-102q53 192 94 232q8 8 18 13t18.5 7t16 2.5t11.5 -0.5l5 -1q-34 -91 -61 -253z" />
    <glyph glyph-name="parenleft" unicode="(" horiz-adv-x="300" 
d="M165 799q7 7 16 12t17.5 8t17 5t15.5 2.5t12.5 0.5h8.5l3 -1q-5 -7 -13 -20t-29.5 -57t-38 -91.5t-30 -120t-13.5 -146.5q0 -69 13.5 -139.5t32.5 -121.5t38 -92t32 -61l13 -21q-24 0 -42 4.5t-24 9.5l-6 5q-6 6 -16 18t-35.5 53.5t-45 87.5t-35.5 117.5t-16 145.5
q0 66 13 131.5t31.5 112t37 83.5t30.5 56z" />
    <glyph glyph-name="parenright" unicode=")" horiz-adv-x="300" 
d="M45 826q3 -1 15.5 0.5t36 -5.5t38.5 -22q5 -7 13.5 -19.5t30 -54t38 -86t30 -110.5t13.5 -132q0 -74 -15 -145t-37 -119t-43.5 -85.5t-37.5 -55.5l-15 -17q-18 -19 -72 -19q3 4 7.5 11t18 31.5t25.5 50.5t27 66.5t25.5 81t18 92.5t7.5 102q0 54 -7 107t-18 95t-24 80
t-26 65t-24 47.5t-18 30.5z" />
    <glyph glyph-name="asterisk" unicode="*" horiz-adv-x="576" 
d="M536 247v-5t-1 -11t-3.5 -15.5t-7.5 -16.5t-12 -15.5t-19 -11t-26 -4.5l-109 -2l94 -152q-3 -2 -7.5 -4.5t-18 -6.5t-25.5 -4t-27 8t-25 25l-61 98l-60 -98q-11 -17 -25.5 -25t-27.5 -7.5t-25 3.5t-19 7l-7 4l94 151l-178 -2v4t1.5 11t3.5 15.5t7 16.5t12 15.5t19 11.5
t26 5l110 1l-95 153q3 1 7.5 3.5t18 6.5t25.5 4t27 -8t26 -25l60 -98l61 98q10 17 24.5 25t28 7.5t25 -3t18.5 -6.5l7 -4l-93 -151z" />
    <glyph glyph-name="plus" unicode="+" horiz-adv-x="693" 
d="M583 357q20 0 34.5 -8.5t21 -20t10.5 -23t4 -19.5v-8h-261v-184q0 -11 -3 -21t-8.5 -17t-12 -13t-14 -10t-15.5 -7t-14.5 -4.5t-12 -2.5t-8.5 -1h-3v260h-191q-20 0 -34.5 8t-21 19.5t-10 23t-4.5 19.5v9h261v184q0 20 9.5 35t23 22.5t26.5 12t23 5.5l9 1v-260h191z" />
    <glyph glyph-name="comma" unicode="," horiz-adv-x="233" 
d="M97 162h96q-50 -181 -88 -219q-6 -6 -12.5 -10t-12.5 -6t-12 -3t-11 -1.5t-9 -0.5t-6 1h-2q32 86 57 239z" />
    <glyph glyph-name="hyphen" unicode="-" horiz-adv-x="400" 
d="M290 414q57 0 69 -61q1 -10 1 -17h-250q-14 0 -26 4t-19 11t-12.5 15.5t-7.5 16.5t-3.5 15t-1.5 11v5h250z" />
    <glyph glyph-name="period" unicode="." horiz-adv-x="189" 
d="M94.5 2q-22.5 0 -38.5 16t-16 38.5t16 38.5t38.5 16t39 -16t16.5 -38.5t-16.5 -38.5t-39 -16z" />
    <glyph glyph-name="slash" unicode="/" horiz-adv-x="495" 
d="M321 686q9 23 26 39.5t35 24.5t35 12t27 5h11l-282 -738q-9 -18 -21 -32.5t-24 -22.5t-25 -14t-24 -8t-20 -3t-14 -1l-5 1z" />
    <glyph glyph-name="zero" unicode="0" horiz-adv-x="557" 
d="M280.5 753q71.5 0 130.5 -51t92.5 -138.5t33.5 -191.5t-33.5 -189.5t-92.5 -134t-130.5 -48.5t-131.5 48.5t-94.5 134t-34.5 189.5t34.5 192t94.5 138.5t131.5 50.5zM280 80q69 0 115 83.5t46 209.5q0 84 -21 153.5t-58 110t-82 40.5q-69 0 -116.5 -88.5t-47.5 -215.5
q0 -125 47.5 -209t116.5 -84z" />
    <glyph glyph-name="one" unicode="1" horiz-adv-x="264" 
d="M20 620l140 114q15 10 30.5 14.5t24.5 4.5h9v-676q0 -20 -9.5 -35.5t-23 -23t-27 -12t-22.5 -5.5l-10 -1v594q-15 -11 -32 -12t-31 5t-25 13.5t-18 13.5z" />
    <glyph glyph-name="two" unicode="2" horiz-adv-x="496" 
d="M153 78l253 3q17 0 30.5 -8t20.5 -20t12 -24t6 -21l1 -8h-456q0 47 30 86q12 17 70 77.5t111 118.5t97.5 128.5t44.5 116.5q0 68 -38.5 108t-87.5 40q-12 0 -23 -1.5t-18.5 -2.5t-18.5 -4.5t-15 -4.5t-15.5 -5.5t-12.5 -5.5q-28 -8 -48 0t-31 21l-11 14q1 0 16 10.5
t29 18t37 17.5t52 15.5t61 5.5q102 0 159.5 -62.5t57.5 -163.5q0 -38 -16 -80.5t-38.5 -78t-59 -79.5t-65.5 -73.5t-71 -72.5t-63 -65z" />
    <glyph glyph-name="three" unicode="3" horiz-adv-x="459" 
d="M408 589q0 -109 -97 -167q-25 -15 -28 -14q65 -16 110.5 -65.5t45.5 -135.5q0 -61 -32 -109.5t-83 -73t-111 -24.5q-92 0 -185 96q-16 17 -3 25q6 4 14 -1q70 -45 165 -40q63 2 103 37t40 102q0 58 -51.5 100t-158.5 42q-12 0 -22 4t-16.5 11t-10.5 15t-6 16.5t-3 15.5
t-1 11v4q59 -6 132 22q41 16 73.5 53t32.5 73q0 46 -33 67.5t-73 21.5q-46 0 -96 -21q-19 -8 -42 1t-36 22l-14 12q3 3 8.5 7.5t24.5 15.5t40 19t54.5 15t69.5 7q48 0 86.5 -16.5t59.5 -42.5t32 -53t11 -52z" />
    <glyph glyph-name="four" unicode="4" horiz-adv-x="508" 
d="M428 244v-167q0 -20 -9.5 -35.5t-23 -23t-27 -12t-22.5 -5.5l-10 -1v244h-316v21.5t10 47t30 57.5l314 352q10 10 20.5 17.5t17.5 10t12 3.5t8 0h2l-6 -431h60q-1 -3 -1.5 -8t-4 -17.5t-9.5 -23t-18 -19.5t-27 -10zM336 322v248l-216 -248h216z" />
    <glyph glyph-name="five" unicode="5" horiz-adv-x="468" 
d="M39 465l32 211q21 77 78 77h299q0 -4 -1 -10t-5.5 -21.5t-12 -28t-23 -22t-35.5 -9.5h-219l-23 -152q65 0 116 -12.5t84 -34t56.5 -47.5t35.5 -57t17 -58t5 -55q0 -106 -67.5 -176t-158.5 -70q-102 0 -189 90q-8 9 -8 16t6 9t13 -1q29 -15 74 -25.5t88 -10.5q69 0 110 50
t41 118q0 22 -3.5 42t-17.5 47.5t-38 47.5t-69.5 34.5t-106.5 16.5q-38 1 -57.5 8.5t-20.5 14.5v8z" />
    <glyph glyph-name="six" unicode="6" horiz-adv-x="526" 
d="M506 237q-2 -29 -10.5 -57.5t-22.5 -55t-34.5 -49t-45.5 -39.5t-57 -26.5t-68 -9.5q-117 -1 -182.5 84.5t-65.5 224.5q0 126 35.5 225.5t102 157t152.5 61.5q29 1 79 -22.5t93 -58.5q18 -15 7 -25q-7 -4 -16 -1q-42 21 -71.5 28t-63.5 4q-82 -3 -135.5 -69t-68.5 -160
q62 47 154 47q97 0 161 -74t57 -185zM269 418q-65 0 -106 -37t-41 -115q0 -91 44.5 -139.5t101.5 -48.5q46 0 80.5 27t50 64.5t15.5 77.5q0 72 -42 121.5t-103 49.5z" />
    <glyph glyph-name="seven" unicode="7" horiz-adv-x="537" 
d="M124 0h-26l321 675h-324q-15 0 -27 4.5t-19.5 11t-13 15t-8.5 17t-4.5 15.5t-2.5 11v4h415q40 0 65 -31.5t14 -59.5l-289 -612q-23 -50 -101 -50z" />
    <glyph glyph-name="eight" unicode="8" horiz-adv-x="491" 
d="M471 199q0 -65 -31 -110.5t-81 -67t-114 -21.5q-101 0 -163 51t-62 148q0 61 38 114t94 81q-51 31 -80 72t-29 102q0 30 13 61.5t37 59.5t65 46t90 18q52 0 92.5 -16.5t64.5 -43.5t36.5 -59t12.5 -66q0 -59 -30 -97.5t-84 -69.5q57 -30 94 -82t37 -120zM134 568
q0 -43 31 -70.5t90 -55.5q52 26 80 54.5t28 71.5q0 49 -31 78.5t-82 29.5q-28 0 -54 -12t-44.5 -37.5t-17.5 -58.5zM252 79q36 0 62.5 12t40 32t19.5 40t6 41q0 49 -37.5 82.5t-105.5 64.5q-58 -28 -92 -63t-34 -84q0 -20 7 -40.5t22.5 -40t44.5 -32t67 -12.5z" />
    <glyph glyph-name="nine" unicode="9" horiz-adv-x="526" 
d="M20 516q3 59 31 112t82.5 89t124.5 36q117 1 182.5 -84.5t65.5 -224.5q0 -192 -79.5 -315.5t-210.5 -128.5q-29 -1 -79 22.5t-93 58.5q-18 15 -7 25q7 4 16 1q42 -21 71.5 -28t63.5 -4q82 4 135.5 69.5t68.5 159.5q-62 -47 -154 -47q-96 0 -159.5 74.5t-58.5 184.5z
M257 335q65 0 106 37t41 116q0 90 -44.5 138.5t-101.5 48.5q-46 0 -80.5 -27t-50 -64.5t-15.5 -77.5q0 -72 42 -121.5t103 -49.5z" />
    <glyph glyph-name="colon" unicode=":" horiz-adv-x="189" 
d="M94.5 482q22.5 0 39 -16t16.5 -39t-16.5 -39t-39 -16t-38.5 16t-16 39t16 39t38.5 16zM95 114q15 0 27.5 -7.5t20 -20t7.5 -27.5q0 -22 -16.5 -38t-39 -16t-38.5 16t-16 38.5t16 38.5t39 16z" />
    <glyph glyph-name="semicolon" unicode=";" horiz-adv-x="242" 
d="M147 482q23 0 39 -16t16 -39t-16 -39t-38.5 -16t-38.5 16t-16 39q0 15 7 27.5t20 20t27 7.5zM97 124h96q-14 -52 -25 -87t-29 -75t-34 -56q-12 -12 -28 -17t-27 -4l-10 1q32 85 57 238z" />
    <glyph glyph-name="less" unicode="&#x3c;" horiz-adv-x="591" 
d="M468 8l-398 215q-50 29 -50 63.5t46 57.5l482 238q1 -2 1.5 -4.5t2 -11t2 -17t-1 -19.5t-5.5 -20.5t-12.5 -19t-20.5 -15.5l-387 -191l444 -236q0 -1 -1 -2.5t-4.5 -6.5t-7.5 -9t-10 -9.5t-12 -9.5t-14.5 -7t-16.5 -4t-18 1t-19 7z" />
    <glyph glyph-name="equal" unicode="=" horiz-adv-x="693" 
d="M583 514q14 0 26 -4t19 -11t12.5 -15.5t7.5 -16.5t3.5 -15t1.5 -11v-5h-543q-20 0 -34.5 8t-21 19.5t-10 23t-4.5 19.5v8h543zM653 318q0 -3 -0.5 -8.5t-4 -19t-10 -24t-21 -18.5t-34.5 -8h-543q0 3 0.5 8t4 18.5t10 24t21 19t34.5 8.5h543z" />
    <glyph glyph-name="greater" unicode="&#x3e;" horiz-adv-x="593" 
d="M523 219l-400 -212q-31 -12 -54 -3t-36 27l-13 17l447 232l-386 195q-12 6 -20.5 15.5t-12 19.5t-5.5 20.5t-1 19.5t2 16.5t2 11.5l2 4l480 -242q46 -23 45.5 -58t-50.5 -63z" />
    <glyph glyph-name="question" unicode="?" horiz-adv-x="407" 
d="M135 200v70q4 40 25 81.5t44.5 69.5t44.5 62t23 61q4 40 -14 68t-55 31q-13 0 -17.5 0.5t-15.5 -2t-13.5 -3t-13.5 -4.5t-14 -5q-17 -5 -31 -3.5t-25 8.5t-18 14t-11 13l-4 5q2 3 5.5 6.5t17 13t29.5 17t42.5 13t56.5 4.5q84 -2 131.5 -43t44.5 -118q-2 -30 -16.5 -59.5
t-34 -54t-39 -50t-33 -57.5t-13.5 -66v-25q0 -20 -10 -32.5t-24 -15.5t-28 -3.5t-24 1.5zM176 111q23 0 39 -16t16 -39t-16 -39t-39 -16t-39 16t-16 39t16 39t39 16z" />
    <glyph glyph-name="at" unicode="@" horiz-adv-x="766" 
d="M578 525l-45 -268q20 -32 55 -16q47 21 62 105q4 25 5 54q3 106 -49.5 173.5t-168.5 77.5q-64 5 -123 -15.5t-104 -62t-72 -106.5t-27 -143q0 -85 50.5 -148t130 -89.5t167.5 -13.5q25 4 44 12.5t54 30.5q12 8 17 -2q2 -9 -7 -20q-32 -34 -118 -64t-130 -30
q-129 0 -214 85t-85 232q0 81 31 156t84 132t129 90.5t161 33.5q93 -1 167 -45t114 -117t40 -161q0 -115 -51 -180.5t-130 -61.5q-9 1 -17.5 2.5t-15.5 5t-13 6t-11.5 8t-9 8.5t-8.5 9t-7 8.5t-6 9t-5 7.5q-10 2 -19 -2.5t-18.5 -13t-21 -17.5t-32.5 -16t-47 -8
q-30 -2 -57.5 13t-48 44t-28.5 70t3 91q6 27 20 54t36.5 52.5t49 44.5t60.5 30t68 10q28 -2 53 -8t40.5 -14t27 -15.5t16.5 -12.5zM437 317l47 174q-11 4 -26.5 8t-41 3t-48.5 -11.5t-44.5 -41.5t-31.5 -79q-5 -20 -6 -36t2 -32.5t15 -27.5t32 -15q30 -6 58.5 11t43.5 47z
" />
    <glyph glyph-name="A" unicode="A" horiz-adv-x="670" 
d="M630 0h-26q-28 0 -55 11.5t-36 36.5l-56 164h-258l-56 -164q-10 -27 -36.5 -37.5t-53.5 -10.5h-13l232 643q11 31 33 49t51 18h19zM328 588l-102 -298h204z" />
    <glyph glyph-name="B" unicode="B" horiz-adv-x="531" 
d="M40 0v571q0 14 11 24.5t25 16.5t29 13.5t20 13.5q22 33 60 51t69 19q41 2 78 -8t66.5 -30.5t47 -55.5t17.5 -80q0 -32 -12 -60t-29.5 -44.5t-34.5 -28.5t-29 -16l-12 -5q58 -14 101 -58.5t43 -116.5q0 -49 -19 -87.5t-46.5 -60t-63.5 -35.5t-65.5 -18.5t-56.5 -4.5h-199z
M131 520v-107h91q70 0 109.5 31.5t39.5 82.5q0 50 -33 77t-77 27q-57 0 -93.5 -31.5t-36.5 -79.5zM131 335v-256l97 -1q43 0 80.5 13t64 43.5t26.5 72.5q0 67 -51.5 97.5t-133.5 30.5h-83z" />
    <glyph glyph-name="C" unicode="C" horiz-adv-x="624" 
d="M375 634q-103 0 -173.5 -80t-70.5 -198t70.5 -200.5t173.5 -82.5q31 0 74 14t77 44q11 10 18 -1q5 -8 -5 -20q-94 -110 -164 -110q-99 0 -176 48t-118 129t-41 179q0 97 45 179t122 129.5t168 47.5q119 0 209 -47q-13 -20 -29.5 -31t-35.5 -13t-32 -1t-30 4
q-41 10 -82 10z" />
    <glyph glyph-name="D" unicode="D" horiz-adv-x="659" 
d="M40 0v572q0 17 17 29t39.5 21.5t28.5 17.5q23 33 62 51.5t78 18.5q112 0 193.5 -48t121 -127t39.5 -179q0 -96 -48 -178.5t-129.5 -130t-176.5 -47.5h-225zM131 520v-442h113q124 0 203.5 79.5t79.5 198.5q0 58 -15.5 105t-41 78.5t-59.5 52.5t-69.5 30.5t-72.5 9.5
q-43 0 -75 -16t-47.5 -41t-15.5 -55z" />
    <glyph glyph-name="E" unicode="E" horiz-adv-x="484" 
d="M444 1h-313v-1h-91v638q0 14 5 25t13 18.5t18 13t19.5 8t17.5 4.5t13 2l5 1h296v-5t-2 -11t-4.5 -15.5t-7.5 -16.5t-11.5 -15.5t-17 -10.5t-22.5 -4h-231v-207h285q0 -3 -0.5 -8t-5 -18.5t-10.5 -24t-19 -19t-30 -8.5h-220v-268h247q13 0 23.5 -4.5t17 -11t11.5 -15
t7.5 -17t4 -15.5t2.5 -11v-4z" />
    <glyph glyph-name="F" unicode="F" horiz-adv-x="467" 
d="M362 631h-231v-207h285q0 -3 -0.5 -8t-5 -18.5t-10.5 -24t-19 -19t-30 -8.5h-220v-275q0 -18 -9.5 -32.5t-22.5 -21.5t-26.5 -11t-23.5 -5l-9 -1v637q0 14 5 25t13 18.5t18 13t19.5 8t17.5 4.5t13 2l5 1h296v-3t-1 -7t-2 -10.5t-3.5 -12.5t-6 -13t-8.5 -12t-11 -10.5
t-14.5 -7t-18.5 -2.5z" />
    <glyph glyph-name="G" unicode="G" horiz-adv-x="659" 
d="M527 190v118h-89q-26 0 -41 19.5t-18 39.5l-2 19h178q24 0 43.5 -22t19.5 -56v-176q0 -17 -15.5 -27.5t-36.5 -18t-27 -15.5q-47 -71 -157 -71q-160 0 -251 98.5t-91 256.5q0 97 45 179t122 129.5t168 47.5q129 0 198 -38q-10 -16 -23.5 -27t-25.5 -15.5t-28 -5.5
t-25.5 0t-23.5 3q-37 5 -72 5q-103 0 -173.5 -80.5t-70.5 -197.5q0 -62 16 -111.5t41 -79.5t58.5 -50t65.5 -28t66 -8q63 0 106 35.5t43 76.5z" />
    <glyph glyph-name="H" unicode="H" horiz-adv-x="596" 
d="M465 637q0 54 72 69q13 3 19 3v-638q0 -18 -9 -32.5t-22.5 -21.5t-27 -11t-23.5 -5l-9 -1v346h-334v-275q0 -18 -9.5 -32.5t-22.5 -21.5t-26.5 -11t-23.5 -5l-9 -1v637q0 14 5 25t13 18.5t18 13t19.5 8t17.5 4.5t13 2l5 1v-285h334v213z" />
    <glyph glyph-name="I" unicode="I" horiz-adv-x="171" 
d="M40 637q0 54 72 69q13 3 19 3v-638q0 -18 -9.5 -32.5t-22.5 -21.5t-26.5 -11t-23.5 -5l-9 -1v637z" />
    <glyph glyph-name="J" unicode="J" horiz-adv-x="420" 
d="M289 638q0 54 72 69q13 3 19 3v-518q0 -51 -14.5 -89t-33.5 -57t-44 -30t-40 -13.5t-27 -2.5q-40 0 -87 31.5t-86 78.5q-14 15 -3 23q7 5 15 -2q67 -58 151 -58q26 0 52 30.5t26 83.5v451z" />
    <glyph glyph-name="K" unicode="K" horiz-adv-x="574" 
d="M253 375l281 -375h-27q-41 0 -72 9.5t-52 39.5l-188 251l-64 -82v-146q0 -18 -9.5 -32.5t-22.5 -21.5t-26.5 -11t-23.5 -5l-9 -1v637q0 14 5 25t13 18.5t18 13t19.5 8t17.5 4.5t13 2l5 1v-364l253 326q31 38 105 38h24z" />
    <glyph glyph-name="L" unicode="L" horiz-adv-x="484" 
d="M383 78q16 0 28 -8t18 -19.5t9.5 -23t4.5 -19.5l1 -8h-404v637q0 13 5 24.5t13 18.5t18 12.5t19.5 8.5t17.5 5t13 2h5v-630h252z" />
    <glyph glyph-name="M" unicode="M" horiz-adv-x="699" 
d="M573 663q8 19 29.5 31t39.5 14l17 2v-709q-4 0 -10 1t-22 5.5t-28 11.5t-21.5 21t-9.5 33v394l-193 -413q-24 -54 -57 -54l-200 474v-412q0 -25 -19.5 -40.5t-38.5 -17.5l-20 -3v648q0 25 19.5 40t39.5 18l19 3l226 -537z" />
    <glyph glyph-name="N" unicode="N" horiz-adv-x="608" 
d="M476 637q0 19 9.5 33t23 21t27 11.5t22.5 5.5l10 1v-638q0 -18 -9.5 -32.5t-23 -21.5t-27 -11t-22.5 -5l-10 -1l-358 543v-482q0 -25 -19.5 -40.5t-38.5 -18.5l-20 -2v647q0 26 19.5 41t39.5 18l19 3l358 -543v471z" />
    <glyph glyph-name="O" unicode="O" horiz-adv-x="721" 
d="M361 710q87 0 160.5 -47.5t116.5 -129.5t43 -178.5t-43 -178t-116.5 -129t-160.5 -47.5t-161 47.5t-117 129t-43 178t43 178.5t117 129.5t161 47.5zM360.5 78q94.5 0 162 81t67.5 195.5t-67.5 196t-161.5 81.5q-63 0 -115.5 -37.5t-83 -101t-30.5 -138.5q0 -115 67 -196
t161.5 -81z" />
    <glyph glyph-name="P" unicode="P" horiz-adv-x="535" 
d="M265 709q45 0 85.5 -13.5t73 -39t52 -65.5t19.5 -89q0 -46 -12.5 -82.5t-30.5 -59t-45 -39.5t-49.5 -25t-51.5 -12.5t-43 -5t-31 -0.5h-101v-207q0 -18 -9 -32.5t-22.5 -21.5t-27 -11t-23.5 -5l-9 -1v571q0 17 17 29t39.5 21t28.5 18q53 70 140 70zM240 356
q77 0 120.5 37.5t43.5 98.5q0 66 -42 102.5t-95 36.5q-20 0 -39 -3.5t-37 -12.5t-31 -22t-21 -34t-8 -47v-156h109z" />
    <glyph glyph-name="Q" unicode="Q" horiz-adv-x="721" 
d="M576 -13q17 4 25.5 -0.5t4.5 -13t-17 -14.5q-6 -2 -24 -10.5t-25.5 -11.5t-23.5 -8t-31.5 -7t-35.5 -2q-21 0 -47.5 18.5t-49.5 62.5q-85 3 -157 50.5t-113.5 128.5t-41.5 176q0 96 43 178t117 129.5t161 47.5t160.5 -47.5t116.5 -129.5t43 -178q0 -80 -30 -151
t-83.5 -120.5t-120.5 -70.5q13 -18 29 -26.5t35.5 -8.5t31.5 1.5t33 6.5zM132 355.5q0 -114.5 67 -195.5t161.5 -81t162 81t67.5 195.5t-67.5 196t-162 81.5t-161.5 -81.5t-67 -196z" />
    <glyph glyph-name="R" unicode="R" horiz-adv-x="551" 
d="M377 237l134 -237h-17q-36 0 -72 17.5t-54 50.5l-84 149q-2 3 -4.5 7t-11.5 14.5t-18.5 18.5t-24 14.5t-29.5 6.5h-65v-207q0 -18 -9.5 -32.5t-22.5 -21.5t-26.5 -11t-23.5 -5l-9 -1v571q0 17 17 29t39.5 21t28.5 18q53 70 140 70q61 0 112 -23t84.5 -71t33.5 -113
q0 -52 -15 -92t-41.5 -64t-53.5 -37.5t-60 -21.5q16 -8 29 -20.5t18 -20.5zM131 512v-156h109q77 0 120.5 37.5t43.5 98.5q0 66 -42 102.5t-94 36.5q-18 0 -33.5 -2.5t-31 -8t-28.5 -15t-23 -22t-15.5 -31t-5.5 -40.5z" />
    <glyph glyph-name="S" unicode="S" horiz-adv-x="526" 
d="M102 92q9 1 53 -8t101 -6q139 7 139 110q0 42 -37.5 71.5t-116.5 64.5q-186 81 -171 227q3 27 16.5 53.5t37.5 50.5t64.5 39t90.5 15q31 0 79.5 -10.5t82 -20.5t32.5 -12q-8 -22 -30 -41.5t-55 -11.5q-69 17 -109 18q-36 1 -61 -8.5t-36 -25t-15.5 -28t-4.5 -25.5
q-4 -88 118 -138q48 -20 82.5 -39t64 -44t44.5 -55.5t15 -67.5q0 -90 -64.5 -145t-165.5 -55q-42 0 -110 9t-106 29q0 2 0.5 5t4.5 11.5t10 15.5t18.5 13.5t28.5 8.5z" />
    <glyph glyph-name="T" unicode="T" horiz-adv-x="606" 
d="M106 709h460q0 -4 -0.5 -9t-5 -18.5t-10.5 -24t-19 -19t-30 -8.5h-152v-559q0 -18 -9.5 -32.5t-23 -21.5t-27 -11t-22.5 -5l-10 -1v630h-217q0 2 0.5 5t2 11t4 15.5t7.5 16.5t11.5 15.5t17 11t23.5 4.5z" />
    <glyph glyph-name="U" unicode="U" horiz-adv-x="570" 
d="M438 638q0 54 73 69q11 2 19 2v-442q0 -53 -12.5 -96.5t-33.5 -71.5t-46 -48.5t-53.5 -31t-53 -15t-46.5 -4.5q-19 0 -39.5 3t-45 11t-46.5 21t-43 34t-36.5 48t-25 65.5t-9.5 84.5v442h2.5t7 -1t10.5 -2t12.5 -3.5t13.5 -5.5t12 -8t10.5 -10.5t7 -13.5t2.5 -17v-365
q0 -41 7.5 -75t21 -55.5t30 -37t36 -23.5t37 -11t35.5 -3q28 0 52 8t48.5 28.5t38.5 64t14 104.5v355z" />
    <glyph glyph-name="V" unicode="V" horiz-adv-x="629" 
d="M556 710h32l-233 -710h-32q-50 -1 -63 37l-220 673h32q50 0 63 -38l172 -524l168 514q5 12 15 21.5t22 15t23.5 8.5t20.5 3z" />
    <glyph glyph-name="W" unicode="W" horiz-adv-x="853" 
d="M792 710h21l-185 -710h-24q-21 0 -42 12t-26 34l-112 498l-142 -544h-24q-22 0 -43 12t-26 34l-149 664h24q21 0 41.5 -12.5t25.5 -34.5l106 -470l120 462q3 12 14 23t24 17.5t26 10.5t22 4h24l116 -517l120 462q7 24 35.5 39.5t53.5 15.5z" />
    <glyph glyph-name="X" unicode="X" horiz-adv-x="635" 
d="M595 710l-227 -362l219 -348h-37q-22 0 -45 9t-33 26l-151 240l-146 -233q-12 -20 -42 -31t-54 -11h-39l227 361l-219 349h27q64 0 84 -30l154 -246l152 241q23 35 99 35h31z" />
    <glyph glyph-name="Y" unicode="Y" horiz-adv-x="630" 
d="M590 709l-229 -365v-273q0 -18 -9.5 -32.5t-23 -21.5t-27 -11t-22.5 -5l-10 -1v344l-229 365h26q65 0 85 -30l156 -248l153 244q24 34 99 34h31z" />
    <glyph glyph-name="Z" unicode="Z" horiz-adv-x="608" 
d="M517 590l-359 -512h410q0 -3 -1 -8.5t-4.5 -19t-9.5 -23.5t-18 -18.5t-28 -8.5h-467q0 75 39 126l354 505h-309q-26 0 -41 19.5t-18 39.5l-3 19h497q0 -62 -42 -119z" />
    <glyph glyph-name="bracketleft" unicode="[" horiz-adv-x="214" 
d="M111 679v-734h83q0 -3 -0.5 -8.5t-5 -18.5t-12.5 -23t-25 -18.5t-40 -7.5q-3 -1 -9.5 -1t-22 3.5t-27.5 10.5t-22 23t-10 38v737q0 23 9.5 39t23 23t27 10t22.5 3.5t9 -0.5q23 0 40 -7.5t25 -19t12.5 -22.5t4.5 -19l1 -8h-83z" />
    <glyph glyph-name="backslash" unicode="\" horiz-adv-x="455" 
d="M20 819q4 0 11 -0.5t26.5 -5t35.5 -12t33.5 -24t26.5 -39.5l282 -738h-5.5t-13.5 0.5t-20 3t-24 8t-25.5 14t-23.5 23t-21 32.5z" />
    <glyph glyph-name="bracketright" unicode="]" horiz-adv-x="214" 
d="M102 -55v734h-82q0 3 0.5 8t5 18.5t12 23.5t24.5 18t40 8q4 1 10 0.5t22 -3.5t28 -10t22 -23t10 -39v-737q0 -22 -9.5 -38t-23 -23t-27 -10.5t-22.5 -3.5l-10 1q-23 -1 -40 7t-24.5 19.5t-12 22.5t-5.5 19v8h82z" />
    <glyph glyph-name="asciicircum" unicode="^" horiz-adv-x="622" 
d="M383 703l212 -399q8 -19 7 -34.5t-8.5 -28.5t-16.5 -22t-16 -14l-7 -5l-232 447l-195 -385q-6 -12 -15.5 -20.5t-19.5 -12.5t-20.5 -5.5t-19.5 -1t-16.5 2t-11.5 2.5l-4 1l242 480q23 46 58 45.5t63 -50.5z" />
    <glyph glyph-name="underscore" unicode="_" horiz-adv-x="653" 
d="M563 78q20 0 34.5 -8t21 -19.5t10.5 -23t4 -19.5v-8h-543q-14 0 -26 4t-19 11t-12.5 15.5t-7.5 17t-3.5 15t-1.5 11.5v4h543z" />
    <glyph glyph-name="grave" unicode="`" horiz-adv-x="199" 
d="M20 767h110q22 -131 49 -204q-61 -5 -83 17q-33 33 -76 187z" />
    <glyph glyph-name="a" unicode="a" horiz-adv-x="460" 
d="M235 531q30 0 55.5 -6t50 -21t41.5 -38t27.5 -60t10.5 -85v-184q0 -23 -16.5 -35t-39 -19.5t-29.5 -16.5q-26 -33 -65.5 -49.5t-77.5 -16.5q-18 0 -38.5 4.5t-45 16.5t-43.5 30.5t-32 50t-13 70.5q0 79 52 131t148 52q23 0 109 -19q-2 49 -32 83t-80 34q-35 -1 -63.5 -11
t-68.5 -36q-13 -8 -18 3q-3 10 7 21q39 42 86.5 71.5t74.5 29.5zM329 166v97q-75 16 -115 13q-41 -2 -72 -28t-31 -74q0 -42 26.5 -69t73.5 -27q23 0 50.5 12t47.5 33t20 43z" />
    <glyph glyph-name="b" unicode="b" horiz-adv-x="532" 
d="M265 531q113 0 180 -78t67 -191q0 -106 -70.5 -184t-156.5 -78q-56 0 -93.5 16t-66.5 59q-5 8 -27 16t-40 19.5t-18 30.5v612l33 -7q58 -19 58 -69v-206q35 34 65 47t69 13zM266 78q32 0 60.5 14.5t49 39.5t32.5 59t12 71q0 79 -42.5 134.5t-112.5 55.5q-48 0 -91 -38
t-43 -99v-106q0 -17 8.5 -38t24 -42.5t43 -36t59.5 -14.5z" />
    <glyph glyph-name="c" unicode="c" horiz-adv-x="473" 
d="M269 451q-68 0 -115.5 -65t-37.5 -148q5 -40 22.5 -72t40.5 -50t45.5 -27t41.5 -9q37 0 68 10t69 34q7 4 14 1.5t7 -10t-8 -16.5q-39 -41 -87 -70t-76 -29q-15 0 -40 6t-59.5 24.5t-63.5 46t-49.5 76t-20.5 109.5q0 109 72.5 189t174.5 80q31 0 62 -9t52.5 -21t38.5 -24
t25 -21l8 -9q-1 -1 -2 -3t-5.5 -7.5t-9.5 -10t-12.5 -9.5t-15 -7.5t-17 -1.5t-18.5 6q-2 1 -18 10.5t-24 13.5t-25.5 8.5t-36.5 4.5z" />
    <glyph glyph-name="d" unicode="d" horiz-adv-x="532" 
d="M400 677q0 14 5.5 26t13 20t18 14t19.5 9t17.5 4.5t13 2t5.5 0.5v-612q0 -19 -18 -30.5t-40 -19.5t-27 -16q-29 -43 -67 -59t-93 -16q-87 0 -157 78t-70 184q0 113 67 191t180 78q39 0 69 -13t64 -47v206zM400 209v106q0 61 -42.5 99t-90.5 38q-47 0 -83 -26.5
t-54.5 -69.5t-18.5 -94q0 -76 45.5 -130t108.5 -54q33 0 60 14.5t43 36t24 42.5t8 38z" />
    <glyph glyph-name="e" unicode="e" horiz-adv-x="511" 
d="M490 319q6 -35 -26 -60.5t-52 -27.5l-290 -29q19 -55 60 -89t90 -35q35 0 63.5 10.5t67.5 35.5q13 8 19 -3q4 -9 -7 -21q-40 -41 -87 -70.5t-75 -29.5q-17 0 -42 6.5t-59.5 25t-63 46t-48.5 76t-20 107.5q0 109 75.5 189t177.5 80q49 0 88.5 -17t64.5 -47.5t41 -67
t23 -79.5zM111 279l284 30q0 68 -46.5 109.5t-106.5 31.5q-54 -9 -91.5 -59t-39.5 -112z" />
    <glyph glyph-name="f" unicode="f" horiz-adv-x="402" 
d="M365 711q13 -6 16.5 -15.5t-4 -13.5t-25.5 1q-74 24 -113 -2t-39 -85v-65h96q12 0 22.5 -4.5t17 -11.5t11.5 -15t7.5 -16.5t4.5 -15.5t2 -11v-4h-161l2 -376q0 -20 -9.5 -35.5t-23 -23t-27 -12t-22.5 -5.5l-10 -1l-1 453h-23q-13 0 -23.5 4t-17 11t-11.5 15.5t-7.5 17
t-4 15t-2.5 11.5v4h89v65q0 63 33.5 110t71.5 47q16 0 32 -2t26.5 -4t26.5 -8t21.5 -8t23.5 -10.5t21 -9.5z" />
    <glyph glyph-name="g" unicode="g" horiz-adv-x="532" 
d="M407 455q5 -7 27 -15t40 -20t18 -30v-354q0 -52 -15.5 -94.5t-40 -69.5t-56 -45.5t-62 -26t-59.5 -7.5q-18 0 -46.5 13t-60 36t-56.5 50q-16 16 -3 25q7 5 16 0q38 -25 69 -34.5t68 -9.5q15 0 33.5 4t40.5 15t39.5 27.5t29 44.5t11.5 63v32q-34 -34 -64 -46.5t-69 -12.5
q-103 0 -175 76.5t-72 185.5q0 106 70.5 187.5t156.5 81.5q36 0 63 -6t52 -23t45 -47zM400 215v105q0 27 -13.5 56t-46 52.5t-75.5 23.5q-63 0 -108.5 -57t-45.5 -133t45.5 -130t110.5 -54q48 0 90.5 38t42.5 99z" />
    <glyph glyph-name="h" unicode="h" 
d="M279 530q70 0 119.5 -56.5t49.5 -149.5v-323q-3 0 -9.5 1t-22 6t-27.5 12t-22 22.5t-10 35.5v237q0 24 -5.5 46t-17 43.5t-36 34.5t-58.5 13q-49 0 -79 -36.5t-30 -72.5v-265q0 -20 -9.5 -35.5t-22.5 -23t-26.5 -12t-23.5 -5.5l-9 -1v752l33 -7q58 -19 58 -69v-214
q26 36 62 51.5t86 15.5z" />
    <glyph glyph-name="i" unicode="i" horiz-adv-x="189" 
d="M95 586q-11 0 -21.5 4.5t-17.5 12t-11.5 17.5t-4.5 21q0 23 16 39t38.5 16t39 -16t16.5 -39t-16.5 -39t-38.5 -16zM140 531v-454q0 -20 -9 -35.5t-22.5 -23t-27 -12t-22.5 -5.5l-10 -1v454q0 20 9.5 35t23 22.5t27 12.5t22.5 6z" />
    <glyph glyph-name="j" unicode="j" horiz-adv-x="333" 
d="M238 586q-23 0 -39 16t-16 39q0 9 3 17.5t8 15t11.5 11.5t15 8t17.5 3q23 0 39 -16t16 -39t-16 -39t-39 -16zM284 -50q0 -63 -33.5 -110t-72.5 -47q-16 0 -32 2t-26.5 4t-26.5 8t-21.5 8t-23.5 10.5t-21 9.5q-12 6 -16 15.5t4 13.5t26 -1q73 -24 112 2t39 85l-2 504
q0 11 3.5 21t8.5 17t12 13t14.5 10t15 7t14.5 4.5t12.5 2.5t8.5 1l3 1z" />
    <glyph glyph-name="k" unicode="k" horiz-adv-x="510" 
d="M470 531l-219 -223l214 -308h-30q-31 0 -62.5 10.5t-46.5 33.5l-141 199l-54 -53v-114q0 -20 -9.5 -35t-23 -22.5t-26.5 -12t-23 -5.5l-9 -1v751q4 0 10 -1t22 -6t28 -12t21.5 -22.5t9.5 -35.5v-375l201 198q32 34 97 34h41z" />
    <glyph glyph-name="l" unicode="l" horiz-adv-x="269" 
d="M209 27q14 -2 18.5 -9t-1.5 -12.5t-16 -5.5q-82 0 -126 40t-44 115v519q0 20 9.5 35.5t23 23t27 12t22.5 5.5l9 1v-581q1 -56 22 -97t56 -46z" />
    <glyph glyph-name="m" unicode="m" horiz-adv-x="765" 
d="M564 531q66 0 113.5 -57t47.5 -149v-325q-2 0 -5.5 0.5t-13 2.5t-18 4.5t-19 8.5t-18 13.5t-13 19.5t-5.5 26v238q0 25 -4 46.5t-14.5 44t-33 36t-54.5 12.5q-46 0 -72.5 -38t-26.5 -76v-270v-68q-4 1 -10 1.5t-21.5 5t-28 11.5t-22 22t-9.5 35v238q0 25 -4.5 46.5
t-15 44t-33 36t-53.5 12.5q-46 0 -72.5 -38t-26.5 -76v-265q0 -20 -9.5 -35t-23 -22t-27 -11t-23.5 -4l-9 -1v389q0 12 6.5 21t17 14.5t21.5 9.5t21.5 9.5t14.5 11.5q26 41 61 58.5t85 17.5q41 0 77 -23.5t57 -65.5q25 36 52 56t52 26.5t59 6.5z" />
    <glyph glyph-name="n" unicode="n" 
d="M279 531q70 0 119.5 -57t49.5 -149v-324q-3 1 -9.5 1.5t-22 5.5t-27.5 12.5t-22 22.5t-10 35v237q0 24 -5 46t-17 44t-36.5 35t-58.5 12q-49 0 -79 -36.5t-30 -72.5v-265q0 -20 -9 -35t-22.5 -22.5t-27 -12.5t-23.5 -6l-9 -1v388q0 19 17 30t39 19.5t29 16.5
q27 41 64 58.5t90 17.5z" />
    <glyph glyph-name="o" unicode="o" horiz-adv-x="534" 
d="M266.5 531q102.5 0 174.5 -78t72 -188t-72 -187.5t-174.5 -77.5t-174.5 77.5t-72 187.5t72 188t174.5 78zM266.5 79q64.5 0 110 54.5t45.5 131.5t-45.5 131.5t-110 54.5t-110 -54.5t-45.5 -131.5t45.5 -131.5t110 -54.5z" />
    <glyph glyph-name="p" unicode="p" horiz-adv-x="552" 
d="M285 531q86 0 156.5 -78.5t70.5 -183.5q0 -113 -67 -191t-180 -78q-39 0 -69 12.5t-65 47.5v-191q0 -20 -9 -35t-22.5 -22.5t-27 -12t-23.5 -5.5l-9 -1v597q0 18 18 30t40 20t27 15q29 44 66.5 60t93.5 16zM265 78q70 0 112.5 55.5t42.5 135.5q0 75 -45 129t-109 54
q-32 0 -59.5 -14.5t-43 -35.5t-24 -42.5t-8.5 -37.5v-107q0 -60 43 -98.5t91 -38.5z" />
    <glyph glyph-name="q" unicode="q" horiz-adv-x="532" 
d="M407 455q5 -7 27 -15t40 -20t18 -30v-597q-4 0 -10 0.5t-22 5.5t-28 12.5t-22 22.5t-10 35v191q-34 -35 -64 -47.5t-69 -12.5q-113 0 -180 78t-67 191q0 105 70 183.5t157 78.5q55 0 93 -16t67 -60zM400 215v107q0 16 -8 37.5t-24 42.5t-43 35.5t-60 14.5
q-63 0 -108.5 -54t-45.5 -129q0 -80 43 -135.5t113 -55.5q48 0 90.5 38.5t42.5 98.5z" />
    <glyph glyph-name="r" unicode="r" horiz-adv-x="337" 
d="M279 531q15 0 38 -7q-1 -3 -2.5 -8t-8 -17.5t-14.5 -22t-21.5 -17t-30.5 -7.5q-48 2 -78.5 -35t-30.5 -74v-266q0 -20 -9.5 -35.5t-22.5 -23t-26.5 -12t-23.5 -5.5l-9 -1v389q0 19 17 30t39 19.5t29 16.5q27 41 64 58.5t90 17.5z" />
    <glyph glyph-name="s" unicode="s" horiz-adv-x="367" 
d="M201 319q71 -28 108.5 -66t37.5 -100q0 -72 -55 -112.5t-151 -40.5q-24 0 -61 7t-60 21q0 2 1.5 5.5t5.5 13t9.5 16.5t15.5 12.5t22 5.5q10 0 35 -4t60 -2q29 2 59.5 21.5t30.5 48.5q0 31 -21 50.5t-73 39.5q-131 46 -131 148q0 62 47 105t126 43q22 0 55.5 -8t55.5 -16
t22 -9q-1 -5 -4 -11.5t-9 -13.5t-15.5 -13t-20.5 -10q-16 -3 -26.5 -2.5t-31 3t-32.5 2.5q-30 0 -55 -17t-25 -43q0 -25 16 -40.5t64 -33.5z" />
    <glyph glyph-name="t" unicode="t" horiz-adv-x="413" 
d="M362 108q22 16 29 4.5t-9 -27.5q-28 -28 -70.5 -56.5t-76.5 -28.5q-20 0 -37.5 5.5t-29.5 15t-21.5 21.5t-15.5 25t-10.5 26.5t-6.5 25.5t-3 21t-1 15v5v292h-90q0 3 1 8.5t5 19t10 23.5t19.5 18.5t30.5 8.5h24v117q1 0 4.5 -0.5t13 -2.5t18 -5t19 -9t18 -13.5t13 -19.5
t5.5 -27v-40l160 1v-5t-2 -11t-4.5 -15.5t-7.5 -16.5t-11.5 -15.5t-17 -11t-22.5 -4.5h-95v-292q0 -3 0.5 -8.5t4.5 -20t11 -25.5t22.5 -20t36.5 -9q27 0 44.5 7t41.5 24z" />
    <glyph glyph-name="u" unicode="u" 
d="M357 455q0 20 9.5 35t22 22.5t27.5 12t22.5 5.5t9.5 1v-390q0 -18 -16.5 -29.5t-39 -19.5t-29.5 -16q-26 -42 -63 -59t-91 -17q-70 0 -119.5 56.5t-49.5 149.5v325q4 -1 10 -1.5t22 -5t28 -12t21.5 -22.5t9.5 -35v-239q0 -24 5.5 -46t17.5 -44t36 -35t58 -13
q49 0 79 36.5t30 73.5v267z" />
    <glyph glyph-name="v" unicode="v" horiz-adv-x="537" 
d="M491 531h26l-211 -531q-3 0 -8.5 0.5t-20.5 4t-28 9t-26.5 18.5t-20.5 31l-172 468h19q24 0 48 -12t35 -37l131 -355l137 358q9 22 37 34t54 12z" />
    <glyph glyph-name="w" unicode="w" horiz-adv-x="820" 
d="M777 531h23l-171 -531h-10t-23 3t-30.5 8.5t-28 18.5t-20.5 30l-86 337l-126 -397h-10.5t-23 3t-30.5 8.5t-28 18.5t-20 30l-163 471h20q22 0 45 -12t33 -37l125 -346l116 345q10 27 32 38.5t44 11.5h19l113 -395q21 62 46.5 144t43 138.5t21.5 66.5q8 23 35 34.5
t54 11.5z" />
    <glyph glyph-name="x" unicode="x" horiz-adv-x="530" 
d="M510 531l-195 -274l184 -257h-37q-21 0 -44.5 9.5t-33.5 26.5l-113 159l-114 -159q-10 -17 -33 -26.5t-45 -9.5h-59l195 273l-184 258h27q64 0 84 -31l117 -164l117 164q21 31 85 31h49z" />
    <glyph glyph-name="y" unicode="y" horiz-adv-x="561" 
d="M514 531h27l-245 -631q-46 -107 -97 -107q-14 0 -27 1t-25.5 4t-21.5 5.5t-21.5 7t-18.5 7.5t-19.5 9t-17.5 8q-13 6 -17 14.5t4 13t26 0.5q19 -5 29 -6.5t29.5 -2t32 5t27 19t25.5 35.5l34 89l-205 528l25 -1q21 0 42 -13t28 -34l149 -381l147 378q8 22 32.5 36.5
t57.5 14.5z" />
    <glyph glyph-name="y" unicode="&#xff;" horiz-adv-x="561" 
d="M514 531h27l-245 -631q-46 -107 -97 -107q-14 0 -27 1t-25.5 4t-21.5 5.5t-21.5 7t-18.5 7.5t-19.5 9t-17.5 8q-13 6 -17 14.5t4 13t26 0.5q19 -5 29 -6.5t29.5 -2t32 5t27 19t25.5 35.5l34 89l-205 528l25 -1q21 0 42 -13t28 -34l149 -381l147 378q8 22 32.5 36.5
t57.5 14.5z" />
    <glyph glyph-name="y" unicode="&#xfd;" horiz-adv-x="561" 
d="M514 531h27l-245 -631q-46 -107 -97 -107q-14 0 -27 1t-25.5 4t-21.5 5.5t-21.5 7t-18.5 7.5t-19.5 9t-17.5 8q-13 6 -17 14.5t4 13t26 0.5q19 -5 29 -6.5t29.5 -2t32 5t27 19t25.5 35.5l34 89l-205 528l25 -1q21 0 42 -13t28 -34l149 -381l147 378q8 22 32.5 36.5
t57.5 14.5z" />
    <glyph glyph-name="z" unicode="z" horiz-adv-x="509" 
d="M423 78q17 0 30 -8t19.5 -19.5t10.5 -23t5 -19.5l1 -8h-469q0 32 37 80l289 372h-245q-17 0 -30 8t-19.5 19.5t-10.5 23t-5 19.5l-1 9l454 -1q0 -34 -36 -82l-279 -370h249z" />
    <glyph glyph-name="braceleft" unicode="{" horiz-adv-x="372" 
d="M202 20q1 -20 8.5 -34.5t19 -21t25 -9.5t27 -2t25 2.5t18.5 3.5l7 2q-1 -4 -1.5 -10t-6 -22t-13.5 -28t-26 -22.5t-41 -10.5q-62 0 -99.5 40t-35.5 96q0 9 4.5 72.5t3 105t-10.5 73.5q-4 12 -20 22t-31 15l-15 5v36q2 0 6 0.5t14.5 3t19 6t16 10.5t10.5 16q9 32 10.5 73
t-3 105.5t-4.5 72.5q-2 56 35.5 95.5t99.5 39.5q23 0 41 -9.5t26 -23t13.5 -27t6.5 -23.5l1 -9q-6 1 -14.5 3.5t-30 4t-38.5 -2.5t-31.5 -20t-15.5 -44q-1 -29 3.5 -67t9 -65.5t3.5 -59t-11 -55.5q-12 -31 -43 -45q31 -14 43 -45q10 -24 11 -55.5t-3.5 -59t-9 -65.5
t-3.5 -67z" />
    <glyph glyph-name="verticalbar" unicode="|" horiz-adv-x="158" 
d="M40 840q0 20 8 34.5t19.5 21t23 10.5t19.5 4h8v-1018q0 -14 -4 -26t-11 -19t-15.5 -12.5t-17 -7.5t-15 -3.5t-11.5 -1.5h-4v1018z" />
    <glyph glyph-name="braceright" unicode="}" horiz-adv-x="372" 
d="M40 -39q3 -1 7.5 -2t17.5 -3.5t25 -3t26.5 2.5t25.5 9.5t19 21t8 34.5q2 29 -2.5 67t-9 65.5t-4 59t10.5 55.5q13 31 44 45q-31 14 -44 45q-10 24 -10.5 55.5t4 59t9 65.5t2.5 67q0 20 -7.5 34.5t-19 21t-25.5 9.5t-27.5 2t-24.5 -2.5t-18 -3.5l-7 -2q0 3 1 9.5t6 22.5
t13.5 28t26 22t41.5 10q62 0 99.5 -39.5t35.5 -95.5q-1 -15 -2.5 -38.5t-2.5 -42.5t-2 -43.5t-0.5 -45t3 -42.5t7.5 -39q2 -9 9.5 -16t17 -10.5t18.5 -6t15 -3.5h6v-36q-3 -1 -7 -2t-14.5 -5.5t-18.5 -9t-16 -11.5t-10 -14q-10 -32 -11.5 -73.5t3 -105t5.5 -72.5
q2 -56 -35.5 -96t-99.5 -40q-24 0 -41.5 10t-26 23.5t-13.5 27t-6 23.5z" />
    <glyph glyph-name="asciitilde" unicode="~" horiz-adv-x="627" 
d="M508 333q5 13 18 19.5t25 6.5t26.5 -3.5t20 -5.5t9.5 -4q-5 -41 -18 -67.5t-33 -37.5t-45.5 -14.5t-55.5 1.5q-25 2 -85.5 23.5t-120 45.5t-62.5 25q-53 17 -74 -32q-8 -19 -31 -20t-43 7l-19 9q11 64 43 99t79 32q11 0 81 -25.5t143 -53t78 -29.5q17 -5 28.5 -6t18 4.5
t9.5 10t8 15.5z" />
    <glyph glyph-name="nonbreakingspace" unicode="&#xa0;" horiz-adv-x="383" 
 />
    <glyph glyph-name="cent" unicode="&#xa2;" horiz-adv-x="473" 
d="M269 521q-69 0 -116 -61.5t-37 -144.5q5 -40 22.5 -72t40.5 -49.5t45.5 -27t41.5 -9.5q37 0 68 10t69 34q7 5 14 2t7 -10t-8 -17q-50 -52 -109 -82v-18q0 -20 -9.5 -35t-23 -22.5t-27 -12t-22.5 -5.5l-10 -1v83q-24 7 -47.5 17.5t-51 31t-48 47.5t-34.5 68.5t-14 91.5
q0 94 55.5 165.5t139.5 90.5v46q0 12 3 21.5t8.5 17t12.5 13.5t14.5 9.5t15 6.5t14.5 4.5t12 2.5t8 2h4v-121q25 -4 49.5 -14t41 -20.5t30 -21t19.5 -16.5l6 -7q0 -1 -1 -2t-4 -5t-6 -7.5t-7.5 -8t-9.5 -7.5t-11 -5.5t-12.5 -3.5t-14 0.5t-14.5 5.5q-2 1 -18 10.5t-24 13
t-25.5 8t-36.5 4.5z" />
    <glyph glyph-name="sterling" unicode="&#xa3;" horiz-adv-x="513" 
d="M423 78q20 0 34.5 -8t21 -19.5t10.5 -23t4 -19.5v-8l-460 2q-2 3 -3.5 12t-0.5 20.5t8 24t19 19.5q43 23 65.5 55t24.5 68q2 39 -1 68.5t-6 40.5l-3 10l-50 3q-13 0 -23.5 4t-17 11t-11.5 15.5t-7.5 16.5t-4 15t-2.5 11v5h102q0 7 -1.5 31.5t-2 43t2.5 47t9 49.5t20 45
t34 39t52 25.5t73 11.5q24 0 56.5 -17.5t54 -34.5t37.5 -33t9 -27.5t-29 3.5q-24 17 -41.5 24.5t-45.5 7.5q-41 0 -69 -11.5t-41 -27.5t-18.5 -42.5t-5 -45.5t2.5 -47.5t2 -38.5l82 -2q12 0 22.5 -4.5t17 -11.5t11.5 -15.5t8 -16.5t4.5 -15t1.5 -11l1 -5l-141 1
q9 -98 9 -122q1 -58 -56 -123h242z" />
    <glyph glyph-name="yen" unicode="&#xa5;" horiz-adv-x="540" 
d="M447 306h-138v-58h208v-8.5t-4 -19t-10.5 -23.5t-21 -18.5t-34.5 -8.5h-138v-94q0 -20 -9.5 -35t-23 -22.5t-27 -12t-22.5 -5.5l-9 -1v170h-198v4.5t1.5 10.5t3.5 15.5t7.5 16.5t12.5 15.5t19 11t26 4.5h128v58h-198q0 3 0.5 8t4 18.5t10 24t21 19t34.5 8.5h96l-156 295
q2 2 7 4t18.5 5t26 1.5t26.5 -10.5t23 -26l132 -249q0 1 1 1l139 252q9 17 24.5 26t31 9.5t29.5 -2t23 -6.5l9 -3l-164 -297h161v-8.5t-4 -19t-10.5 -23.5t-21 -18.5t-34.5 -8.5z" />
    <glyph glyph-name="Agrave" unicode="&#xc0;" horiz-adv-x="630" 
d="M293 748q-42 20 -134 151l103 37q65 -116 115 -176q-1 -1 -2 -1.5t-5 -2t-8.5 -3t-10.5 -3t-11.5 -3t-12 -2.5t-12.5 -1t-12 1t-10 3zM355 710q3 -12 14.5 -43.5t27 -75t35 -97t39.5 -110t40 -112t38 -104.5t31.5 -87t21.5 -59.5l8 -21.5h-26q-28 0 -55 11.5t-36 36.5
l-56 164h-258l-56 -164q-10 -27 -36.5 -37.5t-53.5 -10.5h-13l232 644q11 30 33 48t51 18h19zM206 290h204l-102 298z" />
    <glyph glyph-name="Aacute" unicode="&#xc1;" horiz-adv-x="630" 
d="M355 710l255 -710h-26q-28 0 -55 11.5t-36 36.5l-56 164h-258l-56 -164q-10 -27 -36.5 -37.5t-53.5 -10.5h-13l232 644q11 30 33 48t51 18h19zM206 290h204l-102 298zM341 748q-16 -6 -34.5 -3t-33.5 9l-16 6q50 60 115 176l103 -37q-92 -131 -134 -151z" />
    <glyph glyph-name="Acircumflex" unicode="&#xc2;" horiz-adv-x="630" 
d="M278 762q-14 -10 -35.5 -13.5t-36 -2l-14.5 1.5l78 111q15 18 51.5 17.5t51.5 -20.5l84 -111q-29 -3 -52.5 1.5t-32.5 9.5l-8 6l-42 55zM355 710q3 -12 14.5 -43.5t27 -75t35 -97t39.5 -110t40 -112t38 -104.5t31.5 -87t21.5 -59.5l8 -21.5h-26q-28 0 -55 11.5t-36 36.5
l-56 164h-258l-56 -164q-10 -27 -36.5 -37.5t-53.5 -10.5h-13l232 644q11 30 33 48t51 18h19zM206 290h204l-102 298z" />
    <glyph glyph-name="Atilde" unicode="&#xc3;" horiz-adv-x="630" 
d="M249 771q-3 -7 -13 -8t-23 3l-19.5 6t-10.5 4q11 80 65 81q10 0 24.5 -3.5t25.5 -7t23 -8t13 -5.5q49 -16 57 -1q5 11 22 12t31 -3l14 -5q-4 -28 -12 -45.5t-21.5 -24.5t-22 -8.5t-23.5 -1.5q-8 0 -17.5 2.5t-19 6t-18 7t-16 6.5t-11.5 4q-39 10 -48 -11zM355 709
q3 -12 14.5 -43.5t27 -75t35 -97t39.5 -110t40 -112t38 -104.5t31.5 -87t21.5 -59.5l8 -21.5h-26q-28 0 -55 11.5t-36 36.5l-56 164h-258l-56 -164q-10 -27 -36.5 -37.5t-53.5 -10.5h-13l232 644q11 30 33 48t51 18h19zM206 289h204l-102 298z" />
    <glyph glyph-name="Adieresis" unicode="&#xc4;" horiz-adv-x="630" 
d="M212.5 758q-18.5 0 -32 13.5t-13.5 32.5t13.5 32.5t32 13.5t32 -13.5t13.5 -32.5t-13.5 -32.5t-32 -13.5zM410 758q-19 0 -32.5 13.5t-13.5 32.5t13.5 32.5t32.5 13.5t32 -13.5t13 -32.5t-13 -32.5t-32 -13.5zM355 709l255 -710h-26q-28 0 -55 11.5t-36 36.5l-56 164
h-258l-56 -164q-10 -27 -36.5 -37.5t-53.5 -10.5h-13l232 644q11 30 33 48t51 18h19zM206 289h204l-102 298z" />
    <glyph glyph-name="Aring" unicode="&#xc5;" horiz-adv-x="630" 
d="M355 709l255 -710h-26q-28 0 -55 11.5t-36 36.5l-56 164h-258l-56 -164q-10 -27 -36.5 -37.5t-53.5 -10.5h-13l232 644q11 30 33 48t51 18h19zM206 289h204l-102 298zM311 736q-41 0 -70.5 26.5t-29.5 64.5t29.5 65t70.5 27t70.5 -27t29.5 -65t-29.5 -64.5t-70.5 -26.5z
M312 886q-24 0 -41 -17.5t-17 -41.5q0 -16 7.5 -29.5t21 -21.5t29.5 -8q24 0 40.5 17.5t16.5 41.5q0 16 -7.5 29.5t-21 21.5t-28.5 8z" />
    <glyph glyph-name="AE" unicode="&#xc6;" horiz-adv-x="896" 
d="M794 79q13 0 24 -4t19 -11t15 -15.5t11 -17t7 -15t4.5 -11l1.5 -4.5h-284q-74 0 -83 45l-31 164h-258l-82 -164q-21 -43 -105 -43h-13l332 644q15 29 44.5 45t60.5 16l303 1q0 -3 0.5 -8.5t-1 -19t-5.5 -23.5t-15.5 -18.5t-28.5 -8.5h-219q16 -82 45 -222h251
q0 -4 0.5 -9t-0.5 -18.5t-5.5 -24t-15.5 -19t-29 -8.5h-185q24 -118 51 -251h191zM260 288h204l-56 297z" />
    <glyph glyph-name="Ccedilla" unicode="&#xc7;" horiz-adv-x="584" 
d="M355 632q-103 0 -173.5 -80.5t-70.5 -197.5q0 -118 70.5 -200.5t173.5 -82.5q31 0 74 14t77 44q11 9 18 -1q5 -8 -5 -20q-81 -94 -143 -108l-23 -48q1 0 4.5 -1t12.5 -5.5t16.5 -10t16 -15.5t12.5 -21t3.5 -26.5t-6.5 -33.5q-12 -29 -37 -42.5t-52.5 -12t-53 7
t-42.5 13.5l-17 7q4 4 10 10.5t19.5 17.5t22.5 10q6 0 30 -6.5t39 -3t22 23.5q3 11 -1.5 20t-14.5 14t-22 9t-23 6.5t-17.5 5.5t-5.5 7l37 75q-129 18 -207.5 117t-78.5 236q0 97 45 179t122 129.5t168 47.5q119 0 209 -47q-13 -20 -29.5 -31t-35.5 -13t-31.5 -1.5
t-30.5 4.5q-41 10 -82 10z" />
    <glyph glyph-name="Egrave" unicode="&#xc8;" horiz-adv-x="484" 
d="M218 747q-42 20 -134 151l104 37q64 -116 114 -176q-1 -1 -3 -2t-8.5 -3t-12.5 -4t-14.5 -4t-16 -2.5t-15.5 0t-14 3.5zM378 78q17 0 30 -8t19.5 -18.5t10.5 -24t5 -18.5t1 -9h-313v-1h-91v638q0 14 5 25t13 18.5t18 13t19.5 8.5t17.5 4.5t13 1.5l5 1h296v-3t-1 -7
t-2 -10.5t-3.5 -12.5t-6 -13t-8.5 -12t-11 -10.5t-14.5 -7t-18.5 -2.5h-231v-206h285q0 -2 -0.5 -5t-2 -11t-4 -15.5t-7.5 -16.5t-11.5 -15.5t-17 -11t-22.5 -4.5h-220v-268h247z" />
    <glyph glyph-name="Eacute" unicode="&#xc9;" horiz-adv-x="484" 
d="M378 78q17 0 30 -8t19.5 -18.5t10.5 -24t5 -18.5t1 -9h-313v-1h-91v638q0 14 5 25t13 18.5t18 13t19.5 8.5t17.5 4.5t13 1.5l5 1h296q0 -3 -0.5 -8.5t-4.5 -19t-10.5 -23.5t-19.5 -18.5t-30 -8.5h-231v-206h285q0 -2 -0.5 -5t-2 -11t-4 -15.5t-7.5 -16.5t-11.5 -15.5
t-17 -11t-22.5 -4.5h-220v-268h247zM270 747q-16 -6 -34.5 -3t-33.5 9l-16 6q50 60 115 176l103 -37q-92 -131 -134 -151z" />
    <glyph glyph-name="Ecircumflex" unicode="&#xca;" horiz-adv-x="484" 
d="M195 761q-14 -10 -35.5 -13.5t-36 -2l-14.5 1.5l78 111q15 18 52 17.5t51 -20.5l85 -111q-20 -2 -35.5 -1t-26.5 4t-18 6t-11 6l-3 2l-42 55zM378 78q17 0 30 -8t19.5 -18.5t10.5 -24t5 -18.5t1 -9h-313v-1h-91v638q0 14 5 25t13 18.5t18 13t19.5 8.5t17.5 4.5t13 1.5
l5 1h296q0 -3 -0.5 -8.5t-4.5 -19t-10.5 -23.5t-19.5 -18.5t-30 -8.5h-231v-206h285q0 -2 -0.5 -5t-2 -11t-4 -15.5t-7.5 -16.5t-11.5 -15.5t-17 -11t-22.5 -4.5h-220v-268h247z" />
    <glyph glyph-name="Edieresis" unicode="&#xcb;" horiz-adv-x="484" 
d="M131 758q-19 0 -32 13.5t-13 32.5t13 32.5t32 13.5t32.5 -13.5t13.5 -32.5t-13.5 -32.5t-32.5 -13.5zM329 758q-19 0 -32.5 13.5t-13.5 32.5t13.5 32.5t32.5 13.5t32 -13.5t13 -32.5t-13 -32.5t-32 -13.5zM378 78q17 0 30 -8.5t19.5 -18.5t10.5 -23.5t5 -19t1 -9.5h-313
h-91v638q0 13 5 24.5t13 18.5t18 12.5t19.5 8.5t17.5 4.5t13 2.5h5h296q0 -3 -0.5 -8t-4.5 -18.5t-10.5 -24t-19.5 -19t-30 -8.5h-231v-206h285q0 -2 -0.5 -4.5t-2 -10.5t-4 -15.5t-7.5 -16.5t-11.5 -15.5t-17 -11t-22.5 -4.5h-220v-268h247z" />
    <glyph glyph-name="Igrave" unicode="&#xcc;" horiz-adv-x="300" 
d="M168 637q0 11 3.5 20t8.5 16t12 12.5t14.5 9t15 6t14.5 4t12.5 2.5t8.5 1l3 1v-638q0 -18 -9.5 -32.5t-23 -21.5t-27 -11t-22.5 -5l-10 -1v637zM258 759l-6 -3t-15 -5.5t-21 -5.5t-22 -2t-20 4q-42 20 -134 151l104 37q64 -116 114 -176z" />
    <glyph glyph-name="Iacute" unicode="&#xcd;" horiz-adv-x="298" 
d="M69 637q0 54 72 69q14 3 20 3v-638q0 -18 -9.5 -32.5t-23 -21.5t-27 -11t-22.5 -5l-10 -1v637zM154 935l104 -37q-92 -131 -134 -151q-16 -6 -34.5 -3t-34.5 9l-15 6q50 60 114 176z" />
    <glyph glyph-name="Icircumflex" unicode="&#xce;" horiz-adv-x="345" 
d="M221 855l84 -111q-30 -3 -53 1.5t-32 9.5l-9 6l-42 55l-43 -55q-14 -10 -35.5 -13.5t-36.5 -1.5l-14 1l77 111q16 18 52.5 17.5t51.5 -20.5zM118 637q0 54 72 69q13 3 19 3v-638q0 -18 -9.5 -32.5t-22.5 -21.5t-26.5 -11t-23.5 -5l-9 -1v637z" />
    <glyph glyph-name="Idieresis" unicode="&#xcf;" horiz-adv-x="369" 
d="M120 637q0 14 5 25t13 18.5t18 13t19.5 8t17.5 4.5t13 2l5 1v-638q0 -18 -9.5 -32.5t-22.5 -21.5t-26.5 -11t-23.5 -5l-9 -1v637zM86 850q19 0 32 -13.5t13 -32.5t-13 -32.5t-32 -13.5t-32.5 13.5t-13.5 32.5t13.5 32.5t32.5 13.5zM283 758q-19 0 -32.5 13.5t-13.5 32.5
t13.5 32.5t32.5 13.5t32.5 -13.5t13.5 -32.5t-13.5 -32.5t-32.5 -13.5z" />
    <glyph glyph-name="Eth" unicode="&#xd0;" horiz-adv-x="723" 
d="M349 709q85 0 152.5 -27.5t111 -75.5t67 -112t23.5 -139q0 -96 -48 -178t-129.5 -130t-176.5 -48h-225v316h-34q-14 0 -26 4t-19 11t-12.5 15.5t-7.5 16.5t-3.5 15t-1.5 11v5h104v178q0 17 17.5 29t39.5 21.5t28 17.5q16 22 40 38.5t49.5 24t50.5 7.5zM328 77
q125 0 204 80t79 198q0 58 -15.5 105.5t-41 78.5t-59 52t-69.5 30.5t-73 9.5q-26 0 -48.5 -6t-39 -16.5t-27.5 -24.5t-17 -30.5t-6 -34.5v-126h122q20 0 34.5 -8t21 -19.5t10.5 -23t4 -19.5v-8h-192v-237z" />
    <glyph glyph-name="Ntilde" unicode="&#xd1;" horiz-adv-x="568" 
d="M230 774q-3 -7 -13 -8t-23 2.5t-19.5 5.5t-10.5 4q11 81 65 81q10 0 24.5 -3.5t25.5 -7t23 -8t13 -4.5q49 -16 57 -1q3 7 11 9.5t17.5 2t18 -2t14.5 -3.5l6 -2q-4 -29 -12 -46.5t-21.5 -24t-22 -8t-23.5 -1.5q-12 0 -29 5.5t-33 12t-20 7.5q-39 11 -48 -10zM456 637
q0 18 9.5 32.5t23 21.5t27 11t22.5 5l10 1v-637q0 -19 -9.5 -33t-23 -21t-27 -11.5t-22.5 -5.5l-10 -1l-358 543v-482q0 -25 -19.5 -40.5t-38.5 -17.5l-20 -3v648q0 11 4.5 21t11 16t15 10.5t17 7t15.5 4t11 2.5h4l358 -543v472z" />
    <glyph glyph-name="Ograve" unicode="&#xd2;" horiz-adv-x="681" 
d="M328 743q-42 20 -134 151l104 37q64 -116 114 -176q-1 -1 -3 -2t-8.5 -3t-12.5 -4t-14.5 -4t-16 -2.5t-15.5 0t-14 3.5zM341 713q87 0 160.5 -47.5t116.5 -129t43 -178t-43 -178.5t-116.5 -129.5t-160.5 -47.5t-161 47.5t-117 129.5t-43 178.5t43 178t117 129t161 47.5z
M340.5 82q94.5 0 162 81t67.5 195.5t-67.5 195.5t-162 81t-161.5 -81t-67 -195.5t67 -195.5t161.5 -81z" />
    <glyph glyph-name="Oacute" unicode="&#xd3;" horiz-adv-x="681" 
d="M349 758q-16 -6 -34.5 -3t-34 8.5t-15.5 6.5q50 60 115 176l103 -37q-92 -131 -134 -151zM341 713q87 0 160.5 -47.5t116.5 -129t43 -178t-43 -178.5t-116.5 -129.5t-160.5 -47.5t-161 47.5t-117 129.5t-43 178.5t43 178t117 129t161 47.5zM340.5 82q94.5 0 162 81
t67.5 195.5t-67.5 195.5t-162 81t-161.5 -81t-67 -195.5t67 -195.5t161.5 -81z" />
    <glyph glyph-name="Ocircumflex" unicode="&#xd4;" horiz-adv-x="681" 
d="M298 776q-15 -10 -36 -13.5t-36 -2t-14 2.5l77 110q16 18 52.5 17.5t50.5 -19.5l85 -112q-30 -3 -53.5 1.5t-31.5 10.5l-9 6l-42 54zM341 713q87 0 160.5 -47.5t116.5 -129t43 -178t-43 -178.5t-116.5 -129.5t-160.5 -47.5t-161 47.5t-117 129.5t-43 178.5t43 178
t117 129t161 47.5zM340.5 82q94.5 0 162 81t67.5 195.5t-67.5 195.5t-162 81t-161.5 -81t-67 -195.5t67 -195.5t161.5 -81z" />
    <glyph glyph-name="Otilde" unicode="&#xd5;" horiz-adv-x="681" 
d="M256 777q-3 -7 -13 -8t-23 3t-19 6t-11 4q11 80 66 81q9 0 23.5 -3.5t25.5 -7t23.5 -8.5t13.5 -5q49 -16 56 -1q5 11 22 12t31 -3l14 -5q-3 -28 -11.5 -46t-21.5 -24.5t-22 -8t-24 -1.5q-12 0 -28.5 5.5t-33 12.5t-19.5 8q-40 10 -49 -11zM341 713q87 0 160.5 -47.5
t116.5 -129t43 -178t-43 -178.5t-116.5 -129.5t-160.5 -47.5t-161 47.5t-117 129.5t-43 178.5t43 178t117 129t161 47.5zM340.5 82q94.5 0 162 81t67.5 195.5t-67.5 195.5t-162 81t-161.5 -81t-67 -195.5t67 -195.5t161.5 -81z" />
    <glyph glyph-name="Odieresis" unicode="&#xd6;" horiz-adv-x="681" 
d="M234 761q-19 0 -32.5 13.5t-13.5 32.5t13.5 32.5t32.5 13.5t32.5 -13.5t13.5 -32.5t-13.5 -32.5t-32.5 -13.5zM431 761q-19 0 -32 13.5t-13 32.5t13 32.5t32 13.5t32.5 -13.5t13.5 -32.5t-13.5 -32.5t-32.5 -13.5zM341 713q87 0 160.5 -47.5t116.5 -129t43 -178
t-43 -178.5t-116.5 -129.5t-160.5 -47.5t-161 47.5t-117 129.5t-43 178.5t43 178t117 129t161 47.5zM340.5 82q94.5 0 162 81t67.5 195.5t-67.5 195.5t-162 81t-161.5 -81t-67 -195.5t67 -195.5t161.5 -81z" />
    <glyph glyph-name="Oslash" unicode="&#xd8;" horiz-adv-x="681" 
d="M578 597q83 -101 83 -239q0 -96 -43 -178t-116.5 -129.5t-160.5 -47.5q-94 0 -173 56q-18 -17 -39 -26.5t-38.5 -11t-32.5 0t-23 3.5l-8 3l73 96q-80 101 -80 234q0 97 43 178.5t117 129t161 47.5q90 0 166 -51q15 17 36 27.5t39.5 12.5t35.5 1.5t27 -3.5l9 -2zM155 197
l303 399q-54 39 -117 39q-95 0 -162 -81t-67 -196q0 -89 43 -161zM341 82q94 0 161.5 81t67.5 195q0 93 -47 167l-304 -401q56 -42 122 -42z" />
    <glyph glyph-name="Ugrave" unicode="&#xd9;" horiz-adv-x="570" 
d="M258 743q-42 20 -134 151l104 37q64 -116 114 -176l-6 -3t-15 -5.5t-21 -5.5t-22 -2t-20 4zM438 637q0 19 9.5 33t23 21t27 11.5t22.5 5.5l10 1v-443q0 -53 -12.5 -96t-33.5 -71t-46 -48.5t-53.5 -31t-53 -15.5t-46.5 -5q-19 0 -39.5 3t-45 11.5t-46.5 21.5t-43 34
t-36.5 48t-25 65.5t-9.5 83.5v443h2.5t7 -1t10.5 -2.5t12.5 -3.5t13.5 -5t12 -8t10.5 -10.5t7 -13.5t2.5 -17v-365q0 -42 7.5 -75.5t21 -55.5t30 -37t36 -23t37 -11.5t35.5 -3.5q28 0 52 8.5t48.5 29t38.5 63.5t14 105v354z" />
    <glyph glyph-name="Uacute" unicode="&#xda;" horiz-adv-x="570" 
d="M313 758q-16 -6 -35 -3t-34 8.5t-15 6.5q50 60 114 176l104 -37q-92 -131 -134 -151zM438 637q0 19 9.5 33t23 21t27 11.5t22.5 5.5l10 1v-443q0 -53 -12.5 -96t-33.5 -71t-46 -48.5t-53.5 -31t-53 -15.5t-46.5 -5q-19 0 -39.5 3t-45 11.5t-46.5 21.5t-43 34t-36.5 48
t-25 65.5t-9.5 83.5v443h2.5t7 -1t10.5 -2.5t12.5 -3.5t13.5 -5t12 -8t10.5 -10.5t7 -13.5t2.5 -17v-365q0 -42 7.5 -75.5t21 -55.5t30 -37t36 -23t37 -11.5t35.5 -3.5q28 0 52 8.5t48.5 29t38.5 63.5t14 105v354z" />
    <glyph glyph-name="Ucircumflex" unicode="&#xdb;" horiz-adv-x="570" 
d="M238 776q-9 -6 -21 -10t-23 -4.5t-20.5 -0.5t-15.5 1l-6 1l78 110q15 18 51.5 17.5t51.5 -19.5l84 -112q-20 -2 -35 -1t-26.5 4t-18.5 6.5t-10 5.5l-3 3l-42 54zM438 637q0 19 9.5 33t23 21t27 11.5t22.5 5.5l10 1v-443q0 -45 -9.5 -83.5t-25 -65.5t-36.5 -48t-43.5 -34
t-46.5 -21.5t-44.5 -11.5t-39.5 -3t-39.5 3t-45 11.5t-46.5 21.5t-43 34t-36.5 48t-25 65.5t-9.5 83.5v443h2.5t7 -1t11 -2.5t12.5 -3.5t13 -5t12 -8t10.5 -10.5t7 -13.5t2.5 -17v-365q0 -42 7.5 -75.5t21 -55.5t30 -37t36 -23t37 -11.5t35.5 -3.5q28 0 52 8.5t48.5 29
t38.5 63.5t14 105v354z" />
    <glyph glyph-name="Udieresis" unicode="&#xdc;" horiz-adv-x="570" 
d="M187.5 761q-18.5 0 -32 13.5t-13.5 32.5t13.5 32.5t32 13.5t32 -13.5t13.5 -32.5t-13.5 -32.5t-32 -13.5zM385 761q-19 0 -32.5 13.5t-13.5 32.5t13.5 32.5t32.5 13.5t32 -13.5t13 -32.5t-13 -32.5t-32 -13.5zM438 637q0 54 72 69q14 3 20 3v-443q0 -53 -12.5 -96
t-33.5 -71t-46 -48.5t-53.5 -31t-53 -15.5t-46.5 -5q-19 0 -39.5 3t-45 11.5t-46.5 21.5t-43 34t-36.5 48t-25 65.5t-9.5 83.5v443q3 0 8.5 -1t19 -4.5t23.5 -9.5t18.5 -18t8.5 -28v-365q0 -42 7.5 -75.5t21 -55.5t30 -37t36 -23t37 -11.5t35.5 -3.5q28 0 52 8.5t48.5 29
t38.5 63.5t14 105v354z" />
    <glyph glyph-name="Yacute" unicode="&#xdd;" horiz-adv-x="590" 
d="M349 758q-17 -6 -35 -3t-34 8.5t-15 6.5q50 60 114 176l104 -37q-92 -131 -134 -151zM539 710h31l-229 -365v-273q0 -19 -9.5 -33t-23 -21t-27 -11.5t-22.5 -5.5l-10 -1v345l-229 365h26q65 0 85 -30l156 -248l153 243q24 35 99 35z" />
    <glyph glyph-name="Thorn" unicode="&#xde;" horiz-adv-x="511" 
d="M225 590q102 0 174 -62t72 -149q0 -57 -33 -105.5t-89.5 -76.5t-123.5 -28q-49 0 -94 16v-111q0 -19 -9 -33t-22.5 -21t-27 -11.5t-23.5 -5.5l-9 -1v638q0 13 5 24.5t13 18.5t18 12.5t19.5 8.5t17.5 4.5t13 2.5h5v-137q45 16 94 16zM225 246q43 0 78 16t56 47t21 70
q0 60 -45.5 96t-111.5 36q-52 0 -92 -23v-217q41 -25 94 -25z" />
    <glyph glyph-name="germandbls" unicode="&#xdf;" horiz-adv-x="490" 
d="M327 427q34 -9 66.5 -41t54.5 -81t22 -99q0 -106 -55.5 -157t-180.5 -48q17 72 37 76q66 17 87 46.5t21 83.5q0 28 -13.5 51t-30 36t-40.5 30.5t-36 30.5q-13 13 -14 47.5t10 49.5q9 13 26.5 28t31.5 26t25.5 30.5t12.5 43.5q2 49 -31.5 76t-78.5 27q-56 0 -93 -37.5
t-37 -86.5v-492q0 -23 -19 -39.5t-39 -21.5l-19 -5l-14 -1v623q0 17 17 29.5t39.5 22t28.5 16.5q22 33 60 51t69 19q41 2 78 -8t66.5 -30.5t47 -55.5t17.5 -80q0 -23 -6.5 -45t-16.5 -37.5t-22.5 -29t-25 -22.5t-22.5 -15t-16 -9z" />
    <glyph glyph-name="agrave" unicode="&#xe0;" horiz-adv-x="440" 
d="M235 531q38 0 69 -10t58.5 -33t42.5 -65t15 -101v-185q0 -23 -16.5 -35t-39 -19.5t-29.5 -15.5q-26 -34 -65.5 -50.5t-77.5 -16.5q-18 0 -38.5 4.5t-45 16.5t-43.5 30.5t-32 50t-13 71.5q0 78 52 130t148 52q23 0 109 -19q-2 49 -32 83t-80 34q-35 0 -63.5 -10.5
t-68.5 -35.5q-13 -9 -18 3q-5 9 7 21q39 41 86.5 70.5t74.5 29.5zM329 166v97q-75 16 -115 14q-41 -3 -72 -28.5t-31 -74.5q0 -41 26.5 -68.5t73.5 -27.5q37 0 77.5 27.5t40.5 60.5zM201 562q-41 20 -134 151l104 37q64 -116 115 -176q-3 -1 -6.5 -2.5t-15 -5t-21.5 -6
t-21.5 -2t-20.5 3.5z" />
    <glyph glyph-name="aacute" unicode="&#xe1;" horiz-adv-x="440" 
d="M235 531q38 0 69 -10t58.5 -33t42.5 -65t15 -101v-185q0 -23 -16.5 -35t-39 -19.5t-29.5 -15.5q-26 -34 -65.5 -50.5t-77.5 -16.5q-18 0 -38.5 4.5t-45 16.5t-43.5 30.5t-32 50t-13 71.5q0 78 52 130t148 52q23 0 109 -19q-2 49 -32 83t-80 34q-35 0 -63.5 -10.5
t-68.5 -35.5q-13 -9 -18 3q-5 9 7 21q39 41 86.5 70.5t74.5 29.5zM329 166v97q-75 16 -115 14q-41 -3 -72 -28.5t-31 -74.5q0 -41 27 -68.5t73 -27.5q37 0 77.5 27.5t40.5 60.5zM260 567q-8 -4 -19.5 -4.5t-22.5 2t-20.5 5.5t-15.5 5.5l-6 2.5q50 60 114 176l104 -37
q-92 -131 -134 -150z" />
    <glyph glyph-name="acircumflex" unicode="&#xe2;" horiz-adv-x="440" 
d="M235 531q38 0 69 -10t58.5 -33t42.5 -65t15 -101v-185q0 -23 -16.5 -35t-39 -19.5t-29.5 -15.5q-26 -34 -65.5 -50.5t-77.5 -16.5q-18 0 -38.5 4.5t-45 16.5t-43.5 30.5t-32 50t-13 71.5q0 78 52 130t148 52q23 0 109 -19q-2 49 -32 83t-80 34q-35 0 -63.5 -10.5
t-68.5 -35.5q-13 -9 -18 3q-5 9 7 21q39 41 86.5 70.5t74.5 29.5zM329 166v97q-75 16 -115 14q-41 -3 -72 -28.5t-31 -74.5q0 -41 26.5 -68.5t73.5 -27.5q37 0 77.5 27.5t40.5 60.5zM195 598q-14 -10 -35.5 -13.5t-36.5 -1.5l-14 2l77 111q16 17 52.5 16.5t50.5 -19.5
l85 -111q-30 -4 -53.5 0.5t-31.5 10.5l-9 6l-42 55z" />
    <glyph glyph-name="atilde" unicode="&#xe3;" horiz-adv-x="440" 
d="M235 531q38 0 69 -10t58.5 -33t42.5 -65t15 -101v-185q0 -23 -16.5 -35t-39 -19.5t-29.5 -15.5q-26 -34 -65.5 -50.5t-77.5 -16.5q-18 0 -38.5 4.5t-45 16.5t-43.5 30.5t-32 50t-13 71.5q0 78 52 130t148 52q23 0 109 -19q-2 49 -32 83t-80 34q-35 0 -63.5 -10.5
t-68.5 -35.5q-13 -9 -18 3q-5 9 7 21q19 20 41.5 38.5t44.5 32t42 21.5t33 8zM329 166v97q-75 16 -115 14q-41 -3 -72 -28.5t-31 -74.5q0 -41 26.5 -68.5t73.5 -27.5q37 0 77.5 27.5t40.5 60.5zM176 607q-8 -19 -66 5q11 80 65 81q10 0 24.5 -3.5t25.5 -7t23 -8t13 -5.5
q49 -16 57 0q5 10 22 11t31 -3l14 -5q-3 -22 -10 -38.5t-14 -24t-18.5 -11.5t-18 -5t-18.5 0q-9 0 -22 3.5t-23.5 7.5t-21.5 8.5t-15 5.5q-39 11 -48 -11z" />
    <glyph glyph-name="adieresis" unicode="&#xe4;" horiz-adv-x="440" 
d="M235 531q38 0 69 -10t58.5 -33t42.5 -65t15 -101v-185q0 -23 -16.5 -35t-39 -19.5t-29.5 -15.5q-26 -34 -65.5 -50.5t-77.5 -16.5q-18 0 -38.5 4.5t-45 16.5t-43.5 30.5t-32 50t-13 71.5q0 78 52 130t148 52q23 0 109 -19q-2 49 -32 83t-80 34q-35 0 -63.5 -10.5
t-68.5 -35.5q-13 -9 -18 3q-5 9 7 21q39 41 86.5 70.5t74.5 29.5zM329 166v97q-75 16 -115 14q-41 -3 -72 -28.5t-31 -74.5q0 -41 26.5 -68.5t73.5 -27.5q37 0 77.5 27.5t40.5 60.5zM145 603q-19 0 -32 13t-13 32t13 32.5t32 13.5t32.5 -13.5t13.5 -32.5t-13.5 -32
t-32.5 -13zM339 603q-19 0 -32.5 13t-13.5 32t13.5 32.5t32.5 13.5t32.5 -13.5t13.5 -32.5t-13.5 -32t-32.5 -13z" />
    <glyph glyph-name="aring" unicode="&#xe5;" horiz-adv-x="440" 
d="M235 531q38 0 69 -10t58.5 -33t42.5 -65t15 -101v-185q0 -23 -16.5 -35t-39 -19.5t-29.5 -15.5q-26 -34 -65.5 -50.5t-77.5 -16.5q-18 0 -38.5 4.5t-45 16.5t-43.5 30.5t-32 50t-13 71.5q0 78 52 130t148 52q23 0 109 -19q-2 49 -32 83t-80 34q-35 0 -63.5 -10.5
t-68.5 -35.5q-13 -9 -18 3q-5 9 7 21q39 41 86.5 70.5t74.5 29.5zM329 166v97q-75 16 -115 14q-41 -3 -72 -28.5t-31 -74.5q0 -41 26.5 -68.5t73.5 -27.5q37 0 77.5 27.5t40.5 60.5zM234.5 570q-41.5 0 -71 26.5t-29.5 64.5t29.5 64.5t71 26.5t70.5 -26.5t29 -64.5
t-29 -64.5t-70.5 -26.5zM235 720q-24 0 -41 -17.5t-17 -41.5q0 -16 8 -29.5t21 -21.5t29 -8q24 0 41 17.5t17 41.5t-17 41.5t-41 17.5z" />
    <glyph glyph-name="ae" unicode="&#xe6;" horiz-adv-x="824" 
d="M804 296q2 -25 -17.5 -44.5t-39 -27t-30.5 -8.5h-291q13 -56 51 -94t86 -44q35 -3 64 4.5t71 27.5q13 7 18 -3q3 -11 -9 -22q-43 -36 -93 -61t-78 -22q-27 3 -72 25.5t-79 63.5q-5 -2 -14 -5.5t-14.5 -5.5t-11.5 -5.5t-10 -7.5q-26 -34 -65.5 -50.5t-77.5 -16.5
q-18 0 -38.5 4.5t-45 16.5t-43.5 30.5t-32 50t-13 71.5q0 78 52 130t148 52q23 0 109 -19q-2 49 -32 83t-80 34q-35 0 -63.5 -10.5t-68.5 -35.5q-13 -9 -18 3q-5 9 7 21q39 41 86.5 70.5t74.5 29.5q119 0 163 -92q27 31 60.5 52t72.5 30.5t78 5.5q49 -4 86.5 -25t59.5 -54
t34 -70.5t15 -81.5zM329 166v97q-75 16 -115 14q-41 -3 -72 -28.5t-31 -74.5q0 -41 26.5 -68.5t73.5 -27.5q37 0 77.5 27.5t40.5 60.5zM708 295q7 68 -35.5 114t-102.5 42q-54 -4 -96.5 -49.5t-50.5 -107.5z" />
    <glyph glyph-name="ccedilla" unicode="&#xe7;" horiz-adv-x="473" 
d="M269 446q-68 0 -115.5 -65t-37.5 -148q5 -40 22.5 -72t40.5 -50t45.5 -27t41.5 -9q37 0 68 10t69 34q7 4 14 1.5t7 -9.5t-8 -17q-31 -32 -68.5 -57.5t-67.5 -36.5l-21 -41q2 -1 5.5 -2t12.5 -5.5t16.5 -10t15.5 -15t12.5 -20.5t4 -27t-7.5 -34q-11 -29 -36 -42.5
t-52.5 -12t-53.5 7.5t-43 13l-16 7q3 5 9 11t20 17t22 11q7 -1 31 -7.5t39 -3t21 23.5q5 14 -2.5 24t-21 15t-27.5 8.5t-24 7t-8 7.5l35 70q-24 7 -47 18t-50 31.5t-47 47.5t-33.5 68t-13.5 90q0 109 72.5 189t174.5 80q31 0 62 -9t52.5 -21t38.5 -24t25 -21l8 -9
q-1 -1 -2 -3t-5.5 -7.5t-9.5 -10t-12.5 -9.5t-15 -7t-17 -1.5t-18.5 5.5q-2 1 -18 10.5t-24 13.5t-25.5 8.5t-36.5 4.5z" />
    <glyph glyph-name="egrave" unicode="&#xe8;" horiz-adv-x="511" 
d="M237 562q-41 20 -134 151l104 37q64 -116 115 -176q-3 -1 -6.5 -2.5t-15 -5t-21.5 -6t-22 -2t-20 3.5zM490 320q6 -35 -26 -60.5t-52 -27.5l-290 -30q19 -54 60 -88t90 -36q35 1 63.5 11.5t67.5 35.5q13 8 19 -3q4 -9 -7 -21q-40 -41 -87 -70.5t-75 -29.5q-17 0 -42 6.5
t-59.5 25t-63 46t-48.5 75.5t-20 108q0 109 75.5 189t177.5 80q20 0 38.5 -3t34.5 -8.5t30.5 -13.5t26.5 -18t22.5 -21.5t19 -25t16 -28t13 -30t9.5 -31.5t7 -32zM111 280l284 30q0 67 -46.5 109t-106.5 32q-26 -5 -50 -20.5t-41.5 -38.5t-28 -52.5t-11.5 -59.5z" />
    <glyph glyph-name="eacute" unicode="&#xe9;" horiz-adv-x="511" 
d="M251 567q-29 -14 -85 11q51 60 115 176l104 -37q-93 -131 -134 -150zM490 320q6 -35 -26 -60.5t-52 -27.5l-290 -30q12 -36 35 -63.5t53 -43.5t62 -17q35 1 63.5 11.5t67.5 35.5q13 8 19 -3q4 -9 -7 -21q-40 -41 -87 -70.5t-75 -29.5q-17 0 -42 6.5t-59.5 25t-63 46
t-48.5 75.5t-20 108q0 109 75.5 189t177.5 80q49 0 88.5 -17.5t64.5 -47.5t41 -66.5t23 -79.5zM111 280l284 30q0 67 -46.5 109t-106.5 32q-35 -6 -65 -31t-47.5 -62t-18.5 -78z" />
    <glyph glyph-name="ecircumflex" unicode="&#xea;" horiz-adv-x="511" 
d="M204 591q-14 -10 -35.5 -13t-36 -2t-14.5 2l78 111q15 17 51.5 16.5t51.5 -19.5l84 -111q-29 -3 -52.5 1t-32.5 10l-8 6l-43 55zM490 320q6 -35 -26 -60.5t-52 -27.5l-290 -30q19 -54 60 -88t90 -36q35 1 63.5 11.5t67.5 35.5q13 8 19 -3q4 -9 -7 -21q-40 -41 -87 -70.5
t-75 -29.5q-17 0 -42 6.5t-59.5 25t-63 46t-48.5 75.5t-20 108q0 109 75.5 189t177.5 80q40 0 73 -11.5t57 -31t42 -47t28.5 -57.5t16.5 -64zM111 280l284 30q0 67 -46.5 109t-106.5 32q-54 -9 -91.5 -59t-39.5 -112z" />
    <glyph glyph-name="edieresis" unicode="&#xeb;" horiz-adv-x="511" 
d="M156 603q-19 0 -32 13t-13 32t13 32.5t32 13.5t32.5 -13.5t13.5 -32.5t-13.5 -32t-32.5 -13zM350 603q-19 0 -32.5 13t-13.5 32t13.5 32.5t32.5 13.5t32.5 -13.5t13.5 -32.5t-13.5 -32t-32.5 -13zM490 320q6 -35 -26 -60.5t-52 -27.5l-290 -30q19 -54 60 -88t90 -36
q35 1 63.5 11.5t67.5 35.5q13 8 19 -3q4 -9 -7 -21q-40 -41 -87 -70.5t-75 -29.5q-17 0 -42 6.5t-59.5 25t-63 46t-48.5 75.5t-20 108q0 109 75.5 189t177.5 80q49 0 88.5 -17.5t64.5 -47.5t41 -66.5t23 -79.5zM111 280l284 30q0 67 -46.5 109t-106.5 32q-26 -5 -50 -20.5
t-41.5 -38.5t-28 -52.5t-11.5 -59.5z" />
    <glyph glyph-name="igrave" unicode="&#xec;" horiz-adv-x="298" 
d="M258 574q-2 -1 -6 -2.5t-15 -5t-21 -6t-22 -2t-20 3.5q-42 20 -134 151l104 37q64 -116 114 -176zM160 455q0 20 9.5 35.5t22 23t27.5 12t22.5 5.5t9.5 1v-454q0 -20 -9.5 -35t-23 -22.5t-26.5 -12.5t-23 -6h-9v453z" />
    <glyph glyph-name="iacute" unicode="&#xed;" horiz-adv-x="298" 
d="M154 756l104 -36q-92 -131 -134 -151q-16 -6 -34.5 -3.5t-34.5 8.5l-15 6q50 60 114 176zM73 455q0 20 9.5 35.5t22 23t27.5 12t22.5 5.5t9.5 1v-454q0 -20 -9.5 -35t-23 -22.5t-27 -12.5t-22.5 -6h-9v453z" />
    <glyph glyph-name="icircumflex" unicode="&#xee;" horiz-adv-x="345" 
d="M221 686l84 -111q-30 -3 -53 1t-32 10l-9 6l-42 55l-43 -56q-14 -10 -35.5 -13t-36.5 -2l-14 2l77 111q16 17 52.5 16.5t51.5 -19.5zM127 455q0 20 9.5 35.5t22 23t27.5 12t22.5 5.5t9.5 1v-454q0 -20 -9.5 -35t-22.5 -22.5t-26.5 -12.5t-23.5 -6h-9v453z" />
    <glyph glyph-name="idieresis" unicode="&#xef;" horiz-adv-x="365" 
d="M86 694q19 0 32 -13.5t13 -32.5t-13 -32t-32 -13t-32.5 13t-13.5 32t13.5 32.5t32.5 13.5zM279 603q-19 0 -32 13t-13 32t13 32.5t32 13.5t32.5 -13.5t13.5 -32.5t-13.5 -32t-32.5 -13zM119 455q0 20 9 35.5t22.5 23t27 12t23.5 5.5l9 1v-454q0 -20 -9.5 -35t-23 -22.5
t-27 -12.5t-22.5 -6h-9v453z" />
    <glyph glyph-name="ntilde" unicode="&#xf1;" 
d="M159 607q-1 -4 -6 -6t-10.5 -1.5t-12.5 1.5t-13.5 3t-11.5 3.5t-8 3.5l-4 1q11 80 66 81q9 0 23.5 -3.5t25.5 -7t23.5 -8t12.5 -5.5q50 -16 57 0q5 10 22 11t31 -3l14 -5q-3 -28 -11.5 -45.5t-21.5 -24.5t-22 -8.5t-24 -0.5q-12 0 -29 5t-33 12t-19 8q-40 11 -49 -11z
M279 530q70 0 119.5 -56.5t49.5 -149.5v-323q-3 0 -9.5 1t-22 5.5t-27.5 12t-22 23t-10 35.5v237q0 24 -5.5 46t-17 43.5t-36 34.5t-58.5 13q-49 0 -79 -36.5t-30 -73.5v-264q0 -20 -9.5 -35.5t-22.5 -23t-26.5 -12t-23.5 -5.5l-9 -1v388q0 14 11 24.5t24.5 15.5t28.5 11.5
t21 13.5q27 42 64 59t90 17z" />
    <glyph glyph-name="ograve" unicode="&#xf2;" horiz-adv-x="533" 
d="M238 562q-42 20 -134 151l104 37q64 -116 114 -176q-2 -1 -6 -2.5t-15 -5t-21 -6t-22 -2t-20 3.5zM266.5 531q102.5 0 174.5 -77.5t72 -187.5t-72 -188t-174.5 -78t-174.5 78t-72 188t72 187.5t174.5 77.5zM267 80q42 0 77.5 24.5t56.5 67.5t21 93.5t-21 93.5t-56.5 68
t-77.5 25q-65 0 -110.5 -54.5t-45.5 -131.5t45.5 -131.5t110.5 -54.5z" />
    <glyph glyph-name="oacute" unicode="&#xf3;" horiz-adv-x="533" 
d="M249 569q-5 -3 -13 -4t-16 0t-16 2.5t-15 4t-12.5 4.5t-8.5 3l-3 1q50 60 115 176l103 -36q-92 -131 -134 -151zM266.5 531q102.5 0 174.5 -77.5t72 -187.5t-72 -188t-174.5 -78t-174.5 78t-72 188t72 187.5t174.5 77.5zM267 80q42 0 77.5 24.5t56.5 67.5t21 94
q0 77 -45.5 131.5t-110 54.5t-110 -54.5t-45.5 -131.5t45.5 -131.5t110.5 -54.5z" />
    <glyph glyph-name="ocircumflex" unicode="&#xf4;" horiz-adv-x="533" 
d="M220 591q-14 -10 -35.5 -13t-36 -2t-14.5 2l77 111q16 17 52.5 16.5t51.5 -19.5l84 -111q-30 -3 -53 1t-32 10l-9 6l-42 55zM266.5 531q102.5 0 174.5 -77.5t72 -187.5t-72 -188t-174.5 -78t-174.5 78t-72 188t72 187.5t174.5 77.5zM267 80q42 0 77.5 24.5t56.5 67.5
t21 94q0 77 -45.5 131.5t-110 54.5t-110 -54.5t-45.5 -131.5t45.5 -131.5t110.5 -54.5z" />
    <glyph glyph-name="otilde" unicode="&#xf5;" horiz-adv-x="533" 
d="M179 607q-3 -6 -13 -7.5t-23.5 2.5t-19.5 6t-10 4q11 80 65 81q8 0 18.5 -2t21.5 -5.5t19.5 -6.5t16.5 -6t10 -4q49 -16 57 0q3 6 11 9t17.5 2.5t18 -2.5t14.5 -4l6 -2q-4 -28 -12.5 -45.5t-21.5 -24.5t-22 -8.5t-23 -0.5q-12 0 -29 5t-33 12t-20 8q-39 11 -48 -11z
M266.5 531q102.5 0 174.5 -77.5t72 -187.5t-72 -188t-174.5 -78t-174.5 78t-72 188t72 187.5t174.5 77.5zM266.5 80q64.5 0 110 54.5t45.5 131.5t-45.5 131.5t-110 54.5t-110 -54.5t-45.5 -131.5t45.5 -131.5t110 -54.5z" />
    <glyph glyph-name="odieresis" unicode="&#xf6;" horiz-adv-x="533" 
d="M168 603q-19 0 -32.5 13.5t-13.5 32.5t13.5 32.5t32.5 13.5t32 -13.5t13 -32.5t-13 -32.5t-32 -13.5zM361.5 603q-18.5 0 -32 13.5t-13.5 32.5t13.5 32.5t32 13.5t32 -13.5t13.5 -32.5t-13.5 -32.5t-32 -13.5zM266.5 531q102.5 0 174.5 -77.5t72 -187.5t-72 -188
t-174.5 -78t-174.5 78t-72 188t72 187.5t174.5 77.5zM266.5 80q64.5 0 110 54.5t45.5 131.5t-45.5 131.5t-110 54.5t-110 -54.5t-45.5 -131.5t45.5 -131.5t110 -54.5z" />
    <glyph glyph-name="oslash" unicode="&#xf8;" horiz-adv-x="758" 
d="M556 545l-79 -98q66 -77 66 -182q0 -109 -72 -187t-174 -78q-70 0 -129 39l-12 -15q-20 -15 -54 -20.5t-58 -3.5l-24 2l79 105q-49 70 -49 158q0 110 72.5 188t174.5 78q55 0 104 -25l15 18q15 19 35 28t37.5 8.5t33 -3.5t25.5 -8zM157 183l194 257q-26 12 -54 12
q-32 0 -60.5 -15t-49.5 -40t-33 -59.5t-12 -72.5q0 -43 15 -82zM297 79q64 0 109.5 54.5t45.5 131.5q0 61 -30 110l-204 -270q36 -26 79 -26z" />
    <glyph glyph-name="ugrave" unicode="&#xf9;" 
d="M215 562q-41 20 -134 151l104 37q64 -116 115 -176q-3 -1 -6.5 -2.5t-15 -5t-21.5 -6t-21.5 -2t-20.5 3.5zM357 458q0 20 9.5 35t23 22.5t26.5 12t23 5.5l9 1v-390q0 -18 -16.5 -29t-39 -19.5t-29.5 -16.5q-27 -41 -63.5 -58.5t-90.5 -17.5q-70 0 -119.5 56.5
t-49.5 149.5v325q4 0 10 -1t22 -5.5t28 -12t21.5 -22.5t9.5 -35v-239q0 -24 5.5 -46t17.5 -44t36 -35t58 -13q49 1 79 37.5t30 72.5v267z" />
    <glyph glyph-name="uacute" unicode="&#xfa;" 
d="M247 569q-16 -6 -35 -3.5t-34 8.5l-15 6q50 60 114 176l104 -36q-92 -131 -134 -151zM357 458q0 20 9.5 35t22 22.5t27.5 12t22.5 5.5t9.5 1v-390q0 -18 -16.5 -29t-39 -19.5t-29.5 -16.5q-27 -41 -63.5 -58.5t-90.5 -17.5q-70 0 -119.5 56.5t-49.5 149.5v325q4 0 10 -1
t22 -5.5t28 -12t21.5 -22.5t9.5 -35v-239q0 -24 5.5 -46t17.5 -44t36 -35t58 -13q49 1 79 37.5t30 72.5v267z" />
    <glyph glyph-name="ucircumflex" unicode="&#xfb;" 
d="M211 591q-14 -10 -35.5 -13t-36 -2t-14.5 2l77 111q16 17 52.5 16.5t50.5 -19.5l85 -111q-30 -3 -53.5 1t-31.5 10l-9 6l-42 55zM357 458q0 20 9.5 35t22 22.5t27.5 12t22.5 5.5t9.5 1v-390q0 -18 -16.5 -29t-39 -19.5t-29.5 -16.5q-27 -41 -63.5 -58.5t-90.5 -17.5
q-70 0 -119.5 56.5t-49.5 149.5v325q4 0 10 -1t22 -5.5t28 -12t21.5 -22.5t9.5 -35v-239q0 -19 3 -36.5t11 -36.5t20.5 -33t34 -23t48.5 -9q49 1 79 37.5t30 72.5v267z" />
    <glyph glyph-name="udieresis" unicode="&#xfc;" 
d="M155 603q-19 0 -32.5 13.5t-13.5 32.5t13.5 32.5t32.5 13.5t32.5 -13.5t13.5 -32.5t-13.5 -32.5t-32.5 -13.5zM349 603q-19 0 -32.5 13.5t-13.5 32.5t13.5 32.5t32.5 13.5t32 -13.5t13 -32.5t-13 -32.5t-32 -13.5zM357 458q0 20 9.5 35t22 22.5t27.5 12t22.5 5.5t9.5 1
v-390q0 -18 -16.5 -29t-39 -19.5t-29.5 -16.5q-27 -41 -63.5 -58.5t-90.5 -17.5q-70 0 -119.5 56.5t-49.5 149.5v325q4 0 10 -1t22 -5.5t28 -12t21.5 -22.5t9.5 -35v-239q0 -24 5.5 -46t17.5 -44t36 -35t58 -13q49 1 79 37.5t30 72.5v267z" />
    <glyph glyph-name="thorn" unicode="&#xfe;" horiz-adv-x="532" 
d="M265 529q113 0 180 -78t67 -191q0 -105 -70.5 -183t-156.5 -78q-53 0 -89.5 14t-64.5 52v-191q0 -14 -5 -25.5t-13 -18.5t-17.5 -12.5t-19.5 -8.5t-18 -4.5t-13 -2.5h-5v950q4 0 10 -1t22 -6t28 -12t21.5 -22.5t9.5 -35.5v-206q35 35 65 47.5t69 12.5zM266 77
q64 0 109 54t45 129q0 80 -42.5 135.5t-112.5 55.5q-48 0 -91 -38.5t-43 -98.5v-107q0 -16 8.5 -37.5t24 -42.5t43 -35.5t59.5 -14.5z" />
    <glyph glyph-name="oe" unicode="&#x153;" horiz-adv-x="918" 
d="M898 292q1 -24 -18.5 -43.5t-39.5 -27t-30 -7.5l-291 3q6 -28 19 -52t30.5 -42.5t39.5 -30.5t46 -15q34 -3 63.5 4t71.5 27q14 7 18 -4q4 -10 -9 -21q-44 -36 -94 -60t-78 -21q-30 3 -79 30t-82 76q-23 -33 -53.5 -57t-67.5 -37.5t-77 -13.5q-103 0 -175 78t-72 188
t72 187.5t175 77.5q63 0 117 -32t88 -86q40 59 103 90t131 23q39 -4 71 -19.5t53 -37.5t36 -51t22.5 -60t9.5 -66zM267 80q42 0 77.5 24.5t56.5 67.5t21 94q0 77 -45.5 131.5t-110 54.5t-110 -54.5t-45.5 -131.5t45.5 -131.5t110.5 -54.5zM801 293q5 44 -12.5 81.5t-50.5 58
t-72 17.5q-55 -3 -98 -48t-52 -107z" />
    <glyph glyph-name="Ydieresis" unicode="&#x178;" horiz-adv-x="590" 
d="M396 761q-19 0 -32 13.5t-13 32.5t13 32.5t32 13.5t32.5 -13.5t13.5 -32.5t-13.5 -32.5t-32.5 -13.5zM539 710h31l-229 -365v-273q0 -19 -9.5 -33t-23 -21t-27 -11.5t-22.5 -5.5l-10 -1v345l-229 365h26q65 0 85 -30l156 -248l153 243q24 35 99 35zM199 761
q-19 0 -32.5 13.5t-13.5 32.5t13.5 32.5t32.5 13.5t32.5 -13.5t13.5 -32.5t-13.5 -32.5t-32.5 -13.5z" />
    <glyph glyph-name="Ygrave" unicode="&#x1ef2;" horiz-adv-x="590" 
d="M539 710h31l-229 -365v-273q0 -19 -9.5 -33t-23 -21t-27 -11.5t-22.5 -5.5l-10 -1v345l-229 365h26q65 0 85 -30l156 -248l153 243q24 35 99 35zM232 743q-41 20 -134 151l104 37q64 -116 115 -176q-3 -1 -6.5 -3t-15 -5.5t-21.5 -5.5t-22 -2t-20 4z" />
    <glyph glyph-name="Euro" unicode="&#x20ac;" horiz-adv-x="665" 
d="M624 122q13 8 19 -2t-6 -23q-40 -41 -93 -70t-95 -29h-17.5h-26t-31 1.5t-36.5 5.5t-38.5 12t-40 19t-37 28.5t-34.5 39.5t-28 53t-21 67h-49q-20 0 -34.5 8.5t-21 20t-10 23t-4.5 19.5v8h109q-1 11 -1 39v33h-108q0 3 0.5 8.5t4 19t10 24t21 18.5t34.5 8h51
q18 63 53.5 113t88 82t112.5 37q48 3 86 1t66 -8t46 -12t27 -11l9 -4q0 -2 -1.5 -4.5t-5.5 -10t-8.5 -13t-12 -13.5t-15.5 -11t-18.5 -5t-21.5 3q-20 8 -60 8.5t-89 -8.5q-47 -8 -90.5 -47.5t-67.5 -96.5h366q0 -3 -0.5 -8t-4 -18.5t-10 -24t-21 -19t-34.5 -8.5h-315
q-3 -31 2 -72h313q14 0 26 -4.5t19 -11.5t12.5 -15t7.5 -16.5t3.5 -15.5t1.5 -11v-5h-364q13 -34 34 -61t46 -42t47.5 -25t48 -14t38.5 -4.5t28 -0.5q69 0 141 45z" />
    <glyph glyph-name="l.alt1" unicode="&#xf006;" horiz-adv-x="171" 
d="M131 751v-674q0 -20 -9 -35.5t-22.5 -23t-27 -12t-23.5 -5.5l-9 -1v674q0 20 9.5 35.5t23 23t27 12t22.5 5.5z" />
    </font>
</defs>
</svg>
